<svg xmlns="http://www.w3.org/2000/svg" width="33" height="33" viewBox="0 0 33 33" xmlns:xlink="http://www.w3.org/1999/xlink">
  <defs>
    <polygon id="a" points="0 19.961 19.82 19.961 19.82 .151 0 .151"/>
  </defs>
  <g fill="none" fill-rule="evenodd" transform="translate(6.5 6.47)">
    <polyline fill="#FFFFFF" points="8.159 9.229 9.013 11.778 11.661 10.891 10.807 8.342 8.159 9.229"/>
    <mask id="b" fill="white">
      <use xlink:href="#a"/>
    </mask>
    <polyline fill="#FFFFFF" points="8.159 9.229 9.013 11.778 11.661 10.891 10.807 8.342 8.159 9.229" mask="url(#b)"/>
    <path fill="#FFFFFF" d="M15.5455304,11.7572157 L14.261415,12.1872089 L14.7064651,13.515861 C14.8866724,14.0539468 14.596629,14.6362524 14.0585432,14.8163012 C13.9415749,14.8556076 13.8223877,14.8725664 13.7058948,14.8693966 C13.2862037,14.858619 12.8991623,14.5894968 12.7582615,14.1685377 L12.3132113,12.8397272 L9.66509984,13.726499 L10.1101499,15.0553096 C10.2903572,15.5932369 10.0003139,16.1755425 9.462228,16.3557498 C9.3452597,16.3948977 9.22623099,16.4118565 9.10957968,16.4088452 C8.69004705,16.3979091 8.30300561,16.1287869 8.16194628,15.7078278 L7.71689618,14.3790173 L6.43262233,14.809169 C6.31549554,14.8483169 6.19646682,14.8652757 6.07981551,14.8622643 C5.66028288,14.8513283 5.27324145,14.5822061 5.13218212,14.161247 C4.95197487,13.6231612 5.2421767,13.0410141 5.78010406,12.8608068 L7.06437792,12.4308136 L6.21057275,9.88191912 L4.92645739,10.3119123 C4.8094891,10.3510603 4.69030189,10.3680191 4.57365058,10.3650077 C4.15427644,10.3540716 3.76707651,10.0849495 3.62617568,9.66399038 C3.44596843,9.12590452 3.73601176,8.54375743 4.27409763,8.36355018 L5.55805449,7.93355697 L5.11300439,6.6047464 C4.93279714,6.06681904 5.22284047,5.48467195 5.76092634,5.3043062 C6.2990122,5.12425744 6.88115929,5.41430077 7.06120805,5.95222814 L7.50625815,7.28103871 L10.1543697,6.39426687 L9.70931956,5.0654563 C9.52911231,4.52737044 9.81931414,3.94522335 10.3572415,3.7650161 C10.8951689,3.58480884 11.4774745,3.87501067 11.6576817,4.41293804 L12.1027318,5.74174861 L13.3868472,5.3115969 C13.9250915,5.13154815 14.5070801,5.42159148 14.6872874,5.95951885 C14.8674946,6.49760471 14.5772928,7.0797518 14.0393654,7.25995906 L12.7552501,7.68995226 L13.6088967,10.2390053 L14.8931706,9.80885356 C15.4312565,9.6288048 16.0134036,9.91884813 16.1934523,10.4567755 C16.3736596,10.9947029 16.0836162,11.5770085 15.5455304,11.7572157 L15.5455304,11.7572157 Z M18.9900724,7.33619449 C16.946931,0.526040346 13.9957797,-1.06301675 7.18562554,0.980124586 C0.375471401,3.02326593 -1.2135857,5.97441725 0.829555641,12.7845714 C2.87269698,19.5947255 5.82384831,21.1837826 12.6340024,19.1406413 C19.4441566,17.0975 21.0332137,14.1463486 18.9900724,7.33619449 L18.9900724,7.33619449 Z" mask="url(#b)"/>
  </g>
</svg>
