<svg xmlns="http://www.w3.org/2000/svg" width="33" height="33" viewBox="0 0 33 33">
  <g fill="#FFFFFF" fill-rule="evenodd" transform="translate(6.9 6.422)">
    <path d="M9.98904563,17.3674689 C5.92614108,17.3674689 2.63253112,14.0738589 2.63253112,10.0110373 C2.63253112,5.94813278 5.92614108,2.65452282 9.98904563,2.65452282 C14.0518672,2.65452282 17.3454772,5.94813278 17.3454772,10.0110373 C17.3454772,14.0738589 14.0518672,17.3674689 9.98904563,17.3674689 L9.98904563,17.3674689 L9.98904563,17.3674689 Z M9.98904563,0.0219917013 C4.47228216,0.0219917013 0,4.49427386 0,10.0110373 C0,15.5278009 4.47228216,20 9.98904563,20 C15.5058091,20 19.9780083,15.5278009 19.9780083,10.0110373 C19.9780083,4.49427386 15.5058091,0.0219917013 9.98904563,0.0219917013 L9.98904563,0.0219917013 L9.98904563,0.0219917013 Z"/>
    <path d="M10.399668 7.52323652C10.399668 6.37618257 11.3296266 5.44622406 12.4766805 5.44622406 13.6238174 5.44622406 14.553693 6.37618257 14.553693 7.52323652 14.553693 8.67037344 13.6238174 9.60024898 12.4766805 9.60024898 11.3296266 9.60024898 10.399668 8.67037344 10.399668 7.52323652M10.399668 12.4986722C10.399668 11.3516183 11.3296266 10.4216598 12.4766805 10.4216598 13.6238174 10.4216598 14.553693 11.3516183 14.553693 12.4986722 14.553693 13.6458091 13.6238174 14.5756846 12.4766805 14.5756846 11.3296266 14.5756846 10.399668 13.6458091 10.399668 12.4986722M5.42431535 12.4986722C5.42431535 11.3516183 6.35427386 10.4216598 7.5013278 10.4216598 8.64846477 10.4216598 9.57834023 11.3516183 9.57834023 12.4986722 9.57834023 13.6458091 8.64846477 14.5756846 7.5013278 14.5756846 6.35427386 14.5756846 5.42431535 13.6458091 5.42431535 12.4986722M5.42431535 7.5233195C5.42431535 6.37618257 6.35427386 5.44630705 7.5013278 5.44630705 8.64846477 5.44630705 9.57834023 6.37618257 9.57834023 7.5233195 9.57834023 8.67045641 8.64846477 9.60033195 7.5013278 9.60033195 6.35427386 9.60033195 5.42431535 8.67045641 5.42431535 7.5233195"/>
  </g>
</svg>
