<svg xmlns="http://www.w3.org/2000/svg" width="33" height="33" viewBox="0 0 33 33">
  <g fill="#FFFFFF" fill-rule="evenodd" transform="translate(6.646 5.298)">
    <path d="M9.33909625,8.41027138 C8.51016594,9.90282971 7.71598673,11.3482389 6.90528145,12.7827295 C6.69708356,13.1509887 6.59406576,13.4509231 6.76040784,13.9191054 C7.21958613,15.212314 6.57182504,16.4707813 5.35429985,16.8124054 C4.20612248,17.1346736 3.08744495,16.3263561 2.85963198,15.0096556 C2.65776652,13.8441631 3.50214178,12.7016661 4.70175083,12.5195217 C4.80229744,12.5041362 4.90485188,12.5023164 5.07381961,12.4887507 C5.6616543,11.4329418 6.26385279,10.3514905 6.89864012,9.21114418 C5.75092609,7.98874191 5.06779608,6.55971077 5.21900211,4.7890555 C5.32588115,3.53737112 5.78536833,2.45575436 6.62526455,1.56918596 C8.23385578,-0.1285123 10.6879034,-0.403465965 12.5819173,0.89966882 C14.4010232,2.15135319 15.2341237,4.58954038 14.523965,6.67634274 C13.9884887,6.52083345 13.4493055,6.36400067 12.8565285,6.1917824 C13.0795535,5.03158382 12.9146015,3.98967156 12.1840555,3.09714747 C11.7014009,2.50786652 11.0820585,2.19899859 10.3777689,2.08517903 C8.96594633,1.85671271 7.57976229,2.82831492 7.16846335,4.31260149 C6.70156259,5.99723035 7.40816893,7.37332216 9.33909625,8.41027138 L9.33909625,8.41027138 L9.33909625,8.41027138 Z"/>
    <path d="M11.7063433,6.64524088 C12.2903167,7.74869512 12.8832483,8.86885833 13.4709285,9.97876452 C16.4413008,8.99442385 18.6808181,10.7556493 19.4842642,12.6412822 C20.4546703,14.918997 19.7913098,17.6167524 17.8854033,19.0219608 C15.9291463,20.4645577 13.4551747,20.2180588 11.7219427,18.3650167 C12.1636682,17.9689644 12.6075559,17.5710922 13.0818703,17.1460886 C14.7937882,18.3337495 16.2910214,18.2778323 17.4025943,16.8714658 C18.3504507,15.6717281 18.3299089,13.882875 17.3545605,12.7082835 C16.2289327,11.3528711 14.721197,11.3115123 12.8986932,12.6126618 C12.142663,11.1760207 11.3735047,9.75079456 10.6414141,8.30373095 C10.3946039,7.81602733 10.1220006,7.53313277 9.56567359,7.42990107 C8.63650555,7.25735192 8.03662383,6.40271256 8.00063711,5.44517236 C7.9652682,4.49822003 8.4860718,3.64225718 9.300175,3.30873937 C10.1065556,2.97836485 11.0528676,3.24504674 11.5952941,3.97941456 C12.0385641,4.57944882 12.179422,5.25475619 11.9462033,5.99474882 C11.8813345,6.20104679 11.7973141,6.40072733 11.7063433,6.64524088 L11.7063433,6.64524088 L11.7063433,6.64524088 Z"/>
    <path d="M13.1021032,15.6661033 L9.52628898,15.6661033 C9.18356562,17.1760324 8.4432893,18.395126 7.1676911,19.1703564 C6.17612549,19.7728721 5.10733514,19.9771849 3.96981478,19.7804822 C1.87547994,19.4186749 0.162944193,17.3992048 0.0122015083,15.1251295 C-0.158465159,12.5491346 1.49460754,10.259343 3.69798371,9.74500427 C3.85011644,10.3367668 4.00379366,10.9341541 4.1559264,11.5244277 C2.13433726,12.6292054 1.43468115,14.021179 2.00042956,15.761725 C2.49852911,17.2934915 3.91328627,18.1330763 5.44944073,17.8083266 C7.01818402,17.476794 7.80911976,16.0803536 7.71258884,13.8392 C9.19978281,13.8392 10.6882123,13.8226565 12.1755608,13.8473064 C12.7562908,13.857067 13.2046576,13.7925472 13.642213,13.2441288 C14.3625653,12.3416787 15.6883596,12.4230729 16.4641593,13.2753962 C17.2569484,14.1464136 17.2189538,15.5479824 16.3799843,16.3822733 C15.5705146,17.187282 14.291673,17.1442688 13.5344073,16.2768909 C13.3787222,16.0980552 13.2560893,15.8858016 13.1021032,15.6661033 L13.1021032,15.6661033 L13.1021032,15.6661033 Z"/>
  </g>
</svg>
