<svg xmlns="http://www.w3.org/2000/svg" width="36" height="36" viewBox="0 0 36 36">
  <g fill="none" fill-rule="evenodd">
    <path fill="#FFFFFF" d="M42.3476563,3.5 C42.3606771,2.80989238 42.6113257,2.22070557 43.0996094,1.73242188 C43.5878931,1.24413818 44.1770799,1 44.8671875,1 L57.2890625,1 C57.9661492,1 58.5488257,1.24413818 59.0371094,1.73242188 C59.5253931,2.22070557 59.7695313,2.81640273 59.7695313,3.51953125 L59.7695313,13.5 C59.7695313,14.1901076 59.5253931,14.7825496 59.0371094,15.2773438 C58.5488257,15.7721379 57.9596389,16.0195312 57.2695313,16.0195312 L54.7695313,16.0195312 L51.0195313,21 L47.2695313,16.0195312 L44.7109375,16.0195312 C44.0338508,16.0195312 43.4511743,15.7721379 42.9628906,15.2773438 C42.4746069,14.7825496 42.2369791,14.196618 42.25,13.5195312 L42.3476563,3.5 Z M57.2890625,2.25 L44.8671875,2.25 C44.5156232,2.25 44.2161471,2.37369668 43.96875,2.62109375 C43.7213529,2.86849082 43.5976563,3.16145664 43.5976563,3.5 L43.5,13.5195312 C43.5,13.8580746 43.6171863,14.1510404 43.8515625,14.3984375 C44.0859387,14.6458346 44.3723941,14.7695312 44.7109375,14.7695312 L47.8945313,14.7695312 L51.0195313,19.125 L54.1445313,14.7695312 L57.2695313,14.7695312 C57.6210955,14.7695312 57.9173165,14.6458346 58.1582031,14.3984375 C58.3990897,14.1510404 58.5195313,13.8515643 58.5195313,13.5 L58.5195313,3.51953125 C58.5195313,3.16796699 58.3990897,2.86849082 58.1582031,2.62109375 C57.9173165,2.37369668 57.6276059,2.25 57.2890625,2.25 L57.2890625,2.25 Z M52.25,7.25 L54.75,7.25 L54.75,9.75 L52.25,9.75 L52.25,12.25 L49.75,12.25 L49.75,9.75 L47.25,9.75 L47.25,7.25 L49.75,7.25 L49.75,4.75 L52.25,4.75 L52.25,7.25 Z" transform="translate(-33 8)"/>
  </g>
</svg>
