<svg xmlns="http://www.w3.org/2000/svg" width="36" height="36" viewBox="0 0 36 36">
  <g fill="none" fill-rule="evenodd">
    <path fill="#FFFFFF" d="M12.9000001,8.11999989 L16.1421876,8.11999989 C16.6630235,8.11999989 17.0861964,8.2664828 17.4117188,8.55945301 C17.7372413,8.85242323 17.9000001,9.24629949 17.9000001,9.74109364 L17.9000001,10.3270311 C17.9000001,10.8088044 17.7372413,11.1864048 17.4117188,11.4598436 C17.0861964,11.7332825 16.6630235,11.8699999 16.1421876,11.8699999 L12.9000001,11.8699999 L12.9000001,15.1121874 C12.9000001,15.6330233 12.7632827,16.0561962 12.4898438,16.3817186 C12.216405,16.7072411 11.8388046,16.8699999 11.3570313,16.8699999 L10.7710938,16.8699999 C10.2762997,16.8699999 9.88242344,16.7072411 9.58945322,16.3817186 C9.29648301,16.0561962 9.1500001,15.6330233 9.1500001,15.1121874 L9.1500001,11.8699999 L5.96640635,11.8699999 C5.44557041,11.8699999 5.01263203,11.7332825 4.66757822,11.4598436 C4.32252441,11.1864048 4.1500001,10.8088044 4.1500001,10.3270311 L4.1500001,9.74109364 C4.1500001,9.25932039 4.32577959,8.8686993 4.67734385,8.56921864 C5.0289081,8.26973797 5.45859131,8.11999989 5.96640635,8.11999989 L9.1500001,8.11999989 L9.1500001,4.93640614 C9.1500001,4.4285911 9.29973818,3.99890789 9.59921885,3.64734364 C9.89869951,3.29577938 10.2893206,3.11999989 10.7710938,3.11999989 L11.3570313,3.11999989 C11.8388046,3.11999989 12.216405,3.2925242 12.4898438,3.63757801 C12.7632827,3.98263182 12.9000001,4.4155702 12.9000001,4.93640614 L12.9000001,8.11999989 Z" transform="translate(7 8)"/>
  </g>
</svg>
