<svg xmlns="http://www.w3.org/2000/svg" width="36" height="36" viewBox="0 0 36 36">
  <g fill="none" fill-rule="evenodd">
    <path fill="#FFFFFF" d="M121,1003.76953 C121,1002.71484 121.367835,1001.82292 122.103516,1001.09375 C122.839196,1000.36458 123.727859,1000 124.769531,1000 L137.230469,1000 C138.285162,1000 139.17708,1000.36783 139.90625,1001.10352 C140.63542,1001.8392 141,1002.72786 141,1003.76953 L141,1016.23047 C141,1017.28516 140.632165,1018.17708 139.896484,1018.90625 C139.160804,1019.63542 138.272141,1020 137.230469,1020 L124.769531,1020 C123.714838,1020 122.82292,1019.63217 122.09375,1018.89648 C121.36458,1018.1608 121,1017.27214 121,1016.23047 L121,1003.76953 Z M137.230469,1001.25 L124.769531,1001.25 C124.066403,1001.25 123.470706,1001.49414 122.982422,1001.98242 C122.494138,1002.47071 122.25,1003.0664 122.25,1003.76953 L122.25,1016.23047 C122.25,1016.9336 122.494138,1017.52929 122.982422,1018.01758 C123.470706,1018.50586 124.066403,1018.75 124.769531,1018.75 L137.230469,1018.75 C137.933597,1018.75 138.529294,1018.50586 139.017578,1018.01758 C139.505862,1017.52929 139.75,1016.9336 139.75,1016.23047 L139.75,1003.76953 C139.75,1003.0664 139.505862,1002.47071 139.017578,1001.98242 C138.529294,1001.49414 137.933597,1001.25 137.230469,1001.25 L137.230469,1001.25 Z M126,1015 L126,1013.75 L127.25,1013.75 L127.25,1015 L126,1015 Z M126,1011.25 L126,1010 L127.25,1010 L127.25,1011.25 L126,1011.25 Z M126,1007.5 L126,1006.25 L127.25,1006.25 L127.25,1007.5 L126,1007.5 Z M128.5,1015 L128.5,1013.75 L136,1013.75 L136,1015 L128.5,1015 Z M128.5,1011.25 L128.5,1010 L136,1010 L136,1011.25 L128.5,1011.25 Z M128.5,1007.5 L128.5,1006.25 L136,1006.25 L136,1007.5 L128.5,1007.5 Z" transform="translate(-113 -992)"/>
  </g>
</svg>
