<svg xmlns="http://www.w3.org/2000/svg" width="36" height="36" viewBox="0 0 36 36">
  <g fill="none" fill-rule="evenodd">
    <path fill="#FFFFFF" d="M121,923.769531 C121,922.714838 121.367835,921.82292 122.103516,921.09375 C122.839196,920.36458 123.727859,920 124.769531,920 L137.230469,920 C138.285162,920 139.17708,920.367835 139.90625,921.103516 C140.63542,921.839196 141,922.727859 141,923.769531 L141,936.230469 C141,937.285162 140.632165,938.17708 139.896484,938.90625 C139.160804,939.63542 138.272141,940 137.230469,940 L124.769531,940 C123.714838,940 122.82292,939.632165 122.09375,938.896484 C121.36458,938.160804 121,937.272141 121,936.230469 L121,923.769531 Z M137.230469,921.25 L124.769531,921.25 C124.066403,921.25 123.470706,921.494138 122.982422,921.982422 C122.494138,922.470706 122.25,923.066403 122.25,923.769531 L122.25,936.230469 C122.25,936.933597 122.494138,937.529294 122.982422,938.017578 C123.470706,938.505862 124.066403,938.75 124.769531,938.75 L137.230469,938.75 C137.933597,938.75 138.529294,938.505862 139.017578,938.017578 C139.505862,937.529294 139.75,936.933597 139.75,936.230469 L139.75,923.769531 C139.75,923.066403 139.505862,922.470706 139.017578,921.982422 C138.529294,921.494138 137.933597,921.25 137.230469,921.25 L137.230469,921.25 Z M127.25,933.75 L127.25,932.5 L128.5,932.5 L128.5,933.75 L127.25,933.75 Z M132.25,933.75 L132.25,932.5 L137.25,932.5 L137.25,933.75 L132.25,933.75 Z M134.75,927.5 L134.75,925 L133.5,925 L133.5,927.5 L134.75,927.5 Z M130.082031,930.917969 C130.694013,931.529951 131,932.265621 131,933.125 C131,933.984379 130.694013,934.720049 130.082031,935.332031 C129.470049,935.944013 128.734379,936.25 127.875,936.25 C127.015621,936.25 126.279951,935.944013 125.667969,935.332031 C125.055987,934.720049 124.75,933.984379 124.75,933.125 C124.75,932.265621 125.055987,931.529951 125.667969,930.917969 C126.279951,930.305987 127.015621,930 127.875,930 C128.734379,930 129.470049,930.305987 130.082031,930.917969 L130.082031,930.917969 Z M126.546875,931.796875 C126.18229,932.16146 126,932.604164 126,933.125 C126,933.645836 126.18229,934.08854 126.546875,934.453125 C126.91146,934.81771 127.354164,935 127.875,935 C128.395836,935 128.83854,934.81771 129.203125,934.453125 C129.56771,934.08854 129.75,933.645836 129.75,933.125 C129.75,932.604164 129.56771,932.16146 129.203125,931.796875 C128.83854,931.43229 128.395836,931.25 127.875,931.25 C127.354164,931.25 126.91146,931.43229 126.546875,931.796875 L126.546875,931.796875 Z M124.75,928.75 L124.75,923.75 L137.25,923.75 L137.25,928.75 L124.75,928.75 Z M126,925 L126,927.5 L136,927.5 L136,925 L126,925 Z" transform="translate(-113 -912)"/>
  </g>
</svg>
