<svg xmlns="http://www.w3.org/2000/svg" width="36" height="36" viewBox="0 0 36 36">
  <g fill="none" fill-rule="evenodd">
    <path fill="#FFFFFF" d="M206,925 L209.222656,925 L208.5,926.25 L207.25,926.25 L204.75,935 L208.5,935 L208.5,936.25 C208.5,936.562502 208.630207,936.848957 208.890625,937.109375 C209.151043,937.369793 209.437498,937.5 209.75,937.5 L212.25,937.5 C212.562502,937.5 212.848957,937.369793 213.109375,937.109375 C213.369793,936.848957 213.5,936.562502 213.5,936.25 L213.5,935 L217.25,935 L214.945312,926.914062 L215.589844,925 L216,925 L219.75,935 L219.75,938.75 C219.75,939.088543 219.626303,939.381509 219.378906,939.628906 C219.131509,939.876303 218.838543,940 218.5,940 L203.5,940 C203.161457,940 202.868491,939.876303 202.621094,939.628906 C202.373697,939.381509 202.25,939.088543 202.25,938.75 L202.25,935 L206,925 Z M212.875,930 L214.75,930 L211,934.375 L207.25,930 C207.432293,930.026042 208.057286,930.026042 209.125,930 C209.125,929.453122 209.206379,928.867191 209.369141,928.242188 C209.531902,927.617184 209.821613,926.923832 210.238281,926.162109 C210.65495,925.400387 211.179033,924.684248 211.810547,924.013672 C212.44206,923.343096 213.281896,922.698571 214.330078,922.080078 C215.37826,921.461585 216.559889,920.976564 217.875,920.625 C217.197913,921.158857 216.58594,921.705726 216.039062,922.265625 C215.492185,922.825524 215.046226,923.326821 214.701172,923.769531 C214.356118,924.212242 214.059897,924.694008 213.8125,925.214844 C213.565103,925.73568 213.379558,926.158853 213.255859,926.484375 C213.132161,926.809897 213.037761,927.203774 212.972656,927.666016 C212.907552,928.128258 212.86849,928.447265 212.855469,928.623047 C212.842448,928.798829 212.842448,929.069009 212.855469,929.433594 C212.86849,929.798179 212.875,929.986979 212.875,930 L212.875,930 Z" transform="translate(-193 -912)"/>
  </g>
</svg>
