<svg xmlns="http://www.w3.org/2000/svg" width="36" height="36" viewBox="0 0 36 36">
  <g fill="none" fill-rule="evenodd">
    <path fill="#FFFFFF" d="M87.3000031,919.02 L89.8000031,919.02 L89.8000031,920.27 C89.8000031,920.621564 89.6795615,920.92104 89.4386749,921.168437 C89.1977883,921.415835 88.9015673,921.539531 88.5500031,921.539531 C88.1984388,921.539531 87.9022178,921.659973 87.6613312,921.900859 C87.4204446,922.141746 87.3000031,922.431457 87.3000031,922.77 L87.3000031,929.02 C87.3000031,928.460101 86.9777406,927.903466 86.3332062,927.350078 C85.6886717,926.79669 85.1776091,926.52 84.8000031,926.52 L84.8000031,921.52 C84.8000031,920.829892 85.0441412,920.240706 85.5324249,919.752422 C86.0207086,919.264138 86.6098954,919.02 87.3000031,919.02 L87.3000031,919.02 Z M87.3000031,935.27 C87.3000031,935.621564 87.4204446,935.917785 87.6613312,936.158672 C87.9022178,936.399558 88.1984388,936.52 88.5500031,936.52 C88.9015673,936.52 89.1977883,936.643697 89.4386749,936.891094 C89.6795615,937.138491 89.8000031,937.431457 89.8000031,937.77 L89.8000031,939.02 L88.5304718,939.02 C87.5018208,939.02 86.6196682,938.652165 85.8839874,937.916484 C85.1483067,937.180804 84.7804718,936.298651 84.7804718,935.27 L84.7804718,931.539531 C84.7804718,931.187967 84.6600303,930.891746 84.4191437,930.650859 C84.1782571,930.409973 83.8885464,930.289531 83.5500031,930.289531 L81.0500031,930.289531 L81.0500031,927.809062 L83.5304718,927.77 C84.5721437,927.783021 85.4608067,928.157366 86.1964874,928.893047 C86.9321682,929.628728 87.3000031,930.517391 87.3000031,931.559062 L87.3000031,935.27 Z M94.8000031,926.480937 L94.8000031,922.77 C94.8000031,922.418436 94.6795615,922.122215 94.4386749,921.881328 C94.1977883,921.640441 93.9015673,921.52 93.5500031,921.52 C93.1984388,921.52 92.9022178,921.396303 92.6613312,921.148906 C92.4204446,920.901509 92.3000031,920.608543 92.3000031,920.27 L92.3000031,919.02 L93.5695343,919.02 C94.5981853,919.02 95.4803379,919.387835 96.2160187,920.123516 C96.9516994,920.859196 97.3195343,921.741349 97.3195343,922.77 L97.3195343,926.500469 C97.3195343,926.852033 97.4399758,927.148254 97.6808624,927.389141 C97.921749,927.630027 98.21797,927.750469 98.5695343,927.750469 L101.050003,927.750469 L101.050003,930.230937 L98.5695343,930.27 C97.5278624,930.256979 96.6391994,929.882634 95.9035187,929.146953 C95.1678379,928.411272 94.8000031,927.522609 94.8000031,926.480937 L94.8000031,926.480937 Z M94.8000031,939.02 L92.3000031,939.02 L92.3000031,937.77 C92.3000031,937.418436 92.4204446,937.11896 92.6613312,936.871562 C92.9022178,936.624165 93.1984388,936.500469 93.5500031,936.500469 C93.9015673,936.500469 94.1977883,936.380027 94.4386749,936.139141 C94.6795615,935.898254 94.8000031,935.608543 94.8000031,935.27 L94.8000031,929.02 C94.8000031,929.579899 95.1222655,930.136534 95.7667999,930.689922 C96.4113344,931.24331 96.922397,931.52 97.3000031,931.52 L97.3000031,936.52 C97.3000031,937.210108 97.0558649,937.799294 96.5675812,938.287578 C96.0792975,938.775862 95.4901107,939.02 94.8000031,939.02 L94.8000031,939.02 Z" transform="translate(-73 -912)"/>
  </g>
</svg>
