<svg xmlns="http://www.w3.org/2000/svg" width="36" height="36" viewBox="0 0 36 36">
  <g fill="none" fill-rule="evenodd">
    <path fill="#FFFFFF" d="M169.75,931.25 L169.75,928.75 L172.25,928.75 L172.25,931.25 L169.75,931.25 Z M164.75,926.25 C164.75,925.559892 164.994138,924.970706 165.482422,924.482422 C165.970706,923.994138 166.559892,923.75 167.25,923.75 L174.75,923.75 C175.440108,923.75 176.029294,923.994138 176.517578,924.482422 C177.005862,924.970706 177.25,925.559892 177.25,926.25 L177.25,933.75 C177.25,934.440108 177.005862,935.029294 176.517578,935.517578 C176.029294,936.005862 175.440108,936.25 174.75,936.25 L167.25,936.25 C166.559892,936.25 165.970706,936.005862 165.482422,935.517578 C164.994138,935.029294 164.75,934.440108 164.75,933.75 L164.75,926.25 Z M174.75,925 L167.25,925 C166.898436,925 166.602215,925.120442 166.361328,925.361328 C166.120442,925.602215 166,925.898436 166,926.25 L166,933.75 C166,934.101564 166.120442,934.397785 166.361328,934.638672 C166.602215,934.879558 166.898436,935 167.25,935 L174.75,935 C175.101564,935 175.397785,934.879558 175.638672,934.638672 C175.879558,934.397785 176,934.101564 176,933.75 L176,926.25 C176,925.898436 175.879558,925.602215 175.638672,925.361328 C175.397785,925.120442 175.101564,925 174.75,925 L174.75,925 Z M167.25,927.480469 C167.25,927.141925 167.370442,926.852215 167.611328,926.611328 C167.852215,926.370442 168.141925,926.25 168.480469,926.25 L173.519531,926.25 C173.858075,926.25 174.147785,926.370442 174.388672,926.611328 C174.629558,926.852215 174.75,927.141925 174.75,927.480469 L174.75,932.519531 C174.75,932.858075 174.629558,933.147785 174.388672,933.388672 C174.147785,933.629558 173.858075,933.75 173.519531,933.75 L168.480469,933.75 C168.141925,933.75 167.852215,933.629558 167.611328,933.388672 C167.370442,933.147785 167.25,932.858075 167.25,932.519531 L167.25,927.480469 Z M173.519531,927.5 L168.480469,927.5 C168.49349,927.5 168.5,927.49349 168.5,927.480469 L168.5,932.519531 C168.5,932.50651 168.49349,932.5 168.480469,932.5 L173.519531,932.5 C173.50651,932.5 173.5,932.50651 173.5,932.519531 L173.5,927.480469 C173.5,927.49349 173.50651,927.5 173.519531,927.5 L173.519531,927.5 Z M162.25,925 C162.25,923.971349 162.617835,923.089196 163.353516,922.353516 C164.089196,921.617835 164.971349,921.25 166,921.25 L176,921.25 C177.028651,921.25 177.910804,921.617835 178.646484,922.353516 C179.382165,923.089196 179.75,923.971349 179.75,925 L179.75,935 C179.75,936.028651 179.382165,936.910804 178.646484,937.646484 C177.910804,938.382165 177.028651,938.75 176,938.75 L166,938.75 C164.971349,938.75 164.089196,938.382165 163.353516,937.646484 C162.617835,936.910804 162.25,936.028651 162.25,935 L162.25,925 Z M176,922.5 L166,922.5 C165.309892,922.5 164.720706,922.744138 164.232422,923.232422 C163.744138,923.720706 163.5,924.309892 163.5,925 L163.5,935 C163.5,935.690108 163.744138,936.279294 164.232422,936.767578 C164.720706,937.255862 165.309892,937.5 166,937.5 L176,937.5 C176.690108,937.5 177.279294,937.255862 177.767578,936.767578 C178.255862,936.279294 178.5,935.690108 178.5,935 L178.5,925 C178.5,924.309892 178.255862,923.720706 177.767578,923.232422 C177.279294,922.744138 176.690108,922.5 176,922.5 L176,922.5 Z" transform="translate(-153 -912)"/>
  </g>
</svg>
