<svg xmlns="http://www.w3.org/2000/svg" width="36" height="36" viewBox="0 0 36 36">
  <g fill="none" fill-rule="evenodd">
    <path fill="#FFFFFF" d="M281,923.769531 C281,922.714838 281.367835,921.82292 282.103516,921.09375 C282.839196,920.36458 283.727859,920 284.769531,920 L297.230469,920 C298.285162,920 299.17708,920.367835 299.90625,921.103516 C300.63542,921.839196 301,922.727859 301,923.769531 L301,936.230469 C301,937.285162 300.632165,938.17708 299.896484,938.90625 C299.160804,939.63542 298.272141,940 297.230469,940 L284.769531,940 C283.714838,940 282.82292,939.632165 282.09375,938.896484 C281.36458,938.160804 281,937.272141 281,936.230469 L281,923.769531 Z M297.230469,921.25 L284.769531,921.25 C284.066403,921.25 283.470706,921.494138 282.982422,921.982422 C282.494138,922.470706 282.25,923.066403 282.25,923.769531 L282.25,936.230469 C282.25,936.933597 282.494138,937.529294 282.982422,938.017578 C283.470706,938.505862 284.066403,938.75 284.769531,938.75 L297.230469,938.75 C297.933597,938.75 298.529294,938.505862 299.017578,938.017578 C299.505862,937.529294 299.75,936.933597 299.75,936.230469 L299.75,923.769531 C299.75,923.066403 299.505862,922.470706 299.017578,921.982422 C298.529294,921.494138 297.933597,921.25 297.230469,921.25 L297.230469,921.25 Z M288.5,932.5 L288.5,928.75 L297.25,928.75 L297.25,932.5 L288.5,932.5 Z M289.75,930 L289.75,931.25 L296,931.25 L296,930 L289.75,930 Z M288.5,927.5 L288.5,923.75 L297.25,923.75 L297.25,927.5 L288.5,927.5 Z M289.75,925 L289.75,926.25 L296,926.25 L296,925 L289.75,925 Z M284.75,925 L284.75,923.75 L287.25,923.75 L287.25,925 L284.75,925 Z M284.75,930 L284.75,928.75 L287.25,928.75 L287.25,930 L284.75,930 Z M288.5,936.25 L288.5,933.75 L293.5,933.75 L293.5,936.25 L288.5,936.25 Z" transform="translate(-273 -912)"/>
  </g>
</svg>
