<svg xmlns="http://www.w3.org/2000/svg" width="36" height="36" viewBox="0 0 36 36">
  <g fill="none" fill-rule="evenodd">
    <path fill="#FFFFFF" d="M244.710938,935 L244.710938,936.25 L242.289062,936.25 C241.989582,936.25 241.742188,936.1556 241.546875,935.966797 C241.351562,935.777994 241.218099,935.5306 241.146484,935.224609 C241.074869,934.918618 241.029297,934.651694 241.009766,934.423828 C240.990234,934.195962 240.986979,933.971355 241,933.75 C241.026042,933.255206 241.211587,932.509771 241.556641,931.513672 C241.901694,930.517573 242.341143,929.791669 242.875,929.335938 C242.484373,928.919269 242.289062,928.307296 242.289062,927.5 C242.289062,926.809892 242.523435,926.220706 242.992188,925.732422 C243.46094,925.244138 244.033851,925 244.710938,925 C245.401045,925 245.996742,925.244138 246.498047,925.732422 C246.999351,926.220706 247.25,926.809892 247.25,927.5 C247.25,928.333337 247.041669,928.945311 246.625,929.335938 C246.638021,929.348958 246.742187,929.567055 246.9375,929.990234 C247.132813,930.413414 247.236979,930.63151 247.25,930.644531 C247.197916,930.709636 247.090496,930.807291 246.927734,930.9375 C246.764973,931.067709 246.664063,931.171875 246.625,931.25 C246.572916,931.197916 246.475261,930.999351 246.332031,930.654297 C246.188801,930.309243 246.078125,930.110677 246,930.058594 L245.375,929.335938 L245.628906,928.75 C245.720053,928.697916 245.794922,928.639323 245.853516,928.574219 C245.91211,928.509114 245.954427,928.434245 245.980469,928.349609 C246.006511,928.264974 246.019531,928.19336 246.019531,928.134766 C246.019531,928.076172 246.016276,927.975261 246.009766,927.832031 C246.003255,927.688801 246,927.578125 246,927.5 C246,927.200519 245.964193,926.959636 245.892578,926.777344 C245.820963,926.595051 245.710287,926.468099 245.560547,926.396484 C245.410807,926.324869 245.283855,926.282552 245.179688,926.269531 C245.07552,926.25651 244.919272,926.25 244.710938,926.25 C244.515624,926.25 244.365886,926.25651 244.261719,926.269531 C244.157552,926.282552 244.03711,926.324869 243.900391,926.396484 C243.763671,926.468099 243.662761,926.595051 243.597656,926.777344 C243.532552,926.959636 243.5,927.200519 243.5,927.5 C243.5,927.565104 243.496745,927.656249 243.490234,927.773438 C243.483724,927.890626 243.483724,927.972005 243.490234,928.017578 C243.496745,928.063151 243.503255,928.128255 243.509766,928.212891 C243.516276,928.297526 243.532552,928.365885 243.558594,928.417969 C243.584636,928.470052 243.623698,928.52539 243.675781,928.583984 C243.727865,928.642578 243.792968,928.697916 243.871094,928.75 L244.125,929.335938 L243.5,930.058594 C243.317707,930.279949 243.145183,930.537108 242.982422,930.830078 C242.819661,931.123048 242.686198,931.429035 242.582031,931.748047 C242.477864,932.067059 242.393229,932.337238 242.328125,932.558594 C242.263021,932.779949 242.201172,933.030598 242.142578,933.310547 C242.083984,933.590496 242.054688,933.736979 242.054688,933.75 C241.976562,934.010418 242.02539,934.283853 242.201172,934.570312 C242.376954,934.856772 242.601561,935 242.875,935 L244.710938,935 Z M257.289062,935.039062 L259.125,935.039062 C259.398439,935.039062 259.623046,934.895835 259.798828,934.609375 C259.97461,934.322915 260.023438,934.04948 259.945312,933.789062 C259.945312,933.776042 259.916016,933.629559 259.857422,933.349609 C259.798828,933.06966 259.736979,932.819012 259.671875,932.597656 C259.606771,932.376301 259.522136,932.106121 259.417969,931.787109 C259.313802,931.468097 259.180339,931.162111 259.017578,930.869141 C258.854817,930.57617 258.682293,930.319012 258.5,930.097656 L257.875,929.375 L258.128906,928.789062 C258.220053,928.723958 258.291666,928.66211 258.34375,928.603516 C258.395834,928.544922 258.434896,928.466797 258.460938,928.369141 C258.486979,928.271484 258.503255,928.19987 258.509766,928.154297 C258.516276,928.108724 258.516276,928.007813 258.509766,927.851562 C258.503255,927.695312 258.5,927.591146 258.5,927.539062 C258.5,927.239582 258.467448,926.998699 258.402344,926.816406 C258.337239,926.634114 258.236329,926.507162 258.099609,926.435547 C257.96289,926.363932 257.842448,926.321615 257.738281,926.308594 C257.634114,926.295573 257.484376,926.289062 257.289062,926.289062 C257.080728,926.289062 256.92448,926.295573 256.820312,926.308594 C256.716145,926.321615 256.589193,926.363932 256.439453,926.435547 C256.289713,926.507162 256.179037,926.634114 256.107422,926.816406 C256.035807,926.998699 256,927.239582 256,927.539062 C256,927.617188 255.996745,927.727864 255.990234,927.871094 C255.983724,928.014324 255.980469,928.115234 255.980469,928.173828 C255.980469,928.232422 255.993489,928.304036 256.019531,928.388672 C256.045573,928.473308 256.08789,928.548177 256.146484,928.613281 C256.205078,928.678386 256.279947,928.736979 256.371094,928.789062 L256.625,929.375 L256,930.097656 C255.921875,930.14974 255.811199,930.348306 255.667969,930.693359 C255.524739,931.038413 255.427084,931.236979 255.375,931.289062 C255.335937,931.210937 255.235027,931.106771 255.072266,930.976562 C254.909504,930.846354 254.802084,930.748698 254.75,930.683594 C254.763021,930.670573 254.867187,930.452476 255.0625,930.029297 C255.257813,929.606118 255.361979,929.388021 255.375,929.375 C254.958331,928.984373 254.75,928.3724 254.75,927.539062 C254.75,926.848955 255.000649,926.259768 255.501953,925.771484 C256.003258,925.283201 256.598955,925.039062 257.289062,925.039062 C257.966149,925.039062 258.53906,925.283201 259.007812,925.771484 C259.476565,926.259768 259.710938,926.848955 259.710938,927.539062 C259.710938,928.346358 259.515627,928.958331 259.125,929.375 C259.658857,929.830731 260.098306,930.556636 260.443359,931.552734 C260.788413,932.548833 260.973958,933.294268 261,933.789062 C261.013021,934.010418 261.009766,934.235025 260.990234,934.462891 C260.970703,934.690756 260.925131,934.957681 260.853516,935.263672 C260.781901,935.569663 260.648438,935.817056 260.453125,936.005859 C260.257812,936.194662 260.010418,936.289062 259.710938,936.289062 L257.289062,936.289062 L257.289062,935.039062 Z M252.992188,930.332031 C253.513023,930.904951 253.975258,931.513669 254.378906,932.158203 C254.782554,932.802738 255.08203,933.372393 255.277344,933.867188 C255.472657,934.361982 255.628906,934.847003 255.746094,935.322266 C255.863282,935.797528 255.934896,936.132812 255.960938,936.328125 C255.986979,936.523438 256,936.653646 256,936.71875 C256,937.00521 255.967448,937.255858 255.902344,937.470703 C255.837239,937.685548 255.76237,937.864583 255.677734,938.007812 C255.593099,938.151042 255.462892,938.271484 255.287109,938.369141 C255.111327,938.466797 254.955079,938.541666 254.818359,938.59375 C254.68164,938.645834 254.486329,938.681641 254.232422,938.701172 C253.978514,938.720703 253.779949,938.733724 253.636719,938.740234 C253.493489,938.746745 253.278647,938.75 252.992188,938.75 L249.007812,938.75 C248.604165,938.75 248.294923,938.74349 248.080078,938.730469 C247.865233,938.717448 247.604819,938.675131 247.298828,938.603516 C246.992837,938.531901 246.76172,938.427735 246.605469,938.291016 C246.449218,938.154296 246.309245,937.95573 246.185547,937.695312 C246.061848,937.434895 246,937.109377 246,936.71875 C246,936.614583 246.00651,936.47461 246.019531,936.298828 C246.032552,936.123046 246.0944,935.781253 246.205078,935.273438 C246.315756,934.765622 246.465494,934.267581 246.654297,933.779297 C246.8431,933.291013 247.142576,932.718102 247.552734,932.060547 C247.962893,931.402992 248.447914,930.794274 249.007812,930.234375 C249.281251,929.973957 249.551431,929.778646 249.818359,929.648438 C250.085288,929.518229 250.290364,929.446615 250.433594,929.433594 C250.576824,929.420573 250.765624,929.414062 251,929.414062 C251.742191,929.414062 252.406247,929.720049 252.992188,930.332031 L252.992188,930.332031 Z M248.880859,923.408203 C249.47331,922.802731 250.179683,922.5 251,922.5 C251.820317,922.5 252.52669,922.802731 253.119141,923.408203 C253.711592,924.013675 254.007812,924.733069 254.007812,925.566406 C254.007812,926.399744 253.714847,927.112627 253.128906,927.705078 C252.542966,928.297529 251.833337,928.59375 251,928.59375 C250.166663,928.59375 249.457034,928.297529 248.871094,927.705078 C248.285153,927.112627 247.992188,926.399744 247.992188,925.566406 C247.992188,924.733069 248.288408,924.013675 248.880859,923.408203 L248.880859,923.408203 Z" transform="translate(-233 -912)"/>
  </g>
</svg>
