<svg xmlns="http://www.w3.org/2000/svg" width="36" height="36" viewBox="0 0 36 36">
  <g fill="none" fill-rule="evenodd">
    <path fill="#FFFFFF" d="M134.876953,19.2089844 C133.646478,19.7363308 132.354173,20 131,20 C129.645827,20 128.350267,19.7330756 127.113281,19.1992188 C125.876296,18.6653619 124.811853,17.9524784 123.919922,17.0605469 C123.02799,16.1686153 122.318362,15.107428 121.791016,13.8769531 C121.263669,12.6464782 121,11.3541734 121,10 C121,8.64582656 121.266924,7.3502666 121.800781,6.11328125 C122.334638,4.8762959 123.047522,3.81185342 123.939453,2.91992188 C124.831385,2.02799033 125.892572,1.31836201 127.123047,0.791015625 C128.353522,0.263669238 129.645827,0 131,0 C132.354173,0 133.649733,0.266924414 134.886719,0.80078125 C136.123704,1.33463809 137.188147,2.04752158 138.080078,2.93945312 C138.97201,3.83138467 139.681638,4.89257197 140.208984,6.12304688 C140.736331,7.35352178 141,8.64582656 141,10 C141,11.3541734 140.733076,12.6497334 140.199219,13.8867188 C139.665362,15.1237041 138.952478,16.1881466 138.060547,17.0800781 C137.168615,17.9720097 136.107428,18.681638 134.876953,19.2089844 L134.876953,19.2089844 Z M134.134766,2.56835938 C133.138667,2.14518018 132.093755,1.93359375 131,1.93359375 C129.906245,1.93359375 128.861333,2.14518018 127.865234,2.56835938 C126.869136,2.99153857 126.009769,3.56444951 125.287109,4.28710938 C124.56445,5.00976924 123.991539,5.86913564 123.568359,6.86523438 C123.14518,7.86133311 122.933594,8.90624453 122.933594,10 C122.933594,11.0937555 123.14518,12.1386669 123.568359,13.1347656 C123.991539,14.1308644 124.56445,14.9902308 125.287109,15.7128906 C126.009769,16.4355505 126.869136,17.0084614 127.865234,17.4316406 C128.861333,17.8548198 129.906245,18.0664062 131,18.0664062 C132.093755,18.0664062 133.138667,17.8548198 134.134766,17.4316406 C135.130864,17.0084614 135.990231,16.4355505 136.712891,15.7128906 C137.43555,14.9902308 138.008461,14.1308644 138.431641,13.1347656 C138.85482,12.1386669 139.066406,11.0937555 139.066406,10 C139.066406,8.90624453 138.85482,7.86133311 138.431641,6.86523438 C138.008461,5.86913564 137.43555,5.00976924 136.712891,4.28710938 C135.990231,3.56444951 135.130864,2.99153857 134.134766,2.56835938 L134.134766,2.56835938 Z M134.886719,6.40625 L135.902344,7.40234375 C135.967448,7.49349004 136,7.59440049 136,7.70507812 C136,7.81575576 135.967448,7.90364551 135.902344,7.96875 L130.492188,13.4179688 C130.257811,13.6002613 130.029949,13.6914062 129.808594,13.6914062 L129.339844,13.6914062 C129.222656,13.6914062 129.098959,13.6653648 128.96875,13.6132812 C128.838541,13.5611977 128.734375,13.4960941 128.65625,13.4179688 L126.097656,10.8398438 C126.032552,10.7617184 126,10.6673183 126,10.5566406 C126,10.445963 126.032552,10.3515629 126.097656,10.2734375 L127.113281,9.27734375 C127.178386,9.18619746 127.269531,9.140625 127.386719,9.140625 C127.503907,9.140625 127.601562,9.18619746 127.679688,9.27734375 L129.300781,10.8984375 C129.378907,10.9765629 129.473307,11.015625 129.583984,11.015625 C129.694662,11.015625 129.789062,10.9765629 129.867188,10.8984375 L134.320312,6.40625 C134.411459,6.34114551 134.512369,6.30859375 134.623047,6.30859375 C134.733725,6.30859375 134.821614,6.34114551 134.886719,6.40625 L134.886719,6.40625 Z" transform="translate(-113 8)"/>
  </g>
</svg>
