<svg xmlns="http://www.w3.org/2000/svg" width="36" height="36" viewBox="0 0 36 36">
  <g fill="none" fill-rule="evenodd">
    <path fill="#FFFFFF" d="M162.25,2.5 L179.75,2.5 C180.088543,2.5 180.381509,2.62369668 180.628906,2.87109375 C180.876303,3.11849082 181,3.41145664 181,3.75 C181,4.08854336 180.876303,4.38150918 180.628906,4.62890625 C180.381509,4.87630332 180.088543,5 179.75,5 L162.25,5 C161.911457,5 161.618491,4.87630332 161.371094,4.62890625 C161.123697,4.38150918 161,4.08854336 161,3.75 C161,3.41145664 161.123697,3.11849082 161.371094,2.87109375 C161.618491,2.62369668 161.911457,2.5 162.25,2.5 L162.25,2.5 Z M162.25,8.75 L179.75,8.75 C180.088543,8.75 180.381509,8.87369668 180.628906,9.12109375 C180.876303,9.36849082 181,9.66145664 181,10 C181,10.3385434 180.876303,10.6315092 180.628906,10.8789062 C180.381509,11.1263033 180.088543,11.25 179.75,11.25 L162.25,11.25 C161.911457,11.25 161.618491,11.1263033 161.371094,10.8789062 C161.123697,10.6315092 161,10.3385434 161,10 C161,9.66145664 161.123697,9.36849082 161.371094,9.12109375 C161.618491,8.87369668 161.911457,8.75 162.25,8.75 L162.25,8.75 Z M162.25,15 L179.75,15 C180.088543,15 180.381509,15.1236967 180.628906,15.3710938 C180.876303,15.6184908 181,15.9114566 181,16.25 C181,16.5885434 180.876303,16.8815092 180.628906,17.1289062 C180.381509,17.3763033 180.088543,17.5 179.75,17.5 L162.25,17.5 C161.911457,17.5 161.618491,17.3763033 161.371094,17.1289062 C161.123697,16.8815092 161,16.5885434 161,16.25 C161,15.9114566 161.123697,15.6184908 161.371094,15.3710938 C161.618491,15.1236967 161.911457,15 162.25,15 L162.25,15 Z" transform="translate(-153 8)"/>
  </g>
</svg>
