<svg xmlns="http://www.w3.org/2000/svg" width="36" height="36" viewBox="0 0 36 36">
  <g fill="none" fill-rule="evenodd">
    <path fill="#FFFFFF" d="M54.75,54.75 L54.75,44.75 L56,44.75 L56,54.75 C56,56.2474033 55.4987029,57.4550735 54.4960938,58.3730469 C53.4934846,59.2910202 52.3281316,59.75 51,59.75 C49.6718684,59.75 48.5065154,59.2910202 47.5039062,58.3730469 C46.5012971,57.4550735 46,56.2474033 46,54.75 L46,46.625 C46.0260418,45.4270773 46.4231732,44.3984418 47.1914062,43.5390625 C47.9596393,42.6796832 48.8124953,42.25 49.75,42.25 C50.7005256,42.25 51.5631472,42.6796832 52.3378906,43.5390625 C53.1126341,44.3984418 53.5,45.4270773 53.5,46.625 L53.5,53.4609375 C53.5,54.1510451 53.2558618,54.7434871 52.7675781,55.2382812 C52.2792944,55.7330754 51.6901076,55.9804688 51,55.9804688 C50.3098924,55.9804688 49.7207056,55.7395857 49.2324219,55.2578125 C48.7441382,54.7760393 48.5,54.1901076 48.5,53.5 L48.5,48.5 L49.75,48.5 L49.75,53.5 C49.75,53.8385434 49.8736967,54.1315092 50.1210938,54.3789062 C50.3684908,54.6263033 50.6614566,54.75 51,54.75 C51.3385434,54.75 51.6315092,54.6263033 51.8789062,54.3789062 C52.1263033,54.1315092 52.25,53.8385434 52.25,53.5 L52.25,46.625 C52.2630209,45.8958297 52.0514345,45.1927117 51.6152344,44.515625 C51.1790343,43.8385383 50.5572957,43.5 49.75,43.5 C48.9296834,43.5 48.3112,43.8320279 47.8945312,44.4960938 C47.4778625,45.1601596 47.2630209,45.8697879 47.25,46.625 C47.2369791,46.8984389 47.2304688,47.5787706 47.2304688,48.6660156 C47.2304688,49.7532606 47.2337239,50.9837171 47.2402344,52.3574219 C47.2467448,53.7311267 47.25,54.5286447 47.25,54.75 C47.25,55.7526092 47.5820279,56.6282515 48.2460938,57.3769531 C48.9101596,58.1256548 49.8281191,58.5 51,58.5 C52.1849018,58.5 53.1061165,58.12891 53.7636719,57.3867188 C54.4212272,56.6445275 54.75,55.7656301 54.75,54.75 L54.75,54.75 Z" transform="translate(-33 -32)"/>
  </g>
</svg>
