<svg xmlns="http://www.w3.org/2000/svg" width="36" height="36" viewBox="0 0 36 36">
  <g fill="none" fill-rule="evenodd">
    <path fill="#FFFFFF" d="M94.8000031,52.535625 L94.8000031,46.52 L96.0500031,46.52 L96.0500031,52.4770312 L96.0500031,52.5160937 C96.0500031,53.2192222 95.8319063,53.8832781 95.3957062,54.5082812 C94.9595061,55.1332844 94.4061262,55.6215607 93.7355499,55.973125 C93.0649737,56.3246892 92.3846419,56.5069791 91.6945343,56.52 C90.2752564,56.5330209 89.1912828,56.1716964 88.4425812,55.4360156 C87.6938795,54.7003348 87.313024,53.7530787 87.3000031,52.5942187 L87.3000031,52.5746875 L87.3000031,52.535625 L87.3000031,52.4965625 L87.3000031,44.254375 C87.3000031,43.5252047 87.6352862,42.8904454 88.3058624,42.3500781 C88.9764387,41.8097108 89.6893222,41.5330209 90.4445343,41.52 C91.2127673,41.52 91.9223956,41.7673933 92.5734406,42.2621875 C93.2244855,42.7569816 93.5500031,43.3689547 93.5500031,44.098125 L93.4914093,51.5395312 C93.4914093,51.9692209 93.3058643,52.2849729 92.9347687,52.4867969 C92.5636731,52.6886208 92.1242243,52.7895312 91.6164093,52.7895312 C91.1346361,52.8025521 90.7049529,52.6951313 90.3273468,52.4672656 C89.9497407,52.2393999 89.7609406,51.9301582 89.7609406,51.5395312 L89.8000031,45.27 L91.0500031,45.27 L91.0109406,51.3442187 L91.0109406,51.0317187 C91.0369823,51.3963039 91.2388032,51.5785937 91.6164093,51.5785937 C91.6684929,51.5785937 91.7401068,51.5818489 91.8312531,51.5883594 C91.9223993,51.5948698 91.9842477,51.598125 92.0167999,51.598125 C92.0493522,51.598125 92.0884143,51.5883595 92.1339874,51.5688281 C92.1795606,51.5492968 92.2121123,51.5069795 92.2316437,51.441875 C92.251175,51.3767705 92.2609406,51.2921359 92.2609406,51.1879687 L92.3195343,44.0004687 C92.3195343,43.5577582 92.1372445,43.2354958 91.7726593,43.0336719 C91.4080741,42.8318479 90.9653702,42.7309375 90.4445343,42.7309375 C89.9888029,42.7309375 89.5591197,42.9034618 89.1554718,43.2485156 C88.751824,43.5935694 88.5500031,43.9614043 88.5500031,44.3520312 L88.5304718,52.5160937 C88.5304718,53.2973476 88.7908859,53.9614035 89.3117218,54.5082812 C89.8325577,55.055159 90.6268206,55.3220834 91.6945343,55.3090625 C92.50183,55.2960416 93.2179687,55.025862 93.8429718,54.4985156 C94.4679749,53.9711692 94.7869822,53.3168789 94.8000031,52.535625 L94.8000031,52.535625 Z" transform="translate(-73 -32)"/>
  </g>
</svg>
