<svg xmlns="http://www.w3.org/2000/svg" width="36" height="36" viewBox="0 0 36 36">
  <g fill="none" fill-rule="evenodd">
    <path fill="#FFFFFF" d="M182.044922,1139.83398 C182.044922,1140.32227 181.874025,1140.7373 181.532227,1141.0791 C181.190428,1141.4209 180.775393,1141.5918 180.287109,1141.5918 L164.671875,1141.5918 C164.183591,1141.5918 163.768556,1141.4209 163.426758,1141.0791 C163.084959,1140.7373 162.914062,1140.32227 162.914062,1139.83398 L162.914062,1124.21875 C162.914062,1123.73047 163.084959,1123.31543 163.426758,1122.97363 C163.768556,1122.63183 164.183591,1122.46094 164.671875,1122.46094 L180.287109,1122.46094 C180.775393,1122.46094 181.190428,1122.63183 181.532227,1122.97363 C181.874025,1123.31543 182.044922,1123.73047 182.044922,1124.21875 L182.044922,1139.83398 Z M180.130859,1138.27148 L180.130859,1125.78125 C180.130859,1125.39062 179.994142,1125.0586 179.720703,1124.78516 C179.447264,1124.51172 179.115236,1124.375 178.724609,1124.375 L166.224609,1124.375 C165.833982,1124.375 165.501954,1124.51172 165.228516,1124.78516 C164.955077,1125.0586 164.818359,1125.39062 164.818359,1125.78125 L164.818359,1138.27148 C164.818359,1138.66211 164.955077,1138.99414 165.228516,1139.26758 C165.501954,1139.54102 165.833982,1139.67773 166.224609,1139.67773 L178.724609,1139.67773 C179.115236,1139.67773 179.447264,1139.54102 179.720703,1139.26758 C179.994142,1138.99414 180.130859,1138.66211 180.130859,1138.27148 L180.130859,1138.27148 Z M176.625,1128.85742 C176.625,1129.57357 176.416669,1130.13672 176,1130.54688 C175.895833,1130.64453 175.469405,1130.88867 174.720703,1131.2793 C174.193357,1131.55925 173.900391,1131.91081 173.841797,1132.33398 C173.854818,1132.24284 173.861328,1132.77343 173.861328,1133.92578 L171.087891,1133.92578 L171.087891,1132.65625 C171.087891,1131.95963 171.328774,1131.37696 171.810547,1130.9082 C171.85612,1130.86263 172.295569,1130.54037 173.128906,1129.94141 C173.61719,1129.60286 173.861328,1129.24154 173.861328,1128.85742 C173.861328,1128.51888 173.724611,1128.22429 173.451172,1127.97363 C173.177733,1127.72298 172.852215,1127.59766 172.474609,1127.59766 L171.087891,1127.59766 C170.241532,1127.59766 169.782552,1128.01757 169.710938,1128.85742 L168.324219,1128.85742 C168.539064,1127.17122 169.460278,1126.32812 171.087891,1126.32812 L173.861328,1126.32812 C174.629561,1126.32812 175.282224,1126.57389 175.819336,1127.06543 C176.356448,1127.55697 176.625,1128.15429 176.625,1128.85742 L176.625,1128.85742 Z M171.087891,1137.71484 L171.087891,1135.18555 L173.861328,1135.18555 L173.861328,1137.71484 L171.087891,1137.71484 Z" transform="translate(-153 -1112)"/>
  </g>
</svg>
