<svg xmlns="http://www.w3.org/2000/svg" width="36" height="36" viewBox="0 0 36 36">
  <g fill="none" fill-rule="evenodd">
    <path fill="#FFFFFF" d="M202.25,47.5 C204.28126,47.5 206.162752,48.0012971 207.894531,49.0039062 C209.626311,50.0065154 210.993485,51.3736893 211.996094,53.1054688 C212.998703,54.8372482 213.5,56.7187398 213.5,58.75 L211,58.75 C211,57.7473908 210.736331,56.7122449 210.208984,55.6445312 C209.681638,54.5768176 209.007817,53.6328166 208.1875,52.8125 C207.367183,51.9921834 206.423182,51.318362 205.355469,50.7910156 C204.287755,50.2636692 203.252609,50 202.25,50 L202.25,47.5 Z M219.75,58.75 L217.25,58.75 C217.25,56.8880115 216.820317,55.0390717 215.960938,53.203125 C215.101558,51.3671783 213.985033,49.7623767 212.611328,48.3886719 C211.237623,47.0149671 209.632822,45.8984418 207.796875,45.0390625 C205.960928,44.1796832 204.111988,43.75 202.25,43.75 L202.25,41.25 C204.619804,41.25 206.885406,41.712235 209.046875,42.6367188 C211.208344,43.5612025 213.070305,44.8046797 214.632812,46.3671875 C216.19532,47.9296953 217.438797,49.7916559 218.363281,51.953125 C219.287765,54.1145941 219.75,56.3801965 219.75,58.75 L219.75,58.75 Z M204.691406,58.3789062 C203.233066,58.3789062 202.503906,57.6497469 202.503906,56.1914062 C202.503906,54.7330656 203.233066,54.0039062 204.691406,54.0039062 C206.149747,54.0039062 206.878906,54.7330656 206.878906,56.1914062 C206.878906,57.6497469 206.149747,58.3789062 204.691406,58.3789062 L204.691406,58.3789062 Z" transform="translate(-193 -32)"/>
  </g>
</svg>
