<svg xmlns="http://www.w3.org/2000/svg" width="36" height="36" viewBox="0 0 36 36">
  <g fill="none" fill-rule="evenodd">
    <path fill="#FFFFFF" d="M222.044922,1139.83398 C222.044922,1140.32227 221.874025,1140.7373 221.532227,1141.0791 C221.190428,1141.4209 220.775393,1141.5918 220.287109,1141.5918 L204.671875,1141.5918 C204.183591,1141.5918 203.768556,1141.4209 203.426758,1141.0791 C203.084959,1140.7373 202.914062,1140.32227 202.914062,1139.83398 L202.914062,1124.21875 C202.914062,1123.73047 203.084959,1123.31543 203.426758,1122.97363 C203.768556,1122.63183 204.183591,1122.46094 204.671875,1122.46094 L220.287109,1122.46094 C220.775393,1122.46094 221.190428,1122.63183 221.532227,1122.97363 C221.874025,1123.31543 222.044922,1123.73047 222.044922,1124.21875 L222.044922,1139.83398 Z M220.130859,1138.27148 L220.130859,1125.78125 C220.130859,1125.39062 219.994142,1125.0586 219.720703,1124.78516 C219.447264,1124.51172 219.115236,1124.375 218.724609,1124.375 L206.224609,1124.375 C205.833982,1124.375 205.501954,1124.51172 205.228516,1124.78516 C204.955077,1125.0586 204.818359,1125.39062 204.818359,1125.78125 L204.818359,1138.27148 C204.818359,1138.66211 204.955077,1138.99414 205.228516,1139.26758 C205.501954,1139.54102 205.833982,1139.67773 206.224609,1139.67773 L218.724609,1139.67773 C219.115236,1139.67773 219.447264,1139.54102 219.720703,1139.26758 C219.994142,1138.99414 220.130859,1138.66211 220.130859,1138.27148 L220.130859,1138.27148 Z M216.625,1128.85742 C216.625,1129.57357 216.416669,1130.13672 216,1130.54688 C215.895833,1130.64453 215.469405,1130.88867 214.720703,1131.2793 C214.193357,1131.55925 213.900391,1131.91081 213.841797,1132.33398 C213.854818,1132.24284 213.861328,1132.77343 213.861328,1133.92578 L211.087891,1133.92578 L211.087891,1132.65625 C211.087891,1131.95963 211.328774,1131.37696 211.810547,1130.9082 C211.85612,1130.86263 212.295569,1130.54037 213.128906,1129.94141 C213.61719,1129.60286 213.861328,1129.24154 213.861328,1128.85742 C213.861328,1128.51888 213.724611,1128.22429 213.451172,1127.97363 C213.177733,1127.72298 212.852215,1127.59766 212.474609,1127.59766 L211.087891,1127.59766 C210.241532,1127.59766 209.782552,1128.01757 209.710938,1128.85742 L208.324219,1128.85742 C208.539064,1127.17122 209.460278,1126.32812 211.087891,1126.32812 L213.861328,1126.32812 C214.629561,1126.32812 215.282224,1126.57389 215.819336,1127.06543 C216.356448,1127.55697 216.625,1128.15429 216.625,1128.85742 L216.625,1128.85742 Z M211.087891,1137.71484 L211.087891,1135.18555 L213.861328,1135.18555 L213.861328,1137.71484 L211.087891,1137.71484 Z" transform="translate(-193 -1112)"/>
  </g>
</svg>
