<svg xmlns="http://www.w3.org/2000/svg" width="36" height="36" viewBox="0 0 36 36">
  <g fill="none" fill-rule="evenodd">
    <path fill="#FFFFFF" d="M294.75,42.5 L294.75,45 L297.25,45 L294.75,42.5 Z M298.5,46.25 L293.5,46.25 L293.5,41.25 L287.25,41.25 C286.559892,41.25 285.970706,41.4941382 285.482422,41.9824219 C284.994138,42.4707056 284.75,43.0598924 284.75,43.75 L284.75,56.25 C284.75,56.9401076 284.994138,57.5292944 285.482422,58.0175781 C285.970706,58.5058618 286.559892,58.75 287.25,58.75 L296,58.75 C296.690108,58.75 297.279294,58.5058618 297.767578,58.0175781 C298.255862,57.5292944 298.5,56.9401076 298.5,56.25 L298.5,46.25 Z M287.25,40 L294.125,40 L299.75,45.625 L299.75,56.25 C299.75,57.2916719 299.38542,58.1770797 298.65625,58.90625 C297.92708,59.6354203 297.041672,60 296,60 L287.25,60 C286.208328,60 285.32292,59.6354203 284.59375,58.90625 C283.86458,58.1770797 283.5,57.2916719 283.5,56.25 L283.5,43.75 C283.5,42.7083281 283.86458,41.8229203 284.59375,41.09375 C285.32292,40.3645797 286.208328,40 287.25,40 L287.25,40 Z M287.25,48.75 L287.25,47.5 L292.25,47.5 L292.25,48.75 L287.25,48.75 Z M287.25,52.5 L287.25,51.25 L296,51.25 L296,52.5 L287.25,52.5 Z M287.25,56.25 L287.25,55 L296,55 L296,56.25 L287.25,56.25 Z M284.75,48.75 L284.75,47.5 L286,47.5 L286,48.75 L284.75,48.75 Z M284.75,45 L284.75,43.75 L286,43.75 L286,45 L284.75,45 Z M284.75,52.5 L284.75,51.25 L286,51.25 L286,52.5 L284.75,52.5 Z M284.75,56.25 L284.75,55 L286,55 L286,56.25 L284.75,56.25 Z M297.25,48.75 L297.25,47.5 L298.5,47.5 L298.5,48.75 L297.25,48.75 Z M297.25,52.5 L297.25,51.25 L298.5,51.25 L298.5,52.5 L297.25,52.5 Z M297.25,56.25 L297.25,55 L298.5,55 L298.5,56.25 L297.25,56.25 Z M294.75,58.75 L294.75,57.5 L296,57.5 L296,58.75 L294.75,58.75 Z M294.75,48.75 L294.75,47.5 L296,47.5 L296,48.75 L294.75,48.75 Z M291,58.75 L291,57.5 L292.25,57.5 L292.25,58.75 L291,58.75 Z M287.25,58.75 L287.25,57.5 L288.5,57.5 L288.5,58.75 L287.25,58.75 Z M291,42.5 L291,41.25 L292.25,41.25 L292.25,42.5 L291,42.5 Z M291,45 L291,43.75 L292.25,43.75 L292.25,45 L291,45 Z M287.25,42.5 L287.25,41.25 L288.5,41.25 L288.5,42.5 L287.25,42.5 Z M287.25,45 L287.25,43.75 L288.5,43.75 L288.5,45 L287.25,45 Z" transform="translate(-273 -32)"/>
  </g>
</svg>
