<svg xmlns="http://www.w3.org/2000/svg" width="36" height="36" viewBox="0 0 36 36">
  <g fill="none" fill-rule="evenodd">
    <path fill="#FFFFFF" d="M254.75,42.5 L254.75,45 L257.25,45 L254.75,42.5 Z M258.5,46.25 L253.5,46.25 L253.5,41.25 L247.25,41.25 C246.559892,41.25 245.970706,41.4941382 245.482422,41.9824219 C244.994138,42.4707056 244.75,43.0598924 244.75,43.75 L244.75,56.25 C244.75,56.9401076 244.994138,57.5292944 245.482422,58.0175781 C245.970706,58.5058618 246.559892,58.75 247.25,58.75 L256,58.75 C256.690108,58.75 257.279294,58.5058618 257.767578,58.0175781 C258.255862,57.5292944 258.5,56.9401076 258.5,56.25 L258.5,46.25 Z M247.25,40 L254.125,40 L259.75,45.625 L259.75,56.25 C259.75,57.2916719 259.38542,58.1770797 258.65625,58.90625 C257.92708,59.6354203 257.041672,60 256,60 L247.25,60 C246.208328,60 245.32292,59.6354203 244.59375,58.90625 C243.86458,58.1770797 243.5,57.2916719 243.5,56.25 L243.5,43.75 C243.5,42.7083281 243.86458,41.8229203 244.59375,41.09375 C245.32292,40.3645797 246.208328,40 247.25,40 L247.25,40 Z M254.75,52.3046875 C254.098955,52.3307293 253.519534,52.5813778 253.011719,53.0566406 C252.503904,53.5319034 252.25,54.1145799 252.25,54.8046875 L252.25,56.875 L251,56.875 L251,54.8046875 C251,54.1536426 250.736331,53.5742213 250.208984,53.0664062 C249.681638,52.5585912 249.111982,52.3046875 248.5,52.3046875 L248.382812,54.8046875 L245.628906,51.0546875 L249.867188,48.5546875 L248.753906,51.0742188 C249.313805,51.1914068 249.880205,51.4095036 250.453125,51.7285156 C251.026045,52.0475276 251.436197,52.4088521 251.683594,52.8125 C251.91797,52.421873 252.328122,52.0572934 252.914062,51.71875 C253.500003,51.3802066 254.059893,51.1523443 254.59375,51.0351562 L253.382812,48.5546875 L257.621094,51.0546875 L254.867188,54.8046875 L254.75,52.3046875 Z" transform="translate(-233 -32)"/>
  </g>
</svg>
