<svg xmlns="http://www.w3.org/2000/svg" width="36" height="36" viewBox="0 0 36 36">
  <g fill="none" fill-rule="evenodd">
    <path fill="#FFFFFF" d="M3.5,86.25 L3.5,83.75 C3.5,82.7083281 3.86457969,81.8229203 4.59375,81.09375 C5.32292031,80.3645797 6.20832812,80 7.25,80 L14.125,80 L19.75,85.625 L19.75,89.375 L19.75,96.25 C19.75,97.2005256 19.4700549,98.0631472 18.9101562,98.8378906 C18.3502576,99.6126341 17.6927121,100 16.9375,100 L6.8203125,100 C6.28645566,100 5.73633096,99.7493515 5.16992187,99.2480469 C4.60351279,98.7467423 4.15755371,98.2356797 3.83203125,97.7148438 C3.80598945,97.6627602 3.64323066,97.3567736 3.34375,96.796875 C3.04426934,96.2369764 2.67643447,95.5240929 2.24023437,94.6582031 C1.80403428,93.7923134 1.43619941,93.0338574 1.13671875,92.3828125 C0.850258984,91.7838512 0.983721191,91.2369816 1.53710937,90.7421875 C2.09049756,90.2473934 2.73176719,90 3.4609375,90 L3.5,86.25 Z M14.75,82.3828125 L14.75,85 L17.3671875,85 L14.75,82.3828125 Z M18.5,86.1914062 L18.5,86.25 L13.5,86.25 L13.5,81.25 L13.5585937,81.25 L7.25,81.25 C6.55989238,81.25 5.97070557,81.4941382 5.48242187,81.9824219 C4.99413818,82.4707056 4.75,83.0598924 4.75,83.75 L4.75,85 L8.5,85 C8.83854336,85 9.13150918,85.1236967 9.37890625,85.3710938 L11.5078125,87.5 L18.5,87.5 L18.5,86.1914062 Z M16,92.3632812 C15.7786447,92.0638006 15.4889341,91.8033865 15.1308594,91.5820312 C14.7727847,91.360676 14.4309912,91.25 14.1054687,91.25 L4.02734375,91.25 C3.610675,91.25 3.17122627,91.3671863 2.70898437,91.6015625 C2.24674248,91.8359387 2.09374922,92.0898424 2.25,92.3632812 C2.44531348,92.7018246 2.66341025,93.0859354 2.90429687,93.515625 C3.1451835,93.9453146 3.36979062,94.3489564 3.578125,94.7265625 C3.78645937,95.1041686 3.97851475,95.4557275 4.15429687,95.78125 C4.330079,96.1067725 4.47330674,96.3671865 4.58398437,96.5625 C4.69466201,96.7578135 4.75,96.8619791 4.75,96.875 C4.91927168,97.135418 5.07877529,97.3567699 5.22851562,97.5390625 C5.37825596,97.7213551 5.56705615,97.9166656 5.79492187,98.125 C6.0227876,98.3333344 6.28645684,98.492838 6.5859375,98.6035156 C6.88541816,98.7141933 7.19791504,98.7630209 7.5234375,98.75 L16.234375,98.75 C16.4427094,98.75 16.6282544,98.7402345 16.7910156,98.7207031 C16.9537769,98.7011718 17.1425771,98.6555993 17.3574219,98.5839844 C17.5722667,98.5123694 17.7545565,98.4147142 17.9042969,98.2910156 C18.0540372,98.1673171 18.1874994,97.9850272 18.3046875,97.7441406 C18.4218756,97.503254 18.4869791,97.2135434 18.5,96.875 L16,92.3632812 Z" transform="translate(7 -72)"/>
  </g>
</svg>
