<svg xmlns="http://www.w3.org/2000/svg" width="36" height="36" viewBox="0 0 36 36">
  <g fill="none" fill-rule="evenodd">
    <path fill="#FFFFFF" d="M94.75,82.5 L94.75,85 L97.25,85 L94.75,82.5 Z M98.5,86.25 L93.5,86.25 L93.5,81.25 L87.25,81.25 C86.5598924,81.25 85.9707056,81.4941382 85.4824219,81.9824219 C84.9941382,82.4707056 84.75,83.0598924 84.75,83.75 L84.75,96.25 C84.75,96.9401076 84.9941382,97.5292944 85.4824219,98.0175781 C85.9707056,98.5058618 86.5598924,98.75 87.25,98.75 L96,98.75 C96.6901076,98.75 97.2792944,98.5058618 97.7675781,98.0175781 C98.2558618,97.5292944 98.5,96.9401076 98.5,96.25 L98.5,86.25 Z M87.25,80 L94.125,80 L99.75,85.625 L99.75,96.25 C99.75,97.2916719 99.3854203,98.1770797 98.65625,98.90625 C97.9270797,99.6354203 97.0416719,100 96,100 L87.25,100 C86.2083281,100 85.3229203,99.6354203 84.59375,98.90625 C83.8645797,98.1770797 83.5,97.2916719 83.5,96.25 L83.5,83.75 C83.5,82.7083281 83.8645797,81.8229203 84.59375,81.09375 C85.3229203,80.3645797 86.2083281,80 87.25,80 L87.25,80 Z M93.5,91.25 L96,91.25 L96,92.5 L93.5,92.5 L93.5,91.25 Z M96,90 L97.25,90 L97.25,91.25 L96,91.25 L96,90 Z M93.5,88.75 L96,88.75 L96,90 L93.5,90 L93.5,88.75 Z M96,92.5 L97.25,92.5 L97.25,93.75 L96,93.75 L96,92.5 Z M93.5,93.75 L96,93.75 L96,95 L93.5,95 L93.5,93.75 Z M88.5,85 L88.5,83.75 L91,83.75 L91,88.75 L89.75,88.75 L89.75,85 L88.5,85 Z M87.25,90 L91,90 L91,91.25 L87.25,91.25 L87.25,90 Z M91,91.25 L92.25,91.25 L92.25,92.5 L91,92.5 L91,91.25 Z M88.5,92.5 L91,92.5 L91,93.75 L88.5,93.75 L88.5,92.5 Z M87.25,93.75 L88.5,93.75 L88.5,95 L92.25,95 L92.25,96.25 L87.25,96.25 L87.25,93.75 Z" transform="translate(-73 -72)"/>
  </g>
</svg>
