<svg xmlns="http://www.w3.org/2000/svg" width="36" height="36" viewBox="0 0 36 36">
  <g fill="none" fill-rule="evenodd">
    <path fill="#FFFFFF" d="M133.5,86.1523438 L133.5,81.25 L127.25,81.25 C126.559892,81.25 125.970706,81.4941382 125.482422,81.9824219 C124.994138,82.4707056 124.75,83.0598924 124.75,83.75 L124.75,96.25 C124.75,96.9401076 124.994138,97.5292944 125.482422,98.0175781 C125.970706,98.5058618 126.559892,98.75 127.25,98.75 L136,98.75 C136.690108,98.75 137.279294,98.5058618 137.767578,98.0175781 C138.255862,97.5292944 138.5,96.9401076 138.5,96.25 L138.5,86.25 L134.789062,86.25 C134.841146,86.3671881 134.867188,86.4908848 134.867188,86.6210938 C134.867188,86.8554699 134.795574,87.0507805 134.652344,87.2070312 C134.509114,87.363282 134.326824,87.4414062 134.105469,87.4414062 C133.897134,87.4414062 133.721355,87.3600269 133.578125,87.1972656 C133.434895,87.0345044 133.363281,86.842449 133.363281,86.6210938 C133.363281,86.4518221 133.408854,86.2955736 133.5,86.1523438 L133.5,86.1523438 Z M134.75,82.5 L134.75,85 L137.25,85 L134.75,82.5 Z M127.25,80 L134.125,80 L139.75,85.625 L139.75,96.25 C139.75,97.2916719 139.38542,98.1770797 138.65625,98.90625 C137.92708,99.6354203 137.041672,100 136,100 L127.25,100 C126.208328,100 125.32292,99.6354203 124.59375,98.90625 C123.86458,98.1770797 123.5,97.2916719 123.5,96.25 L123.5,83.75 C123.5,82.7083281 123.86458,81.8229203 124.59375,81.09375 C125.32292,80.3645797 126.208328,80 127.25,80 L127.25,80 Z M129.144531,85.8007812 C129.339845,85.8007812 129.512369,85.8821606 129.662109,86.0449219 C129.81185,86.2076831 129.886719,86.3997385 129.886719,86.6210938 C129.886719,86.842449 129.815105,87.0345044 129.671875,87.1972656 C129.528645,87.3600269 129.352866,87.4414062 129.144531,87.4414062 C128.923176,87.4414062 128.740886,87.363282 128.597656,87.2070312 C128.454426,87.0507805 128.382812,86.8554699 128.382812,86.6210938 C128.382812,86.3997385 128.454426,86.2076831 128.597656,86.0449219 C128.740886,85.8821606 128.923176,85.8007812 129.144531,85.8007812 L129.144531,85.8007812 Z M131.087891,85.2929688 C131.237631,85.136718 131.416666,85.0585938 131.625,85.0585938 C131.833334,85.0585938 132.012369,85.136718 132.162109,85.2929688 C132.31185,85.4492195 132.386719,85.6445301 132.386719,85.8789062 C132.386719,86.1002615 132.31185,86.2923169 132.162109,86.4550781 C132.012369,86.6178394 131.833334,86.6992188 131.625,86.6992188 C131.416666,86.6992188 131.237631,86.6178394 131.087891,86.4550781 C130.93815,86.2923169 130.863281,86.1002615 130.863281,85.8789062 C130.863281,85.6445301 130.93815,85.4492195 131.087891,85.2929688 L131.087891,85.2929688 Z M135.921875,88.0859375 C135.986979,88.151042 136.013021,88.2291662 136,88.3203125 C135.921875,89.15365 135.609378,90.0065061 135.0625,90.8789062 C134.710936,91.3997422 134.079432,92.174474 133.167969,93.203125 L133.011719,93.359375 C132.933593,93.4375004 132.933593,93.522135 133.011719,93.6132812 C133.128907,93.7565111 133.278645,93.9648424 133.460938,94.2382812 C134.111982,95.292974 134.457031,96.3085889 134.496094,97.2851562 C134.509115,97.3632816 134.489584,97.4283852 134.4375,97.4804688 C134.398437,97.5325523 134.339844,97.5585938 134.261719,97.5585938 L132.835938,97.5585938 C132.692708,97.5585938 132.608073,97.4804695 132.582031,97.3242188 C132.56901,96.9726545 132.494141,96.6243507 132.357422,96.2792969 C132.220702,95.9342431 132.012371,95.5696634 131.732422,95.1855469 C131.452473,94.8014304 131.21159,94.4856783 131.009766,94.2382812 C130.807942,93.9908842 130.4987,93.6458355 130.082031,93.203125 C129.183589,92.1874949 128.558596,91.4127631 128.207031,90.8789062 C127.647133,90.0065061 127.328125,89.15365 127.25,88.3203125 C127.236979,88.2291662 127.269531,88.151042 127.347656,88.0859375 C127.39974,88.0468748 127.445312,88.0273438 127.484375,88.0273438 L127.582031,88.0664062 C128.024742,88.2486988 128.526039,88.4114576 129.085938,88.5546875 C129.190105,88.5807293 129.255208,88.6458328 129.28125,88.75 C129.398438,89.0625016 129.583983,89.4108054 129.837891,89.7949219 C130.091798,90.1790384 130.31966,90.4882801 130.521484,90.7226562 C130.723308,90.9570324 131.03255,91.3085914 131.449219,91.7773438 C131.514323,91.8294273 131.576172,91.8554688 131.634766,91.8554688 C131.69336,91.8554688 131.748698,91.8294273 131.800781,91.7773438 C132.21745,91.3085914 132.526692,90.9570324 132.728516,90.7226562 C132.93034,90.4882801 133.158202,90.1790384 133.412109,89.7949219 C133.666017,89.4108054 133.851562,89.0625016 133.96875,88.75 C133.994792,88.6458328 134.059895,88.5742189 134.164062,88.5351562 C134.684898,88.4179682 135.186196,88.2552094 135.667969,88.046875 L135.765625,88.046875 C135.817709,88.046875 135.869791,88.0598957 135.921875,88.0859375 L135.921875,88.0859375 Z M130.082031,94.3554688 C130.511721,94.837242 130.830728,95.2278631 131.039062,95.5273438 C131.130209,95.6445318 131.136719,95.7747389 131.058594,95.9179688 C130.824218,96.3867211 130.694011,96.8554664 130.667969,97.3242188 C130.654948,97.4804695 130.576824,97.5585938 130.433594,97.5585938 L128.988281,97.5585938 C128.910156,97.5585938 128.851563,97.5325523 128.8125,97.4804688 C128.760416,97.4283852 128.740885,97.3632816 128.753906,97.2851562 C128.792969,96.3476516 129.111976,95.3841195 129.710938,94.3945312 C129.763021,94.3164059 129.828125,94.2773438 129.90625,94.2773438 C129.958334,94.2773438 130.016927,94.3033852 130.082031,94.3554688 L130.082031,94.3554688 Z M131.087891,88.8378906 C131.263673,88.8444011 131.442707,88.8476562 131.625,88.8476562 C131.807293,88.8476562 131.986327,88.8444011 132.162109,88.8378906 C132.337892,88.8313802 132.432292,88.828125 132.445312,88.828125 C132.497396,88.828125 132.542969,88.8509112 132.582031,88.8964844 C132.621094,88.9420575 132.640625,88.9973955 132.640625,89.0625 L132.640625,89.1113281 L132.640625,89.1601562 C132.471353,89.6289086 132.184898,90.0716125 131.78125,90.4882812 C131.742187,90.5403648 131.690104,90.5664062 131.625,90.5664062 C131.559896,90.5664062 131.507813,90.5403648 131.46875,90.4882812 C131.065102,90.0846334 130.778647,89.6419295 130.609375,89.1601562 C130.596354,89.1341145 130.589844,89.1015627 130.589844,89.0625 C130.589844,88.9973955 130.61263,88.9420575 130.658203,88.8964844 C130.703776,88.8509112 130.752604,88.828125 130.804688,88.828125 C130.817708,88.828125 130.912108,88.8313802 131.087891,88.8378906 L131.087891,88.8378906 Z" transform="translate(-113 -72)"/>
  </g>
</svg>
