<svg xmlns="http://www.w3.org/2000/svg" width="36" height="36" viewBox="0 0 36 36">
  <g fill="none" fill-rule="evenodd">
    <path fill="#FFFFFF" d="M174.75,82.5 L174.75,85 L177.25,85 L174.75,82.5 Z M178.5,86.25 L173.5,86.25 L173.5,81.25 L167.25,81.25 C166.559892,81.25 165.970706,81.4941382 165.482422,81.9824219 C164.994138,82.4707056 164.75,83.0598924 164.75,83.75 L164.75,96.25 C164.75,96.9401076 164.994138,97.5292944 165.482422,98.0175781 C165.970706,98.5058618 166.559892,98.75 167.25,98.75 L176,98.75 C176.690108,98.75 177.279294,98.5058618 177.767578,98.0175781 C178.255862,97.5292944 178.5,96.9401076 178.5,96.25 L178.5,86.25 Z M167.25,80 L174.125,80 L179.75,85.625 L179.75,96.25 C179.75,97.2916719 179.38542,98.1770797 178.65625,98.90625 C177.92708,99.6354203 177.041672,100 176,100 L167.25,100 C166.208328,100 165.32292,99.6354203 164.59375,98.90625 C163.86458,98.1770797 163.5,97.2916719 163.5,96.25 L163.5,83.75 C163.5,82.7083281 163.86458,81.8229203 164.59375,81.09375 C165.32292,80.3645797 166.208328,80 167.25,80 L167.25,80 Z M168.519531,98.4765625 C168.519531,98.4765625 168.522786,98.4440107 168.529297,98.3789062 C168.535807,98.3138018 168.548828,98.2291672 168.568359,98.125 C168.587891,98.0208328 168.613932,97.8971361 168.646484,97.7539062 C168.679037,97.6106764 168.721354,97.4544279 168.773438,97.2851562 C168.825521,97.1158846 168.884114,96.9401051 168.949219,96.7578125 C169.014323,96.5755199 169.098958,96.3867197 169.203125,96.1914062 C169.307292,95.9960928 169.417968,95.8105478 169.535156,95.6347656 C169.652344,95.4589835 169.792317,95.283204 169.955078,95.1074219 C170.117839,94.9316397 170.290364,94.7786465 170.472656,94.6484375 C170.850262,94.8046883 171.234373,94.8828125 171.625,94.8828125 C172.05469,94.8828125 172.42578,94.7981779 172.738281,94.6289062 C173.063804,94.8632824 173.353514,95.1562482 173.607422,95.5078125 C173.861329,95.8593768 174.05664,96.1946599 174.193359,96.5136719 C174.330079,96.8326839 174.44401,97.1516911 174.535156,97.4707031 C174.626303,97.7897151 174.684896,98.0305981 174.710938,98.1933594 C174.736979,98.3561206 174.75,98.4570311 174.75,98.4960938 C174.75,98.5742191 174.736979,98.6588537 174.710938,98.75 L168.5,98.75 C168.486979,98.6458328 168.493489,98.5546879 168.519531,98.4765625 L168.519531,98.4765625 Z M170.404297,93.203125 C170.072264,92.8385398 169.90625,92.3958359 169.90625,91.875 C169.90625,91.3541641 170.072264,90.9114602 170.404297,90.546875 C170.73633,90.1822898 171.139972,90 171.615234,90 C172.090497,90 172.497394,90.1822898 172.835938,90.546875 C173.174481,90.9114602 173.34375,91.3541641 173.34375,91.875 C173.34375,92.3958359 173.174481,92.8385398 172.835938,93.203125 C172.497394,93.5677102 172.090497,93.75 171.615234,93.75 C171.139972,93.75 170.73633,93.5677102 170.404297,93.203125 L170.404297,93.203125 Z M165.472656,93.3984375 C165.850262,93.5546883 166.234373,93.6328125 166.625,93.6328125 C167.05469,93.6328125 167.42578,93.5481779 167.738281,93.3789062 C168.220054,93.7304705 168.630207,94.2187469 168.96875,94.84375 L167.503906,97.9296875 L167.738281,98.7695312 L164.75,98.7695312 L164.75,94.0820312 C164.971355,93.8085924 165.212238,93.5807301 165.472656,93.3984375 L165.472656,93.3984375 Z M165.404297,91.953125 C165.072264,91.5885398 164.90625,91.1458359 164.90625,90.625 C164.90625,90.1041641 165.072264,89.6614602 165.404297,89.296875 C165.73633,88.9322898 166.139972,88.75 166.615234,88.75 C167.090497,88.75 167.497394,88.9322898 167.835938,89.296875 C168.174481,89.6614602 168.34375,90.1041641 168.34375,90.625 C168.34375,91.1458359 168.174481,91.5885398 167.835938,91.953125 C167.497394,92.3177102 167.090497,92.5 166.615234,92.5 C166.139972,92.5 165.73633,92.3177102 165.404297,91.953125 L165.404297,91.953125 Z M177.738281,93.3789062 C178.01172,93.5742197 178.265624,93.8151027 178.5,94.1015625 L178.5,98.7695312 L175.277344,98.7695312 C175.264323,98.7304686 175.257812,98.6979168 175.257812,98.671875 L176.234375,98.1640625 L174.359375,94.6484375 C174.671877,94.1276016 175.042967,93.7109391 175.472656,93.3984375 C175.850262,93.5546883 176.234373,93.6328125 176.625,93.6328125 C177.05469,93.6328125 177.42578,93.5481779 177.738281,93.3789062 L177.738281,93.3789062 Z M175.404297,91.953125 C175.072264,91.5885398 174.90625,91.1458359 174.90625,90.625 C174.90625,90.1041641 175.072264,89.6614602 175.404297,89.296875 C175.73633,88.9322898 176.139972,88.75 176.615234,88.75 C177.090497,88.75 177.497394,88.9322898 177.835938,89.296875 C178.174481,89.6614602 178.34375,90.1041641 178.34375,90.625 C178.34375,91.1458359 178.174481,91.5885398 177.835938,91.953125 C177.497394,92.3177102 177.090497,92.5 176.615234,92.5 C176.139972,92.5 175.73633,92.3177102 175.404297,91.953125 L175.404297,91.953125 Z" transform="translate(-153 -72)"/>
  </g>
</svg>
