<svg xmlns="http://www.w3.org/2000/svg" width="36" height="36" viewBox="0 0 36 36">
  <g fill="none" fill-rule="evenodd">
    <path fill="#FFFFFF" d="M54.75,82.5 L54.75,85 L57.25,85 L54.75,82.5 Z M58.5,86.25 L53.5,86.25 L53.5,81.25 L47.25,81.25 C46.5598924,81.25 45.9707056,81.4941382 45.4824219,81.9824219 C44.9941382,82.4707056 44.75,83.0598924 44.75,83.75 L44.75,96.25 C44.75,96.9401076 44.9941382,97.5292944 45.4824219,98.0175781 C45.9707056,98.5058618 46.5598924,98.75 47.25,98.75 L56,98.75 C56.6901076,98.75 57.2792944,98.5058618 57.7675781,98.0175781 C58.2558618,97.5292944 58.5,96.9401076 58.5,96.25 L58.5,86.25 Z M47.25,80 L54.125,80 L59.75,85.625 L59.75,96.25 C59.75,97.2916719 59.3854203,98.1770797 58.65625,98.90625 C57.9270797,99.6354203 57.0416719,100 56,100 L47.25,100 C46.2083281,100 45.3229203,99.6354203 44.59375,98.90625 C43.8645797,98.1770797 43.5,97.2916719 43.5,96.25 L43.5,83.75 C43.5,82.7083281 43.8645797,81.8229203 44.59375,81.09375 C45.3229203,80.3645797 46.2083281,80 47.25,80 L47.25,80 Z M47.875,94.9804688 C47.7057283,94.9414061 47.5592454,94.8209646 47.4355469,94.6191406 C47.3118483,94.4173167 47.25,94.2122406 47.25,94.0039062 L47.25,89.5898438 C47.25,89.1341123 47.3997381,88.8606775 47.6992188,88.7695312 L51.2148438,87.578125 C51.436199,87.5260414 51.5794268,87.5 51.6445312,87.5 C51.6966148,87.5 51.8268219,87.5260414 52.0351562,87.578125 L55.53125,88.7695312 C55.6744799,88.8085939 55.788411,88.9160147 55.8730469,89.0917969 C55.9576827,89.267579 56,89.433593 56,89.5898438 L56,94.0039062 C56,94.2122406 55.9381517,94.4140615 55.8144531,94.609375 C55.6907546,94.8046885 55.5377613,94.9479162 55.3554688,95.0390625 C54.1835879,95.364585 53.148442,95.6901025 52.25,96.015625 L52.25,96.25 L51,96.25 L51,96.015625 L47.875,94.9804688 Z M48.5,90.625 L48.5,94.3945312 L51,94.9609375 L51,91.1328125 L48.5,90.625 Z M55.375,89.3164062 L51.6054688,88.4960938 L47.875,89.3164062 L51,90.0976562 L51,90 L52.25,90 L52.25,90.0976562 L55.375,89.3164062 Z M54.75,90.625 L52.25,91.1328125 L52.25,94.8828125 L54.75,94.375 L54.75,90.625 Z" transform="translate(-33 -72)"/>
  </g>
</svg>
