<svg xmlns="http://www.w3.org/2000/svg" width="36" height="36" viewBox="0 0 36 36">
  <g fill="none" fill-rule="evenodd">
    <path fill="#FFFFFF" d="M214.75,82.5 L214.75,85 L217.25,85 L214.75,82.5 Z M218.5,86.25 L213.5,86.25 L213.5,81.25 L207.25,81.25 C206.559892,81.25 205.970706,81.4941382 205.482422,81.9824219 C204.994138,82.4707056 204.75,83.0598924 204.75,83.75 L204.75,96.25 C204.75,96.9401076 204.994138,97.5292944 205.482422,98.0175781 C205.970706,98.5058618 206.559892,98.75 207.25,98.75 L216,98.75 C216.690108,98.75 217.279294,98.5058618 217.767578,98.0175781 C218.255862,97.5292944 218.5,96.9401076 218.5,96.25 L218.5,86.25 Z M207.25,80 L214.125,80 L219.75,85.625 L219.75,96.25 C219.75,97.2916719 219.38542,98.1770797 218.65625,98.90625 C217.92708,99.6354203 217.041672,100 216,100 L207.25,100 C206.208328,100 205.32292,99.6354203 204.59375,98.90625 C203.86458,98.1770797 203.5,97.2916719 203.5,96.25 L203.5,83.75 C203.5,82.7083281 203.86458,81.8229203 204.59375,81.09375 C205.32292,80.3645797 206.208328,80 207.25,80 L207.25,80 Z M214.75,90 L218.5,93.125 L214.75,96.25 L214.75,93.75 L211,93.75 L211,92.5 L214.75,92.5 L214.75,90 Z M208.5,86.3671875 L208.5,88.75 L212.25,88.75 L212.25,90 L208.5,90 L208.5,92.6171875 L204.75,89.4921875 L208.5,86.3671875 Z" transform="translate(-193 -72)"/>
  </g>
</svg>
