<svg xmlns="http://www.w3.org/2000/svg" width="36" height="36" viewBox="0 0 36 36">
  <g fill="none" fill-rule="evenodd">
    <path fill="#FFFFFF" d="M254.75,82.5 L254.75,85 L257.25,85 L254.75,82.5 Z M258.5,86.25 L253.5,86.25 L253.5,81.25 L247.25,81.25 C246.559892,81.25 245.970706,81.4941382 245.482422,81.9824219 C244.994138,82.4707056 244.75,83.0598924 244.75,83.75 L244.75,96.25 C244.75,96.9401076 244.994138,97.5292944 245.482422,98.0175781 C245.970706,98.5058618 246.559892,98.75 247.25,98.75 L256,98.75 C256.690108,98.75 257.279294,98.5058618 257.767578,98.0175781 C258.255862,97.5292944 258.5,96.9401076 258.5,96.25 L258.5,86.25 Z M247.25,80 L254.125,80 L259.75,85.625 L259.75,96.25 C259.75,97.2916719 259.38542,98.1770797 258.65625,98.90625 C257.92708,99.6354203 257.041672,100 256,100 L247.25,100 C246.208328,100 245.32292,99.6354203 244.59375,98.90625 C243.86458,98.1770797 243.5,97.2916719 243.5,96.25 L243.5,83.75 C243.5,82.7083281 243.86458,81.8229203 244.59375,81.09375 C245.32292,80.3645797 246.208328,80 247.25,80 L247.25,80 Z M253.675781,91.5429688 L253.050781,92.1679688 L252.699219,91.9335938 C252.451822,91.6992176 252.152346,91.5820312 251.800781,91.5820312 C251.449217,91.5820312 251.156251,91.6992176 250.921875,91.9335938 L248.558594,93.90625 C248.324218,94.1536471 248.207031,94.4921854 248.207031,94.921875 C248.207031,95.3515646 248.324218,95.6901029 248.558594,95.9375 L248.65625,96.0351562 C248.903647,96.2825533 249.242185,96.40625 249.671875,96.40625 C250.101565,96.40625 250.440103,96.2825533 250.6875,96.0351562 L251.546875,94.921875 L252.171875,95.546875 L251.058594,96.9335938 C250.680988,97.2981789 250.218753,97.4804688 249.671875,97.4804688 C249.124997,97.4804688 248.669273,97.2981789 248.304688,96.9335938 L247.679688,96.3085938 C247.315102,95.9309877 247.132812,95.4687527 247.132812,94.921875 C247.132812,94.3749973 247.315102,93.9192727 247.679688,93.5546875 L250.550781,91.0546875 C250.915366,90.6901023 251.332029,90.5078125 251.800781,90.5078125 C252.269534,90.5078125 252.686196,90.6901023 253.050781,91.0546875 L253.675781,91.5429688 Z M251.625,92.8125 L251.996094,93.046875 C252.243491,93.2812512 252.539712,93.3984375 252.884766,93.3984375 C253.229819,93.3984375 253.52604,93.2812512 253.773438,93.046875 L256.117188,91.0742188 C256.364585,90.8268217 256.488281,90.4882834 256.488281,90.0585938 C256.488281,89.6289041 256.364585,89.2903658 256.117188,89.0429688 L256.019531,88.9453125 C255.772134,88.6979154 255.433596,88.5742188 255.003906,88.5742188 C254.574217,88.5742188 254.235678,88.6979154 253.988281,88.9453125 L253.128906,90.0585938 L252.503906,89.4335938 L253.617188,88.046875 C253.994794,87.6822898 254.457029,87.5 255.003906,87.5 C255.550784,87.5 256.006509,87.6822898 256.371094,88.046875 L256.878906,88.671875 C257.243491,89.0494811 257.425781,89.511716 257.425781,90.0585938 C257.425781,90.6054715 257.243491,91.0611961 256.878906,91.4257812 L254.125,93.9257812 C253.760415,94.2903664 253.343752,94.4726562 252.875,94.4726562 C252.406248,94.4726562 251.989585,94.2903664 251.625,93.9257812 L251,93.4375 L251.625,92.8125 Z" transform="translate(-233 -72)"/>
  </g>
</svg>
