<svg xmlns="http://www.w3.org/2000/svg" width="36" height="36" viewBox="0 0 36 36">
  <g fill="none" fill-rule="evenodd">
    <path fill="#FFFFFF" d="M102.094925,1138.85398 C102.094925,1139.34227 101.924028,1139.7573 101.58223,1140.0991 C101.240431,1140.4409 100.825396,1140.6118 100.337112,1140.6118 L84.7218781,1140.6118 C84.2335944,1140.6118 83.8185594,1140.4409 83.4767609,1140.0991 C83.1349623,1139.7573 82.9640656,1139.34227 82.9640656,1138.85398 L82.9640656,1123.23875 C82.9640656,1122.75047 83.1349623,1122.33543 83.4767609,1121.99363 C83.8185594,1121.65183 84.2335944,1121.48094 84.7218781,1121.48094 L100.337112,1121.48094 C100.825396,1121.48094 101.240431,1121.65183 101.58223,1121.99363 C101.924028,1122.33543 102.094925,1122.75047 102.094925,1123.23875 L102.094925,1138.85398 Z M100.180862,1137.29148 L100.180862,1124.80125 C100.180862,1124.41062 100.044145,1124.0786 99.7707062,1123.80516 C99.4972673,1123.53172 99.1652394,1123.395 98.7746124,1123.395 L86.2746124,1123.395 C85.8839855,1123.395 85.5519575,1123.53172 85.2785187,1123.80516 C85.0050798,1124.0786 84.8683624,1124.41062 84.8683624,1124.80125 L84.8683624,1137.29148 C84.8683624,1137.68211 85.0050798,1138.01414 85.2785187,1138.28758 C85.5519575,1138.56102 85.8839855,1138.69773 86.2746124,1138.69773 L98.7746124,1138.69773 C99.1652394,1138.69773 99.4972673,1138.56102 99.7707062,1138.28758 C100.044145,1138.01414 100.180862,1137.68211 100.180862,1137.29148 L100.180862,1137.29148 Z M96.6750031,1127.87742 C96.6750031,1128.59357 96.4666718,1129.15672 96.0500031,1129.56687 C95.9458359,1129.66453 95.5194078,1129.90867 94.7707062,1130.2993 C94.2433598,1130.57925 93.950394,1130.93081 93.8917999,1131.35398 C93.9048208,1131.26284 93.9113312,1131.79343 93.9113312,1132.94578 L91.1378937,1132.94578 L91.1378937,1131.67625 C91.1378937,1130.97963 91.3787767,1130.39696 91.8605499,1129.9282 C91.9061231,1129.88263 92.3455718,1129.56037 93.1789093,1128.96141 C93.667193,1128.62286 93.9113312,1128.26154 93.9113312,1127.87742 C93.9113312,1127.53888 93.7746138,1127.24429 93.5011749,1126.99363 C93.2277361,1126.74298 92.9022185,1126.61766 92.5246124,1126.61766 L91.1378937,1126.61766 C90.2915353,1126.61766 89.8325555,1127.03757 89.7609406,1127.87742 L88.3742218,1127.87742 C88.5890666,1126.19122 89.5102814,1125.34812 91.1378937,1125.34812 L93.9113312,1125.34812 C94.6795642,1125.34812 95.3322269,1125.59389 95.869339,1126.08543 C96.406451,1126.57697 96.6750031,1127.17429 96.6750031,1127.87742 L96.6750031,1127.87742 Z M91.1378937,1136.73484 L91.1378937,1134.20555 L93.9113312,1134.20555 L93.9113312,1136.73484 L91.1378937,1136.73484 Z" transform="translate(-73 -1112)"/>
  </g>
</svg>
