<svg xmlns="http://www.w3.org/2000/svg" width="36" height="36" viewBox="0 0 36 36">
  <g fill="none" fill-rule="evenodd">
    <path fill="#FFFFFF" d="M298.5,96.25 L298.5,86.25 L293.5,86.25 L293.5,81.25 L287.25,81.25 C286.559892,81.25 285.970706,81.4941382 285.482422,81.9824219 C284.994138,82.4707056 284.75,83.0598924 284.75,83.75 L284.75,96.25 C284.75,96.9401076 284.994138,97.5292944 285.482422,98.0175781 C285.970706,98.5058618 286.559892,98.75 287.25,98.75 L294.730469,98.75 L292.464844,96.7578125 C291.983071,96.2760393 291.403649,96.0611977 290.726562,96.1132812 C289.984371,96.1783857 289.297529,96.1165374 288.666016,95.9277344 C288.034502,95.7389313 287.575522,95.3776068 287.289062,94.84375 C286.53385,93.4244721 286.104167,91.7643324 286,89.8632812 L289.125,92.9882812 C289.671878,93.014323 290.231768,92.7408883 290.804688,92.1679688 C291.377607,91.5950492 291.651042,91.035159 291.625,90.4882812 L288.5,87.3632812 C290.361988,87.4414066 292.022128,87.8710898 293.480469,88.6523438 C294.014326,88.9388035 294.37565,89.3977833 294.564453,90.0292969 C294.753256,90.6608104 294.815104,91.3476525 294.75,92.0898438 C294.697916,92.7669305 294.912758,93.3463518 295.394531,93.828125 L298.421875,96.8554688 C298.473959,96.6601553 298.5,96.4583344 298.5,96.25 L298.5,96.25 Z M297.25,85 L294.75,82.5 L294.75,85 L297.25,85 Z M283.5,83.75 C283.5,82.7083281 283.86458,81.8229203 284.59375,81.09375 C285.32292,80.3645797 286.208328,80 287.25,80 L294.125,80 L299.75,85.625 L299.75,96.25 C299.75,97.2916719 299.38542,98.1770797 298.65625,98.90625 C297.92708,99.6354203 297.041672,100 296,100 L287.25,100 C286.208328,100 285.32292,99.6354203 284.59375,98.90625 C283.86458,98.1770797 283.5,97.2916719 283.5,96.25 L283.5,83.75 Z" transform="translate(-273 -72)"/>
  </g>
</svg>
