<svg xmlns="http://www.w3.org/2000/svg" width="36" height="36" viewBox="0 0 36 36">
  <g fill="none" fill-rule="evenodd">
    <path fill="#FFFFFF" d="M15.5,20.7539062 C16.1250031,21.0533869 16.6002588,21.4765598 16.9257812,22.0234375 C18.0585994,21.5416643 19.1002557,20.9166705 20.0507812,20.1484375 C21.0013068,19.3802045 21.7109352,18.5468795 22.1796875,17.6484375 C21.6718725,17.3749986 21.2649755,16.9941431 20.9589844,16.5058594 C20.6529933,16.0175757 20.5,15.4739613 20.5,14.875 C20.5,14.0156207 20.8059865,13.279951 21.4179688,12.6679688 C22.029951,12.0559865 22.7656207,11.75 23.625,11.75 C24.4843793,11.75 25.220049,12.0559865 25.8320312,12.6679688 C26.4440135,13.279951 26.75,14.0156207 26.75,14.875 C26.75,15.5781285 26.5384136,16.2096326 26.1152344,16.7695312 C25.6920552,17.3294299 25.1484408,17.7005199 24.484375,17.8828125 C24.1197898,18.8072963 23.5208375,19.7220007 22.6875,20.6269531 C21.8541625,21.5319056 20.9687547,22.3001271 20.03125,22.9316406 C19.0937453,23.5631542 18.1757857,24.0546857 17.2773438,24.40625 C17.1080721,25.0833367 16.7402372,25.643227 16.1738281,26.0859375 C15.607419,26.528648 14.9661494,26.75 14.25,26.75 C13.3906207,26.75 12.654951,26.4440135 12.0429688,25.8320312 C11.4309865,25.220049 11.125,24.4843793 11.125,23.625 C11.125,22.9999969 11.2975243,22.4270859 11.6425781,21.90625 C11.9876319,21.3854141 12.4401014,21.0013033 13,20.7539062 L13,13.9960938 C12.4531223,13.7486967 12.003908,13.3645859 11.6523438,12.84375 C11.3007795,12.3229141 11.125,11.7500031 11.125,11.125 C11.125,10.2656207 11.4309865,9.52995098 12.0429688,8.91796875 C12.654951,8.30598652 13.3906207,8 14.25,8 C15.1093793,8 15.845049,8.30598652 16.4570312,8.91796875 C17.0690135,9.52995098 17.375,10.2656207 17.375,11.125 C17.375,11.7500031 17.2024757,12.3229141 16.8574219,12.84375 C16.5123681,13.3645859 16.0598986,13.7486967 15.5,13.9960938 L15.5,20.7539062 Z" transform="matrix(1 0 0 -1 0 34.75)"/>
  </g>
</svg>
