<svg xmlns="http://www.w3.org/2000/svg" width="36" height="36" viewBox="0 0 36 36">
  <g fill="none" fill-rule="evenodd">
    <path fill="#FFFFFF" d="M7.25,134.511719 L5.296875,135.722656 C5.20572871,135.63151 5.1406252,135.559896 5.1015625,135.507812 C4.2942668,134.648433 3.70833516,133.649094 3.34375,132.509766 C2.97916484,131.370437 2.87499922,130.201829 3.03125,129.003906 C3.14843809,128.053381 3.42512803,127.161462 3.86132813,126.328125 C4.29752822,125.494788 4.85416328,124.765628 5.53125,124.140625 C6.3255248,123.424476 7.22395332,122.877606 8.2265625,122.5 C9.22917168,122.122394 10.2708279,121.959635 11.3515625,122.011719 L11.625,120 L14.9648438,123.574219 L10.8046875,126.347656 L11.078125,124.238281 C10.3229129,124.22526 9.59700869,124.352212 8.90039063,124.619141 C8.20377256,124.886069 7.58203398,125.273435 7.03515625,125.78125 C6.01952617,126.744796 5.41406348,127.91666 5.21875,129.296875 C5.10156191,130.169275 5.17643096,131.015621 5.44335938,131.835938 C5.71028779,132.656254 6.13671582,133.378903 6.72265625,134.003906 C6.95703242,134.238282 7.13281191,134.407552 7.25,134.511719 L7.25,134.511719 Z M11.1757812,133.671875 L10.8828125,135.878906 C11.6380246,135.878906 12.367184,135.745444 13.0703125,135.478516 C13.773441,135.211587 14.4049451,134.824221 14.9648438,134.316406 C15.9934947,133.35286 16.5924471,132.180996 16.7617188,130.800781 C16.8789068,129.928381 16.8040378,129.082035 16.5371094,128.261719 C16.270181,127.441402 15.8502633,126.718753 15.2773438,126.09375 C15.0169258,125.833332 14.8151049,125.644532 14.671875,125.527344 L16.625,124.296875 L16.8984375,124.589844 C17.7057332,125.449223 18.2916648,126.448562 18.65625,127.587891 C19.0208352,128.727219 19.1250008,129.895827 18.96875,131.09375 C18.8515619,132.044276 18.574872,132.936194 18.1386719,133.769531 C17.7024718,134.602869 17.1458367,135.332028 16.46875,135.957031 C15.6874961,136.673181 14.7858124,137.22005 13.7636719,137.597656 C12.7415313,137.975262 11.6835992,138.138021 10.5898438,138.085938 L10.3359375,140 L6.9765625,136.386719 L11.1757812,133.671875 Z" transform="translate(7 -112)"/>
  </g>
</svg>
