<svg xmlns="http://www.w3.org/2000/svg" width="36" height="36" viewBox="0 0 36 36">
  <g fill="none" fill-rule="evenodd">
    <path fill="#FFFFFF" d="M45.5,122.5 L46.75,122.5 L46.75,121.25 L48,121.25 L48,122.5 L54.25,122.5 L54.25,121.25 L55.5,121.25 L55.5,122.5 L56.75,122.5 C57.4401076,122.5 58.0292944,122.744138 58.5175781,123.232422 C59.0058618,123.720706 59.25,124.316403 59.25,125.019531 L59.25,133.75 C59.25,134.791672 58.8854203,135.67708 58.15625,136.40625 C57.4270797,137.13542 56.5416719,137.5 55.5,137.5 L46.75,137.5 C45.7083281,137.5 44.8229203,137.13542 44.09375,136.40625 C43.3645797,135.67708 43,134.791672 43,133.75 L43,125.019531 C43,124.316403 43.2441382,123.720706 43.7324219,123.232422 C44.2207056,122.744138 44.8098924,122.5 45.5,122.5 L45.5,122.5 Z M55.5,136.25 C56.1901076,136.25 56.7792944,136.005862 57.2675781,135.517578 C57.7558618,135.029294 58,134.440108 58,133.75 L58,125 C48.8332875,125 44.25,125.00651 44.25,125.019531 L44.25,133.75 C44.25,134.440108 44.4941382,135.029294 44.9824219,135.517578 C45.4707056,136.005862 46.0598924,136.25 46.75,136.25 L55.5,136.25 Z M54.25,128.75 L54.25,127.5 L55.5,127.5 L55.5,128.75 L54.25,128.75 Z M54.25,131.25 L54.25,130 L55.5,130 L55.5,131.25 L54.25,131.25 Z M51.75,131.25 L51.75,130 L53,130 L53,131.25 L51.75,131.25 Z M49.25,131.25 L49.25,130 L50.5,130 L50.5,131.25 L49.25,131.25 Z M46.75,131.25 L46.75,130 L48,130 L48,131.25 L46.75,131.25 Z M51.75,133.75 L51.75,132.5 L53,132.5 L53,133.75 L51.75,133.75 Z M49.25,133.75 L49.25,132.5 L50.5,132.5 L50.5,133.75 L49.25,133.75 Z M46.75,133.75 L46.75,132.5 L48,132.5 L48,133.75 L46.75,133.75 Z M51.75,128.75 L51.75,127.5 L53,127.5 L53,128.75 L51.75,128.75 Z M49.25,128.75 L49.25,127.5 L50.5,127.5 L50.5,128.75 L49.25,128.75 Z" transform="translate(-33 -112)"/>
  </g>
</svg>
