<svg xmlns="http://www.w3.org/2000/svg" width="36" height="36" viewBox="0 0 36 36">
  <g fill="none" fill-rule="evenodd">
    <path fill="#FFFFFF" d="M93.0812531,130.000469 L96.8507843,133.77 C97.1372441,134.05646 97.2804718,134.398253 97.2804718,134.795391 C97.2804718,135.192528 97.1372441,135.534321 96.8507843,135.820781 C96.5643245,136.107241 96.2225311,136.250469 95.8253937,136.250469 C95.4282563,136.250469 95.0864628,136.107241 94.8000031,135.820781 L91.0304718,132.05125 L87.2609406,135.820781 C86.9744808,136.107241 86.6326873,136.250469 86.2355499,136.250469 C85.8384125,136.250469 85.4966191,136.107241 85.2101593,135.820781 C84.9236995,135.534321 84.7804718,135.192528 84.7804718,134.795391 C84.7804718,134.398253 84.9236995,134.05646 85.2101593,133.77 L88.9796906,130.000469 L85.2492218,126.27 C84.962762,125.98354 84.8195343,125.641747 84.8195343,125.244609 C84.8195343,124.847472 84.962762,124.512189 85.2492218,124.23875 C85.5356816,123.95229 85.877475,123.809062 86.2746124,123.809062 C86.6717498,123.809062 87.0135433,123.95229 87.3000031,124.23875 L91.0304718,127.969219 L94.8195343,124.180156 C95.1059941,123.893696 95.4477875,123.750469 95.8449249,123.750469 C96.2420623,123.750469 96.5838558,123.893696 96.8703156,124.180156 C97.1437544,124.466616 97.2804718,124.808409 97.2804718,125.205547 C97.2804718,125.602684 97.1437544,125.937967 96.8703156,126.211406 L93.0812531,130.000469 Z" transform="translate(-73 -112)"/>
  </g>
</svg>
