<svg xmlns="http://www.w3.org/2000/svg" width="36" height="36" viewBox="0 0 36 36">
  <g fill="none" fill-rule="evenodd">
    <path fill="#FFFFFF" d="M162.347656,123.5 C162.360677,122.809892 162.611326,122.220706 163.099609,121.732422 C163.587893,121.244138 164.17708,121 164.867188,121 L177.289062,121 C177.966149,121 178.548826,121.244138 179.037109,121.732422 C179.525393,122.220706 179.769531,122.816403 179.769531,123.519531 L179.769531,133.5 C179.769531,134.190108 179.525393,134.78255 179.037109,135.277344 C178.548826,135.772138 177.959639,136.019531 177.269531,136.019531 L174.769531,136.019531 L171.019531,141 L167.269531,136.019531 L164.710938,136.019531 C164.033851,136.019531 163.451174,135.772138 162.962891,135.277344 C162.474607,134.78255 162.236979,134.196618 162.25,133.519531 L162.347656,123.5 Z M177.289062,122.25 L164.867188,122.25 C164.515623,122.25 164.216147,122.373697 163.96875,122.621094 C163.721353,122.868491 163.597656,123.161457 163.597656,123.5 L163.5,133.519531 C163.5,133.858075 163.617186,134.15104 163.851562,134.398438 C164.085939,134.645835 164.372394,134.769531 164.710938,134.769531 L167.894531,134.769531 L171.019531,139.125 L174.144531,134.769531 L177.269531,134.769531 C177.621096,134.769531 177.917317,134.645835 178.158203,134.398438 C178.39909,134.15104 178.519531,133.851564 178.519531,133.5 L178.519531,123.519531 C178.519531,123.167967 178.39909,122.868491 178.158203,122.621094 C177.917317,122.373697 177.627606,122.25 177.289062,122.25 L177.289062,122.25 Z" transform="translate(-153 -112)"/>
  </g>
</svg>
