<svg xmlns="http://www.w3.org/2000/svg" width="36" height="36" viewBox="0 0 36 36">
  <g fill="none" fill-rule="evenodd">
    <path fill="#FFFFFF" d="M176.074997,1010.75 L170.449997,1005.08594 L176.074997,999.5 L181.699997,1005.08594 L176.074997,1010.75 Z M171.699997,1013.25 C171.699997,1012.55989 171.944135,1011.97071 172.432419,1011.48242 C172.920703,1010.99414 173.509889,1010.75 174.199997,1010.75 L177.949997,1010.75 C178.640105,1010.75 179.229291,1010.99414 179.717575,1011.48242 C180.205859,1011.97071 180.449997,1012.55989 180.449997,1013.25 L180.449997,1017 C180.449997,1017.69011 180.205859,1018.27929 179.717575,1018.76758 C179.229291,1019.25586 178.640105,1019.5 177.949997,1019.5 L174.199997,1019.5 C173.509889,1019.5 172.920703,1019.25586 172.432419,1018.76758 C171.944135,1018.27929 171.699997,1017.69011 171.699997,1017 L171.699997,1013.25 Z M177.949997,1012 L174.199997,1012 C173.848433,1012 173.552212,1012.12044 173.311325,1012.36133 C173.070438,1012.60221 172.949997,1012.89844 172.949997,1013.25 L172.949997,1017 C172.949997,1017.35156 173.070438,1017.64779 173.311325,1017.88867 C173.552212,1018.12956 173.848433,1018.25 174.199997,1018.25 L177.949997,1018.25 C178.301561,1018.25 178.597782,1018.12956 178.838669,1017.88867 C179.079555,1017.64779 179.199997,1017.35156 179.199997,1017 L179.199997,1013.25 C179.199997,1012.89844 179.079555,1012.60221 178.838669,1012.36133 C178.597782,1012.12044 178.301561,1012 177.949997,1012 L177.949997,1012 Z M161.699997,1013.25 C161.699997,1012.55989 161.944135,1011.97071 162.432419,1011.48242 C162.920703,1010.99414 163.509889,1010.75 164.199997,1010.75 L167.949997,1010.75 C168.640105,1010.75 169.229291,1010.99414 169.717575,1011.48242 C170.205859,1011.97071 170.449997,1012.55989 170.449997,1013.25 L170.449997,1017 C170.449997,1017.69011 170.205859,1018.27929 169.717575,1018.76758 C169.229291,1019.25586 168.640105,1019.5 167.949997,1019.5 L164.199997,1019.5 C163.509889,1019.5 162.920703,1019.25586 162.432419,1018.76758 C161.944135,1018.27929 161.699997,1017.69011 161.699997,1017 L161.699997,1013.25 Z M167.949997,1012 L164.199997,1012 C163.848433,1012 163.552212,1012.12044 163.311325,1012.36133 C163.070438,1012.60221 162.949997,1012.89844 162.949997,1013.25 L162.949997,1017 C162.949997,1017.35156 163.070438,1017.64779 163.311325,1017.88867 C163.552212,1018.12956 163.848433,1018.25 164.199997,1018.25 L167.949997,1018.25 C168.301561,1018.25 168.597782,1018.12956 168.838669,1017.88867 C169.079555,1017.64779 169.199997,1017.35156 169.199997,1017 L169.199997,1013.25 C169.199997,1012.89844 169.079555,1012.60221 168.838669,1012.36133 C168.597782,1012.12044 168.301561,1012 167.949997,1012 L167.949997,1012 Z M161.699997,1003.25 C161.699997,1002.55989 161.944135,1001.97071 162.432419,1001.48242 C162.920703,1000.99414 163.509889,1000.75 164.199997,1000.75 L167.949997,1000.75 C168.640105,1000.75 169.229291,1000.99414 169.717575,1001.48242 C170.205859,1001.97071 170.449997,1002.55989 170.449997,1003.25 L170.449997,1007 C170.449997,1007.69011 170.205859,1008.27929 169.717575,1008.76758 C169.229291,1009.25586 168.640105,1009.5 167.949997,1009.5 L164.199997,1009.5 C163.509889,1009.5 162.920703,1009.25586 162.432419,1008.76758 C161.944135,1008.27929 161.699997,1007.69011 161.699997,1007 L161.699997,1003.25 Z M167.949997,1002 L164.199997,1002 C163.848433,1002 163.552212,1002.12044 163.311325,1002.36133 C163.070438,1002.60221 162.949997,1002.89844 162.949997,1003.25 L162.949997,1007 C162.949997,1007.35156 163.070438,1007.64779 163.311325,1007.88867 C163.552212,1008.12956 163.848433,1008.25 164.199997,1008.25 L167.949997,1008.25 C168.301561,1008.25 168.597782,1008.12956 168.838669,1007.88867 C169.079555,1007.64779 169.199997,1007.35156 169.199997,1007 L169.199997,1003.25 C169.199997,1002.89844 169.079555,1002.60221 168.838669,1002.36133 C168.597782,1002.12044 168.301561,1002 167.949997,1002 L167.949997,1002 Z" transform="translate(-153 -992)"/>
  </g>
</svg>
