<svg xmlns="http://www.w3.org/2000/svg" width="36" height="36" viewBox="0 0 36 36">
  <g fill="none" fill-rule="evenodd">
    <path fill="#FFFFFF" d="M221,131.191406 C221,131.334636 220.934896,131.471354 220.804688,131.601562 C220.674479,131.731771 220.531251,131.803385 220.375,131.816406 L217.386719,132.363281 C217.230468,132.376302 217.126302,132.43815 217.074219,132.548828 C217.022135,132.659506 217.041666,132.773437 217.132812,132.890625 L218.832031,135.410156 C218.910157,135.527344 218.936198,135.667317 218.910156,135.830078 C218.884114,135.992839 218.819011,136.126302 218.714844,136.230469 L217.113281,137.851562 C217.009114,137.95573 216.875652,138.014323 216.712891,138.027344 C216.550129,138.040365 216.410157,138.001303 216.292969,137.910156 L213.773438,136.230469 C213.656249,136.152343 213.542318,136.132812 213.431641,136.171875 C213.320963,136.210938 213.252604,136.302083 213.226562,136.445312 L212.679688,139.453125 C212.653646,139.583334 212.582032,139.707031 212.464844,139.824219 C212.347656,139.941407 212.217449,140 212.074219,140 L209.769531,140 C209.626301,140 209.489584,139.944662 209.359375,139.833984 C209.229166,139.723307 209.157552,139.596355 209.144531,139.453125 L208.597656,136.464844 C208.584635,136.321614 208.519532,136.227214 208.402344,136.181641 C208.285156,136.136067 208.167969,136.158854 208.050781,136.25 L205.550781,137.929688 C205.433593,138.007813 205.293621,138.040365 205.130859,138.027344 C204.968098,138.014323 204.834636,137.95573 204.730469,137.851562 L203.109375,136.230469 C203.005208,136.126302 202.946615,135.992839 202.933594,135.830078 C202.920573,135.667317 202.946614,135.527344 203.011719,135.410156 L204.730469,132.890625 C204.808594,132.773437 204.82487,132.659506 204.779297,132.548828 C204.733724,132.43815 204.639324,132.376302 204.496094,132.363281 L201.527344,131.816406 C201.384114,131.803385 201.260417,131.731771 201.15625,131.601562 C201.052083,131.471354 201,131.334636 201,131.191406 L201,128.886719 C201,128.743489 201.052083,128.613282 201.15625,128.496094 C201.260417,128.378906 201.384114,128.307292 201.527344,128.28125 L204.476562,127.734375 C204.632813,127.695312 204.733724,127.623698 204.779297,127.519531 C204.82487,127.415364 204.808594,127.304688 204.730469,127.1875 L203.011719,124.667969 C202.933593,124.550781 202.904297,124.414063 202.923828,124.257812 C202.943359,124.101562 203.005208,123.971355 203.109375,123.867188 L204.730469,122.246094 C204.834636,122.141927 204.968098,122.080078 205.130859,122.060547 C205.293621,122.041016 205.433593,122.070312 205.550781,122.148438 L208.050781,123.867188 C208.167969,123.945313 208.2819,123.961589 208.392578,123.916016 C208.503256,123.870442 208.571614,123.776042 208.597656,123.632812 L209.144531,120.605469 C209.157552,120.449218 209.229166,120.309245 209.359375,120.185547 C209.489584,120.061848 209.626301,120 209.769531,120 L212.074219,120 C212.217449,120 212.347656,120.065104 212.464844,120.195312 C212.582032,120.325521 212.653646,120.462239 212.679688,120.605469 L213.226562,123.59375 C213.252604,123.723959 213.320963,123.818359 213.431641,123.876953 C213.542318,123.935547 213.656249,123.925782 213.773438,123.847656 L216.292969,122.148438 C216.410157,122.070312 216.543619,122.03776 216.693359,122.050781 C216.8431,122.063802 216.976562,122.128906 217.09375,122.246094 L218.714844,123.867188 C218.819011,123.971355 218.877604,124.101562 218.890625,124.257812 C218.903646,124.414063 218.877604,124.550781 218.8125,124.667969 L217.09375,127.1875 C217.015625,127.304688 217.002604,127.415364 217.054688,127.519531 C217.106771,127.623698 217.204426,127.695312 217.347656,127.734375 L220.375,128.28125 C220.531251,128.307292 220.674479,128.378906 220.804688,128.496094 C220.934896,128.613282 221,128.743489 221,128.886719 L221,131.191406 Z M214.232422,131.835938 C214.577476,131.249997 214.75,130.634769 214.75,129.990234 C214.75,129.3457 214.577476,128.733727 214.232422,128.154297 C213.887368,127.574867 213.425133,127.112632 212.845703,126.767578 C212.266273,126.422524 211.651045,126.25 211,126.25 C210.348955,126.25 209.733727,126.422524 209.154297,126.767578 C208.574867,127.112632 208.112632,127.578122 207.767578,128.164062 C207.422524,128.750003 207.25,129.365231 207.25,130.009766 C207.25,130.6543 207.422524,131.266273 207.767578,131.845703 C208.112632,132.425133 208.578122,132.887368 209.164062,133.232422 C209.750003,133.577476 210.361976,133.75 211,133.75 C211.651045,133.75 212.266273,133.577476 212.845703,133.232422 C213.425133,132.887368 213.887368,132.421878 214.232422,131.835938 L214.232422,131.835938 Z" transform="translate(-193 -112)"/>
  </g>
</svg>
