<svg xmlns="http://www.w3.org/2000/svg" width="36" height="36" viewBox="0 0 36 36">
  <g fill="none" fill-rule="evenodd">
    <path fill="#FFFFFF" d="M242.25,896.25 L242.25,893.75 L256,893.75 L256,896.25 L242.25,896.25 Z M242.25,886.25 L242.25,883.75 L256,883.75 L256,886.25 L242.25,886.25 Z M242.25,891.25 L242.25,888.75 L256,888.75 L256,891.25 L242.25,891.25 Z M257.25,896.25 L257.25,893.75 L259.75,893.75 L259.75,896.25 L257.25,896.25 Z M257.25,886.25 L257.25,883.75 L259.75,883.75 L259.75,886.25 L257.25,886.25 Z M257.25,891.25 L257.25,888.75 L259.75,888.75 L259.75,891.25 L257.25,891.25 Z" transform="translate(-233 -872)"/>
  </g>
</svg>
