<svg xmlns="http://www.w3.org/2000/svg" width="36" height="36" viewBox="0 0 36 36">
  <g fill="none" fill-rule="evenodd">
    <path fill="#FFFFFF" d="M255.160156,132.910156 C256.917978,133.183595 258.330724,133.600258 259.398438,134.160156 C260.466151,134.720055 261,135.332028 261,135.996094 C261,136.555992 260.609379,137.076821 259.828125,137.558594 C259.046871,138.040367 257.985684,138.430988 256.644531,138.730469 C256.618489,138.74349 256.585938,138.75 256.546875,138.75 C256.429687,138.75 256.332032,138.710938 256.253906,138.632812 C256.175781,138.554687 256.136719,138.457032 256.136719,138.339844 C256.136719,138.14453 256.234374,138.014323 256.429688,137.949219 C257.380213,137.688801 258.141924,137.386069 258.714844,137.041016 C259.287763,136.695962 259.574219,136.39323 259.574219,136.132812 C259.574219,135.859374 259.268232,135.608725 258.65625,135.380859 C258.044268,135.152994 257.204432,134.960938 256.136719,134.804688 L256.117188,134.804688 C255.999999,134.804688 255.941406,134.85677 255.941406,134.960938 L255.941406,135 C256.058594,135.468752 256.130208,135.930987 256.15625,136.386719 C256.15625,136.503907 256.113933,136.604817 256.029297,136.689453 C255.944661,136.774089 255.843751,136.816406 255.726562,136.816406 L253.148438,136.816406 C253.031249,136.816406 252.933594,136.780599 252.855469,136.708984 C252.777343,136.637369 252.731771,136.542969 252.71875,136.425781 C252.679687,135.957029 252.562501,135.478518 252.367188,134.990234 C252.171874,134.501951 251.960288,134.065757 251.732422,133.681641 C251.504556,133.297524 251.162763,132.838544 250.707031,132.304688 C250.2513,131.770831 249.873699,131.350913 249.574219,131.044922 C249.274738,130.738931 248.838545,130.292972 248.265625,129.707031 C246.638013,128.066398 245.511722,126.80339 244.886719,125.917969 C243.88411,124.498691 243.317709,123.098965 243.1875,121.71875 C243.161458,121.562499 243.213541,121.432292 243.34375,121.328125 C243.421875,121.276041 243.50651,121.25 243.597656,121.25 C243.64974,121.25 243.701823,121.25651 243.753906,121.269531 C244.67839,121.621096 245.576819,121.901041 246.449219,122.109375 C246.631511,122.148438 246.755208,122.252603 246.820312,122.421875 C246.976563,122.825523 247.178384,123.229165 247.425781,123.632812 C247.673178,124.03646 247.998696,124.472654 248.402344,124.941406 C248.805992,125.410159 249.15104,125.791014 249.4375,126.083984 C249.72396,126.376955 250.140622,126.803383 250.6875,127.363281 C250.791667,127.467448 250.895833,127.519531 251,127.519531 C251.104167,127.519531 251.208333,127.467448 251.3125,127.363281 C252.04167,126.634111 252.59505,126.06771 252.972656,125.664062 C253.350262,125.260415 253.76367,124.749352 254.212891,124.130859 C254.662112,123.512367 254.984374,122.942711 255.179688,122.421875 C255.244792,122.252603 255.368489,122.148438 255.550781,122.109375 C256.514328,121.874999 257.412756,121.601564 258.246094,121.289062 C258.298177,121.276042 258.35026,121.269531 258.402344,121.269531 C258.49349,121.269531 258.578125,121.295573 258.65625,121.347656 C258.786459,121.451823 258.845052,121.57552 258.832031,121.71875 C258.688801,123.098965 258.11589,124.498691 257.113281,125.917969 C256.488278,126.80339 255.361987,128.066398 253.734375,129.707031 L253.480469,129.960938 C253.35026,130.091146 253.343749,130.221354 253.460938,130.351562 C253.760418,130.716148 254.027343,131.067707 254.261719,131.40625 C254.600262,131.914065 254.899738,132.415362 255.160156,132.910156 L255.160156,132.910156 Z M248.226562,131.582031 C248.968754,132.350264 249.541665,132.994789 249.945312,133.515625 C250.101563,133.710938 250.121094,133.92578 250.003906,134.160156 C249.574217,134.928389 249.333334,135.68359 249.28125,136.425781 C249.268229,136.542969 249.222657,136.637369 249.144531,136.708984 C249.066406,136.780599 248.968751,136.816406 248.851562,136.816406 L246.273438,136.816406 C246.156249,136.816406 246.055339,136.774089 245.970703,136.689453 C245.886067,136.604817 245.84375,136.503907 245.84375,136.386719 C245.869792,135.930987 245.934895,135.475263 246.039062,135.019531 L246.039062,134.960938 C246.039062,134.85677 245.98698,134.804688 245.882812,134.804688 L245.84375,134.804688 C244.789057,134.960938 243.955732,135.152994 243.34375,135.380859 C242.731768,135.608725 242.425781,135.859374 242.425781,136.132812 C242.425781,136.39323 242.712237,136.695962 243.285156,137.041016 C243.858076,137.386069 244.619787,137.688801 245.570312,137.949219 L245.570312,137.96875 C245.765626,138.020834 245.863281,138.14453 245.863281,138.339844 C245.863281,138.457032 245.824219,138.554687 245.746094,138.632812 C245.667968,138.710938 245.570313,138.75 245.453125,138.75 C245.414062,138.75 245.381511,138.74349 245.355469,138.730469 C244.014316,138.430988 242.953129,138.040367 242.171875,137.558594 C241.390621,137.076821 241,136.555992 241,135.996094 C241,135.332028 241.533849,134.720055 242.601562,134.160156 C243.669276,133.600258 245.082022,133.183595 246.839844,132.910156 C247.048178,132.493488 247.295571,132.070315 247.582031,131.640625 C247.660157,131.523437 247.777343,131.464844 247.933594,131.464844 C248.050782,131.464844 248.148437,131.503906 248.226562,131.582031 L248.226562,131.582031 Z M250.707031,125.273438 C250.303383,124.895831 249.974611,124.4987 249.720703,124.082031 C249.466796,123.665363 249.294271,123.339845 249.203125,123.105469 C249.177083,123.040364 249.164062,122.988281 249.164062,122.949219 C249.164062,122.832031 249.203125,122.737631 249.28125,122.666016 C249.359375,122.594401 249.45052,122.558594 249.554688,122.558594 C249.554688,122.558594 249.714191,122.565104 250.033203,122.578125 C250.352215,122.591146 250.674478,122.597656 251,122.597656 C251.325522,122.597656 251.647785,122.591146 251.966797,122.578125 C252.285809,122.565104 252.445312,122.558594 252.445312,122.558594 C252.54948,122.558594 252.640625,122.594401 252.71875,122.666016 C252.796875,122.737631 252.835938,122.832031 252.835938,122.949219 C252.835938,122.988281 252.822917,123.040364 252.796875,123.105469 C252.705729,123.339845 252.533204,123.665363 252.279297,124.082031 C252.025389,124.4987 251.696617,124.895831 251.292969,125.273438 C251.214843,125.351563 251.117188,125.390625 251,125.390625 C250.882812,125.390625 250.785157,125.351563 250.707031,125.273438 L250.707031,125.273438 Z" transform="translate(-233 -112)"/>
  </g>
</svg>
