<svg xmlns="http://www.w3.org/2000/svg" width="36" height="36" viewBox="0 0 36 36">
  <g fill="none" fill-rule="evenodd">
    <path fill="#FFFFFF" d="M284.75,131.25 L284.75,130 L293.5,130 L293.5,131.25 L284.75,131.25 Z M284.75,133.75 L284.75,132.5 L293.5,132.5 L293.5,133.75 L284.75,133.75 Z M284.75,136.25 L284.75,135 L293.5,135 L293.5,136.25 L284.75,136.25 Z M294.75,127.5 L294.75,126.25 L297.25,126.25 L297.25,127.5 L294.75,127.5 Z M294.75,130 L294.75,128.75 L297.25,128.75 L297.25,130 L294.75,130 Z M294.75,132.5 L294.75,131.25 L297.25,131.25 L297.25,132.5 L294.75,132.5 Z M292.25,123.75 C293.291672,123.75 294.17708,124.11458 294.90625,124.84375 C295.63542,125.57292 296,126.458328 296,127.5 L296,136.25 C296,137.291672 295.63542,138.17708 294.90625,138.90625 C294.17708,139.63542 293.291672,140 292.25,140 L286,140 C284.971349,140 284.089196,139.63542 283.353516,138.90625 C282.617835,138.17708 282.25,137.291672 282.25,136.25 L282.25,127.5 C282.25,126.458328 282.617835,125.57292 283.353516,124.84375 C284.089196,124.11458 284.971349,123.75 286,123.75 L292.25,123.75 Z M294.75,136.25 L294.75,127.5 C294.75,126.809892 294.505862,126.220706 294.017578,125.732422 C293.529294,125.244138 292.940108,125 292.25,125 L286,125 C285.309892,125 284.720706,125.244138 284.232422,125.732422 C283.744138,126.220706 283.5,126.809892 283.5,127.5 L283.5,136.25 C283.5,136.940108 283.744138,137.529294 284.232422,138.017578 C284.720706,138.505862 285.309892,138.75 286,138.75 L292.25,138.75 C292.940108,138.75 293.529294,138.505862 294.017578,138.017578 C294.505862,137.529294 294.75,136.940108 294.75,136.25 L294.75,136.25 Z M287.25,125 L286,125 L286,123.75 C286,122.708328 286.36458,121.82292 287.09375,121.09375 C287.82292,120.36458 288.708328,120 289.75,120 L295.980469,120 C297.022141,120 297.910804,120.36458 298.646484,121.09375 C299.382165,121.82292 299.75,122.708328 299.75,123.75 L299.75,132.5 C299.75,133.541672 299.38542,134.42708 298.65625,135.15625 C297.92708,135.88542 297.041672,136.25 296,136.25 L294.75,136.25 L294.75,135 L296,135 C296.690108,135 297.279294,134.755862 297.767578,134.267578 C298.255862,133.779294 298.5,133.190108 298.5,132.5 L298.5,123.75 C298.5,123.059892 298.255862,122.470706 297.767578,121.982422 C297.279294,121.494138 296.683597,121.25 295.980469,121.25 L289.75,121.25 C289.059892,121.25 288.470706,121.494138 287.982422,121.982422 C287.494138,122.470706 287.25,123.059892 287.25,123.75 L287.25,125 Z" transform="translate(-273 -112)"/>
  </g>
</svg>
