<svg xmlns="http://www.w3.org/2000/svg" width="36" height="36" viewBox="0 0 36 36">
  <g fill="none" fill-rule="evenodd">
    <path fill="#FFFFFF" d="M47.8499985,178.75 C47.1598909,178.75 46.570704,178.505862 46.0824203,178.017578 C45.5941367,177.529294 45.3499985,176.940108 45.3499985,176.25 L45.3499985,167.5 L56.5999985,167.5 L56.5999985,176.25 C56.5999985,176.940108 56.3558603,177.529294 55.8675766,178.017578 C55.3792929,178.505862 54.7901061,178.75 54.0999985,178.75 L47.8499985,178.75 Z M48.1039047,176.25 L48.8460922,176.25 L48.8460922,170 L48.1039047,170 L48.1039047,176.25 Z M50.6039047,170 L50.6039047,176.25 L51.3460922,176.25 L51.3460922,170 L50.6039047,170 Z M53.1039047,170 L53.1039047,176.25 L53.8460922,176.25 L53.8460922,170 L53.1039047,170 Z M45.3499985,163.75 L52.8499985,163.75 L54.0999985,163.75 L54.0999985,162.5 C54.0999985,162.148436 53.979557,161.852215 53.7386703,161.611328 C53.4977837,161.370442 53.2015627,161.25 52.8499985,161.25 L49.0999985,161.25 C48.7484342,161.25 48.4522132,161.370442 48.2113266,161.611328 C47.97044,161.852215 47.8499985,162.148436 47.8499985,162.5 L47.8499985,163.75 L49.0999985,163.730469 L49.0999985,162.5 L52.8499985,162.5 L52.8499985,163.75 L56.5999985,163.75 C56.9515627,163.75 57.2477837,163.870442 57.4886703,164.111328 C57.729557,164.352215 57.8499985,164.648436 57.8499985,165 L57.8499985,166.25 L44.0999985,166.25 L44.0999985,165 C44.0999985,164.648436 44.22044,164.352215 44.4613266,164.111328 C44.7022132,163.870442 44.9984342,163.75 45.3499985,163.75 L45.3499985,163.75 Z" transform="translate(-33 -152)"/>
  </g>
</svg>
