<svg xmlns="http://www.w3.org/2000/svg" width="36" height="36" viewBox="0 0 36 36">
  <g fill="none" fill-rule="evenodd">
    <path fill="#FFFFFF" d="M97.25,165 C98.2916719,165 99.1770797,165.36458 99.90625,166.09375 C100.63542,166.82292 101,167.708328 101,168.75 C101,169.752609 100.648441,170.615231 99.9453125,171.337891 C99.242184,172.06055 98.3893279,172.441406 97.3867188,172.480469 L91.0390625,166.09375 L84.6132812,172.480469 C83.6106721,172.454427 82.757816,172.080082 82.0546875,171.357422 C81.351559,170.634762 81,169.76563 81,168.75 C81,167.708328 81.3645797,166.82292 82.09375,166.09375 C82.8229203,165.36458 83.7083281,165 84.75,165 C85.257815,165 85.7395811,165.097655 86.1953125,165.292969 C85.492184,164.472652 84.6132865,163.984376 83.5585938,163.828125 C83.7018236,162.73437 84.1803345,161.82292 84.9941406,161.09375 C85.8079468,160.36458 86.7682236,160 87.875,160 C88.6041703,160 89.2812469,160.166014 89.90625,160.498047 C90.5312531,160.83008 91.0455709,161.282549 91.4492188,161.855469 C92.0742219,161.451821 92.7578088,161.25 93.5,161.25 C94.398442,161.25 95.1894497,161.5332 95.8730469,162.099609 C96.556644,162.666018 96.9895824,163.378902 97.171875,164.238281 C96.6510391,164.498699 96.2018248,164.850258 95.8242188,165.292969 C96.2799502,165.097655 96.7552059,165 97.25,165 L97.25,165 Z M85.375,174.375 L91.0195312,168.75 L96.625,174.375 L95.375,175.625 L92.25,172.5 L92.25,180 L89.75,180 L89.75,172.5 L86.625,175.625 L85.375,174.375 Z" transform="translate(-73 -152)"/>
  </g>
</svg>
