<svg xmlns="http://www.w3.org/2000/svg" width="36" height="36" viewBox="0 0 36 36">
  <g fill="none" fill-rule="evenodd">
    <path fill="#FFFFFF" d="M17.25,1045 C18.2916719,1045 19.1770797,1045.36458 19.90625,1046.09375 C20.6354203,1046.82292 21,1047.70833 21,1048.75 C21,1049.79167 20.6354203,1050.67708 19.90625,1051.40625 C19.1770797,1052.13542 18.2916719,1052.5 17.25,1052.5 L13.5,1052.5 L13.5,1047.5 L8.5,1047.5 L8.5,1052.5 L4.75,1052.5 C3.70832813,1052.5 2.82292031,1052.13542 2.09375,1051.40625 C1.36457969,1050.67708 1,1049.79167 1,1048.75 C1,1047.70833 1.36457969,1046.82292 2.09375,1046.09375 C2.82292031,1045.36458 3.70832813,1045 4.75,1045 C5.25781504,1045 5.73958105,1045.09766 6.1953125,1045.29297 C5.49218398,1044.47265 4.61328652,1043.98438 3.55859375,1043.82812 C3.70182363,1042.73437 4.18033447,1041.82292 4.99414062,1041.09375 C5.80794678,1040.36458 6.76822363,1040 7.875,1040 C8.60417031,1040 9.28124688,1040.16601 9.90625,1040.49805 C10.5312531,1040.83008 11.0455709,1041.28255 11.4492188,1041.85547 C12.0742219,1041.45182 12.7578088,1041.25 13.5,1041.25 C14.398442,1041.25 15.1894497,1041.5332 15.8730469,1042.09961 C16.556644,1042.66602 16.9895824,1043.3789 17.171875,1044.23828 C16.6510391,1044.4987 16.2018248,1044.85026 15.8242188,1045.29297 C16.2799502,1045.09766 16.7552059,1045 17.25,1045 L17.25,1045 Z M9.75,1060 L9.75,1057.5 L12.25,1057.5 L12.25,1060 L9.75,1060 Z M9.75,1056.25 L9.75,1048.75 L12.25,1048.75 L12.25,1056.25 L9.75,1056.25 Z" transform="translate(7 -1032)"/>
  </g>
</svg>
