<svg xmlns="http://www.w3.org/2000/svg" width="36" height="36" viewBox="0 0 36 36">
  <g fill="none" fill-rule="evenodd">
    <path fill="#FFFFFF" d="M297.25,1005 C298.291672,1005 299.17708,1005.36458 299.90625,1006.09375 C300.63542,1006.82292 301,1007.70833 301,1008.75 C301,1009.38802 300.850262,1009.97721 300.550781,1010.51758 C300.251301,1011.05795 299.847659,1011.49739 299.339844,1011.83594 L295.453125,1007.92969 L290.882812,1012.5 L284.75,1012.5 C283.708328,1012.5 282.82292,1012.13542 282.09375,1011.40625 C281.36458,1010.67708 281,1009.79167 281,1008.75 C281,1007.70833 281.36458,1006.82292 282.09375,1006.09375 C282.82292,1005.36458 283.708328,1005 284.75,1005 C285.257815,1005 285.739581,1005.09766 286.195312,1005.29297 C285.492184,1004.47265 284.613287,1003.98438 283.558594,1003.82812 C283.701824,1002.73437 284.180334,1001.82292 284.994141,1001.09375 C285.807947,1000.36458 286.768224,1000 287.875,1000 C288.60417,1000 289.281247,1000.16601 289.90625,1000.49805 C290.531253,1000.83008 291.045571,1001.28255 291.449219,1001.85547 C292.074222,1001.45182 292.757809,1001.25 293.5,1001.25 C294.398442,1001.25 295.18945,1001.5332 295.873047,1002.09961 C296.556644,1002.66602 296.989582,1003.3789 297.171875,1004.23828 C296.651039,1004.4987 296.201825,1004.85026 295.824219,1005.29297 C296.27995,1005.09766 296.755206,1005 297.25,1005 L297.25,1005 Z M289.125,1016.91406 L295.453125,1010.58594 L296.996094,1012.12891 L289.125,1020 L285.140625,1016.01562 L286.703125,1014.47266 L289.125,1016.91406 Z" transform="translate(-273 -992)"/>
  </g>
</svg>
