<svg xmlns="http://www.w3.org/2000/svg" width="36" height="36" viewBox="0 0 36 36">
  <g fill="none" fill-rule="evenodd">
    <path fill="#FFFFFF" d="M121,161.75 L141,161.75 L141,163 L121,163 L121,161.75 Z M121,164.25 L136,164.25 L136,165.5 L121,165.5 L121,164.25 Z M121,166.75 L141,166.75 L141,168 L121,168 L121,166.75 Z M121,169.25 L141,169.25 L141,170.5 L121,170.5 L121,169.25 Z M121,171.75 L133.5,171.75 L133.5,173 L121,173 L121,171.75 Z M121,174.25 L141,174.25 L141,175.5 L121,175.5 L121,174.25 Z M121,176.75 L133.5,176.75 L133.5,178 L121,178 L121,176.75 Z" transform="translate(-113 -152)"/>
  </g>
</svg>
