<svg xmlns="http://www.w3.org/2000/svg" width="36" height="36" viewBox="0 0 36 36">
  <g fill="none" fill-rule="evenodd">
    <path fill="#FFFFFF" d="M91.0390625,214.941406 L84.59375,207.5 L89.75,207.5 L89.75,200 L92.25,200 L92.25,207.5 L97.4648438,207.5 L91.0390625,214.941406 Z M101,212.5 L101,218.789062 C101,219.166669 100.869793,219.46289 100.609375,219.677734 C100.348957,219.892579 100.023439,220 99.6328125,220 L82.40625,220 C82.015623,220 81.6835951,219.892579 81.4101562,219.677734 C81.1367174,219.46289 81,219.166669 81,218.789062 L81,212.5 L83.5,212.5 L83.5,217.5 L98.5,217.5 L98.5,212.5 L101,212.5 Z" transform="translate(-73 -192)"/>
  </g>
</svg>
