<svg xmlns="http://www.w3.org/2000/svg" width="36" height="36" viewBox="0 0 36 36">
  <g fill="none" fill-rule="evenodd">
    <path fill="#FFFFFF" d="M168,240 L176.730469,240 C177.772141,240 178.660804,240.36458 179.396484,241.09375 C180.132165,241.82292 180.5,242.708328 180.5,243.75 L180.5,253.75 C180.5,254.583337 180.252607,255.328773 179.757812,255.986328 C179.263018,256.643883 178.625004,257.096353 177.84375,257.34375 C177.609374,258.125004 177.16016,258.763018 176.496094,259.257812 C175.832028,259.752607 175.083337,260 174.25,260 L165.5,260 C164.458328,260 163.57292,259.63542 162.84375,258.90625 C162.11458,258.17708 161.75,257.291672 161.75,256.25 L161.75,246.25 C161.75,245.416663 161.997393,244.667972 162.492188,244.003906 C162.986982,243.33984 163.624996,242.890626 164.40625,242.65625 C164.640626,241.874996 165.08984,241.236982 165.753906,240.742188 C166.417972,240.247393 167.166663,240 168,240 L168,240 Z M179.230469,253.75 L179.230469,243.75 C179.230469,243.072913 178.986331,242.486982 178.498047,241.992188 C178.009763,241.497393 177.420576,241.25 176.730469,241.25 L168,241.25 C167.531248,241.25 167.108075,241.363931 166.730469,241.591797 C166.352863,241.819663 166.053387,242.122394 165.832031,242.5 L174.25,242.5 C175.291672,242.5 176.17708,242.86458 176.90625,243.59375 C177.63542,244.32292 178,245.208328 178,246.25 L178,255.917969 C178.377606,255.683593 178.677082,255.374351 178.898438,254.990234 C179.119793,254.606118 179.230469,254.192711 179.230469,253.75 L179.230469,253.75 Z M166.75,243.769531 L165.519531,243.769531 C164.829424,243.769531 164.240237,244.013669 163.751953,244.501953 C163.263669,244.990237 163.019531,245.579424 163.019531,246.269531 L163.019531,256.269531 C163.019531,256.959639 163.263669,257.548826 163.751953,258.037109 C164.240237,258.525393 164.829424,258.769531 165.519531,258.769531 L166.75,258.769531 L166.75,243.769531 Z M176.769531,256.269531 L176.769531,246.269531 C176.769531,245.579424 176.522138,244.990237 176.027344,244.501953 C175.53255,244.013669 174.940108,243.769531 174.25,243.769531 L168,243.769531 L168,253.730469 C168.338543,253.730469 168.657551,253.714193 168.957031,253.681641 C169.256512,253.649088 169.582029,253.58073 169.933594,253.476562 C170.285158,253.372395 170.584634,253.229168 170.832031,253.046875 C171.079428,252.864582 171.28776,252.610679 171.457031,252.285156 C171.626303,251.959634 171.723958,251.582033 171.75,251.152344 C171.385415,251.022135 171.085939,250.797528 170.851562,250.478516 C170.617186,250.159504 170.5,249.791669 170.5,249.375 C170.5,248.828122 170.68229,248.378908 171.046875,248.027344 C171.41146,247.675779 171.854164,247.5 172.375,247.5 C172.895836,247.5 173.33854,247.679035 173.703125,248.037109 C174.06771,248.395184 174.25,248.841143 174.25,249.375 C174.25,249.80469 174.139324,250.17578 173.917969,250.488281 C173.696613,250.800783 173.397137,251.022135 173.019531,251.152344 C173.00651,252.285162 172.53451,253.216142 171.603516,253.945312 C170.672521,254.674483 169.471362,255.026042 168,255 L168,258.769531 L174.25,258.769531 C174.953129,258.769531 175.548826,258.525393 176.037109,258.037109 C176.525393,257.548826 176.769531,256.959639 176.769531,256.269531 L176.769531,256.269531 Z" transform="translate(-153 -232)"/>
  </g>
</svg>
