<svg xmlns="http://www.w3.org/2000/svg" width="36" height="36" viewBox="0 0 36 36">
  <g fill="none" fill-rule="evenodd">
    <path fill="#FFFFFF" d="M284.75,240 L297.25,240 C298.291672,240 299.17708,240.36458 299.90625,241.09375 C300.63542,241.82292 301,242.708328 301,243.75 L301,256.25 C301,257.291672 300.63542,258.17708 299.90625,258.90625 C299.17708,259.63542 298.291672,260 297.25,260 L284.75,260 C283.708328,260 282.82292,259.63542 282.09375,258.90625 C281.36458,258.17708 281,257.291672 281,256.25 L281,243.75 C281,242.708328 281.36458,241.82292 282.09375,241.09375 C282.82292,240.36458 283.708328,240 284.75,240 L284.75,240 Z M299.75,256.25 L299.75,243.75 C299.75,243.059892 299.502607,242.470706 299.007812,241.982422 C298.513018,241.494138 297.927087,241.25 297.25,241.25 L284.75,241.25 C284.072913,241.25 283.486982,241.494138 282.992188,241.982422 C282.497393,242.470706 282.25,243.059892 282.25,243.75 L282.25,256.25 C282.25,256.940108 282.497393,257.529294 282.992188,258.017578 C283.486982,258.505862 284.072913,258.75 284.75,258.75 L297.25,258.75 C297.927087,258.75 298.513018,258.505862 299.007812,258.017578 C299.502607,257.529294 299.75,256.940108 299.75,256.25 L299.75,256.25 Z M284.769531,246.269531 L288.519531,246.269531 C288.923179,246.269531 289.277993,246.223959 289.583984,246.132812 C289.889975,246.041666 290.111327,245.957032 290.248047,245.878906 C290.384766,245.800781 290.586587,245.657553 290.853516,245.449219 C291.120444,245.240884 291.31901,245.091146 291.449219,245 C291.996096,244.609373 292.513669,244.309897 293.001953,244.101562 C293.490237,243.893228 294.079424,243.789062 294.769531,243.789062 L297.269531,243.769531 L297.269531,250.019531 L294.769531,250.019531 C294.404946,250.019531 294.063153,249.986979 293.744141,249.921875 C293.425129,249.856771 293.122397,249.75586 292.835938,249.619141 C292.549478,249.482421 292.315105,249.358725 292.132812,249.248047 C291.95052,249.137369 291.722658,248.984376 291.449219,248.789062 C291.332031,248.710937 291.13672,248.564454 290.863281,248.349609 C290.589842,248.134765 290.384766,247.988282 290.248047,247.910156 C290.111327,247.832031 289.889975,247.750651 289.583984,247.666016 C289.277993,247.58138 288.923179,247.532552 288.519531,247.519531 L284.769531,247.519531 L284.769531,246.269531 Z M293.050781,253.75 L297.269531,253.75 L297.269531,255 L293.5,255 C293.421875,255 293.24935,254.996745 292.982422,254.990234 C292.715493,254.983724 292.533204,254.983724 292.435547,254.990234 C292.33789,254.996745 292.178387,255.00651 291.957031,255.019531 C291.735676,255.032552 291.566407,255.048828 291.449219,255.068359 C291.332031,255.087891 291.188803,255.120442 291.019531,255.166016 C290.85026,255.211589 290.697266,255.266927 290.560547,255.332031 C290.423827,255.397136 290.290365,255.47526 290.160156,255.566406 C289.756508,255.852866 289.369142,256.035156 288.998047,256.113281 C288.626951,256.191407 288.044275,256.236979 287.25,256.25 L284.75,256.25 L284.75,252.519531 L287.25,252.519531 C288.057296,252.532552 288.643227,252.578125 289.007812,252.65625 C289.372398,252.734375 289.756508,252.916665 290.160156,253.203125 C290.680992,253.580731 291.644524,253.769531 293.050781,253.769531 L293.050781,253.75 Z" transform="translate(-273 -232)"/>
  </g>
</svg>
