<svg xmlns="http://www.w3.org/2000/svg" width="36" height="36" viewBox="0 0 36 36">
  <g fill="none" fill-rule="evenodd">
    <path fill="#FFFFFF" d="M174.876953,299.208984 C173.646478,299.736331 172.354173,300 171,300 C169.645827,300 168.350267,299.733076 167.113281,299.199219 C165.876296,298.665362 164.811853,297.952478 163.919922,297.060547 C163.02799,296.168615 162.318362,295.107428 161.791016,293.876953 C161.263669,292.646478 161,291.354173 161,290 C161,288.645827 161.266924,287.350267 161.800781,286.113281 C162.334638,284.876296 163.047522,283.811853 163.939453,282.919922 C164.831385,282.02799 165.892572,281.318362 167.123047,280.791016 C168.353522,280.263669 169.645827,280 171,280 C172.354173,280 173.649733,280.266924 174.886719,280.800781 C176.123704,281.334638 177.188147,282.047522 178.080078,282.939453 C178.97201,283.831385 179.681638,284.892572 180.208984,286.123047 C180.736331,287.353522 181,288.645827 181,290 C181,291.354173 180.733076,292.649733 180.199219,293.886719 C179.665362,295.123704 178.952478,296.188147 178.060547,297.080078 C177.168615,297.97201 176.107428,298.681638 174.876953,299.208984 L174.876953,299.208984 Z M174.134766,282.568359 C173.138667,282.14518 172.093755,281.933594 171,281.933594 C169.906245,281.933594 168.861333,282.14518 167.865234,282.568359 C166.869136,282.991539 166.009769,283.56445 165.287109,284.287109 C164.56445,285.009769 163.991539,285.869136 163.568359,286.865234 C163.14518,287.861333 162.933594,288.906245 162.933594,290 C162.933594,291.093755 163.14518,292.138667 163.568359,293.134766 C163.991539,294.130864 164.56445,294.990231 165.287109,295.712891 C166.009769,296.43555 166.869136,297.008461 167.865234,297.431641 C168.861333,297.85482 169.906245,298.066406 171,298.066406 C172.093755,298.066406 173.138667,297.85482 174.134766,297.431641 C175.130864,297.008461 175.990231,296.43555 176.712891,295.712891 C177.43555,294.990231 178.008461,294.130864 178.431641,293.134766 C178.85482,292.138667 179.066406,291.093755 179.066406,290 C179.066406,288.906245 178.85482,287.861333 178.431641,286.865234 C178.008461,285.869136 177.43555,285.009769 176.712891,284.287109 C175.990231,283.56445 175.130864,282.991539 174.134766,282.568359 L174.134766,282.568359 Z M176,288.75 L176,291.25 L166,291.25 L166,288.75 L176,288.75 Z" transform="translate(-153 -272)"/>
  </g>
</svg>
