<svg xmlns="http://www.w3.org/2000/svg" width="36" height="36" viewBox="0 0 36 36">
  <g fill="none" fill-rule="evenodd">
    <path fill="#FFFFFF" d="M134.876953,299.208984 C133.646478,299.736331 132.354173,300 131,300 C129.645827,300 128.350267,299.733076 127.113281,299.199219 C125.876296,298.665362 124.811853,297.952478 123.919922,297.060547 C123.02799,296.168615 122.318362,295.107428 121.791016,293.876953 C121.263669,292.646478 121,291.354173 121,290 C121,288.645827 121.266924,287.350267 121.800781,286.113281 C122.334638,284.876296 123.047522,283.811853 123.939453,282.919922 C124.831385,282.02799 125.892572,281.318362 127.123047,280.791016 C128.353522,280.263669 129.645827,280 131,280 C132.354173,280 133.649733,280.266924 134.886719,280.800781 C136.123704,281.334638 137.188147,282.047522 138.080078,282.939453 C138.97201,283.831385 139.681638,284.892572 140.208984,286.123047 C140.736331,287.353522 141,288.645827 141,290 C141,291.354173 140.733076,292.649733 140.199219,293.886719 C139.665362,295.123704 138.952478,296.188147 138.060547,297.080078 C137.168615,297.97201 136.107428,298.681638 134.876953,299.208984 L134.876953,299.208984 Z M134.134766,282.568359 C133.138667,282.14518 132.093755,281.933594 131,281.933594 C129.906245,281.933594 128.861333,282.14518 127.865234,282.568359 C126.869136,282.991539 126.009769,283.56445 125.287109,284.287109 C124.56445,285.009769 123.991539,285.869136 123.568359,286.865234 C123.14518,287.861333 122.933594,288.906245 122.933594,290 C122.933594,291.093755 123.14518,292.138667 123.568359,293.134766 C123.991539,294.130864 124.56445,294.990231 125.287109,295.712891 C126.009769,296.43555 126.869136,297.008461 127.865234,297.431641 C128.861333,297.85482 129.906245,298.066406 131,298.066406 C132.093755,298.066406 133.138667,297.85482 134.134766,297.431641 C135.130864,297.008461 135.990231,296.43555 136.712891,295.712891 C137.43555,294.990231 138.008461,294.130864 138.431641,293.134766 C138.85482,292.138667 139.066406,291.093755 139.066406,290 C139.066406,288.906245 138.85482,287.861333 138.431641,286.865234 C138.008461,285.869136 137.43555,285.009769 136.712891,284.287109 C135.990231,283.56445 135.130864,282.991539 134.134766,282.568359 L134.134766,282.568359 Z M133.65625,285.585938 L135.414062,287.34375 L128.34375,294.414062 L126.585938,292.65625 L133.65625,285.585938 Z" transform="translate(-113 -272)"/>
  </g>
</svg>
