<svg xmlns="http://www.w3.org/2000/svg" width="36" height="36" viewBox="0 0 36 36">
  <g fill="none" fill-rule="evenodd">
    <path fill="#FFFFFF" d="M132.25,201.25 L132.25,205.15625 C133.343755,205.44271 134.242184,206.035152 134.945312,206.933594 C135.648441,207.832036 136,208.854161 136,210 C136,211.15886 135.645186,212.187496 134.935547,213.085938 C134.225908,213.984379 133.330735,214.570311 132.25,214.84375 L132.25,218.75 L129.75,218.75 L129.75,214.84375 C128.656245,214.570311 127.757816,213.984379 127.054688,213.085938 C126.351559,212.187496 126,211.15886 126,210 C126,208.854161 126.354814,207.832036 127.064453,206.933594 C127.774092,206.035152 128.669265,205.44271 129.75,205.15625 L129.75,201.25 L132.25,201.25 Z M128.792969,212.216797 C129.404951,212.822269 130.140621,213.125 131,213.125 C131.859379,213.125 132.595049,212.819013 133.207031,212.207031 C133.819013,211.595049 134.125,210.859379 134.125,210 C134.125,209.140621 133.819013,208.408206 133.207031,207.802734 C132.595049,207.197263 131.859379,206.894531 131,206.894531 C130.140621,206.894531 129.404951,207.197263 128.792969,207.802734 C128.180987,208.408206 127.875,209.140621 127.875,210 C127.875,210.8724 128.180987,211.611325 128.792969,212.216797 L128.792969,212.216797 Z" transform="translate(-113 -192)"/>
  </g>
</svg>
