<svg xmlns="http://www.w3.org/2000/svg" width="36" height="36" viewBox="0 0 36 36">
  <g fill="none" fill-rule="evenodd">
    <path fill="#FFFFFF" d="M11,245 L18.5,245 C18.8515643,245 19.1477853,245.120442 19.3886719,245.361328 C19.6295585,245.602215 19.75,245.898436 19.75,246.25 L19.75,256.25 C19.75,256.588543 19.6263033,256.881509 19.3789062,257.128906 C19.1315092,257.376303 18.8385434,257.5 18.5,257.5 L3.51953125,257.5 C3.18098789,257.5 2.88802207,257.376303 2.640625,257.128906 C2.39322793,256.881509 2.26953125,256.588543 2.26953125,256.25 L2.26953125,245 L2.26953125,243.75 C2.26953125,243.398436 2.38997275,243.102215 2.63085938,242.861328 C2.871746,242.620442 3.16796699,242.5 3.51953125,242.5 L9.76953125,242.5 C10.1210955,242.5 10.4140613,242.620442 10.6484375,242.861328 C10.8828137,243.102215 11,243.398436 11,243.75 L11,245 Z" transform="translate(7 -232)"/>
  </g>
</svg>
