<svg xmlns="http://www.w3.org/2000/svg" width="36" height="36" viewBox="0 0 36 36">
  <g fill="none" fill-rule="evenodd">
    <path fill="#FFFFFF" d="M49.6523438,281.25 C49.8606781,281.276042 52.9856469,284.38799 59.0273438,290.585938 C59.509117,291.080732 59.75,291.669918 59.75,292.353516 C59.75,293.037113 59.509117,293.619789 59.0273438,294.101562 C58.2851525,294.830733 56.9440201,296.145824 55.0039062,298.046875 C54.5091121,298.528648 53.9166701,298.766276 53.2265625,298.759766 C52.5364549,298.753255 51.9505232,298.509117 51.46875,298.027344 C45.3359068,291.946584 42.2630209,288.821615 42.25,288.652344 L42.25,283.710938 C42.25,283.033851 42.490883,282.454429 42.9726562,281.972656 C43.4544295,281.490883 44.0338508,281.25 44.7109375,281.25 L49.6523438,281.25 Z M45.3847656,286.904297 C45.7298194,287.249351 46.1432268,287.421875 46.625,287.421875 C47.1067732,287.421875 47.5201806,287.249351 47.8652344,286.904297 C48.2102882,286.559243 48.3828125,286.145836 48.3828125,285.664062 C48.3828125,285.182289 48.2102882,284.772137 47.8652344,284.433594 C47.5201806,284.09505 47.1067732,283.925781 46.625,283.925781 C46.1432268,283.925781 45.7298194,284.09505 45.3847656,284.433594 C45.0397118,284.772137 44.8671875,285.182289 44.8671875,285.664062 C44.8671875,286.145836 45.0397118,286.559243 45.3847656,286.904297 L45.3847656,286.904297 Z" transform="translate(-33 -272)"/>
  </g>
</svg>
