<svg xmlns="http://www.w3.org/2000/svg" width="36" height="36" viewBox="0 0 36 36">
  <g fill="none" fill-rule="evenodd">
    <path fill="#FFFFFF" d="M246.75,200 L255.5,200 C256.541672,200 257.42708,200.36458 258.15625,201.09375 C258.88542,201.82292 259.25,202.708328 259.25,203.75 L259.25,216.25 C259.25,217.291672 258.88542,218.17708 258.15625,218.90625 C257.42708,219.63542 256.541672,220 255.5,220 L246.75,220 C245.708328,220 244.82292,219.63542 244.09375,218.90625 C243.36458,218.17708 243,217.291672 243,216.25 L243,203.75 C243,202.708328 243.36458,201.82292 244.09375,201.09375 C244.82292,200.36458 245.708328,200 246.75,200 L246.75,200 Z M258,216.25 L258,203.75 C258,203.059892 257.752607,202.470706 257.257812,201.982422 C256.763018,201.494138 256.177087,201.25 255.5,201.25 L246.75,201.25 C246.072913,201.25 245.486982,201.494138 244.992188,201.982422 C244.497393,202.470706 244.25,203.059892 244.25,203.75 L244.25,216.25 C244.25,216.940108 244.497393,217.529294 244.992188,218.017578 C245.486982,218.505862 246.072913,218.75 246.75,218.75 L255.5,218.75 C256.177087,218.75 256.763018,218.505862 257.257812,218.017578 C257.752607,217.529294 258,216.940108 258,216.25 L258,216.25 Z" transform="translate(-233 -192)"/>
  </g>
</svg>
