<svg xmlns="http://www.w3.org/2000/svg" width="36" height="36" viewBox="0 0 36 36">
  <g fill="none" fill-rule="evenodd">
    <path fill="#FFFFFF" d="M181,215 L176,218.75 L176,216.25 L172.25,216.25 C171.572913,216.25 170.752609,215.462247 169.789062,213.886719 C170.03646,213.457029 170.492184,212.649746 171.15625,211.464844 C172.054692,212.988289 172.835934,213.75 173.5,213.75 L176,213.75 L176,211.25 L181,215 Z M168.324219,206.074219 C167.699216,207.285162 167.250001,208.16406 166.976562,208.710938 C166.520831,207.929684 166.113934,207.324221 165.755859,206.894531 C165.397785,206.464842 165.062502,206.25 164.75,206.25 L161,206.25 L161,203.75 L166,203.75 C166.625003,203.75 167.399735,204.524732 168.324219,206.074219 L168.324219,206.074219 Z M181,205 L176,208.75 L176,206.25 L173.5,206.25 C173.044269,206.25 172.546227,206.591793 172.005859,207.275391 C171.465492,207.958988 170.947919,208.792313 170.453125,209.775391 C169.958331,210.758468 169.466799,211.741532 168.978516,212.724609 C168.490232,213.707687 167.982425,214.541012 167.455078,215.224609 C166.927732,215.908207 166.442711,216.25 166,216.25 L161,216.25 L161,213.75 C162.276048,213.776042 163.526036,213.776042 164.75,213.75 C165.114585,213.75 165.547524,213.408207 166.048828,212.724609 C166.550133,212.041012 167.054685,211.207687 167.5625,210.224609 C168.070315,209.241532 168.584633,208.258468 169.105469,207.275391 C169.626305,206.292313 170.166664,205.458988 170.726562,204.775391 C171.286461,204.091793 171.794269,203.75 172.25,203.75 L176,203.75 L176,201.25 L181,205 Z" transform="translate(-153 -192)"/>
  </g>
</svg>
