<svg xmlns="http://www.w3.org/2000/svg" width="36" height="36" viewBox="0 0 36 36">
  <g fill="none" fill-rule="evenodd">
    <path fill="#FFFFFF" d="M58.5,248.730469 L59.75,248.730469 C60.2187523,248.717448 60.5735665,248.860676 60.8144531,249.160156 C61.0553397,249.459637 61.0716156,249.850258 60.8632812,250.332031 L58.5,256.230469 L58.5,256.25 L58.5,256.269531 C58.3958328,256.503907 58.2851568,256.702473 58.1679688,256.865234 C58.0507807,257.027996 57.9401047,257.145182 57.8359375,257.216797 C57.7317703,257.288412 57.634115,257.347005 57.5429688,257.392578 C57.4518225,257.438151 57.3802086,257.467448 57.328125,257.480469 L57.25,257.480469 L57.2304688,257.480469 C57.2304688,257.49349 57.2369791,257.5 57.25,257.5 L42.25,257.5 C41.8984357,257.5 41.6022147,257.379558 41.3613281,257.138672 C41.1204415,256.897785 41,256.601564 41,256.25 L41,243.75 C41,243.398436 41.1204415,243.102215 41.3613281,242.861328 C41.6022147,242.620442 41.8984357,242.5 42.25,242.5 L48.5,242.5 C48.8515643,242.5 49.1477853,242.620442 49.3886719,242.861328 C49.6295585,243.102215 49.75,243.398436 49.75,243.75 L49.75,245 L57.25,245 C57.6015643,245 57.8977853,245.120442 58.1386719,245.361328 C58.3795585,245.602215 58.5,245.898436 58.5,246.25 L58.5,248.730469 Z M57.25,246.25 L48.5,246.25 L48.5,243.75 L42.25,243.75 L42.25,256.230469 L44.75,249.980469 C44.75,249.954427 44.7630207,249.91862 44.7890625,249.873047 C44.8151043,249.827474 44.8606768,249.746094 44.9257812,249.628906 C44.9908857,249.511718 45.0657548,249.401042 45.1503906,249.296875 C45.2350265,249.192708 45.355468,249.085287 45.5117188,248.974609 C45.6679695,248.863932 45.8307283,248.782552 46,248.730469 L57.25,248.730469 L57.25,246.25 Z" transform="translate(-33 -232)"/>
  </g>
</svg>
