<svg xmlns="http://www.w3.org/2000/svg" width="36" height="36" viewBox="0 0 36 36">
  <g fill="none" fill-rule="evenodd">
    <path fill="#FFFFFF" d="M248.5,165.996094 L248.5,172.753906 C249.125003,173.053387 249.600259,173.47656 249.925781,174.023438 C251.058599,173.541664 252.100256,172.916671 253.050781,172.148438 C254.001307,171.380204 254.710935,170.546879 255.179688,169.648438 C254.671872,169.374999 254.264975,168.994143 253.958984,168.505859 C253.652993,168.017576 253.5,167.473961 253.5,166.875 C253.5,166.015621 253.805987,165.279951 254.417969,164.667969 C255.029951,164.055987 255.765621,163.75 256.625,163.75 C257.484379,163.75 258.220049,164.055987 258.832031,164.667969 C259.444013,165.279951 259.75,166.015621 259.75,166.875 C259.75,167.578129 259.538414,168.209633 259.115234,168.769531 C258.692055,169.32943 258.148441,169.70052 257.484375,169.882812 C257.11979,170.807296 256.520837,171.722001 255.6875,172.626953 C254.854163,173.531906 253.968755,174.300127 253.03125,174.931641 C252.093745,175.563154 251.175786,176.054686 250.277344,176.40625 C250.108072,177.083337 249.740237,177.643227 249.173828,178.085938 C248.607419,178.528648 247.966149,178.75 247.25,178.75 C246.390621,178.75 245.654951,178.444013 245.042969,177.832031 C244.430987,177.220049 244.125,176.484379 244.125,175.625 C244.125,174.999997 244.297524,174.427086 244.642578,173.90625 C244.987632,173.385414 245.440101,173.001303 246,172.753906 L246,165.996094 C245.453122,165.748697 245.003908,165.364586 244.652344,164.84375 C244.300779,164.322914 244.125,163.750003 244.125,163.125 C244.125,162.265621 244.430987,161.529951 245.042969,160.917969 C245.654951,160.305987 246.390621,160 247.25,160 C248.109379,160 248.845049,160.305987 249.457031,160.917969 C250.069013,161.529951 250.375,162.265621 250.375,163.125 C250.375,163.750003 250.202476,164.322914 249.857422,164.84375 C249.512368,165.364586 249.059899,165.748697 248.5,165.996094 L248.5,165.996094 Z" transform="translate(-233 -152)"/>
  </g>
</svg>
