<svg xmlns="http://www.w3.org/2000/svg" width="36" height="36" viewBox="0 0 36 36">
  <g fill="none" fill-rule="evenodd">
    <path fill="#FFFFFF" d="M248,240 L256.730469,240 C257.772141,240 258.660804,240.36458 259.396484,241.09375 C260.132165,241.82292 260.5,242.708328 260.5,243.75 L260.5,253.75 C260.5,254.583337 260.252607,255.328773 259.757812,255.986328 C259.263018,256.643883 258.625004,257.096353 257.84375,257.34375 C257.609374,258.125004 257.16016,258.763018 256.496094,259.257812 C255.832028,259.752607 255.083337,260 254.25,260 L245.5,260 C244.458328,260 243.57292,259.63542 242.84375,258.90625 C242.11458,258.17708 241.75,257.291672 241.75,256.25 L241.75,246.25 C241.75,245.416663 241.997393,244.667972 242.492188,244.003906 C242.986982,243.33984 243.624996,242.890626 244.40625,242.65625 C244.640626,241.874996 245.08984,241.236982 245.753906,240.742188 C246.417972,240.247393 247.166663,240 248,240 L248,240 Z M259.230469,253.75 L259.230469,243.75 C259.230469,243.072913 258.986331,242.486982 258.498047,241.992188 C258.009763,241.497393 257.420576,241.25 256.730469,241.25 L248,241.25 C247.531248,241.25 247.108075,241.363931 246.730469,241.591797 C246.352863,241.819663 246.053387,242.122394 245.832031,242.5 L254.25,242.5 C255.291672,242.5 256.17708,242.86458 256.90625,243.59375 C257.63542,244.32292 258,245.208328 258,246.25 L258,255.917969 C258.377606,255.683593 258.677082,255.374351 258.898438,254.990234 C259.119793,254.606118 259.230469,254.192711 259.230469,253.75 L259.230469,253.75 Z M256.769531,256.269531 L256.769531,246.269531 C256.769531,245.579424 256.522138,244.990237 256.027344,244.501953 C255.53255,244.013669 254.940108,243.769531 254.25,243.769531 L245.519531,243.769531 C244.829424,243.769531 244.240237,244.013669 243.751953,244.501953 C243.263669,244.990237 243.019531,245.579424 243.019531,246.269531 L243.019531,256.269531 C243.019531,256.959639 243.263669,257.548826 243.751953,258.037109 C244.240237,258.525393 244.829424,258.769531 245.519531,258.769531 L254.25,258.769531 C254.953129,258.769531 255.548826,258.525393 256.037109,258.037109 C256.525393,257.548826 256.769531,256.959639 256.769531,256.269531 L256.769531,256.269531 Z M253,251.25 L253,255 L246.75,255 L246.75,251.25 L248,251.25 L248,247.5 L251.75,247.5 L251.75,251.25 L253,251.25 Z M250.5,248.75 L249.25,248.75 L249.25,251.25 L250.5,251.25 L250.5,248.75 Z" transform="translate(-233 -232)"/>
  </g>
</svg>
