<svg xmlns="http://www.w3.org/2000/svg" width="36" height="36" viewBox="0 0 36 36">
  <g fill="none" fill-rule="evenodd">
    <path fill="#FFFFFF" d="M101,255 L96,258.75 L96,256.25 L92.1132812,256.25 C91.6575498,256.223958 91.2246114,256.142579 90.8144531,256.005859 C90.4042948,255.86914 90.0429703,255.690105 89.7304688,255.46875 C89.4179672,255.247395 89.118491,255.006512 88.8320312,254.746094 C88.5455715,254.485676 88.2819022,254.225262 88.0410156,253.964844 C87.800129,253.704426 87.5722667,253.466798 87.3574219,253.251953 C87.1425771,253.037108 86.9179699,252.861329 86.6835938,252.724609 C86.4492176,252.58789 86.2213553,252.513021 86,252.5 L81,252.5 L81,247.5 L86,247.5 C86.2213553,247.486979 86.4492176,247.41211 86.6835938,247.275391 C86.9179699,247.138671 87.1425771,246.962892 87.3574219,246.748047 C87.5722667,246.533202 87.800129,246.295574 88.0410156,246.035156 C88.2819022,245.774738 88.5455715,245.514324 88.8320312,245.253906 C89.118491,244.993488 89.4179672,244.752605 89.7304688,244.53125 C90.0429703,244.309895 90.4042948,244.13086 90.8144531,243.994141 C91.2246114,243.857421 91.6575498,243.776042 92.1132812,243.75 L96,243.75 L96,241.25 L101,245 L96,248.75 L96,246.25 L92.25,246.25 C92.0937492,246.263021 91.9375008,246.292317 91.78125,246.337891 C91.6249992,246.383464 91.4882818,246.432291 91.3710938,246.484375 C91.2539057,246.536459 91.1236986,246.614583 90.9804688,246.71875 C90.8372389,246.822917 90.7298181,246.904297 90.6582031,246.962891 C90.5865882,247.021485 90.4694019,247.115885 90.3066406,247.246094 C90.1438794,247.376303 90.0364586,247.467448 89.984375,247.519531 C89.3723928,248.157555 88.8776061,248.97786 88.5,249.980469 C88.6432299,250.371096 88.8450508,250.797524 89.1054688,251.259766 C89.3658867,251.722008 89.6588525,252.128904 89.984375,252.480469 C90.0364586,252.519531 90.1406242,252.607421 90.296875,252.744141 C90.4531258,252.88086 90.5703121,252.981771 90.6484375,253.046875 C90.7265629,253.111979 90.8372389,253.193359 90.9804688,253.291016 C91.1236986,253.388672 91.2539057,253.463541 91.3710938,253.515625 C91.4882818,253.567709 91.6249992,253.616536 91.78125,253.662109 C91.9375008,253.707683 92.0937492,253.736979 92.25,253.75 L96,253.75 L96,251.25 L101,255 Z" transform="translate(-73 -232)"/>
  </g>
</svg>
