<svg xmlns="http://www.w3.org/2000/svg" width="36" height="36" viewBox="0 0 36 36">
  <g fill="none" fill-rule="evenodd">
    <path fill="#FFFFFF" d="M289.75,172.8125 C290.257815,173.111981 290.609374,173.515622 290.804688,174.023438 C291.651046,173.671873 292.269529,173.138024 292.660156,172.421875 C293.050783,171.705726 293.304687,170.774745 293.421875,169.628906 C293.070311,169.407551 292.78711,169.11133 292.572266,168.740234 C292.357421,168.369139 292.25,167.955731 292.25,167.5 C292.25,166.783851 292.490883,166.188153 292.972656,165.712891 C293.454429,165.237628 294.046871,165 294.75,165 C295.453129,165 296.045571,165.237628 296.527344,165.712891 C297.009117,166.188153 297.25,166.783851 297.25,167.5 C297.25,168.007815 297.123048,168.460284 296.869141,168.857422 C296.615233,169.254559 296.27344,169.557291 295.84375,169.765625 C295.804687,170.182294 295.749349,170.572915 295.677734,170.9375 C295.606119,171.302085 295.505209,171.699217 295.375,172.128906 C295.244791,172.558596 295.095053,172.952472 294.925781,173.310547 C294.75651,173.668622 294.535158,174.020181 294.261719,174.365234 C293.98828,174.710288 293.688804,175.01302 293.363281,175.273438 C293.037759,175.533855 292.640627,175.758463 292.171875,175.947266 C291.703123,176.136069 291.195315,176.263021 290.648438,176.328125 C290.414061,176.69271 290.11133,176.979166 289.740234,177.1875 C289.369139,177.395834 288.955731,177.5 288.5,177.5 C287.796871,177.5 287.204429,177.262372 286.722656,176.787109 C286.240883,176.311847 286,175.716149 286,175 C286,174.531248 286.110676,174.10482 286.332031,173.720703 C286.553387,173.336587 286.859373,173.033855 287.25,172.8125 L287.25,167.1875 C286.859373,166.966145 286.553387,166.663413 286.332031,166.279297 C286.110676,165.89518 286,165.468752 286,165 C286,164.283851 286.240883,163.688153 286.722656,163.212891 C287.204429,162.737628 287.796871,162.5 288.5,162.5 C289.203129,162.5 289.795571,162.737628 290.277344,163.212891 C290.759117,163.688153 291,164.283851 291,165 C291,165.481773 290.889324,165.911456 290.667969,166.289062 C290.446613,166.666669 290.140627,166.966145 289.75,167.1875 L289.75,172.8125 Z" transform="translate(-273 -152)"/>
  </g>
</svg>
