<svg xmlns="http://www.w3.org/2000/svg" width="36" height="36" viewBox="0 0 36 36">
  <g fill="none" fill-rule="evenodd">
    <path fill="#FFFFFF" d="M11,283.75 L18.5,283.75 C18.8385434,283.75 19.1315092,283.873697 19.3789062,284.121094 C19.6263033,284.368491 19.75,284.661457 19.75,285 L19.75,290 L14.75,290 L14.75,288.75 C14.75,288.346352 14.6425792,288.03711 14.4277344,287.822266 C14.2128896,287.607421 13.9036479,287.5 13.5,287.5 L7.26953125,287.5 C6.43619375,287.5 6.01953125,287.916662 6.01953125,288.75 L6.01953125,296.25 L3.51953125,296.25 C3.18098789,296.25 2.88802207,296.126303 2.640625,295.878906 C2.39322793,295.631509 2.26953125,295.338543 2.26953125,295 L2.26953125,283.90625 L2.26953125,282.5 C2.26953125,282.161457 2.39322793,281.868491 2.640625,281.621094 C2.88802207,281.373697 3.18098789,281.25 3.51953125,281.25 L9.76953125,281.25 C10.1080746,281.25 10.3977853,281.373697 10.6386719,281.621094 C10.8795585,281.868491 11,282.161457 11,282.5 L11,283.75 Z M13.5,291.25 L18.8125,291.25 C19.072918,291.25 19.2942699,291.341145 19.4765625,291.523438 C19.6588551,291.70573 19.75,291.927082 19.75,292.1875 L19.75,297.832031 C19.75,298.079428 19.6588551,298.29427 19.4765625,298.476562 C19.2942699,298.658855 19.072918,298.75 18.8125,298.75 L8.1875,298.75 C7.92708203,298.75 7.70898525,298.658855 7.53320312,298.476562 C7.357421,298.29427 7.26953125,298.079428 7.26953125,297.832031 L7.26953125,289.667969 C7.26953125,289.420572 7.357421,289.20573 7.53320312,289.023438 C7.70898525,288.841145 7.92057168,288.75 8.16796875,288.75 L12.6015625,288.75 C12.8619805,288.75 13.0768221,288.841145 13.2460938,289.023438 C13.4153654,289.20573 13.5,289.420572 13.5,289.667969 L13.5,291.25 Z" transform="translate(7 -272)"/>
  </g>
</svg>
