<svg xmlns="http://www.w3.org/2000/svg" width="36" height="36" viewBox="0 0 36 36">
  <g fill="none" fill-rule="evenodd">
    <path fill="#FFFFFF" d="M208,240 L216.730469,240 C217.772141,240 218.660804,240.36458 219.396484,241.09375 C220.132165,241.82292 220.5,242.708328 220.5,243.75 L220.5,253.75 C220.5,254.583337 220.252607,255.328773 219.757812,255.986328 C219.263018,256.643883 218.625004,257.096353 217.84375,257.34375 C217.609374,258.125004 217.16016,258.763018 216.496094,259.257812 C215.832028,259.752607 215.083337,260 214.25,260 L205.5,260 C204.458328,260 203.57292,259.63542 202.84375,258.90625 C202.11458,258.17708 201.75,257.291672 201.75,256.25 L201.75,246.25 C201.75,245.416663 201.997393,244.667972 202.492188,244.003906 C202.986982,243.33984 203.624996,242.890626 204.40625,242.65625 C204.640626,241.874996 205.08984,241.236982 205.753906,240.742188 C206.417972,240.247393 207.166663,240 208,240 L208,240 Z M219.230469,253.75 L219.230469,243.75 C219.230469,243.072913 218.986331,242.486982 218.498047,241.992188 C218.009763,241.497393 217.420576,241.25 216.730469,241.25 L208,241.25 C207.531248,241.25 207.108075,241.363931 206.730469,241.591797 C206.352863,241.819663 206.053387,242.122394 205.832031,242.5 L214.25,242.5 C215.291672,242.5 216.17708,242.86458 216.90625,243.59375 C217.63542,244.32292 218,245.208328 218,246.25 L218,255.917969 C218.377606,255.683593 218.677082,255.374351 218.898438,254.990234 C219.119793,254.606118 219.230469,254.192711 219.230469,253.75 L219.230469,253.75 Z M216.769531,256.269531 L216.769531,246.269531 C216.769531,245.579424 216.522138,244.990237 216.027344,244.501953 C215.53255,244.013669 214.940108,243.769531 214.25,243.769531 L205.519531,243.769531 C204.829424,243.769531 204.240237,244.013669 203.751953,244.501953 C203.263669,244.990237 203.019531,245.579424 203.019531,246.269531 L203.019531,256.269531 C203.019531,256.959639 203.263669,257.548826 203.751953,258.037109 C204.240237,258.525393 204.829424,258.769531 205.519531,258.769531 L214.25,258.769531 C214.953129,258.769531 215.548826,258.525393 216.037109,258.037109 C216.525393,257.548826 216.769531,256.959639 216.769531,256.269531 L216.769531,256.269531 Z M209.152344,253.886719 L209.210938,253.75 C209.10677,253.567707 208.986329,253.401693 208.849609,253.251953 C208.71289,253.102213 208.592448,252.985026 208.488281,252.900391 C208.384114,252.815755 208.185548,252.669272 207.892578,252.460938 C207.599608,252.252603 207.36198,252.076824 207.179688,251.933594 C206.867186,251.712238 206.577475,251.360679 206.310547,250.878906 C206.043618,250.397133 205.79948,249.661463 205.578125,248.671875 C205.187498,248.554687 204.868491,248.33659 204.621094,248.017578 C204.373697,247.698566 204.25,247.317711 204.25,246.875 C204.25,246.328122 204.429035,245.878908 204.787109,245.527344 C205.145184,245.175779 205.591143,245 206.125,245 C206.645836,245 207.08854,245.179035 207.453125,245.537109 C207.81771,245.895184 208,246.341143 208,246.875 C208,247.30469 207.889324,247.67578 207.667969,247.988281 C207.446613,248.300783 207.147137,248.515624 206.769531,248.632812 C207.121096,250.000007 207.557289,250.846353 208.078125,251.171875 C208.143229,251.210938 208.266926,251.285807 208.449219,251.396484 C208.631511,251.507162 208.764974,251.591797 208.849609,251.650391 C208.934245,251.708985 209.044921,251.790364 209.181641,251.894531 C209.31836,251.998698 209.442057,252.102864 209.552734,252.207031 C209.663412,252.311198 209.764322,252.428385 209.855469,252.558594 C209.946615,252.428385 210.047525,252.311198 210.158203,252.207031 C210.268881,252.102864 210.392577,251.998698 210.529297,251.894531 C210.666016,251.790364 210.776692,251.71224 210.861328,251.660156 C210.945964,251.608073 211.079426,251.523438 211.261719,251.40625 C211.444011,251.289062 211.567708,251.210938 211.632812,251.171875 C212.166669,250.820311 212.602863,249.973965 212.941406,248.632812 C212.589842,248.502604 212.303387,248.277996 212.082031,247.958984 C211.860676,247.639972 211.75,247.278648 211.75,246.875 C211.75,246.328122 211.929035,245.878908 212.287109,245.527344 C212.645184,245.175779 213.091143,245 213.625,245 C214.145836,245 214.58854,245.179035 214.953125,245.537109 C215.31771,245.895184 215.5,246.341143 215.5,246.875 C215.5,247.317711 215.369793,247.701821 215.109375,248.027344 C214.848957,248.352866 214.523439,248.574218 214.132812,248.691406 C213.742186,250.371102 213.208337,251.451821 212.53125,251.933594 C212.348957,252.076824 212.11133,252.252603 211.818359,252.460938 C211.525389,252.669272 211.326823,252.815755 211.222656,252.900391 C211.118489,252.985026 210.994792,253.102213 210.851562,253.251953 C210.708333,253.401693 210.591146,253.567707 210.5,253.75 L210.539062,253.867188 C210.890627,253.997396 211.180337,254.222004 211.408203,254.541016 C211.636069,254.860028 211.75,255.221352 211.75,255.625 C211.75,256.171878 211.56771,256.621092 211.203125,256.972656 C210.83854,257.324221 210.395836,257.5 209.875,257.5 C209.341143,257.5 208.895184,257.320965 208.537109,256.962891 C208.179035,256.604816 208,256.158857 208,255.625 C208,255.208331 208.104166,254.847007 208.3125,254.541016 C208.520834,254.235025 208.800779,254.016928 209.152344,253.886719 L209.152344,253.886719 Z" transform="translate(-193 -232)"/>
  </g>
</svg>
