<svg xmlns="http://www.w3.org/2000/svg" width="36" height="36" viewBox="0 0 36 36">
  <g fill="none" fill-rule="evenodd">
    <path fill="#FFFFFF" d="M53.5,200 L59.7890625,200 C60.1666686,200 60.4628896,200.130207 60.6777344,200.390625 C60.8925792,200.651043 61,200.976561 61,201.367188 L61,218.59375 C61,218.984377 60.8925792,219.316405 60.6777344,219.589844 C60.4628896,219.863283 60.1666686,220 59.7890625,220 L53.5,220 L53.5,217.5 L58.5,217.5 L58.5,202.5 L53.5,202.5 L53.5,200 Z M55.9414062,209.960938 L48.5,216.386719 L48.5,211.25 L41,211.25 L41,208.75 L48.5,208.75 L48.5,203.535156 L55.9414062,209.960938 Z" transform="translate(-33 -192)"/>
  </g>
</svg>
