<svg xmlns="http://www.w3.org/2000/svg" width="36" height="36" viewBox="0 0 36 36">
  <g fill="none" fill-rule="evenodd">
    <path fill="#FFFFFF" d="M89.8976593,282.52 C90.066931,282.546042 92.7491958,285.215286 97.9445343,290.527812 C98.3481822,290.944481 98.5500031,291.445778 98.5500031,292.031719 C98.5500031,292.617659 98.3416718,293.118956 97.9250031,293.535625 C97.2999999,294.160628 96.1476677,295.286919 94.4679718,296.914531 C94.0513031,297.318179 93.550006,297.52 92.9640656,297.52 C92.3781251,297.52 91.8703177,297.311669 91.4406281,296.895 C86.193206,291.686641 83.563024,289.010886 83.5500031,288.867656 L83.5500031,284.629375 C83.5500031,284.043435 83.7583343,283.545393 84.1750031,283.135234 C84.5916718,282.725076 85.0864585,282.52 85.6593781,282.52 L89.8976593,282.52 Z M86.4113312,287.158672 C86.6522178,287.399558 86.9484388,287.52 87.3000031,287.52 C87.6515673,287.52 87.9477883,287.399558 88.1886749,287.158672 C88.4295615,286.917785 88.5500031,286.621564 88.5500031,286.27 C88.5500031,285.918436 88.4295615,285.622215 88.1886749,285.381328 C87.9477883,285.140441 87.6515673,285.02 87.3000031,285.02 C86.9484388,285.02 86.6522178,285.140441 86.4113312,285.381328 C86.1704446,285.622215 86.0500031,285.918436 86.0500031,286.27 C86.0500031,286.621564 86.1704446,286.917785 86.4113312,287.158672 L86.4113312,287.158672 Z" transform="translate(-73 -272)"/>
  </g>
</svg>
