<svg xmlns="http://www.w3.org/2000/svg" width="36" height="36" viewBox="0 0 36 36">
  <g fill="none" fill-rule="evenodd">
    <path fill="#FFFFFF" d="M298,208.75 L299.25,208.75 L299.25,216.25 C299.25,217.291672 298.88542,218.17708 298.15625,218.90625 C297.42708,219.63542 296.541672,220 295.5,220 L286.75,220 C285.708328,220 284.82292,219.63542 284.09375,218.90625 C283.36458,218.17708 283,217.291672 283,216.25 L283,203.75 C283,202.708328 283.36458,201.82292 284.09375,201.09375 C284.82292,200.36458 285.708328,200 286.75,200 L289.25,200 L289.25,201.25 L286.75,201.25 C286.072913,201.25 285.486982,201.494138 284.992188,201.982422 C284.497393,202.470706 284.25,203.059892 284.25,203.75 L284.25,216.25 C284.25,216.940108 284.497393,217.529294 284.992188,218.017578 C285.486982,218.505862 286.072913,218.75 286.75,218.75 L295.5,218.75 C296.177087,218.75 296.763018,218.505862 297.257812,218.017578 C297.752607,217.529294 298,216.940108 298,216.25 L298,208.75 Z M297.0625,206.132812 L297.0625,207.675781 C297.0625,207.988283 297.016928,208.164062 296.925781,208.203125 C296.91276,208.216146 296.867188,208.212891 296.789062,208.193359 C296.710937,208.173828 296.658854,208.151042 296.632812,208.125 C295.499994,207.096349 294.914063,206.582031 294.875,206.582031 C294.119788,206.582031 293.403649,206.438804 292.726562,206.152344 C292.049476,205.865884 291.509117,205.465497 291.105469,204.951172 C290.701821,204.436846 290.5,203.886722 290.5,203.300781 C290.5,202.389318 290.929683,201.611331 291.789062,200.966797 C292.648442,200.322262 293.677077,200 294.875,200 C295.669275,200 296.401689,200.149738 297.072266,200.449219 C297.742842,200.748699 298.273436,201.149086 298.664062,201.650391 C299.054689,202.151695 299.25,202.70182 299.25,203.300781 C299.25,203.899743 299.051434,204.449867 298.654297,204.951172 C298.257159,205.452476 297.726566,205.846353 297.0625,206.132812 L297.0625,206.132812 Z M293,203.75 L293,202.5 L291.75,202.5 L291.75,203.75 L293,203.75 Z M295.5,203.75 L295.5,202.5 L294.25,202.5 L294.25,203.75 L295.5,203.75 Z M296.75,203.75 L298,203.75 L298,202.5 L296.75,202.5 L296.75,203.75 Z M295.519531,210 L295.519531,211.25 L286.769531,211.25 L286.769531,210 L295.519531,210 Z M295.480469,212.5 L295.480469,213.75 L286.730469,213.75 L286.730469,212.5 L295.480469,212.5 Z M295.480469,215 L295.480469,216.25 L286.730469,216.25 L286.730469,215 L295.480469,215 Z" transform="translate(-273 -192)"/>
  </g>
</svg>
