<svg xmlns="http://www.w3.org/2000/svg" width="36" height="36" viewBox="0 0 36 36">
  <g fill="none" fill-rule="evenodd">
    <path fill="#FFFFFF" d="M206.75,200 L215.5,200 C216.541672,200 217.42708,200.36458 218.15625,201.09375 C218.88542,201.82292 219.25,202.708328 219.25,203.75 L219.25,216.25 C219.25,217.291672 218.88542,218.17708 218.15625,218.90625 C217.42708,219.63542 216.541672,220 215.5,220 L206.75,220 C205.708328,220 204.82292,219.63542 204.09375,218.90625 C203.36458,218.17708 203,217.291672 203,216.25 L203,203.75 C203,202.708328 203.36458,201.82292 204.09375,201.09375 C204.82292,200.36458 205.708328,200 206.75,200 L206.75,200 Z M218,216.25 L218,203.75 C218,203.059892 217.752607,202.470706 217.257812,201.982422 C216.763018,201.494138 216.177087,201.25 215.5,201.25 L206.75,201.25 C206.072913,201.25 205.486982,201.494138 204.992188,201.982422 C204.497393,202.470706 204.25,203.059892 204.25,203.75 L204.25,216.25 C204.25,216.940108 204.497393,217.529294 204.992188,218.017578 C205.486982,218.505862 206.072913,218.75 206.75,218.75 L215.5,218.75 C216.177087,218.75 216.763018,218.505862 217.257812,218.017578 C217.752607,217.529294 218,216.940108 218,216.25 L218,216.25 Z M215.5,208.75 L206.75,208.75 L206.75,207.5 L215.5,207.5 L215.5,208.75 Z M215.5,211.25 L206.75,211.25 L206.75,210 L215.5,210 L215.5,211.25 Z M215.5,213.75 L206.75,213.75 L206.75,212.5 L215.5,212.5 L215.5,213.75 Z M215.5,216.25 L206.75,216.25 L206.75,215 L215.5,215 L215.5,216.25 Z" transform="translate(-193 -192)"/>
  </g>
</svg>
