<svg xmlns="http://www.w3.org/2000/svg" width="36" height="36" viewBox="0 0 36 36">
  <g fill="none" fill-rule="evenodd">
    <path fill="#FFFFFF" d="M129.730469,246.25 L124.75,246.25 L131,240 L137.25,246.25 L132.25,246.25 L132.25,255 L129.730469,255 L129.730469,246.25 Z M134.75,248.75 L139.75,248.75 C140.140627,248.75 140.446613,248.854166 140.667969,249.0625 C140.889324,249.270834 141,249.583331 141,250 L141,258.769531 C141,259.147137 140.889324,259.446613 140.667969,259.667969 C140.446613,259.889324 140.140627,260 139.75,260 L122.25,260 C121.872394,260 121.569663,259.886069 121.341797,259.658203 C121.113931,259.430337 121,259.127606 121,258.75 L121,250 C121,249.583331 121.110676,249.270834 121.332031,249.0625 C121.553387,248.854166 121.859373,248.75 122.25,248.75 L127.25,248.75 L127.25,251.25 L123.5,251.25 L123.5,257.5 L138.519531,257.5 L138.519531,251.25 L134.75,251.25 L134.75,248.75 Z" transform="translate(-113 -232)"/>
  </g>
</svg>
