<svg xmlns="http://www.w3.org/2000/svg" width="36" height="36" viewBox="0 0 36 36">
  <g fill="none" fill-rule="evenodd">
    <path fill="#FFFFFF" d="M18.5,208.75 L13.5,208.75 C13.5,209.023439 13.5065104,209.296874 13.5195312,209.570312 C13.5325521,209.843751 13.5585936,210.104165 13.5976562,210.351562 C13.6367189,210.59896 13.6757811,210.826822 13.7148438,211.035156 C13.7539064,211.243491 13.8124996,211.458332 13.890625,211.679688 C13.9687504,211.901043 14.0305987,212.086588 14.0761719,212.236328 C14.121745,212.386068 14.1868485,212.555338 14.2714844,212.744141 C14.3561202,212.932944 14.4179686,213.066406 14.4570312,213.144531 C14.4960939,213.222657 14.5546871,213.336588 14.6328125,213.486328 C14.7109379,213.636068 14.75,213.723958 14.75,213.75 C14.9973971,214.270836 15.384763,214.798174 15.9121094,215.332031 C16.4394558,215.865888 16.9863253,216.328123 17.5527344,216.71875 C18.1191435,217.109377 18.666013,217.464191 19.1933594,217.783203 C19.7207058,218.102215 20.1536441,218.346353 20.4921875,218.515625 L21,218.75 C19.6458266,218.75 18.3990942,218.645834 17.2597656,218.4375 C16.120437,218.229166 15.1503946,217.955731 14.3496094,217.617188 C13.5488241,217.278644 12.8261751,216.865237 12.1816406,216.376953 C11.5371062,215.888669 11.016278,215.406903 10.6191406,214.931641 C10.2220032,214.456378 9.87695459,213.925784 9.58398438,213.339844 C9.29101416,212.753903 9.07942773,212.249351 8.94921875,211.826172 C8.81900977,211.402993 8.71484414,210.940758 8.63671875,210.439453 C8.55859336,209.938149 8.51627607,209.5931 8.50976562,209.404297 C8.50325518,209.215494 8.5,209.010418 8.5,208.789062 L8.5,208.769531 L8.5,208.75 L3.5,208.75 L11,201.25 L18.5,208.75 Z" transform="translate(7 -192)"/>
  </g>
</svg>
