<svg xmlns="http://www.w3.org/2000/svg" width="36" height="36" viewBox="0 0 36 36">
  <g fill="none" fill-rule="evenodd">
    <path fill="#FFFFFF" d="M214.876953,299.208984 C213.646478,299.736331 212.354173,300 211,300 C209.645827,300 208.350267,299.733076 207.113281,299.199219 C205.876296,298.665362 204.811853,297.952478 203.919922,297.060547 C203.02799,296.168615 202.318362,295.107428 201.791016,293.876953 C201.263669,292.646478 201,291.354173 201,290 C201,288.645827 201.266924,287.350267 201.800781,286.113281 C202.334638,284.876296 203.047522,283.811853 203.939453,282.919922 C204.831385,282.02799 205.892572,281.318362 207.123047,280.791016 C208.353522,280.263669 209.645827,280 211,280 C212.354173,280 213.649733,280.266924 214.886719,280.800781 C216.123704,281.334638 217.188147,282.047522 218.080078,282.939453 C218.97201,283.831385 219.681638,284.892572 220.208984,286.123047 C220.736331,287.353522 221,288.645827 221,290 C221,291.354173 220.733076,292.649733 220.199219,293.886719 C219.665362,295.123704 218.952478,296.188147 218.060547,297.080078 C217.168615,297.97201 216.107428,298.681638 214.876953,299.208984 L214.876953,299.208984 Z M214.134766,282.568359 C213.138667,282.14518 212.093755,281.933594 211,281.933594 C209.906245,281.933594 208.861333,282.14518 207.865234,282.568359 C206.869136,282.991539 206.009769,283.56445 205.287109,284.287109 C204.56445,285.009769 203.991539,285.869136 203.568359,286.865234 C203.14518,287.861333 202.933594,288.906245 202.933594,290 C202.933594,291.093755 203.14518,292.138667 203.568359,293.134766 C203.991539,294.130864 204.56445,294.990231 205.287109,295.712891 C206.009769,296.43555 206.869136,297.008461 207.865234,297.431641 C208.861333,297.85482 209.906245,298.066406 211,298.066406 C212.093755,298.066406 213.138667,297.85482 214.134766,297.431641 C215.130864,297.008461 215.990231,296.43555 216.712891,295.712891 C217.43555,294.990231 218.008461,294.130864 218.431641,293.134766 C218.85482,292.138667 219.066406,291.093755 219.066406,290 C219.066406,288.906245 218.85482,287.861333 218.431641,286.865234 C218.008461,285.869136 217.43555,285.009769 216.712891,284.287109 C215.990231,283.56445 215.130864,282.991539 214.134766,282.568359 L214.134766,282.568359 Z M208.128906,289.121094 C208.376303,289.368491 208.5,289.661457 208.5,290 C208.5,290.338543 208.376303,290.631509 208.128906,290.878906 C207.881509,291.126303 207.588543,291.25 207.25,291.25 C206.911457,291.25 206.618491,291.126303 206.371094,290.878906 C206.123697,290.631509 206,290.338543 206,290 C206,289.661457 206.123697,289.368491 206.371094,289.121094 C206.618491,288.873697 206.911457,288.75 207.25,288.75 C207.588543,288.75 207.881509,288.873697 208.128906,289.121094 L208.128906,289.121094 Z M211.878906,289.121094 C212.126303,289.368491 212.25,289.661457 212.25,290 C212.25,290.338543 212.126303,290.631509 211.878906,290.878906 C211.631509,291.126303 211.338543,291.25 211,291.25 C210.661457,291.25 210.368491,291.126303 210.121094,290.878906 C209.873697,290.631509 209.75,290.338543 209.75,290 C209.75,289.661457 209.873697,289.368491 210.121094,289.121094 C210.368491,288.873697 210.661457,288.75 211,288.75 C211.338543,288.75 211.631509,288.873697 211.878906,289.121094 L211.878906,289.121094 Z M215.628906,289.121094 C215.876303,289.368491 216,289.661457 216,290 C216,290.338543 215.876303,290.631509 215.628906,290.878906 C215.381509,291.126303 215.088543,291.25 214.75,291.25 C214.411457,291.25 214.118491,291.126303 213.871094,290.878906 C213.623697,290.631509 213.5,290.338543 213.5,290 C213.5,289.661457 213.623697,289.368491 213.871094,289.121094 C214.118491,288.873697 214.411457,288.75 214.75,288.75 C215.088543,288.75 215.381509,288.873697 215.628906,289.121094 L215.628906,289.121094 Z" transform="translate(-193 -272)"/>
  </g>
</svg>
