<svg xmlns="http://www.w3.org/2000/svg" width="36" height="36" viewBox="0 0 36 36">
  <g fill="none" fill-rule="evenodd">
    <path fill="#FFFFFF" d="M259.25,285.625 L259.25,296.25 C259.25,297.291672 258.88542,298.17708 258.15625,298.90625 C257.42708,299.63542 256.541672,300 255.5,300 L246.75,300 C245.708328,300 244.82292,299.63542 244.09375,298.90625 C243.36458,298.17708 243,297.291672 243,296.25 L243,283.75 C243,282.708328 243.36458,281.82292 244.09375,281.09375 C244.82292,280.36458 245.708328,280 246.75,280 L253.625,280 L259.25,285.625 Z M258,286.25 L253,286.25 L253,281.25 L246.75,281.25 C246.072913,281.25 245.480471,281.490883 244.972656,281.972656 C244.490883,282.480471 244.25,283.072913 244.25,283.75 L244.25,296.25 C244.25,296.927087 244.490883,297.519529 244.972656,298.027344 C245.480471,298.509117 246.072913,298.75 246.75,298.75 L255.5,298.75 C256.177087,298.75 256.769529,298.509117 257.277344,298.027344 C257.759117,297.519529 258,296.927087 258,296.25 L258,286.25 Z M254.25,285 L256.847656,285 L254.25,282.402344 L254.25,285 Z" transform="translate(-233 -272)"/>
  </g>
</svg>
