<svg xmlns="http://www.w3.org/2000/svg" width="36" height="36" viewBox="0 0 36 36">
  <g fill="none" fill-rule="evenodd">
    <path fill="#FFFFFF" d="M217.992188,1084.00391 L216,1081.99219 L216,1084.00391 L217.992188,1084.00391 Z M219.007812,1085 L215.003906,1085 L215.003906,1080.99609 L210.003906,1080.99609 C209.444008,1080.99609 208.968752,1081.1914 208.578125,1081.58203 C208.187498,1081.97266 207.992188,1082.44791 207.992188,1083.00781 L207.992188,1084.00391 L206.996094,1084.00391 L206.996094,1083.00781 C206.996094,1082.17448 207.28906,1081.46485 207.875,1080.87891 C208.46094,1080.29297 209.170569,1080 210.003906,1080 L215.492188,1080 L220.003906,1084.49219 L220.003906,1093.00781 C220.003906,1093.82813 219.71094,1094.53125 219.125,1095.11719 C218.53906,1095.70313 217.829431,1095.99609 216.996094,1095.99609 L216,1095.99609 L216,1095 L216.996094,1095 C217.555992,1095 218.031248,1094.80469 218.421875,1094.41406 C218.812502,1094.02344 219.007812,1093.55469 219.007812,1093.00781 L219.007812,1085 Z M211.996094,1085.99609 L211.996094,1088.00781 L214.007812,1088.00781 L211.996094,1085.99609 Z M215.003906,1089.00391 L211,1089.00391 L211,1085 L206,1085 C205.453122,1085 204.984377,1085.19531 204.59375,1085.58594 C204.203123,1085.97656 204.007812,1086.44531 204.007812,1086.99219 L204.007812,1096.99219 C204.007812,1097.55209 204.203123,1098.02734 204.59375,1098.41797 C204.984377,1098.8086 205.453122,1099.00391 206,1099.00391 L212.992188,1099.00391 C213.552086,1099.00391 214.027342,1098.8086 214.417969,1098.41797 C214.808596,1098.02734 215.003906,1097.55209 215.003906,1096.99219 L215.003906,1089.00391 Z M206,1084.00391 L211.507812,1084.00391 L216,1088.49609 L216,1096.99219 C216,1097.82552 215.707034,1098.53515 215.121094,1099.12109 C214.535153,1099.70703 213.825525,1100 212.992188,1100 L206,1100 C205.166663,1100 204.457034,1099.70703 203.871094,1099.12109 C203.285153,1098.53515 202.992188,1097.82552 202.992188,1096.99219 L202.992188,1086.99219 C202.992188,1086.17187 203.285153,1085.46875 203.871094,1084.88281 C204.457034,1084.29687 205.166663,1084.00391 206,1084.00391 L206,1084.00391 Z M206,1093.00781 L206,1091.99219 L212.992188,1091.99219 L212.992188,1093.00781 L206,1093.00781 Z M206,1095 L206,1094.00391 L212.992188,1094.00391 L212.992188,1095 L206,1095 Z M206,1096.99219 L206,1095.99609 L212.992188,1095.99609 L212.992188,1096.99219 L206,1096.99219 Z" transform="translate(-193 -1072)"/>
  </g>
</svg>
