<svg xmlns="http://www.w3.org/2000/svg" width="36" height="36" viewBox="0 0 36 36">
  <g fill="none" fill-rule="evenodd">
    <path fill="#FFFFFF" d="M87.1914062,408 L89.6914062,408 L89.6914062,409.25 L87.09375,409.25 L87.1914062,411.75 L83.5,408.625 L87.1914062,405.5 L87.1914062,408 Z M83.5,404.25 L83.5,403 L98.5,403 L98.5,404.25 L83.5,404.25 Z M91,408 L91,405.5 L98.5,405.5 L98.5,408 L91,408 Z M91,411.75 L91,409.25 L98.5,409.25 L98.5,411.75 L91,411.75 Z M83.5,414.25 L83.5,413 L98.5,413 L98.5,414.25 L83.5,414.25 Z M83.5,416.75 L83.5,415.5 L98.5,415.5 L98.5,416.75 L83.5,416.75 Z" transform="translate(-73 -392)"/>
  </g>
</svg>
