<svg xmlns="http://www.w3.org/2000/svg" width="36" height="36" viewBox="0 0 36 36">
  <g fill="none" fill-rule="evenodd">
    <path fill="#FFFFFF" d="M2.25,403.25 L2.25,402 L3.5,402 L3.5,403.25 L2.25,403.25 Z M6,407 L6,405.75 L7.25,405.75 L7.25,407 L6,407 Z M2.25,410.75 L2.25,409.5 L3.5,409.5 L3.5,410.75 L2.25,410.75 Z M6,414.5 L6,413.25 L7.25,413.25 L7.25,414.5 L6,414.5 Z M2.25,418.25 L2.25,417 L3.5,417 L3.5,418.25 L2.25,418.25 Z M6,403.25 L6,402 L17.25,402 L17.25,403.25 L6,403.25 Z M9.75,407 L9.75,405.75 L21,405.75 L21,407 L9.75,407 Z M6,410.75 L6,409.5 L17.25,409.5 L17.25,410.75 L6,410.75 Z M9.75,414.5 L9.75,413.25 L21,413.25 L21,414.5 L9.75,414.5 Z M4.75,418.25 L4.75,417 L16,417 L16,418.25 L4.75,418.25 Z" transform="translate(7 -392)"/>
  </g>
</svg>
