<svg xmlns="http://www.w3.org/2000/svg" width="36" height="36" viewBox="0 0 36 36">
  <g fill="none" fill-rule="evenodd">
    <path fill="#FFFFFF" d="M207.899994,411.25 L207.899994,408.75 L204.149994,408.75 L204.149994,407.5 L207.899994,407.5 L207.899994,405 L209.149994,405 L209.149994,407.5 L212.899994,407.5 L212.899994,405 L214.149994,405 L214.149994,407.5 L217.899994,407.5 L217.899994,408.75 L214.149994,408.75 L214.149994,411.25 L217.899994,411.25 L217.899994,412.5 L214.149994,412.5 L214.149994,415 L212.899994,415 L212.899994,412.5 L209.149994,412.5 L209.149994,415 L207.899994,415 L207.899994,412.5 L204.149994,412.5 L204.149994,411.25 L207.899994,411.25 Z M209.149994,411.25 L212.899994,411.25 L212.899994,408.75 L209.149994,408.75 L209.149994,411.25 Z M219.149994,416.25 L202.899994,416.25 L202.899994,403.75 L219.149994,403.75 L219.149994,416.25 Z M217.899994,405 L204.149994,405 L204.149994,415 L217.899994,415 L217.899994,405 Z" transform="translate(-193 -392)"/>
  </g>
</svg>
