<svg xmlns="http://www.w3.org/2000/svg" width="36" height="36" viewBox="0 0 36 36">
  <g fill="none" fill-rule="evenodd">
    <path fill="#FFFFFF" d="M283,418.75 L283,417.5 L299.25,417.5 L299.25,418.75 L283,418.75 Z M287.648438,402.558594 L287.648438,409.980469 C287.648438,410.957036 287.830727,411.77083 288.195312,412.421875 C288.74219,413.398442 289.705722,413.886719 291.085938,413.886719 C292.544278,413.886719 293.546872,413.35938 294.09375,412.304688 C294.393231,411.731768 294.542969,410.957036 294.542969,409.980469 L294.542969,402.558594 L296.398438,402.558594 L296.398438,409.238281 C296.398438,410.891935 296.177086,412.161454 295.734375,413.046875 C294.914058,414.674487 293.36785,415.488281 291.095703,415.488281 C288.823556,415.488281 287.283858,414.674487 286.476562,413.046875 C286.033852,412.161454 285.8125,410.891935 285.8125,409.238281 L285.8125,402.558594 L287.648438,402.558594 Z" transform="translate(-273 -392)"/>
  </g>
</svg>
