<svg xmlns="http://www.w3.org/2000/svg" width="36" height="36" viewBox="0 0 36 36">
  <g fill="none" fill-rule="evenodd">
    <path fill="#FFFFFF" d="M288.5,365.5 L288.5,364.25 L298.5,364.25 L298.5,365.5 L288.5,365.5 Z M288.5,375.5 L288.5,374.25 L298.5,374.25 L298.5,375.5 L288.5,375.5 Z M288.5,370.5 L288.5,369.25 L296,369.25 L296,370.5 L288.5,370.5 Z M284.125,363 L284.75,363 L286,363 L286,365.5 L286.625,365.5 L286.625,366.75 L286,366.75 L284.75,366.75 L284.125,366.75 L284.125,365.5 L284.75,365.5 L284.75,364.25 L284.125,364.25 L284.125,363 Z M283.5,368 L286.625,368 L286.625,369.25 L286,369.25 L286,369.875 L284.75,369.875 L284.75,369.25 L283.5,369.25 L283.5,368 Z M283.5,371.75 L283.5,370.5 L287.25,370.5 L287.25,371.75 L283.5,371.75 Z M283.5,374.25 L283.5,373 L286.625,373 L286.625,374.25 L283.5,374.25 Z M285.375,375.5 L285.375,374.25 L287.25,374.25 L287.25,375.5 L285.375,375.5 Z M283.5,376.75 L283.5,375.5 L286.625,375.5 L286.625,376.75 L283.5,376.75 Z" transform="translate(-273 -352)"/>
  </g>
</svg>
