<svg xmlns="http://www.w3.org/2000/svg" width="36" height="36" viewBox="0 0 36 36">
  <g fill="none" fill-rule="evenodd">
    <path fill="#FFFFFF" d="M49.5546875,375.46875 L51.5078125,375.46875 L51.5078125,377.5 L49.5546875,377.5 L49.5546875,375.46875 Z M46.2734375,367.65625 C46.2734375,366.249993 46.6705689,365.117192 47.4648438,364.257812 C48.2591186,363.398433 49.3463473,362.96875 50.7265625,362.96875 C52.0156314,362.96875 53.0475222,363.33333 53.8222656,364.0625 C54.5970091,364.79167 54.984375,365.729161 54.984375,366.875 C54.984375,367.565108 54.8411473,368.124998 54.5546875,368.554688 C54.2682277,368.984377 53.6953168,369.615881 52.8359375,370.449219 C52.2109344,371.061201 51.8072926,371.575519 51.625,371.992188 C51.4427074,372.408856 51.3515625,373.02734 51.3515625,373.847656 L49.59375,373.847656 C49.59375,372.910152 49.704426,372.158206 49.9257812,371.591797 C50.1471365,371.025388 50.6354129,370.377608 51.390625,369.648438 L52.171875,368.867188 C52.4062512,368.645832 52.5950514,368.41146 52.7382812,368.164062 C52.9986992,367.747394 53.1289062,367.3112 53.1289062,366.855469 C53.1289062,366.217445 52.9368509,365.664065 52.5527344,365.195312 C52.1686179,364.72656 51.5403689,364.492188 50.6679688,364.492188 C49.5742133,364.492188 48.8255229,364.895829 48.421875,365.703125 C48.1874988,366.145836 48.0507814,366.796871 48.0117188,367.65625 L46.2734375,367.65625 Z" transform="translate(-33 -352)"/>
  </g>
</svg>
