<svg xmlns="http://www.w3.org/2000/svg" width="36" height="36" viewBox="0 0 36 36">
  <g fill="none" fill-rule="evenodd">
    <path fill="#FFFFFF" d="M47.3867188,410.949219 L47.796875,408.605469 C48.0052094,407.446609 48.4381478,406.564456 49.0957031,405.958984 C49.7532585,405.353513 50.596349,405.050781 51.625,405.050781 C52.8489645,405.050781 53.7148412,405.447913 54.2226562,406.242188 L54.6914062,405.226562 L56.1953125,405.226562 L55.0429688,411.730469 C54.9778643,412.055991 55.010416,412.31315 55.140625,412.501953 C55.270834,412.690756 55.4596342,412.785156 55.7070312,412.785156 C56.2278672,412.785156 56.7486953,412.358728 57.2695312,411.505859 C57.7903672,410.652991 58.0507812,409.529955 58.0507812,408.136719 C58.0507812,406.665357 57.5950566,405.500004 56.6835938,404.640625 C55.7721309,403.781246 54.5221434,403.351562 52.9335938,403.351562 C51.4492113,403.351562 50.1015686,403.686846 48.890625,404.357422 C47.6796814,405.027998 46.7128942,405.994785 45.9902344,407.257812 C45.2675745,408.52084 44.90625,409.972648 44.90625,411.613281 C44.90625,413.084643 45.3619746,414.249996 46.2734375,415.109375 C47.1849004,415.968754 48.4413982,416.398438 50.0429688,416.398438 C51.4101631,416.398438 52.6731713,416.085941 53.8320312,415.460938 L54.4570312,417.003906 C53.076816,417.667972 51.6054766,418 50.0429688,418 C47.8814996,418 46.1888082,417.427089 44.9648438,416.28125 C43.7408793,415.135411 43.1289062,413.579437 43.1289062,411.613281 C43.1289062,410.154941 43.3860651,408.804043 43.9003906,407.560547 C44.4147161,406.317051 45.1145789,405.275395 46,404.435547 C46.8854211,403.595699 47.9238222,402.938153 49.1152344,402.462891 C50.3066466,401.987628 51.5794203,401.75 52.9335938,401.75 C55.082042,401.75 56.768223,402.322911 57.9921875,403.46875 C59.216152,404.614589 59.828125,406.170563 59.828125,408.136719 C59.828125,409.087244 59.7011731,409.966142 59.4472656,410.773438 C59.1933581,411.580733 58.858075,412.244789 58.4414062,412.765625 C58.0247375,413.286461 57.5592474,413.693358 57.0449219,413.986328 C56.5305964,414.279298 56.0130234,414.425781 55.4921875,414.425781 C54.3854111,414.425781 53.6497414,413.996098 53.2851562,413.136719 C52.5820277,414.113286 51.5533922,414.601562 50.1992188,414.601562 C49.1575469,414.601562 48.3795599,414.2793 47.8652344,413.634766 C47.3509089,412.990231 47.1914053,412.095058 47.3867188,410.949219 L47.3867188,410.949219 Z M49.8085938,408.46875 L49.3398438,411.085938 C49.2486975,411.632815 49.3463527,412.072264 49.6328125,412.404297 C49.9192723,412.73633 50.3294244,412.902344 50.8632812,412.902344 C51.4492217,412.902344 51.9602843,412.720054 52.3964844,412.355469 C52.8326845,411.990884 53.1093744,411.489587 53.2265625,410.851562 L53.6171875,408.664062 C53.7213547,408.091143 53.6041684,407.632163 53.265625,407.287109 C52.9270816,406.942056 52.451826,406.769531 51.8398438,406.769531 C50.6940047,406.769531 50.0169281,407.335932 49.8085938,408.46875 L49.8085938,408.46875 Z" transform="translate(-33 -392)"/>
  </g>
</svg>
