<svg xmlns="http://www.w3.org/2000/svg" width="36" height="36" viewBox="0 0 36 36">
  <g fill="none" fill-rule="evenodd">
    <path fill="#FFFFFF" d="M249.25,365.5 L249.25,364.25 L259.25,364.25 L259.25,365.5 L249.25,365.5 Z M249.25,375.5 L249.25,374.25 L259.25,374.25 L259.25,375.5 L249.25,375.5 Z M249.25,370.5 L249.25,369.25 L256.75,369.25 L256.75,370.5 L249.25,370.5 Z M244.875,376.75 C243.624994,376.75 243,376.125006 243,374.875 C243,373.624994 243.624994,373 244.875,373 C246.125006,373 246.75,373.624994 246.75,374.875 C246.75,376.125006 246.125006,376.75 244.875,376.75 L244.875,376.75 Z M244.875,371.75 C243.624994,371.75 243,371.125006 243,369.875 C243,368.624994 243.624994,368 244.875,368 C246.125006,368 246.75,368.624994 246.75,369.875 C246.75,371.125006 246.125006,371.75 244.875,371.75 L244.875,371.75 Z M244.875,366.75 C243.624994,366.75 243,366.125006 243,364.875 C243,363.624994 243.624994,363 244.875,363 C246.125006,363 246.75,363.624994 246.75,364.875 C246.75,366.125006 246.125006,366.75 244.875,366.75 L244.875,366.75 Z" transform="translate(-233 -352)"/>
  </g>
</svg>
