<svg xmlns="http://www.w3.org/2000/svg" width="36" height="36" viewBox="0 0 36 36">
  <g fill="none" fill-rule="evenodd">
    <path fill="#FFFFFF" d="M44.8867188,331.621094 L54.6328125,321.953125 C54.9973977,321.58854 55.4042946,321.370443 55.8535156,321.298828 C56.3027366,321.227213 56.7389302,321.285806 57.1621094,321.474609 C57.5852886,321.663412 57.9921855,321.953123 58.3828125,322.34375 L58.6367188,322.578125 C59.0273457,322.968752 59.3203115,323.378904 59.515625,323.808594 C59.7109385,324.238283 59.776042,324.680987 59.7109375,325.136719 C59.645833,325.59245 59.4309914,326.002602 59.0664062,326.367188 L49.3398438,336.035156 L43.5,337.519531 L44.8867188,331.621094 Z M44.28125,336.699219 L47.9335938,335.703125 L45.3554688,333.222656 L44.28125,336.699219 Z" transform="translate(-33 -312)"/>
  </g>
</svg>
