<svg xmlns="http://www.w3.org/2000/svg" width="36" height="36" viewBox="0 0 36 36">
  <g fill="none" fill-rule="evenodd">
    <path fill="#FFFFFF" d="M122.25,403.75 L122.25,402.5 L124.75,402.5 L124.75,403.75 L122.25,403.75 Z M124.75,406.25 L122.25,406.25 L122.25,405 L124.75,405 L124.75,403.75 L126,403.75 L126,408.125 L126,408.75 L122.25,408.75 L122.25,407.5 L124.75,407.5 L124.75,406.25 Z M121,407.5 L121,406.25 L122.25,406.25 L122.25,407.5 L121,407.5 Z M137.757812,403.730469 L138.890625,411.25 L141,411.25 L141,412.5 L139.085938,412.5 L139.652344,416.289062 L137.777344,416.289062 L137.308594,412.519531 L132.347656,412.519531 L130.179688,416.289062 L128.441406,416.289062 L130.667969,412.5 L123.5,412.5 L123.5,411.25 L131.410156,411.25 L135.84375,403.730469 L137.757812,403.730469 Z M137.054688,411.25 L136.3125,405.722656 L133.128906,411.25 L137.054688,411.25 Z" transform="translate(-113 -392)"/>
  </g>
</svg>
