<svg xmlns="http://www.w3.org/2000/svg" width="36" height="36" viewBox="0 0 36 36">
  <g fill="none" fill-rule="evenodd">
    <path fill="#FFFFFF" d="M246,322.5 L251.78125,322.5 C253.356779,322.5 254.476559,322.968745 255.140625,323.90625 C255.531252,324.466149 255.726562,325.110673 255.726562,325.839844 C255.726562,326.686202 255.485679,327.38281 255.003906,327.929688 C254.756509,328.216147 254.391929,328.476561 253.910156,328.710938 C254.600264,328.971355 255.121092,329.264321 255.472656,329.589844 C256.071618,330.175784 256.371094,330.989578 256.371094,332.03125 C256.371094,332.890629 256.097659,333.671871 255.550781,334.375 C254.743486,335.429693 253.454436,335.957031 251.683594,335.957031 L246,335.957031 L246,322.5 Z M251.097656,328.183594 C251.865889,328.183594 252.464842,328.079428 252.894531,327.871094 C253.571618,327.53255 253.910156,326.927088 253.910156,326.054688 C253.910156,325.169266 253.552087,324.576824 252.835938,324.277344 C252.43229,324.108072 251.833337,324.023438 251.039062,324.023438 L247.777344,324.023438 L247.777344,328.183594 L251.097656,328.183594 Z M251.703125,334.394531 C252.822922,334.394531 253.623696,334.069014 254.105469,333.417969 C254.404949,333.014321 254.554688,332.519534 254.554688,331.933594 C254.554688,330.957026 254.118494,330.292971 253.246094,329.941406 C252.777341,329.759114 252.165368,329.667969 251.410156,329.667969 L247.777344,329.667969 L247.777344,334.394531 L251.703125,334.394531 Z" transform="translate(-233 -312)"/>
  </g>
</svg>
