<svg xmlns="http://www.w3.org/2000/svg" width="36" height="36" viewBox="0 0 36 36">
  <g fill="none" fill-rule="evenodd">
    <path fill="#FFFFFF" d="M165.121094,414.785156 L168.089844,414.785156 C166.14973,413.561192 165.199219,411.783866 165.238281,409.453125 C165.329428,405.624981 167.276023,403.665365 171.078125,403.574219 C174.880227,403.665365 176.826822,405.624981 176.917969,409.453125 C176.957031,411.796887 176.00652,413.561192 174.066406,414.746094 L177.035156,414.785156 L177.035156,416.25 L172.191406,416.25 L172.191406,414.785156 C174.248708,413.639317 175.264323,411.868502 175.238281,409.472656 C175.238281,408.196608 174.886722,407.141931 174.183594,406.308594 C173.493486,405.475256 172.45834,405.052083 171.078125,405.039062 C169.710931,405.052083 168.675785,405.475256 167.972656,406.308594 C167.269528,407.154952 166.917969,408.209629 166.917969,409.472656 C166.891927,411.868502 167.914052,413.639317 169.984375,414.785156 L169.984375,416.25 L165.121094,416.25 L165.121094,414.785156 Z" transform="translate(-153 -392)"/>
  </g>
</svg>
