<svg xmlns="http://www.w3.org/2000/svg" width="36" height="36" viewBox="0 0 36 36">
  <g fill="none" fill-rule="evenodd">
    <path fill="#FFFFFF" d="M62.0449219,1140.83398 C62.0449219,1141.32227 61.8740251,1141.7373 61.5322266,1142.0791 C61.190428,1142.4209 60.7753931,1142.5918 60.2871094,1142.5918 L44.671875,1142.5918 C44.1835913,1142.5918 43.7685564,1142.4209 43.4267578,1142.0791 C43.0849592,1141.7373 42.9140625,1141.32227 42.9140625,1140.83398 L42.9140625,1125.21875 C42.9140625,1124.73047 43.0849592,1124.31543 43.4267578,1123.97363 C43.7685564,1123.63183 44.1835913,1123.46094 44.671875,1123.46094 L60.2871094,1123.46094 C60.7753931,1123.46094 61.190428,1123.63183 61.5322266,1123.97363 C61.8740251,1124.31543 62.0449219,1124.73047 62.0449219,1125.21875 L62.0449219,1140.83398 Z M60.1308594,1139.27148 L60.1308594,1126.78125 C60.1308594,1126.39062 59.994142,1126.0586 59.7207031,1125.78516 C59.4472643,1125.51172 59.1152363,1125.375 58.7246094,1125.375 L46.2246094,1125.375 C45.8339824,1125.375 45.5019545,1125.51172 45.2285156,1125.78516 C44.9550768,1126.0586 44.8183594,1126.39062 44.8183594,1126.78125 L44.8183594,1139.27148 C44.8183594,1139.66211 44.9550768,1139.99414 45.2285156,1140.26758 C45.5019545,1140.54102 45.8339824,1140.67773 46.2246094,1140.67773 L58.7246094,1140.67773 C59.1152363,1140.67773 59.4472643,1140.54102 59.7207031,1140.26758 C59.994142,1139.99414 60.1308594,1139.66211 60.1308594,1139.27148 L60.1308594,1139.27148 Z M56.625,1129.85742 C56.625,1130.57357 56.4166687,1131.13672 56,1131.54688 C55.8958328,1131.64453 55.4694048,1131.88867 54.7207031,1132.2793 C54.1933567,1132.55925 53.9003909,1132.91081 53.8417969,1133.33398 C53.8548178,1133.24284 53.8613281,1133.77343 53.8613281,1134.92578 L51.0878906,1134.92578 L51.0878906,1133.65625 C51.0878906,1132.95963 51.3287736,1132.37696 51.8105469,1131.9082 C51.85612,1131.86263 52.2955688,1131.54037 53.1289062,1130.94141 C53.6171899,1130.60286 53.8613281,1130.24154 53.8613281,1129.85742 C53.8613281,1129.51888 53.7246107,1129.22429 53.4511719,1128.97363 C53.177733,1128.72298 52.8522154,1128.59766 52.4746094,1128.59766 L51.0878906,1128.59766 C50.2415322,1128.59766 49.7825524,1129.01757 49.7109375,1129.85742 L48.3242188,1129.85742 C48.5390636,1128.17122 49.4602783,1127.32812 51.0878906,1127.32812 L53.8613281,1127.32812 C54.6295611,1127.32812 55.2822239,1127.57389 55.8193359,1128.06543 C56.356448,1128.55697 56.625,1129.15429 56.625,1129.85742 L56.625,1129.85742 Z M51.0878906,1138.71484 L51.0878906,1136.18555 L53.8613281,1136.18555 L53.8613281,1138.71484 L51.0878906,1138.71484 Z" transform="translate(-33 -1112)"/>
  </g>
</svg>
