<svg xmlns="http://www.w3.org/2000/svg" width="36" height="36" viewBox="0 0 36 36">
  <g fill="none" fill-rule="evenodd">
    <path fill="#FFFFFF" d="M85.421875,331.828125 L93.6640625,323.585938 C93.9765641,323.273436 94.3216127,323.087891 94.6992188,323.029297 C95.0768248,322.970703 95.4414045,323.01953 95.7929688,323.175781 C96.144533,323.332032 96.4895816,323.579425 96.828125,323.917969 L97.0429688,324.132812 C97.3684912,324.458335 97.6158846,324.803384 97.7851562,325.167969 C97.9544279,325.532554 98.0130211,325.906899 97.9609375,326.291016 C97.9088539,326.675132 97.7265641,327.023436 97.4140625,327.335938 L89.171875,335.578125 L84.25,336.769531 L85.421875,331.828125 Z M86.0078125,332.746094 L84.6601562,336.320312 L88.5078125,334.738281 L86.0078125,332.746094 Z" transform="translate(-73 -312)"/>
  </g>
</svg>
