<svg xmlns="http://www.w3.org/2000/svg" width="36" height="36" viewBox="0 0 36 36">
  <g fill="none" fill-rule="evenodd">
    <path fill="#FFFFFF" d="M126,368 L126,365.5 L129.75,368.625 L126,371.75 L126,369.25 L123.5,369.25 L123.5,368 L126,368 Z M123.5,364.25 L123.5,363 L138.5,363 L138.5,364.25 L123.5,364.25 Z M131,368 L131,365.5 L138.5,365.5 L138.5,368 L131,368 Z M131,371.75 L131,369.25 L138.5,369.25 L138.5,371.75 L131,371.75 Z M123.5,374.25 L123.5,373 L138.5,373 L138.5,374.25 L123.5,374.25 Z M123.5,376.75 L123.5,375.5 L138.5,375.5 L138.5,376.75 L123.5,376.75 Z" transform="translate(-113 -352)"/>
  </g>
</svg>
