<svg xmlns="http://www.w3.org/2000/svg" width="36" height="36" viewBox="0 0 36 36">
  <g fill="none" fill-rule="evenodd">
    <path fill="#FFFFFF" d="M259.5,415 C259.5,416.028651 259.132165,416.910804 258.396484,417.646484 C257.660804,418.382165 256.778651,418.75 255.75,418.75 L245.75,418.75 C244.721349,418.75 243.839196,418.382165 243.103516,417.646484 C242.367835,416.910804 242,416.028651 242,415 L242,405 C242,403.971349 242.367835,403.089196 243.103516,402.353516 C243.839196,401.617835 244.721349,401.25 245.75,401.25 L255.75,401.25 C256.32292,401.25 256.869789,401.373697 257.390625,401.621094 L256.277344,402.558594 C256.108072,402.519531 255.932293,402.5 255.75,402.5 L245.75,402.5 C245.059892,402.5 244.470706,402.744138 243.982422,403.232422 C243.494138,403.720706 243.25,404.309892 243.25,405 L243.25,415 C243.25,415.690108 243.494138,416.279294 243.982422,416.767578 C244.470706,417.255862 245.059892,417.5 245.75,417.5 L255.75,417.5 C256.440108,417.5 257.029294,417.255862 257.517578,416.767578 C258.005862,416.279294 258.25,415.690108 258.25,415 L258.25,407.96875 L259.5,407.03125 L259.5,415 Z M261.199219,400.039062 L262,400.039062 L262,400.800781 L250.105469,414.824219 L245.339844,410.878906 L246.746094,409.414062 L250.105469,412.714844 L261.199219,400.039062 Z" transform="translate(-233 -392)"/>
  </g>
</svg>
