<svg xmlns="http://www.w3.org/2000/svg" width="36" height="36" viewBox="0 0 36 36">
  <g fill="none" fill-rule="evenodd">
    <path fill="#FFFFFF" d="M5.79492188,375.205078 C4.68163506,374.091791 4.125,372.356783 4.125,370 C4.125,367.643217 4.68163506,365.908209 5.79492188,364.794922 C6.90820869,363.681635 8.64321738,363.125 11,363.125 C13.3567826,363.125 15.0917913,363.681635 16.2050781,364.794922 C17.3183649,365.908209 17.875,367.643217 17.875,370 C17.875,372.356783 17.3183649,374.091791 16.2050781,375.205078 C15.0917913,376.318365 13.3567826,376.875 11,376.875 C8.64321738,376.875 6.90820869,376.318365 5.79492188,375.205078 L5.79492188,375.205078 Z M4.95507812,363.955078 C3.56835244,365.341804 2.875,367.356758 2.875,370 C2.875,372.643242 3.56835244,374.658196 4.95507812,376.044922 C6.34180381,377.431648 8.35675762,378.125 11,378.125 C13.6432424,378.125 15.6581962,377.431648 17.0449219,376.044922 C18.4316476,374.658196 19.125,372.643242 19.125,370 C19.125,367.356758 18.4316476,365.341804 17.0449219,363.955078 C15.6581962,362.568352 13.6432424,361.875 11,361.875 C8.35675762,361.875 6.34180381,362.568352 4.95507812,363.955078 L4.95507812,363.955078 Z M7.875,370 L10.375,370 L10.375,365.625 L7.875,365.625 L7.875,370 Z M11.625,370 L14.125,370 L14.125,365.625 L11.625,365.625 L11.625,370 Z M14.3203125,370.917969 C13.1874943,371.998703 12.0807346,372.539062 11,372.539062 C9.91926543,372.539062 8.81250566,371.998703 7.6796875,370.917969 L6.8203125,371.835938 C8.18750684,373.138027 9.58072207,373.789062 11,373.789062 C12.4192779,373.789062 13.8124932,373.138027 15.1796875,371.835938 L14.3203125,370.917969 Z" transform="translate(7 -352)"/>
  </g>
</svg>
