<svg xmlns="http://www.w3.org/2000/svg" width="36" height="36" viewBox="0 0 36 36">
  <g fill="none" fill-rule="evenodd">
    <path fill="#FFFFFF" d="M260.570312,1139.83398 C260.570312,1140.32227 260.399416,1140.7373 260.057617,1141.0791 C259.715819,1141.4209 259.300784,1141.5918 258.8125,1141.5918 L243.197266,1141.5918 C242.708982,1141.5918 242.293947,1141.4209 241.952148,1141.0791 C241.61035,1140.7373 241.439453,1140.32227 241.439453,1139.83398 L241.439453,1124.21875 C241.439453,1123.73047 241.61035,1123.31543 241.952148,1122.97363 C242.293947,1122.63183 242.708982,1122.46094 243.197266,1122.46094 L258.8125,1122.46094 C259.300784,1122.46094 259.715819,1122.63183 260.057617,1122.97363 C260.399416,1123.31543 260.570312,1123.73047 260.570312,1124.21875 L260.570312,1139.83398 Z M258.65625,1138.27148 L258.65625,1125.78125 C258.65625,1125.39062 258.519533,1125.0586 258.246094,1124.78516 C257.972655,1124.51172 257.640627,1124.375 257.25,1124.375 L244.75,1124.375 C244.359373,1124.375 244.027345,1124.51172 243.753906,1124.78516 C243.480467,1125.0586 243.34375,1125.39062 243.34375,1125.78125 L243.34375,1138.27148 C243.34375,1138.66211 243.480467,1138.99414 243.753906,1139.26758 C244.027345,1139.54102 244.359373,1139.67773 244.75,1139.67773 L257.25,1139.67773 C257.640627,1139.67773 257.972655,1139.54102 258.246094,1139.26758 C258.519533,1138.99414 258.65625,1138.66211 258.65625,1138.27148 L258.65625,1138.27148 Z M255.150391,1128.85742 C255.150391,1129.57357 254.942059,1130.13672 254.525391,1130.54688 C254.421223,1130.64453 253.994795,1130.88867 253.246094,1131.2793 C252.718747,1131.55925 252.425782,1131.91081 252.367188,1132.33398 C252.380208,1132.24284 252.386719,1132.77343 252.386719,1133.92578 L249.613281,1133.92578 L249.613281,1132.65625 C249.613281,1131.95963 249.854164,1131.37696 250.335938,1130.9082 C250.381511,1130.86263 250.820959,1130.54037 251.654297,1129.94141 C252.142581,1129.60286 252.386719,1129.24154 252.386719,1128.85742 C252.386719,1128.51888 252.250001,1128.22429 251.976562,1127.97363 C251.703124,1127.72298 251.377606,1127.59766 251,1127.59766 L249.613281,1127.59766 C248.766923,1127.59766 248.307943,1128.01757 248.236328,1128.85742 L246.849609,1128.85742 C247.064454,1127.17122 247.985669,1126.32812 249.613281,1126.32812 L252.386719,1126.32812 C253.154952,1126.32812 253.807615,1126.57389 254.344727,1127.06543 C254.881839,1127.55697 255.150391,1128.15429 255.150391,1128.85742 L255.150391,1128.85742 Z M249.613281,1137.71484 L249.613281,1135.18555 L252.386719,1135.18555 L252.386719,1137.71484 L249.613281,1137.71484 Z" transform="translate(-233 -1112)"/>
  </g>
</svg>
