<svg xmlns="http://www.w3.org/2000/svg" width="36" height="36" viewBox="0 0 36 36">
  <g fill="none" fill-rule="evenodd">
    <path fill="#FFFFFF" d="M21,454.25 C21,454.940108 20.7558618,455.529294 20.2675781,456.017578 C19.7792944,456.505862 19.1901076,456.75 18.5,456.75 L3.5,456.75 C2.80989238,456.75 2.22070557,456.505862 1.73242188,456.017578 C1.24413818,455.529294 1,454.940108 1,454.25 L1,445.5 C1,444.809892 1.24413818,444.220706 1.73242188,443.732422 C2.22070557,443.244138 2.80989238,443 3.5,443 L18.5,443 C19.1901076,443 19.7792944,443.244138 20.2675781,443.732422 C20.7558618,444.220706 21,444.809892 21,445.5 L21,454.25 Z M19.75,455.5 L19.75,444.25 L19.75,444.875 L14.1445312,449.269531 L19.75,454.875 L19.75,455.5 L19.125,455.5 L13.4414062,449.816406 L10.9804688,451.75 L8.5390625,449.835938 L2.875,455.5 L2.25,455.5 L2.25,454.875 L7.85546875,449.269531 L2.25,444.875 L2.25,455.5 L19.75,455.5 Z M19.0664062,444.25 L2.875,444.25 L10.9804688,450.5 L19.0664062,444.25 Z" transform="translate(7 -432)"/>
  </g>
</svg>
