<svg xmlns="http://www.w3.org/2000/svg" width="36" height="36" viewBox="0 0 36 36">
  <g fill="none" fill-rule="evenodd">
    <path fill="#FFFFFF" d="M54.8769531,459.208984 C53.6464782,459.736331 52.3541734,460 51,460 C49.6458266,460 48.3502666,459.733076 47.1132812,459.199219 C45.8762959,458.665362 44.8118534,457.952478 43.9199219,457.060547 C43.0279903,456.168615 42.318362,455.107428 41.7910156,453.876953 C41.2636692,452.646478 41,451.354173 41,450 C41,448.645827 41.2669244,447.350267 41.8007812,446.113281 C42.3346381,444.876296 43.0475216,443.811853 43.9394531,442.919922 C44.8313847,442.02799 45.892572,441.318362 47.1230469,440.791016 C48.3535218,440.263669 49.6458266,440 51,440 C52.3541734,440 53.6497334,440.266924 54.8867188,440.800781 C56.1237041,441.334638 57.1881466,442.047522 58.0800781,442.939453 C58.9720097,443.831385 59.681638,444.892572 60.2089844,446.123047 C60.7363308,447.353522 61,448.645827 61,450 C61,451.354173 60.7330756,452.649733 60.1992188,453.886719 C59.6653619,455.123704 58.9524784,456.188147 58.0605469,457.080078 C57.1686153,457.97201 56.107428,458.681638 54.8769531,459.208984 L54.8769531,459.208984 Z M54.1347656,442.568359 C53.1386669,442.14518 52.0937555,441.933594 51,441.933594 C49.9062445,441.933594 48.8613331,442.14518 47.8652344,442.568359 C46.8691356,442.991539 46.0097692,443.56445 45.2871094,444.287109 C44.5644495,445.009769 43.9915386,445.869136 43.5683594,446.865234 C43.1451802,447.861333 42.9335938,448.906245 42.9335938,450 C42.9335938,451.093755 43.1451802,452.138667 43.5683594,453.134766 C43.9915386,454.130864 44.5644495,454.990231 45.2871094,455.712891 C46.0097692,456.43555 46.8691356,457.008461 47.8652344,457.431641 C48.8613331,457.85482 49.9062445,458.066406 51,458.066406 C52.0937555,458.066406 53.1386669,457.85482 54.1347656,457.431641 C55.1308644,457.008461 55.9902308,456.43555 56.7128906,455.712891 C57.4355505,454.990231 58.0084614,454.130864 58.4316406,453.134766 C58.8548198,452.138667 59.0664062,451.093755 59.0664062,450 C59.0664062,448.906245 58.8548198,447.861333 58.4316406,446.865234 C58.0084614,445.869136 57.4355505,445.009769 56.7128906,444.287109 C55.9902308,443.56445 55.1308644,442.991539 54.1347656,442.568359 L54.1347656,442.568359 Z M52.25,445 L52.25,451.25 L49.75,451.25 L49.75,445 L52.25,445 Z M52.25,452.5 L52.25,455 L49.75,455 L49.75,452.5 L52.25,452.5 Z" transform="translate(-33 -432)"/>
  </g>
</svg>
