<svg xmlns="http://www.w3.org/2000/svg" width="36" height="36" viewBox="0 0 36 36">
  <g fill="none" fill-rule="evenodd">
    <path fill="#FFFFFF" d="M162.992188,1050 L162.992188,1046.99219 C164.502612,1046.99219 165.934889,1047.27864 167.289062,1047.85156 C168.643236,1048.42448 169.811844,1049.19596 170.794922,1050.16602 C171.778,1051.13607 172.559242,1052.29817 173.138672,1053.65234 C173.718102,1055.00652 174.007812,1056.43228 174.007812,1057.92969 L171,1057.92969 C171,1056.9401 170.772138,1055.95704 170.316406,1054.98047 C169.860675,1054.0039 169.264978,1053.1543 168.529297,1052.43164 C167.793616,1051.70898 166.937505,1051.12305 165.960938,1050.67383 C164.98437,1050.22461 163.994797,1050 162.992188,1050 L162.992188,1050 Z M180.003906,1057.92969 L176.996094,1057.92969 C176.996094,1056.09374 176.615238,1054.31967 175.853516,1052.60742 C175.091793,1050.89517 174.076178,1049.41081 172.806641,1048.1543 C171.537103,1046.89778 170.042977,1045.89193 168.324219,1045.13672 C166.60546,1044.38151 164.828134,1044.00391 162.992188,1044.00391 L162.992188,1040.99609 C164.554695,1040.99609 166.074862,1041.19466 167.552734,1041.5918 C169.030606,1041.98893 170.39127,1042.54882 171.634766,1043.27148 C172.878261,1043.99414 174.020828,1044.86979 175.0625,1045.89844 C176.104172,1046.92709 176.986325,1048.06314 177.708984,1049.30664 C178.431644,1050.55014 178.99479,1051.90754 179.398438,1053.37891 C179.802085,1054.85027 180.003906,1056.36718 180.003906,1057.92969 L180.003906,1057.92969 Z M165.052734,1058.49609 C163.548821,1058.49609 162.796875,1057.66277 162.796875,1055.99609 C162.796875,1054.32942 163.548821,1053.49609 165.052734,1053.49609 C166.556648,1053.49609 167.308594,1054.32942 167.308594,1055.99609 C167.308594,1057.66277 166.556648,1058.49609 165.052734,1058.49609 L165.052734,1058.49609 Z" transform="translate(-153 -1032)"/>
  </g>
</svg>
