<svg xmlns="http://www.w3.org/2000/svg" width="36" height="36" viewBox="0 0 36 36">
  <g fill="none" fill-rule="evenodd">
    <path fill="#FFFFFF" d="M299.75,455 L299.75,452.5 L294.75,452.5 L294.75,451.25 L299.75,451.25 L299.75,448.75 L296,448.75 L296,447.5 L299.75,447.5 L299.75,442.5 C299.75,442.148436 299.629558,441.852215 299.388672,441.611328 C299.147785,441.370442 298.851564,441.25 298.5,441.25 L283.5,441.25 C283.148436,441.25 282.852215,441.370442 282.611328,441.611328 C282.370442,441.852215 282.25,442.148436 282.25,442.5 L282.25,457.5 C282.25,457.851564 282.370442,458.147785 282.611328,458.388672 C282.852215,458.629558 283.148436,458.75 283.5,458.75 L298.5,458.75 C298.851564,458.75 299.147785,458.629558 299.388672,458.388672 C299.629558,458.147785 299.75,457.851564 299.75,457.5 L299.75,456.25 L284.75,456.25 L284.75,455 L299.75,455 Z M281,442.5 C281,441.809892 281.244138,441.220706 281.732422,440.732422 C282.220706,440.244138 282.809892,440 283.5,440 L298.5,440 C299.190108,440 299.779294,440.244138 300.267578,440.732422 C300.755862,441.220706 301,441.809892 301,442.5 L301,457.5 C301,458.190108 300.755862,458.779294 300.267578,459.267578 C299.779294,459.755862 299.190108,460 298.5,460 L283.5,460 C282.809892,460 282.220706,459.755862 281.732422,459.267578 C281.244138,458.779294 281,458.190108 281,457.5 L281,442.5 Z M286.029297,445.029297 C286.882166,444.176428 287.914056,443.75 289.125,443.75 C290.335944,443.75 291.367834,444.176428 292.220703,445.029297 C293.073572,445.882166 293.5,446.914056 293.5,448.125 C293.5,449.335944 293.073572,450.367834 292.220703,451.220703 C291.367834,452.073572 290.335944,452.5 289.125,452.5 C287.914056,452.5 286.882166,452.073572 286.029297,451.220703 C285.176428,450.367834 284.75,449.335944 284.75,448.125 C284.75,446.914056 285.176428,445.882166 286.029297,445.029297 L286.029297,445.029297 Z M292.25,448.125 C292.25,447.369788 292.012372,446.705732 291.537109,446.132812 C291.061847,445.559893 290.466149,445.201824 289.75,445.058594 L289.75,447.871094 L291.722656,449.84375 C292.074221,449.322914 292.25,448.750003 292.25,448.125 L292.25,448.125 Z M288.5,445.058594 C287.783851,445.201824 287.188153,445.559893 286.712891,446.132812 C286.237628,446.705732 286,447.369788 286,448.125 C286,448.463543 286.065104,448.815102 286.195312,449.179688 L288.5,447.851562 L288.5,445.058594 Z M286.839844,450.234375 C287.464847,450.911462 288.226558,451.25 289.125,451.25 C289.750003,451.25 290.322914,451.074221 290.84375,450.722656 L289.085938,448.964844 L286.839844,450.234375 Z" transform="translate(-273 -432)"/>
  </g>
</svg>
