<svg xmlns="http://www.w3.org/2000/svg" width="36" height="36" viewBox="0 0 36 36">
  <g fill="none" fill-rule="evenodd">
    <path fill="#FFFFFF" d="M47.5820312,1041.25 C47.360676,1041.64063 47.25,1042.05729 47.25,1042.5 L47.25,1052.51953 C47.25,1053.54818 47.6178349,1054.43033 48.3535156,1055.16602 C49.0891964,1055.9017 49.971349,1056.26953 51,1056.26953 C52.028651,1056.26953 52.9108036,1055.9017 53.6464844,1055.16602 C54.3821651,1054.43033 54.75,1053.54818 54.75,1052.51953 L54.75,1043.76953 L56,1043.76953 L56,1052.51953 C56,1053.89975 55.5117236,1055.07812 54.5351562,1056.05469 C53.5585889,1057.03125 52.3802152,1057.51953 51,1057.51953 C49.6197848,1057.51953 48.4414111,1057.03125 47.4648438,1056.05469 C46.4882764,1055.07812 46,1053.89975 46,1052.51953 L46,1042.5 C46,1042.07031 46.0716139,1041.65365 46.2148438,1041.25 L43.5,1041.25 C43.1484357,1041.25 42.8522147,1041.37044 42.6113281,1041.61133 C42.3704415,1041.85221 42.25,1042.14844 42.25,1042.5 L42.25,1057.5 C42.25,1057.85156 42.3704415,1058.14779 42.6113281,1058.38867 C42.8522147,1058.62956 43.1484357,1058.75 43.5,1058.75 L58.5,1058.75 C58.8515643,1058.75 59.1477853,1058.62956 59.3886719,1058.38867 C59.6295585,1058.14779 59.75,1057.85156 59.75,1057.5 L59.75,1042.5 C59.75,1042.14844 59.6295585,1041.85221 59.3886719,1041.61133 C59.1477853,1041.37044 58.8515643,1041.25 58.5,1041.25 L53.2851562,1041.25 C53.4283861,1041.65365 53.5,1042.07031 53.5,1042.5 L53.5,1052.51953 C53.5,1053.20964 53.2558618,1053.79883 52.7675781,1054.28711 C52.2792944,1054.77539 51.6901076,1055.01953 51,1055.01953 C50.3098924,1055.01953 49.7207056,1054.77539 49.2324219,1054.28711 C48.7441382,1053.79883 48.5,1053.20313 48.5,1052.5 L48.5,1046.26953 L49.75,1046.26953 L49.75,1052.5 C49.75,1052.85156 49.8704415,1053.15104 50.1113281,1053.39844 C50.3522147,1053.64583 50.6484357,1053.76953 51,1053.76953 C51.3385434,1053.76953 51.6315092,1053.64583 51.8789062,1053.39844 C52.1263033,1053.15104 52.25,1052.85807 52.25,1052.51953 L52.25,1042.5 C52.25,1042.05729 52.139324,1041.64063 51.9179688,1041.25 L47.5820312,1041.25 Z M41,1042.5 C41,1041.80989 41.2441382,1041.22071 41.7324219,1040.73242 C42.2207056,1040.24414 42.8098924,1040 43.5,1040 L58.5,1040 C59.1901076,1040 59.7792944,1040.24414 60.2675781,1040.73242 C60.7558618,1041.22071 61,1041.80989 61,1042.5 L61,1057.5 C61,1058.19011 60.7558618,1058.77929 60.2675781,1059.26758 C59.7792944,1059.75586 59.1901076,1060 58.5,1060 L43.5,1060 C42.8098924,1060 42.2207056,1059.75586 41.7324219,1059.26758 C41.2441382,1058.77929 41,1058.19011 41,1057.5 L41,1042.5 Z" transform="translate(-33 -1032)"/>
  </g>
</svg>
