<svg xmlns="http://www.w3.org/2000/svg" width="36" height="36" viewBox="0 0 36 36">
  <g fill="none" fill-rule="evenodd">
    <path fill="#FFFFFF" d="M43.5,920 L58.5,920 C59.1901076,920 59.7792944,920.244138 60.2675781,920.732422 C60.7558618,921.220706 61,921.809892 61,922.5 L61,937.5 C61,938.190108 60.7558618,938.779294 60.2675781,939.267578 C59.7792944,939.755862 59.1901076,940 58.5,940 L43.5,940 C42.8098924,940 42.2207056,939.755862 41.7324219,939.267578 C41.2441382,938.779294 41,938.190108 41,937.5 L41,922.5 C41,921.809892 41.2441382,921.220706 41.7324219,920.732422 C42.2207056,920.244138 42.8098924,920 43.5,920 L43.5,920 Z M58.5,921.25 L43.5,921.25 C43.1484357,921.25 42.8522147,921.370442 42.6113281,921.611328 C42.3704415,921.852215 42.25,922.148436 42.25,922.5 L42.25,933.046875 C44.8932424,930.039047 46.5598924,928.190108 47.25,927.5 C48.40886,928.65886 50.1926963,931.204407 52.6015625,935.136719 C52.8880223,934.759113 53.1777329,934.391278 53.4707031,934.033203 C53.7636733,933.675128 54.1184875,933.264976 54.5351562,932.802734 C54.951825,932.340492 55.3457013,931.966147 55.7167969,931.679688 C56.0878925,931.393228 56.3906238,931.25 56.625,931.25 C57.2890658,931.25 58.3307221,932.36327 59.75,934.589844 L59.75,922.5 C59.75,922.148436 59.6295585,921.852215 59.3886719,921.611328 C59.1477853,921.370442 58.8515643,921.25 58.5,921.25 L58.5,921.25 Z M43.5,938.75 L53.5,938.75 C52.9791641,937.8776 52.0188872,936.376964 50.6191406,934.248047 C49.219394,932.11913 48.0963584,930.494797 47.25,929.375 C46.5598924,930.065108 44.8932424,931.914047 42.25,934.921875 L42.25,937.5 C42.25,937.851564 42.3704415,938.147785 42.6113281,938.388672 C42.8522147,938.629558 43.1484357,938.75 43.5,938.75 L43.5,938.75 Z M59.75,937.5 L59.75,936.875 C59.7239582,936.835937 59.6946616,936.783854 59.6621094,936.71875 C59.6295571,936.653646 59.5546881,936.523438 59.4375,936.328125 C59.3203119,936.132812 59.2031256,935.937501 59.0859375,935.742188 C58.9687494,935.546874 58.8255217,935.319012 58.65625,935.058594 C58.4869783,934.798176 58.3307299,934.554038 58.1875,934.326172 C58.0442701,934.098306 57.8880217,933.870444 57.71875,933.642578 C57.5494783,933.414712 57.3997402,933.219402 57.2695312,933.056641 C57.1393223,932.893879 57.0156256,932.760417 56.8984375,932.65625 C56.7812494,932.552083 56.6901045,932.5 56.625,932.5 C56.4296865,932.5 56.0455758,932.799476 55.4726562,933.398438 C54.8997367,933.997399 54.3789086,934.596351 53.9101562,935.195312 L53.1875,936.09375 L54.75,938.75 L58.5,938.75 C58.8515643,938.75 59.1477853,938.629558 59.3886719,938.388672 C59.6295585,938.147785 59.75,937.851564 59.75,937.5 L59.75,937.5 Z M54.125,928.4375 L52.2304688,930.195312 L52.40625,927.617188 L49.8671875,927.226562 L51.9960938,925.761719 L50.7070312,923.515625 L53.1679688,924.277344 L54.125,921.875 L55.0820312,924.277344 L57.5429688,923.515625 L56.2539062,925.761719 L58.3828125,927.226562 L55.84375,927.617188 L56.0195312,930.195312 L54.125,928.4375 Z M52.9824219,925.107422 C52.6634099,925.426434 52.5039062,925.807289 52.5039062,926.25 C52.5039062,926.692711 52.6634099,927.073566 52.9824219,927.392578 C53.3014339,927.71159 53.6822895,927.871094 54.125,927.871094 C54.5677105,927.871094 54.9485661,927.71159 55.2675781,927.392578 C55.5865901,927.073566 55.7460938,926.692711 55.7460938,926.25 C55.7460938,925.807289 55.5865901,925.426434 55.2675781,925.107422 C54.9485661,924.78841 54.5677105,924.628906 54.125,924.628906 C53.6822895,924.628906 53.3014339,924.78841 52.9824219,925.107422 L52.9824219,925.107422 Z" transform="translate(-33 -912)"/>
  </g>
</svg>
