<svg xmlns="http://www.w3.org/2000/svg" width="36" height="36" viewBox="0 0 36 36">
  <g fill="none" fill-rule="evenodd">
    <path fill="#FFFFFF" d="M121,442.5 C121,441.809892 121.244138,441.220706 121.732422,440.732422 C122.220706,440.244138 122.809892,440 123.5,440 L138.5,440 C139.190108,440 139.779294,440.244138 140.267578,440.732422 C140.755862,441.220706 141,441.809892 141,442.5 L141,457.5 C141,458.190108 140.755862,458.779294 140.267578,459.267578 C139.779294,459.755862 139.190108,460 138.5,460 L123.5,460 C122.809892,460 122.220706,459.755862 121.732422,459.267578 C121.244138,458.779294 121,458.190108 121,457.5 L121,442.5 Z M138.5,441.25 L123.5,441.25 C123.148436,441.25 122.852215,441.370442 122.611328,441.611328 C122.370442,441.852215 122.25,442.148436 122.25,442.5 L122.25,457.5 C122.25,457.851564 122.370442,458.147785 122.611328,458.388672 C122.852215,458.629558 123.148436,458.75 123.5,458.75 L138.5,458.75 C138.851564,458.75 139.147785,458.629558 139.388672,458.388672 C139.629558,458.147785 139.75,457.851564 139.75,457.5 L139.75,442.5 C139.75,442.148436 139.629558,441.852215 139.388672,441.611328 C139.147785,441.370442 138.851564,441.25 138.5,441.25 L138.5,441.25 Z M140.375,452.03125 L135.335938,456.25 L134.164062,455.273438 L138.050781,451.875 L134.125,448.398438 L135.335938,447.5 L140.375,451.621094 L140.375,452.03125 Z M121.625,448.28125 L121.625,447.871094 L126.664062,443.75 L127.875,444.648438 L123.949219,448.125 L127.835938,451.523438 L126.664062,452.5 L121.625,448.28125 Z M132.269531,442.5 L133.480469,442.5 L129.75,457.5 L128.5,457.5 L132.269531,442.5 Z" transform="translate(-113 -432)"/>
  </g>
</svg>
