<svg xmlns="http://www.w3.org/2000/svg" width="36" height="36" viewBox="0 0 36 36">
  <g fill="none" fill-rule="evenodd">
    <path fill="#FFFFFF" d="M83.5500031,480.02 L98.5500031,480.02 C99.2401107,480.02 99.8292975,480.264138 100.317581,480.752422 C100.805865,481.240706 101.050003,481.829892 101.050003,482.52 L101.050003,497.52 C101.050003,498.210108 100.805865,498.799294 100.317581,499.287578 C99.8292975,499.775862 99.2401107,500.02 98.5500031,500.02 L83.5500031,500.02 C82.8598954,500.02 82.2707086,499.775862 81.7824249,499.287578 C81.2941412,498.799294 81.0500031,498.210108 81.0500031,497.52 L81.0500031,482.52 C81.0500031,481.829892 81.2941412,481.240706 81.7824249,480.752422 C82.2707086,480.264138 82.8598954,480.02 83.5500031,480.02 L83.5500031,480.02 Z M82.3000031,482.52 L82.3000031,487.52 L87.3000031,487.52 L87.3000031,481.27 L83.5500031,481.27 C83.1984388,481.27 82.9022178,481.390441 82.6613312,481.631328 C82.4204446,481.872215 82.3000031,482.168436 82.3000031,482.52 L82.3000031,482.52 Z M88.5500031,492.52 L88.5500031,495.02 L93.5500031,495.02 L93.5500031,492.52 L88.5500031,492.52 Z M88.5500031,488.77 L88.5500031,491.27 L93.5500031,491.27 L93.5500031,488.77 L88.5500031,488.77 Z M83.5500031,498.77 L87.3000031,498.77 L87.3000031,488.77 L82.3000031,488.77 L82.3000031,497.52 C82.3000031,497.871564 82.4204446,498.167785 82.6613312,498.408672 C82.9022178,498.649558 83.1984388,498.77 83.5500031,498.77 L83.5500031,498.77 Z M88.5500031,496.27 L88.5500031,498.77 L93.5500031,498.77 L93.5500031,496.27 L88.5500031,496.27 Z M99.8000031,497.52 L99.8000031,496.27 L94.8000031,496.27 L94.8000031,498.77 L98.5500031,498.77 C98.9015673,498.77 99.1977883,498.649558 99.4386749,498.408672 C99.6795615,498.167785 99.8000031,497.871564 99.8000031,497.52 L99.8000031,497.52 Z M94.8000031,492.52 L94.8000031,495.02 L99.8000031,495.02 L99.8000031,492.52 L94.8000031,492.52 Z M94.8000031,488.77 L94.8000031,491.27 L99.8000031,491.27 L99.8000031,488.77 L94.8000031,488.77 Z M88.5500031,481.27 L88.5500031,487.52 L99.8000031,487.52 L99.8000031,482.52 C99.8000031,482.168436 99.6795615,481.872215 99.4386749,481.631328 C99.1977883,481.390441 98.9015673,481.27 98.5500031,481.27 L88.5500031,481.27 Z" transform="translate(-73 -472)"/>
  </g>
</svg>
