<svg xmlns="http://www.w3.org/2000/svg" width="36" height="36" viewBox="0 0 36 36">
  <g fill="none" fill-rule="evenodd">
    <path fill="#FFFFFF" d="M41,482.5 C41,481.809892 41.2441382,481.220706 41.7324219,480.732422 C42.2207056,480.244138 42.8098924,480 43.5,480 L58.5,480 C59.1901076,480 59.7792944,480.244138 60.2675781,480.732422 C60.7558618,481.220706 61,481.809892 61,482.5 L61,497.5 C61,498.190108 60.7558618,498.779294 60.2675781,499.267578 C59.7792944,499.755862 59.1901076,500 58.5,500 L43.5,500 C42.8098924,500 42.2207056,499.755862 41.7324219,499.267578 C41.2441382,498.779294 41,498.190108 41,497.5 L41,482.5 Z M58.5,481.25 L43.5,481.25 C43.1484357,481.25 42.8522147,481.370442 42.6113281,481.611328 C42.3704415,481.852215 42.25,482.148436 42.25,482.5 L42.25,497.5 C42.25,497.851564 42.3704415,498.147785 42.6113281,498.388672 C42.8522147,498.629558 43.1484357,498.75 43.5,498.75 L58.5,498.75 C58.8515643,498.75 59.1477853,498.629558 59.3886719,498.388672 C59.6295585,498.147785 59.75,497.851564 59.75,497.5 L59.75,482.5 C59.75,482.148436 59.6295585,481.852215 59.3886719,481.611328 C59.1477853,481.370442 58.8515643,481.25 58.5,481.25 L58.5,481.25 Z M51.0195312,494.375 C51.0195312,494.96094 50.8404966,495.472003 50.4824219,495.908203 C50.1243472,496.344403 49.714195,496.6569 49.2519531,496.845703 C48.7897112,497.034506 48.3307314,497.128906 47.875,497.128906 C47.1848924,497.128906 46.5533883,496.842451 45.9804688,496.269531 C45.4075492,495.696612 45.1210938,495.065108 45.1210938,494.375 C45.1210938,493.684892 45.4075492,493.053388 45.9804688,492.480469 C46.5533883,491.907549 47.1848924,491.621094 47.875,491.621094 C48.382815,491.621094 48.8255189,491.777342 49.203125,492.089844 C49.5807311,492.402345 49.7695312,492.747394 49.7695312,493.125 L49.7695312,483.125 C49.7695312,482.916666 49.8183589,482.760417 49.9160156,482.65625 C50.0136724,482.552083 50.1145828,482.5 50.21875,482.5 L50.375,482.5 C50.375,482.513021 50.3977862,482.513021 50.4433594,482.5 C50.4889325,482.486979 50.5442705,482.493489 50.609375,482.519531 C50.6744795,482.545573 50.7363278,482.57487 50.7949219,482.607422 C50.8535159,482.639974 50.9055987,482.701822 50.9511719,482.792969 C50.996745,482.884115 51.0195312,482.994791 51.0195312,483.125 C52.2434957,483.125 53.2786416,483.245442 54.125,483.486328 C54.9713584,483.727215 55.6256487,484.069008 56.0878906,484.511719 C56.5501325,484.954429 56.8951812,485.485023 57.1230469,486.103516 C57.3509126,486.722008 57.4550782,487.40885 57.4355469,488.164062 C57.4160155,488.919275 57.3541672,489.739579 57.25,490.625 C56.9505193,489.869788 56.5891948,489.238284 56.1660156,488.730469 C55.7428364,488.222654 55.2578152,487.838543 54.7109375,487.578125 C54.1640598,487.317707 53.6041695,487.135417 53.03125,487.03125 C52.4583305,486.927083 51.7877643,486.875 51.0195312,486.875 L51.0195312,494.375 Z M51,485.625 C53.3567826,485.625 55.1080672,486.126297 56.2539062,487.128906 C56.1497391,486.829426 56.0358079,486.555991 55.9121094,486.308594 C55.7884108,486.061197 55.6647142,485.846355 55.5410156,485.664062 C55.4173171,485.48177 55.2578135,485.322266 55.0625,485.185547 C54.8671865,485.048827 54.6979174,484.934896 54.5546875,484.84375 C54.4114576,484.752604 54.2096367,484.677735 53.9492188,484.619141 C53.6888008,484.560547 53.4772144,484.514974 53.3144531,484.482422 C53.1516919,484.44987 52.9108089,484.423828 52.5917969,484.404297 C52.2727849,484.384766 52.0221363,484.375 51.8398438,484.375 L51,484.375 L51,484.394531 L51,484.414062 L51,484.433594 L51,484.453125 L51,484.472656 L51,484.492188 L51,484.511719 L51,484.53125 L51,484.550781 L51,484.570312 L51,484.589844 L51,484.609375 L51,484.628906 L51,484.648438 L51,484.667969 L51,484.6875 L51,484.726562 L51,484.746094 L51,484.765625 L51,484.785156 L51,484.824219 L51,484.84375 L51,484.863281 L51,484.902344 L51,484.921875 L51,484.960938 L51,484.980469 L51,485.019531 L51,485.039062 L51,485.078125 L51,485.097656 L51,485.136719 L51,485.15625 L51,485.195312 L51,485.234375 L51,485.253906 L51,485.292969 L51,485.332031 L51,485.351562 L51,485.390625 L51,485.429688 L51,485.46875 L51,485.625 Z M49.4960938,494.375 C49.4960938,494.049478 49.3365901,493.71745 49.0175781,493.378906 C48.6985661,493.040363 48.3177105,492.871094 47.875,492.871094 C47.4583313,492.871094 47.1035171,493.017577 46.8105469,493.310547 C46.5175767,493.603517 46.3710938,493.958331 46.3710938,494.375 C46.3710938,494.791669 46.5175767,495.146483 46.8105469,495.439453 C47.1035171,495.732423 47.4583313,495.878906 47.875,495.878906 C48.3307314,495.878906 48.7148422,495.75521 49.0273438,495.507812 C49.3398453,495.260415 49.4960938,494.882815 49.4960938,494.375 L49.4960938,494.375 Z" transform="translate(-33 -472)"/>
  </g>
</svg>
