<svg xmlns="http://www.w3.org/2000/svg" width="36" height="36" viewBox="0 0 36 36">
  <g fill="none" fill-rule="evenodd">
    <path fill="#FFFFFF" d="M241,442.5 C241,441.809892 241.244138,441.220706 241.732422,440.732422 C242.220706,440.244138 242.809892,440 243.5,440 L258.5,440 C259.190108,440 259.779294,440.244138 260.267578,440.732422 C260.755862,441.220706 261,441.809892 261,442.5 L261,457.5 C261,458.190108 260.755862,458.779294 260.267578,459.267578 C259.779294,459.755862 259.190108,460 258.5,460 L243.5,460 C242.809892,460 242.220706,459.755862 241.732422,459.267578 C241.244138,458.779294 241,458.190108 241,457.5 L241,442.5 Z M258.5,441.25 L243.5,441.25 C243.148436,441.25 242.852215,441.370442 242.611328,441.611328 C242.370442,441.852215 242.25,442.148436 242.25,442.5 L242.25,457.5 C242.25,457.851564 242.370442,458.147785 242.611328,458.388672 C242.852215,458.629558 243.148436,458.75 243.5,458.75 L258.5,458.75 C258.851564,458.75 259.147785,458.629558 259.388672,458.388672 C259.629558,458.147785 259.75,457.851564 259.75,457.5 L259.75,442.5 C259.75,442.148436 259.629558,441.852215 259.388672,441.611328 C259.147785,441.370442 258.851564,441.25 258.5,441.25 L258.5,441.25 Z M256,448.75 L254.75,448.75 L254.75,447.5 L257.25,447.5 L257.25,458.75 L256,458.75 L256,448.75 Z M242.972656,448.671875 C242.686196,448.710938 242.464845,448.736979 242.308594,448.75 L242.191406,447.5 C242.347657,447.486979 242.555988,447.467448 242.816406,447.441406 C243.350263,447.376302 243.903643,447.291667 244.476562,447.1875 C246.312509,446.874998 247.99218,446.458336 249.515625,445.9375 C251.234384,445.35156 252.64713,444.661462 253.753906,443.867188 L254.75,443.125 L254.75,458.769531 L253.5,458.769531 L253.5,445.527344 C252.48437,446.126305 251.292976,446.660154 249.925781,447.128906 C248.337232,447.675784 246.592457,448.105467 244.691406,448.417969 C244.092445,448.522136 243.519534,448.606771 242.972656,448.671875 L242.972656,448.671875 Z M251,456.25 L244.75,457.5 L244.75,456.25 L251,455 L251,456.25 Z M251,452.5 L244.75,453.75 L244.75,452.5 L251,451.25 L251,452.5 Z" transform="translate(-233 -432)"/>
  </g>
</svg>
