<svg xmlns="http://www.w3.org/2000/svg" width="36" height="36" viewBox="0 0 36 36">
  <g fill="none" fill-rule="evenodd">
    <path fill="#FFFFFF" d="M215.746094,441.308594 L206.253906,441.308594 C205.498694,441.308594 204.850914,441.575518 204.310547,442.109375 C203.77018,442.643232 203.5,443.294267 203.5,444.0625 L203.5,456.035156 C203.5,456.803389 203.77018,457.45768 204.310547,457.998047 C204.850914,458.538414 205.498694,458.808594 206.253906,458.808594 L215.746094,458.808594 C216.501306,458.808594 217.149086,458.538414 217.689453,457.998047 C218.22982,457.45768 218.5,456.803389 218.5,456.035156 L218.5,444.0625 C218.5,443.294267 218.22982,442.643232 217.689453,442.109375 C217.149086,441.575518 216.501306,441.308594 215.746094,441.308594 L215.746094,441.308594 Z M215.746094,440.058594 C216.85287,440.058594 217.796871,440.449215 218.578125,441.230469 C219.359379,442.011723 219.75,442.955724 219.75,444.0625 L219.75,456.035156 C219.75,457.141933 219.359379,458.089189 218.578125,458.876953 C217.796871,459.664717 216.85287,460.058594 215.746094,460.058594 L206.253906,460.058594 C205.14713,460.058594 204.203129,459.664717 203.421875,458.876953 C202.640621,458.089189 202.25,457.141933 202.25,456.035156 L202.25,444.0625 C202.25,442.955724 202.640621,442.011723 203.421875,441.230469 C204.203129,440.449215 205.14713,440.058594 206.253906,440.058594 L215.746094,440.058594 Z M211.332031,448.769531 L210.941406,448.496094 C210.928385,447.949216 210.967447,447.447919 211.058594,446.992188 C211.14974,446.536456 211.270182,446.162111 211.419922,445.869141 C211.569662,445.57617 211.742187,445.319012 211.9375,445.097656 C212.132813,444.876301 212.328124,444.710287 212.523438,444.599609 C212.718751,444.488932 212.89453,444.397787 213.050781,444.326172 C213.207032,444.254557 213.337239,444.21224 213.441406,444.199219 L213.597656,444.179688 C213.441405,444.466147 213.252605,444.80143 213.03125,445.185547 C212.809895,445.569663 212.666667,445.833333 212.601562,445.976562 C212.536458,446.119792 212.461589,446.298827 212.376953,446.513672 C212.292317,446.728517 212.266276,446.904296 212.298828,447.041016 C212.33138,447.177735 212.380208,447.343749 212.445312,447.539062 C212.510417,447.734376 212.627603,447.968749 212.796875,448.242188 C212.966147,448.580731 212.998698,448.902993 212.894531,449.208984 C212.790364,449.514975 212.588543,449.794921 212.289062,450.048828 C211.989582,450.302736 211.68034,450.524088 211.361328,450.712891 C211.042316,450.901694 210.759116,451.048177 210.511719,451.152344 L210.140625,451.308594 C210.166667,451.282552 210.202474,451.253255 210.248047,451.220703 C210.29362,451.188151 210.38151,451.116537 210.511719,451.005859 C210.641928,450.895182 210.762369,450.784506 210.873047,450.673828 C210.983725,450.56315 211.097656,450.426433 211.214844,450.263672 C211.332032,450.100911 211.416666,449.944662 211.46875,449.794922 C211.520834,449.645182 211.540365,449.479168 211.527344,449.296875 C211.514323,449.114582 211.449219,448.938803 211.332031,448.769531 L211.332031,448.769531 Z M211.15625,441.132812 C211.143229,441.39323 211.117188,441.744789 211.078125,442.1875 C211.039062,442.630211 210.91211,443.430984 210.697266,444.589844 C210.482421,445.748704 210.225262,446.78385 209.925781,447.695312 C209.76953,448.164065 209.681641,448.662107 209.662109,449.189453 C209.642578,449.7168 209.658854,450.429683 209.710938,451.328125 C209.411457,450.768226 209.180339,450.305991 209.017578,449.941406 C208.854817,449.576821 208.685548,449.134117 208.509766,448.613281 C208.333983,448.092445 208.252604,447.613934 208.265625,447.177734 C208.278646,446.741534 208.382812,446.347658 208.578125,445.996094 L211.15625,441.132812 Z M215.414062,448.808594 L215.492188,448.808594 L215.492188,449.013672 C215.492188,449.098308 215.495443,449.23177 215.501953,449.414062 C215.508464,449.596355 215.511719,449.749348 215.511719,449.873047 L215.511719,450.058594 C215.498698,450.058594 215.423829,450.097656 215.287109,450.175781 C215.15039,450.253907 215.000652,450.345052 214.837891,450.449219 C214.675129,450.553386 214.574219,450.618489 214.535156,450.644531 C213.662756,451.100263 212.6211,451.344401 211.410156,451.376953 C210.199213,451.409505 208.617197,451.197919 206.664062,450.742188 L206.957031,449.53125 C208.779957,449.947919 210.218745,450.14974 211.273438,450.136719 C212.32813,450.123698 213.220048,449.921877 213.949219,449.53125 C214.053386,449.479166 214.170572,449.407553 214.300781,449.316406 C214.326823,449.303385 214.382161,449.267578 214.466797,449.208984 C214.551433,449.15039 214.60026,449.121094 214.613281,449.121094 C214.925783,448.92578 215.192707,448.821615 215.414062,448.808594 L215.414062,448.808594 Z M206.917969,457.460938 L205.160156,456.40625 L205.804688,455.332031 L207.582031,456.386719 L207.25,456.308594 L214.75,456.308594 L214.476562,456.367188 L216.898438,455.214844 L217.425781,456.347656 L215.023438,457.480469 L214.75,457.558594 L207.25,457.558594 L207.074219,457.558594 L206.917969,457.460938 Z M214.300781,453.632812 C213.363277,454.283857 212.516931,454.729817 211.761719,454.970703 C211.006507,455.21159 210.270837,455.240886 209.554688,455.058594 C208.838538,454.876301 208.115889,454.453128 207.386719,453.789062 L208.226562,452.871094 C208.786461,453.378909 209.330075,453.701171 209.857422,453.837891 C210.384768,453.97461 210.938148,453.942058 211.517578,453.740234 C212.097008,453.53841 212.78385,453.157555 213.578125,452.597656 L214.300781,453.632812 Z" transform="translate(-193 -432)"/>
  </g>
</svg>
