<svg xmlns="http://www.w3.org/2000/svg" width="36" height="36" viewBox="0 0 36 36">
  <g fill="none" fill-rule="evenodd">
    <path fill="#FFFFFF" d="M161,442.5 C161,441.809892 161.244138,441.220706 161.732422,440.732422 C162.220706,440.244138 162.809892,440 163.5,440 L178.5,440 C179.190108,440 179.779294,440.244138 180.267578,440.732422 C180.755862,441.220706 181,441.809892 181,442.5 L181,457.5 C181,458.190108 180.755862,458.779294 180.267578,459.267578 C179.779294,459.755862 179.190108,460 178.5,460 L163.5,460 C162.809892,460 162.220706,459.755862 161.732422,459.267578 C161.244138,458.779294 161,458.190108 161,457.5 L161,442.5 Z M178.5,441.25 L163.5,441.25 C163.148436,441.25 162.852215,441.370442 162.611328,441.611328 C162.370442,441.852215 162.25,442.148436 162.25,442.5 L162.25,457.5 C162.25,457.851564 162.370442,458.147785 162.611328,458.388672 C162.852215,458.629558 163.148436,458.75 163.5,458.75 L178.5,458.75 C178.851564,458.75 179.147785,458.629558 179.388672,458.388672 C179.629558,458.147785 179.75,457.851564 179.75,457.5 L179.75,442.5 C179.75,442.148436 179.629558,441.852215 179.388672,441.611328 C179.147785,441.370442 178.851564,441.25 178.5,441.25 L178.5,441.25 Z M181,450 L173.5,450 L173.5,446.25 L181,446.25 L181,445 L172.25,445 L172.25,451.25 L181,451.25 L181,450 Z M162.25,447.5 L162.25,446.25 L169.75,446.25 L169.75,447.5 L162.25,447.5 Z M162.25,451.25 L162.25,450 L168.5,450 L168.5,451.25 L162.25,451.25 Z M162.25,455 L162.25,453.75 L177.25,453.75 L177.25,455 L162.25,455 Z M176.566406,448.125 L174.125,450 L173.5,450 L173.5,448.75 L176.566406,446.738281 L179.75,448.75 L179.75,450 L179.125,450 L176.566406,448.125 Z" transform="translate(-153 -432)"/>
  </g>
</svg>
