<svg xmlns="http://www.w3.org/2000/svg" width="36" height="36" viewBox="0 0 36 36">
  <g fill="none" fill-rule="evenodd">
    <path fill="#FFFFFF" d="M18.5,480 C19.1901076,480 19.7792944,480.244138 20.2675781,480.732422 C20.7558618,481.220706 21,481.809892 21,482.5 L21,497.5 C21,498.190108 20.7558618,498.779294 20.2675781,499.267578 C19.7792944,499.755862 19.1901076,500 18.5,500 L3.5,500 C2.80989238,500 2.22070557,499.755862 1.73242188,499.267578 C1.24413818,498.779294 1,498.190108 1,497.5 L1,482.5 C1,481.809892 1.24413818,481.220706 1.73242188,480.732422 C2.22070557,480.244138 2.80989238,480 3.5,480 L18.5,480 Z M19.75,497.5 L19.75,482.5 C19.75,482.148436 19.6295585,481.852215 19.3886719,481.611328 C19.1477853,481.370442 18.8515643,481.25 18.5,481.25 L3.5,481.25 C3.14843574,481.25 2.85221475,481.370442 2.61132812,481.611328 C2.3704415,481.852215 2.25,482.148436 2.25,482.5 L2.25,486.25 L14.75,486.25 L14.75,487.5 L2.25,487.5 L2.25,490 L16,490 L16,491.25 L2.25,491.25 L2.25,493.75 L12.25,493.75 L12.25,495 L2.25,495 L2.25,497.5 C2.25,497.851564 2.3704415,498.147785 2.61132812,498.388672 C2.85221475,498.629558 3.14843574,498.75 3.5,498.75 L18.5,498.75 C18.8515643,498.75 19.1477853,498.629558 19.3886719,498.388672 C19.6295585,498.147785 19.75,497.851564 19.75,497.5 L19.75,497.5 Z" transform="translate(7 -472)"/>
  </g>
</svg>
