<svg xmlns="http://www.w3.org/2000/svg" width="36" height="36" viewBox="0 0 36 36">
  <g fill="none" fill-rule="evenodd">
    <path fill="#FFFFFF" d="M121,482.5 C121,481.809892 121.244138,481.220706 121.732422,480.732422 C122.220706,480.244138 122.809892,480 123.5,480 L138.5,480 C139.190108,480 139.779294,480.244138 140.267578,480.732422 C140.755862,481.220706 141,481.809892 141,482.5 L141,497.5 C141,498.190108 140.755862,498.779294 140.267578,499.267578 C139.779294,499.755862 139.190108,500 138.5,500 L123.5,500 C122.809892,500 122.220706,499.755862 121.732422,499.267578 C121.244138,498.779294 121,498.190108 121,497.5 L121,482.5 Z M138.5,481.25 L123.5,481.25 C123.148436,481.25 122.852215,481.370442 122.611328,481.611328 C122.370442,481.852215 122.25,482.148436 122.25,482.5 L122.25,497.5 C122.25,497.851564 122.370442,498.147785 122.611328,498.388672 C122.852215,498.629558 123.148436,498.75 123.5,498.75 L138.5,498.75 C138.851564,498.75 139.147785,498.629558 139.388672,498.388672 C139.629558,498.147785 139.75,497.851564 139.75,497.5 L139.75,482.5 C139.75,482.148436 139.629558,481.852215 139.388672,481.611328 C139.147785,481.370442 138.851564,481.25 138.5,481.25 L138.5,481.25 Z M128.5,494.375 L128.5,492.5 L131,492.5 L131,493.75 L133.5,493.75 L133.5,498.75 L128.5,498.75 L128.5,494.375 Z M131,481.25 L133.5,481.25 L133.5,482.5 L131,482.5 L131,481.25 Z M128.5,482.5 L131,482.5 L131,483.75 L128.5,483.75 L128.5,482.5 Z M131,483.75 L133.5,483.75 L133.5,485 L131,485 L131,483.75 Z M128.5,485 L131,485 L131,486.25 L128.5,486.25 L128.5,485 Z M131,486.25 L133.5,486.25 L133.5,487.5 L131,487.5 L131,486.25 Z M128.5,487.5 L131,487.5 L131,488.75 L128.5,488.75 L128.5,487.5 Z M128.5,490 L131,490 L131,491.25 L128.5,491.25 L128.5,490 Z M131,488.75 L133.5,488.75 L133.5,490 L131,490 L131,488.75 Z M131,491.25 L133.5,491.25 L133.5,492.5 L131,492.5 L131,491.25 Z M129.75,496.25 L129.75,497.5 L132.25,497.5 L132.25,496.25 L129.75,496.25 Z" transform="translate(-113 -472)"/>
  </g>
</svg>
