<svg xmlns="http://www.w3.org/2000/svg" width="36" height="36" viewBox="0 0 36 36">
  <g fill="none" fill-rule="evenodd">
    <path fill="#FFFFFF" d="M202.640625,1055.99609 C202.744792,1056.04818 202.861979,1056.07422 202.992188,1056.07422 L219.007812,1056.07422 C219.138021,1056.07422 219.261718,1056.04818 219.378906,1055.99609 L213.519531,1049.94141 L210.980469,1051.99219 L208.480469,1049.94141 L202.640625,1055.99609 Z M202.015625,1055.3125 L207.757812,1049.35547 L202.015625,1044.6875 C202.002604,1044.73958 201.996094,1044.79818 201.996094,1044.86328 L201.996094,1055.13672 C201.996094,1055.20182 202.002604,1055.26042 202.015625,1055.3125 L202.015625,1055.3125 Z M202.992188,1043.92578 C202.861979,1043.92578 202.744792,1043.95182 202.640625,1044.00391 L210.980469,1050.66406 L219.320312,1043.98438 C219.216145,1043.94531 219.11198,1043.92578 219.007812,1043.92578 L202.992188,1043.92578 Z M220.003906,1044.86328 C220.003906,1044.79818 219.997396,1044.73958 219.984375,1044.6875 L214.242188,1049.35547 L219.984375,1055.3125 C219.997396,1055.26042 220.003906,1055.20182 220.003906,1055.13672 L220.003906,1044.86328 Z M201,1055.13672 L201,1044.86328 C201,1044.34245 201.195311,1043.903 201.585938,1043.54492 C201.976564,1043.18685 202.44531,1043.00781 202.992188,1043.00781 L219.007812,1043.00781 C219.55469,1043.00781 220.023436,1043.18685 220.414062,1043.54492 C220.804689,1043.903 221,1044.34245 221,1044.86328 L221,1055.13672 C221,1055.65755 220.804689,1056.097 220.414062,1056.45508 C220.023436,1056.81315 219.55469,1056.99219 219.007812,1056.99219 L202.992188,1056.99219 C202.44531,1056.99219 201.976564,1056.81315 201.585938,1056.45508 C201.195311,1056.097 201,1055.65755 201,1055.13672 L201,1055.13672 Z" transform="translate(-193 -1032)"/>
  </g>
</svg>
