<svg xmlns="http://www.w3.org/2000/svg" width="36" height="36" viewBox="0 0 36 36">
  <g fill="none" fill-rule="evenodd">
    <path fill="#FFFFFF" d="M162.25,484.003906 L163.128906,482.5 L172.230469,497.285156 L171.117188,498.75 L162.25,484.003906 Z M164.730469,482.539062 C164.88672,482.617188 165.104816,482.718098 165.384766,482.841797 C165.664715,482.965495 166.172522,483.177082 166.908203,483.476562 C167.643884,483.776043 168.31445,484.029947 168.919922,484.238281 C169.525394,484.446616 170.134112,484.61914 170.746094,484.755859 C171.358076,484.892579 171.781249,484.915365 172.015625,484.824219 C172.289064,484.733072 172.58854,484.560548 172.914062,484.306641 C173.239585,484.052733 173.568358,483.785809 173.900391,483.505859 C174.232424,483.22591 174.606769,482.939455 175.023438,482.646484 C175.440106,482.353514 175.944658,482.083335 176.537109,481.835938 C177.12956,481.58854 177.77083,481.406251 178.460938,481.289062 C178.35677,481.83594 178.304688,482.275389 178.304688,482.607422 C178.304688,482.939455 178.366536,483.268228 178.490234,483.59375 C178.613933,483.919272 178.747395,484.186197 178.890625,484.394531 C179.033855,484.602866 179.183593,484.866535 179.339844,485.185547 C179.496095,485.504559 179.613281,485.820311 179.691406,486.132812 C179.535155,486.184896 179.284507,486.269531 178.939453,486.386719 C178.594399,486.503907 178.373047,486.582031 178.275391,486.621094 C178.177734,486.660156 177.998699,486.728515 177.738281,486.826172 C177.477863,486.923829 177.308594,486.995442 177.230469,487.041016 C177.152343,487.086589 177.018881,487.158203 176.830078,487.255859 C176.641275,487.353516 176.511068,487.438151 176.439453,487.509766 C176.367838,487.581381 176.260417,487.675781 176.117188,487.792969 C175.973958,487.910157 175.863282,488.030598 175.785156,488.154297 C175.707031,488.277995 175.612631,488.421223 175.501953,488.583984 C175.391275,488.746746 175.283855,488.91927 175.179688,489.101562 C174.906249,489.843754 174.56771,490.475258 174.164062,490.996094 C173.760415,491.51693 173.363283,491.884765 172.972656,492.099609 C172.582029,492.314454 172.210939,492.473958 171.859375,492.578125 C171.507811,492.682292 171.221355,492.734375 171,492.734375 L170.6875,492.734375 L164.730469,482.539062 Z" transform="translate(-153 -472)"/>
  </g>
</svg>
