<svg xmlns="http://www.w3.org/2000/svg" width="36" height="36" viewBox="0 0 36 36">
  <g fill="none" fill-rule="evenodd">
    <path fill="#FFFFFF" d="M247.269531,496.25 L247.269531,497.441406 L242.269531,497.441406 C242.126301,497.441406 241.992839,497.399089 241.869141,497.314453 C241.745442,497.229817 241.654297,497.151693 241.595703,497.080078 C241.537109,497.008463 241.449219,496.881511 241.332031,496.699219 C241.136718,496.42578 241.029297,496.064455 241.009766,495.615234 C240.990234,495.166013 241.052083,494.720054 241.195312,494.277344 C241.260417,494.069009 241.309245,493.896485 241.341797,493.759766 C241.374349,493.623046 241.48828,493.274742 241.683594,492.714844 C241.878907,492.154945 242.074218,491.666669 242.269531,491.25 C242.464845,490.833331 242.722004,490.374351 243.041016,489.873047 C243.360028,489.371742 243.6888,488.977866 244.027344,488.691406 C243.714842,488.365884 243.447918,487.893883 243.226562,487.275391 C243.005207,486.656898 242.894531,486.106773 242.894531,485.625 C242.894531,484.622391 243.262366,483.746749 243.998047,482.998047 C244.733728,482.249345 245.596349,481.875 246.585938,481.875 C247.575526,481.875 248.454423,482.249345 249.222656,482.998047 C249.990889,483.746749 250.375,484.622391 250.375,485.625 C250.375,486.106773 250.199221,486.640622 249.847656,487.226562 C249.496092,487.812503 249.111981,488.300779 248.695312,488.691406 C248.695312,488.704427 248.867837,488.815103 249.212891,489.023438 C249.557944,489.231772 249.736979,489.348958 249.75,489.375 C249.658854,489.492188 249.541667,489.710285 249.398438,490.029297 C249.255208,490.348309 249.164063,490.546875 249.125,490.625 C249.125,490.625 249.004558,490.488283 248.763672,490.214844 C248.522785,489.941405 248.317709,489.716798 248.148438,489.541016 C247.979166,489.365233 247.848959,489.244792 247.757812,489.179688 L246.996094,488.671875 L247.757812,488.125 C248.135419,487.903645 248.457681,487.545575 248.724609,487.050781 C248.991538,486.555987 249.125,486.080731 249.125,485.625 C249.125,484.947913 248.871096,484.361982 248.363281,483.867188 C247.855466,483.372393 247.263024,483.125 246.585938,483.125 C245.908851,483.125 245.313154,483.372393 244.798828,483.867188 C244.284503,484.361982 244.027344,484.947913 244.027344,485.625 C244.027344,486.05469 244.14453,486.523435 244.378906,487.03125 C244.613282,487.539065 244.893228,487.903645 245.21875,488.125 L246.019531,488.652344 L245.21875,489.140625 C244.828123,489.388022 244.447267,489.785154 244.076172,490.332031 C243.705076,490.878909 243.389324,491.494137 243.128906,492.177734 C242.868488,492.861332 242.682943,493.372394 242.572266,493.710938 C242.461588,494.049481 242.367188,494.374998 242.289062,494.6875 C242.276042,494.713542 242.269531,494.726562 242.269531,494.726562 C242.178385,495.039064 242.136068,495.312499 242.142578,495.546875 C242.149089,495.781251 242.191406,495.95052 242.269531,496.054688 C242.282552,496.080729 242.373697,496.119791 242.542969,496.171875 C242.71224,496.223959 242.829427,496.25 242.894531,496.25 L247.269531,496.25 Z M257.230469,489.648438 C257.894535,490.338545 258.477211,491.08398 258.978516,491.884766 C259.47982,492.685551 259.854165,493.388669 260.101562,493.994141 C260.34896,494.599612 260.547525,495.19531 260.697266,495.78125 C260.847006,496.36719 260.934896,496.780598 260.960938,497.021484 C260.986979,497.262371 261,497.421875 261,497.5 C261,497.773439 260.973959,498.020832 260.921875,498.242188 C260.869791,498.463543 260.811198,498.658853 260.746094,498.828125 C260.680989,498.997397 260.576824,499.14388 260.433594,499.267578 C260.290364,499.391277 260.163412,499.495442 260.052734,499.580078 C259.942057,499.664714 259.782553,499.733073 259.574219,499.785156 C259.365884,499.83724 259.19336,499.879557 259.056641,499.912109 C258.919921,499.944662 258.721355,499.967448 258.460938,499.980469 C258.20052,499.99349 258.001954,500 257.865234,500 L257.230469,500 L252.25,500 C251.755206,500 251.37435,499.99349 251.107422,499.980469 C250.840493,499.967448 250.514976,499.915365 250.130859,499.824219 C249.746743,499.733072 249.453777,499.606121 249.251953,499.443359 C249.050129,499.280598 248.87435,499.033205 248.724609,498.701172 C248.574869,498.369139 248.5,497.968752 248.5,497.5 C248.5,497.369791 248.50651,497.197267 248.519531,496.982422 C248.532552,496.767577 248.607421,496.347659 248.744141,495.722656 C248.88086,495.097653 249.06966,494.482425 249.310547,493.876953 C249.551433,493.271481 249.925779,492.565108 250.433594,491.757812 C250.941409,490.950517 251.546871,490.208337 252.25,489.53125 C252.601564,489.205728 252.943358,488.964845 253.275391,488.808594 C253.607424,488.652343 253.864582,488.561198 254.046875,488.535156 C254.229168,488.509114 254.46354,488.496094 254.75,488.496094 C255.674484,488.496094 256.501298,488.880204 257.230469,489.648438 L257.230469,489.648438 Z M252.103516,481.123047 C252.839196,480.374345 253.721349,480 254.75,480 C255.778651,480 256.660804,480.374345 257.396484,481.123047 C258.132165,481.871749 258.5,482.760412 258.5,483.789062 C258.5,484.817713 258.13542,485.693356 257.40625,486.416016 C256.67708,487.138675 255.791672,487.5 254.75,487.5 C253.708328,487.5 252.82292,487.138675 252.09375,486.416016 C251.36458,485.693356 251,484.817713 251,483.789062 C251,482.760412 251.367835,481.871749 252.103516,481.123047 L252.103516,481.123047 Z" transform="translate(-233 -472)"/>
  </g>
</svg>
