<svg xmlns="http://www.w3.org/2000/svg" width="36" height="36" viewBox="0 0 36 36">
  <g fill="none" fill-rule="evenodd">
    <path fill="#FFFFFF" d="M291.65155,484.376556 C291.469258,484.558849 291.247906,484.649994 290.987488,484.649994 C290.72707,484.649994 290.505718,484.558849 290.323425,484.376556 C290.141133,484.194264 290.049988,483.972912 290.049988,483.712494 C290.049988,483.452076 290.141133,483.230724 290.323425,483.048431 C290.505718,482.866139 290.72707,482.774994 290.987488,482.774994 C291.247906,482.774994 291.469258,482.866139 291.65155,483.048431 C291.833843,483.230724 291.924988,483.452076 291.924988,483.712494 C291.924988,483.972912 291.833843,484.194264 291.65155,484.376556 L291.65155,484.376556 Z M291.65155,490.626556 C291.469258,490.808849 291.247906,490.899994 290.987488,490.899994 C290.72707,490.899994 290.505718,490.808849 290.323425,490.626556 C290.141133,490.444264 290.049988,490.222912 290.049988,489.962494 C290.049988,489.702076 290.141133,489.480724 290.323425,489.298431 C290.505718,489.116139 290.72707,489.024994 290.987488,489.024994 C291.247906,489.024994 291.469258,489.116139 291.65155,489.298431 C291.833843,489.480724 291.924988,489.702076 291.924988,489.962494 C291.924988,490.222912 291.833843,490.444264 291.65155,490.626556 L291.65155,490.626556 Z M291.65155,496.876556 C291.469258,497.058849 291.247906,497.149994 290.987488,497.149994 C290.72707,497.149994 290.505718,497.058849 290.323425,496.876556 C290.141133,496.694264 290.049988,496.472912 290.049988,496.212494 C290.049988,495.952076 290.141133,495.730724 290.323425,495.548431 C290.505718,495.366139 290.72707,495.274994 290.987488,495.274994 C291.247906,495.274994 291.469258,495.366139 291.65155,495.548431 C291.833843,495.730724 291.924988,495.952076 291.924988,496.212494 C291.924988,496.472912 291.833843,496.694264 291.65155,496.876556 L291.65155,496.876556 Z" transform="translate(-273 -472)"/>
  </g>
</svg>
