<svg xmlns="http://www.w3.org/2000/svg" width="36" height="36" viewBox="0 0 36 36">
  <g fill="none" fill-rule="evenodd">
    <path fill="#FFFFFF" d="M14.1542969,539.492188 C13.1321563,539.830731 12.0807346,540 11,540 C9.91926543,540 8.86784365,539.830731 7.84570312,539.492188 C6.8235626,539.153644 5.90234785,538.675133 5.08203125,538.056641 C4.26171465,537.438148 3.54557598,536.715499 2.93359375,535.888672 C2.32161152,535.061845 1.84635586,534.14063 1.5078125,533.125 C1.16926914,532.10937 1,531.061203 1,529.980469 C1,528.639316 1.26692441,527.350267 1.80078125,526.113281 C2.33463809,524.876296 3.04752158,523.811853 3.93945312,522.919922 C4.83138467,522.02799 5.89257197,521.318362 7.12304688,520.791016 C8.35352178,520.263669 9.64582656,520 11,520 C12.3541734,520 13.6497334,520.266924 14.8867188,520.800781 C16.1237041,521.334638 17.1881466,522.047522 18.0800781,522.939453 C18.9720097,523.831385 19.681638,524.892572 20.2089844,526.123047 C20.7363308,527.353522 21,528.639316 21,529.980469 C21,531.061203 20.8307309,532.112625 20.4921875,533.134766 C20.1536441,534.156906 19.6783885,535.078121 19.0664062,535.898438 C18.454424,536.718754 17.7382854,537.438148 16.9179688,538.056641 C16.0976521,538.675133 15.1764374,539.153644 14.1542969,539.492188 L14.1542969,539.492188 Z M14.1347656,522.587891 C13.1386669,522.164711 12.0937555,521.953125 11,521.953125 C9.90624453,521.953125 8.86133311,522.164711 7.86523438,522.587891 C6.86913564,523.01107 6.00976924,523.580726 5.28710938,524.296875 C4.56444951,525.013024 3.99153857,525.869136 3.56835938,526.865234 C3.14518018,527.861333 2.93359375,528.899734 2.93359375,529.980469 C2.93359375,531.074224 3.14518018,532.119136 3.56835938,533.115234 C3.99153857,534.111333 4.56444951,534.9707 5.28710938,535.693359 C6.00976924,536.416019 6.86913564,536.98893 7.86523438,537.412109 C8.86133311,537.835289 9.90624453,538.046875 11,538.046875 C12.0937555,538.046875 13.1386669,537.835289 14.1347656,537.412109 C15.1308644,536.98893 15.9902308,536.416019 16.7128906,535.693359 C17.4355505,534.9707 18.0084614,534.111333 18.4316406,533.115234 C18.8548198,532.119136 19.0664062,531.074224 19.0664062,529.980469 C19.0664062,528.886713 18.8548198,527.845057 18.4316406,526.855469 C18.0084614,525.86588 17.4355505,525.013024 16.7128906,524.296875 C15.9902308,523.580726 15.1308644,523.01107 14.1347656,522.587891 L14.1347656,522.587891 Z M9.0078125,527.148438 L8.96875,527.148438 C8.91666641,527.356772 8.80273525,527.532551 8.62695312,527.675781 C8.451171,527.819011 8.25260527,527.890625 8.03125,527.890625 C7.77083203,527.890625 7.5462249,527.796225 7.35742188,527.607422 C7.16861885,527.418619 7.07421875,527.187501 7.07421875,526.914062 C7.07421875,526.822916 7.0807291,526.757813 7.09375,526.71875 C7.19791719,525.898433 7.56900723,525.214846 8.20703125,524.667969 C8.91015977,524.042966 9.83462969,523.730469 10.9804688,523.730469 C12.2044332,523.730469 13.1614549,524.049476 13.8515625,524.6875 C14.5677119,525.286461 14.9257812,526.00911 14.9257812,526.855469 C14.9257812,527.3112 14.7955742,527.747394 14.5351562,528.164062 C14.2877592,528.554689 13.7278689,529.12109 12.8554688,529.863281 C12.3867164,530.240887 12.1132816,530.533853 12.0351562,530.742188 C11.9700518,530.872396 11.9309896,531.061197 11.9179688,531.308594 C11.891927,531.54297 11.8789062,531.770832 11.8789062,531.992188 C11.8789062,532.161459 11.836589,532.288411 11.7519531,532.373047 C11.6673173,532.457683 11.5761724,532.50651 11.4785156,532.519531 C11.3808589,532.532552 11.2213553,532.539062 11,532.539062 L10.84375,532.539062 L10.6679688,532.539062 C10.641927,532.539062 10.5898441,532.535807 10.5117188,532.529297 C10.4335934,532.522786 10.3782554,532.513021 10.3457031,532.5 C10.3131509,532.486979 10.2708336,532.464193 10.21875,532.431641 C10.1666664,532.399088 10.1308595,532.363281 10.1113281,532.324219 C10.0917968,532.285156 10.0690105,532.233073 10.0429688,532.167969 C10.016927,532.102864 10.0039062,532.03125 10.0039062,531.953125 L9.984375,531.835938 L9.984375,531.386719 C9.984375,530.82682 10.0820303,530.338544 10.2773438,529.921875 C10.498699,529.531248 10.9088512,529.082034 11.5078125,528.574219 C12.1197947,528.079425 12.4843744,527.753907 12.6015625,527.597656 C12.7838551,527.376301 12.875,527.109377 12.875,526.796875 C12.875,526.380206 12.7122412,526.028647 12.3867188,525.742188 C12.0611963,525.455728 11.6250027,525.3125 11.078125,525.3125 C10.5572891,525.3125 10.1080748,525.462238 9.73046875,525.761719 C9.39192539,526.07422 9.15104238,526.536455 9.0078125,527.148438 L9.0078125,527.148438 Z M9.99414062,533.867188 C10.2740899,533.593749 10.609373,533.457031 11,533.457031 C11.390627,533.457031 11.7259101,533.593749 12.0058594,533.867188 C12.2858087,534.140626 12.4257812,534.472654 12.4257812,534.863281 C12.4257812,535.253908 12.2858087,535.589191 12.0058594,535.869141 C11.7259101,536.14909 11.390627,536.289062 11,536.289062 C10.609373,536.289062 10.2740899,536.145835 9.99414062,535.859375 C9.71419131,535.572915 9.57421875,535.240887 9.57421875,534.863281 C9.57421875,534.472654 9.71419131,534.140626 9.99414062,533.867188 L9.99414062,533.867188 Z" transform="translate(7 -512)"/>
  </g>
</svg>
