<svg xmlns="http://www.w3.org/2000/svg" width="36" height="36" viewBox="0 0 36 36">
  <g fill="none" fill-rule="evenodd">
    <path fill="#FFFFFF" d="M56.5078125,531.269531 C56.5078125,531.412761 56.4296883,531.601561 56.2734375,531.835938 C56.1171867,532.109376 55.8893244,532.382811 55.5898438,532.65625 C55.2903631,532.929689 54.9257834,533.203124 54.4960938,533.476562 C54.0664041,533.750001 53.5488312,533.974608 52.9433594,534.150391 C52.3378876,534.326173 51.7096387,534.414062 51.0585938,534.414062 L51,534.414062 C50.3489551,534.414062 49.7207062,534.326173 49.1152344,534.150391 C48.5097626,533.974608 47.9921896,533.750001 47.5625,533.476562 C47.1328104,533.203124 46.7682307,532.929689 46.46875,532.65625 C46.1692693,532.382811 45.941407,532.109376 45.7851562,531.835938 C45.6289055,531.601561 45.5507812,531.432292 45.5507812,531.328125 C45.5507812,531.197916 45.5865882,531.08724 45.6582031,530.996094 C45.7298181,530.904947 45.8242182,530.859375 45.9414062,530.859375 C46.0455734,530.859375 46.1367184,530.891927 46.2148438,530.957031 C46.8138051,531.490888 47.5234334,531.927082 48.34375,532.265625 C49.1640666,532.604168 50.0559848,532.779948 51.0195312,532.792969 L51.0390625,532.792969 C52.0156299,532.779948 52.9238239,532.604168 53.7636719,532.265625 C54.6035198,531.927082 55.2968723,531.490888 55.84375,530.957031 C55.9218754,530.891927 56.00651,530.859375 56.0976562,530.859375 C56.2148443,530.859375 56.3124996,530.901692 56.390625,530.986328 C56.4687504,531.070964 56.5078125,531.165364 56.5078125,531.269531 L56.5078125,531.269531 Z M59.28125,538.710938 C59.4635426,538.828126 59.5546875,538.997395 59.5546875,539.21875 C59.5546875,539.414063 59.489584,539.586588 59.359375,539.736328 C59.229166,539.886068 59.0273451,539.960938 58.7539062,539.960938 C57.894527,539.960938 56.9928433,539.804689 56.0488281,539.492188 C55.104813,539.179686 54.2747432,538.782554 53.5585938,538.300781 C53.4283848,538.222656 53.2916674,538.196614 53.1484375,538.222656 C52.445309,538.365886 51.742191,538.4375 51.0390625,538.4375 C49.6718682,538.4375 48.3697979,538.193362 47.1328125,537.705078 C45.8958271,537.216794 44.8281295,536.562504 43.9296875,535.742188 C43.0312455,534.921871 42.318362,533.942063 41.7910156,532.802734 C41.2636692,531.663406 41,530.468756 41,529.21875 C41,527.968744 41.2636692,526.774094 41.7910156,525.634766 C42.318362,524.495437 43.0312455,523.515629 43.9296875,522.695312 C44.8281295,521.874996 45.8958271,521.220706 47.1328125,520.732422 C48.3697979,520.244138 49.668613,520 51.0292969,520 C52.3899808,520 53.6887959,520.244138 54.9257812,520.732422 C56.1627666,521.220706 57.2304643,521.874996 58.1289062,522.695312 C59.0273482,523.515629 59.7402317,524.495437 60.2675781,525.634766 C60.7949245,526.774094 61.0585938,527.968744 61.0585938,529.21875 C61.0585938,530.559903 60.7623728,531.822911 60.1699219,533.007812 C59.577471,534.192714 58.7604219,535.214839 57.71875,536.074219 C57.5755201,536.204428 57.5299477,536.360676 57.5820312,536.542969 C57.868491,537.480473 58.4348916,538.203122 59.28125,538.710938 L59.28125,538.710938 Z M56.5859375,537.8125 C56.3515613,537.473957 56.1464853,537.076825 55.9707031,536.621094 C55.794921,536.165362 55.7070312,535.826824 55.7070312,535.605469 C55.7070312,535.410155 55.8046865,535.253907 56,535.136719 C57.0416719,534.459632 57.8652313,533.603521 58.4707031,532.568359 C59.0761749,531.533198 59.3789062,530.423183 59.3789062,529.238281 C59.3789062,527.91015 59.004561,526.682948 58.2558594,525.556641 C57.5071577,524.430333 56.494798,523.538415 55.21875,522.880859 C53.942702,522.223304 52.5462315,521.894531 51.0292969,521.894531 C49.5123622,521.894531 48.1126366,522.223304 46.8300781,522.880859 C45.5475196,523.538415 44.53516,524.430333 43.7929688,525.556641 C43.0507775,526.682948 42.6796875,527.91015 42.6796875,529.238281 C42.6796875,530.566413 43.0507775,531.793614 43.7929688,532.919922 C44.53516,534.04623 45.5475196,534.938148 46.8300781,535.595703 C48.1126366,536.253258 49.509107,536.582031 51.0195312,536.582031 C51.7487016,536.582031 52.4583299,536.497397 53.1484375,536.328125 C53.3697928,536.276041 53.5390619,536.302083 53.65625,536.40625 C54.0598979,536.783856 54.5742156,537.148436 55.1992188,537.5 C55.8242219,537.851564 56.2604154,538.027344 56.5078125,538.027344 C56.5989588,538.027344 56.6445312,537.994792 56.6445312,537.929688 C56.6445312,537.890625 56.6250002,537.851563 56.5859375,537.8125 L56.5859375,537.8125 Z" transform="translate(-33 -512)"/>
  </g>
</svg>
