<svg xmlns="http://www.w3.org/2000/svg" width="36" height="36" viewBox="0 0 36 36">
  <g fill="none" fill-rule="evenodd">
    <path fill="#FFFFFF" d="M87.9499969,532.5 L86.6999969,532.460938 L86.6999969,531.367188 L91.0749969,527.617188 L95.4499969,531.367188 L95.4499969,532.460938 L94.1999969,532.5 L94.1999969,535 L91.6999969,535 L91.6999969,532.5 L90.4499969,532.5 L90.4499969,535 L87.9499969,535 L87.9499969,532.5 Z M94.1999969,522.5 L94.1999969,525 L96.6999969,525 L94.1999969,522.5 Z M97.9499969,526.25 L92.9499969,526.25 L92.9499969,521.25 L86.6999969,521.25 C86.0098893,521.25 85.4207025,521.494138 84.9324188,521.982422 C84.4441351,522.470706 84.1999969,523.059892 84.1999969,523.75 L84.1999969,536.25 C84.1999969,536.940108 84.4441351,537.529294 84.9324188,538.017578 C85.4207025,538.505862 86.0098893,538.75 86.6999969,538.75 L95.4499969,538.75 C96.1401046,538.75 96.7292914,538.505862 97.2175751,538.017578 C97.7058588,537.529294 97.9499969,536.940108 97.9499969,536.25 L97.9499969,526.25 Z M86.6999969,520 L93.5749969,520 L99.1999969,525.625 L99.1999969,536.25 C99.1999969,537.291672 98.8354173,538.17708 98.1062469,538.90625 C97.3770766,539.63542 96.4916688,540 95.4499969,540 L86.6999969,540 C85.6583251,540 84.7729173,539.63542 84.0437469,538.90625 C83.3145766,538.17708 82.9499969,537.291672 82.9499969,536.25 L82.9499969,523.75 C82.9499969,522.708328 83.3145766,521.82292 84.0437469,521.09375 C84.7729173,520.36458 85.6583251,520 86.6999969,520 L86.6999969,520 Z" transform="translate(-73 -512)"/>
  </g>
</svg>
