<svg xmlns="http://www.w3.org/2000/svg" width="36" height="36" viewBox="0 0 36 36">
  <g fill="none" fill-rule="evenodd">
    <path fill="#FFFFFF" d="M213.34375,528.511719 C212.406245,528.511719 211.9375,528.033208 211.9375,527.076172 C211.9375,526.119136 212.406245,525.640625 213.34375,525.640625 C214.281255,525.640625 214.75,526.119136 214.75,527.076172 C214.75,528.033208 214.281255,528.511719 213.34375,528.511719 L213.34375,528.511719 Z M203.5,533.746094 L203.5,525.503906 C203.5,524.735673 203.744138,524.084638 204.232422,523.550781 C204.720706,523.016924 205.316403,522.75 206.019531,522.75 L215.980469,522.75 C216.683597,522.75 217.279294,523.016924 217.767578,523.550781 C218.255862,524.084638 218.5,524.735673 218.5,525.503906 L218.5,533.746094 C218.5,534.514327 218.255862,535.165362 217.767578,535.699219 C217.279294,536.233076 216.683597,536.5 215.980469,536.5 L206.019531,536.5 C205.316403,536.5 204.720706,536.233076 204.232422,535.699219 C203.744138,535.165362 203.5,534.514327 203.5,533.746094 L203.5,533.746094 Z M217.25,525.25 C217.25,524.911457 217.126303,524.618491 216.878906,524.371094 C216.631509,524.123697 216.332033,524 215.980469,524 L206.019531,524 C205.667967,524 205.368491,524.120442 205.121094,524.361328 C204.873697,524.602215 204.75,524.898436 204.75,525.25 L204.75,530.230469 C205.32292,529.38411 206.227858,528.524744 207.464844,527.652344 C207.894533,528.108075 208.376299,528.733069 208.910156,529.527344 C209.444013,530.321619 209.867186,531.005205 210.179688,531.578125 L210.648438,532.4375 C212.510426,531.148431 213.786455,530.19792 214.476562,529.585938 C214.645834,529.755209 215.078773,530.165361 215.775391,530.816406 C216.472009,531.467451 216.96354,531.968748 217.25,532.320312 L217.25,525.25 Z" transform="translate(-193 -512)"/>
  </g>
</svg>
