<svg xmlns="http://www.w3.org/2000/svg" width="36" height="36" viewBox="0 0 36 36">
  <g fill="none" fill-rule="evenodd">
    <path fill="#FFFFFF" d="M172.191406,529.386719 C171.566403,529.386719 171.253906,529.074222 171.253906,528.449219 C171.253906,527.824216 171.566403,527.511719 172.191406,527.511719 C172.816409,527.511719 173.128906,527.824216 173.128906,528.449219 C173.128906,529.074222 172.816409,529.386719 172.191406,529.386719 L172.191406,529.386719 Z M174.75,531.730469 L174.75,528 C174.75,527.661457 174.629558,527.368491 174.388672,527.121094 C174.147785,526.873697 173.851564,526.75 173.5,526.75 L168.5,526.75 C168.148436,526.75 167.852215,526.870442 167.611328,527.111328 C167.370442,527.352215 167.25,527.648436 167.25,528 L167.25,530.1875 C167.601564,529.783852 168.07031,529.36719 168.65625,528.9375 C169.164065,529.51042 169.867183,530.62369 170.765625,532.277344 C171.976569,531.404944 172.829425,530.740888 173.324219,530.285156 C173.454428,530.428386 173.6888,530.662759 174.027344,530.988281 C174.365887,531.313804 174.60677,531.561197 174.75,531.730469 L174.75,531.730469 Z M166,528 C166,527.309892 166.244138,526.720706 166.732422,526.232422 C167.220706,525.744138 167.809892,525.5 168.5,525.5 L173.5,525.5 C174.190108,525.5 174.779294,525.744138 175.267578,526.232422 C175.755862,526.720706 176,527.309892 176,528 L176,531.75 C176,532.440108 175.755862,533.029294 175.267578,533.517578 C174.779294,534.005862 174.190108,534.25 173.5,534.25 L168.5,534.25 C167.809892,534.25 167.220706,534.005862 166.732422,533.517578 C166.244138,533.029294 166,532.440108 166,531.75 L166,528 Z" transform="translate(-153 -512)"/>
  </g>
</svg>
