<svg xmlns="http://www.w3.org/2000/svg" width="36" height="36" viewBox="0 0 36 36">
  <g fill="none" fill-rule="evenodd">
    <path fill="#FFFFFF" d="M139.75,525.25 C139.75,524.559892 139.505862,523.970706 139.017578,523.482422 C138.529294,522.994138 137.933597,522.75 137.230469,522.75 L124.769531,522.75 C124.066403,522.75 123.470706,522.994138 122.982422,523.482422 C122.494138,523.970706 122.25,524.559892 122.25,525.25 L122.25,531.871094 C122.614585,531.571613 122.962889,531.23633 123.294922,530.865234 C123.626955,530.494139 124.040362,530.012373 124.535156,529.419922 C125.02995,528.827471 125.518227,528.270836 126,527.75 C126.559899,528.348961 127.276037,529.276686 128.148438,530.533203 C129.020838,531.78972 129.749997,532.893224 130.335938,533.84375 L131.234375,535.289062 C135.66148,534.937498 138.460932,534.761719 139.632812,534.761719 C139.710938,534.514322 139.75,534.260418 139.75,534 L139.75,525.25 Z M124.769531,537.75 C123.714838,537.75 122.82292,537.38542 122.09375,536.65625 C121.36458,535.92708 121,535.041672 121,534 L121,525.25 C121,524.208328 121.367835,523.32292 122.103516,522.59375 C122.839196,521.86458 123.727859,521.5 124.769531,521.5 L137.230469,521.5 C138.285162,521.5 139.17708,521.86458 139.90625,522.59375 C140.63542,523.32292 141,524.208328 141,525.25 L141,534 C141,535.041672 140.632165,535.92708 139.896484,536.65625 C139.160804,537.38542 138.272141,537.75 137.230469,537.75 L124.769531,537.75 Z M134.125,529 C132.874994,529 132.25,528.375006 132.25,527.125 C132.25,525.874994 132.874994,525.25 134.125,525.25 C135.375006,525.25 136,525.874994 136,527.125 C136,528.375006 135.375006,529 134.125,529 L134.125,529 Z M135.648438,530.367188 C134.658849,531.239588 132.940116,532.489575 130.492188,534.117188 C130.791668,534.58594 131.039062,534.976561 131.234375,535.289062 L132.933594,535.152344 C134.079433,535.074218 135.352207,534.989584 136.751953,534.898438 C138.1517,534.807291 139.111977,534.761719 139.632812,534.761719 L139.710938,534.449219 C139.359373,533.928383 138.620448,533.150396 137.494141,532.115234 C136.367833,531.080073 135.752605,530.497396 135.648438,530.367188 L135.648438,530.367188 Z" transform="translate(-113 -512)"/>
  </g>
</svg>
