<svg xmlns="http://www.w3.org/2000/svg" width="36" height="36" viewBox="0 0 36 36">
  <g fill="none" fill-rule="evenodd">
    <path fill="#FFFFFF" d="M254.876953,539.208984 C253.646478,539.736331 252.354173,540 251,540 C249.645827,540 248.350267,539.733076 247.113281,539.199219 C245.876296,538.665362 244.811853,537.952478 243.919922,537.060547 C243.02799,536.168615 242.318362,535.107428 241.791016,533.876953 C241.263669,532.646478 241,531.354173 241,530 C241,528.645827 241.266924,527.350267 241.800781,526.113281 C242.334638,524.876296 243.047522,523.811853 243.939453,522.919922 C244.831385,522.02799 245.892572,521.318362 247.123047,520.791016 C248.353522,520.263669 249.645827,520 251,520 C252.354173,520 253.649733,520.266924 254.886719,520.800781 C256.123704,521.334638 257.188147,522.047522 258.080078,522.939453 C258.97201,523.831385 259.681638,524.892572 260.208984,526.123047 C260.736331,527.353522 261,528.645827 261,530 C261,531.354173 260.733076,532.649733 260.199219,533.886719 C259.665362,535.123704 258.952478,536.188147 258.060547,537.080078 C257.168615,537.97201 256.107428,538.681638 254.876953,539.208984 L254.876953,539.208984 Z M254.134766,522.568359 C253.138667,522.14518 252.093755,521.933594 251,521.933594 C249.906245,521.933594 248.861333,522.14518 247.865234,522.568359 C246.869136,522.991539 246.009769,523.56445 245.287109,524.287109 C244.56445,525.009769 243.991539,525.869136 243.568359,526.865234 C243.14518,527.861333 242.933594,528.906245 242.933594,530 C242.933594,531.093755 243.14518,532.138667 243.568359,533.134766 C243.991539,534.130864 244.56445,534.990231 245.287109,535.712891 C246.009769,536.43555 246.869136,537.008461 247.865234,537.431641 C248.861333,537.85482 249.906245,538.066406 251,538.066406 C252.093755,538.066406 253.138667,537.85482 254.134766,537.431641 C255.130864,537.008461 255.990231,536.43555 256.712891,535.712891 C257.43555,534.990231 258.008461,534.130864 258.431641,533.134766 C258.85482,532.138667 259.066406,531.093755 259.066406,530 C259.066406,528.906245 258.85482,527.861333 258.431641,526.865234 C258.008461,525.869136 257.43555,525.009769 256.712891,524.287109 C255.990231,523.56445 255.130864,522.991539 254.134766,522.568359 L254.134766,522.568359 Z M249.75,527.5 L249.75,525 L252.25,525 L252.25,527.5 L249.75,527.5 Z M249.75,535 L249.75,528.75 L252.25,528.75 L252.25,535 L249.75,535 Z" transform="translate(-233 -512)"/>
  </g>
</svg>
