<svg xmlns="http://www.w3.org/2000/svg" width="36" height="36" viewBox="0 0 36 36">
  <g fill="none" fill-rule="evenodd">
    <path fill="#FFFFFF" d="M290.994537,520.027344 C291.359123,520.027344 291.668364,520.154296 291.922272,520.408203 C292.176179,520.662111 292.303131,520.971352 292.303131,521.335938 C292.303131,521.700523 292.176179,522.01302 291.922272,522.273438 C291.668364,522.533855 291.359123,522.664062 290.994537,522.664062 C290.616931,522.664062 290.301179,522.533855 290.047272,522.273438 C289.793364,522.01302 289.666412,521.700523 289.666412,521.335938 C289.666412,520.971352 289.796619,520.662111 290.057037,520.408203 C290.317455,520.154296 290.629952,520.027344 290.994537,520.027344 L290.994537,520.027344 Z M285.047272,521.677734 C285.301179,521.423827 285.610421,521.296875 285.975006,521.296875 C286.339591,521.296875 286.648833,521.423827 286.90274,521.677734 C287.156648,521.931642 287.2836,522.240884 287.2836,522.605469 C287.2836,522.970054 287.156648,523.279296 286.90274,523.533203 C286.648833,523.787111 286.339591,523.914062 285.975006,523.914062 C285.610421,523.914062 285.301179,523.787111 285.047272,523.533203 C284.793364,523.279296 284.666412,522.970054 284.666412,522.605469 C284.666412,522.240884 284.793364,521.931642 285.047272,521.677734 L285.047272,521.677734 Z M295.047272,521.697266 C295.301179,521.443358 295.610421,521.316406 295.975006,521.316406 C296.339591,521.316406 296.648833,521.443358 296.90274,521.697266 C297.156648,521.951173 297.2836,522.260415 297.2836,522.625 C297.2836,522.989585 297.156648,523.298827 296.90274,523.552734 C296.648833,523.806642 296.339591,523.933594 295.975006,523.933594 C295.610421,523.933594 295.301179,523.806642 295.047272,523.552734 C294.793364,523.298827 294.666412,522.989585 294.666412,522.625 C294.666412,522.260415 294.793364,521.951173 295.047272,521.697266 L295.047272,521.697266 Z M295.467194,539.5 L292.967194,539.5 C292.863026,539.5 292.771881,539.434896 292.693756,539.304688 C292.615631,539.174479 292.570058,539.044271 292.557037,538.914062 C292.530996,538.523436 292.449616,538.145835 292.312897,537.78125 C292.176177,537.416665 292.023184,537.094402 291.853912,536.814453 C291.684641,536.534504 291.440502,536.215497 291.12149,535.857422 C290.802478,535.499347 290.525789,535.199871 290.291412,534.958984 C290.057036,534.718098 289.725008,534.389325 289.295319,533.972656 C288.865629,533.555988 288.52058,533.217449 288.260162,532.957031 C287.700264,532.384112 287.296622,531.967449 287.049225,531.707031 C286.801828,531.446613 286.4698,531.072268 286.053131,530.583984 C285.636462,530.095701 285.284903,529.649742 284.998444,529.246094 C284.021876,527.839837 283.468496,526.472663 283.338287,525.144531 C283.325266,524.98828 283.377349,524.871094 283.494537,524.792969 C283.572663,524.727864 283.657297,524.695312 283.748444,524.695312 C283.787506,524.695312 283.833079,524.708333 283.885162,524.734375 C284.783604,525.072918 285.655991,525.339843 286.50235,525.535156 C286.684642,525.574219 286.808339,525.678385 286.873444,525.847656 C286.990632,526.160158 287.156646,526.495441 287.37149,526.853516 C287.586335,527.21159 287.781646,527.514322 287.957428,527.761719 C288.13321,528.009116 288.413155,528.344399 288.797272,528.767578 C289.181388,529.190757 289.458078,529.493489 289.62735,529.675781 C289.796622,529.858074 290.122139,530.190102 290.603912,530.671875 C290.682038,530.776042 290.779693,530.828125 290.896881,530.828125 C291.02709,530.828125 291.131256,530.776042 291.209381,530.671875 C291.652092,530.216144 291.974354,529.884116 292.176178,529.675781 C292.378002,529.467447 292.661202,529.16146 293.025787,528.757812 C293.390373,528.354165 293.667062,528.018882 293.855865,527.751953 C294.044669,527.485025 294.246489,527.179038 294.461334,526.833984 C294.676179,526.488931 294.835683,526.153647 294.93985,525.828125 C295.017975,525.658853 295.141672,525.554688 295.310944,525.515625 C296.27449,525.281249 297.140367,525.020835 297.9086,524.734375 C297.986725,524.708333 298.038808,524.695312 298.06485,524.695312 C298.142975,524.695312 298.22761,524.727864 298.318756,524.792969 C298.435944,524.884115 298.488027,525.007812 298.475006,525.164062 C298.344797,526.505215 297.791417,527.865879 296.81485,529.246094 C296.541411,529.649742 296.193107,530.098956 295.769928,530.59375 C295.346749,531.088544 295.014721,531.462889 294.773834,531.716797 C294.532948,531.970704 294.126051,532.384112 293.553131,532.957031 C293.501048,533.022136 293.416413,533.113281 293.299225,533.230469 C293.260162,533.269531 293.237376,533.328125 293.230865,533.40625 C293.224355,533.484375 293.240631,533.5625 293.279694,533.640625 C293.383861,533.770834 293.644275,534.122393 294.060944,534.695312 C294.373445,535.138023 294.585032,535.45052 294.695709,535.632812 C294.806387,535.815105 294.95938,536.065754 295.154694,536.384766 C295.350007,536.703778 295.483469,536.964192 295.555084,537.166016 C295.626699,537.36784 295.695058,537.608723 295.760162,537.888672 C295.825267,538.168621 295.864329,538.464842 295.87735,538.777344 C295.890371,538.907553 295.857819,539.03776 295.779694,539.167969 C295.623443,539.389324 295.519277,539.5 295.467194,539.5 L295.467194,539.5 Z M292.850006,525.75 C292.850006,526.062502 292.755606,526.414061 292.566803,526.804688 C292.378,527.195314 292.133862,527.533853 291.834381,527.820312 C291.5349,528.106772 291.254955,528.25 290.994537,528.25 C290.708078,528.25 290.415112,528.103517 290.115631,527.810547 C289.81615,527.517577 289.572012,527.179038 289.383209,526.794922 C289.194406,526.410805 289.100006,526.062502 289.100006,525.75 L292.850006,525.75 Z M288.826569,539.5 L286.326569,539.5 C286.248443,539.5 286.150788,539.389324 286.0336,539.167969 C285.955474,539.03776 285.916412,538.875001 285.916412,538.679688 C285.916412,538.510416 285.926178,538.354167 285.945709,538.210938 C285.965241,538.067708 285.997792,537.91797 286.043365,537.761719 C286.088939,537.605468 286.124746,537.478516 286.150787,537.380859 C286.176829,537.283203 286.228912,537.14974 286.307037,536.980469 C286.385163,536.811197 286.443756,536.690756 286.482819,536.619141 C286.521881,536.547526 286.600006,536.414063 286.717194,536.21875 C286.834382,536.023437 286.915761,535.893229 286.961334,535.828125 C287.006907,535.763021 287.111073,535.610027 287.273834,535.369141 C287.436595,535.128254 287.544016,534.96224 287.5961,534.871094 C287.674225,534.740885 287.784901,534.675781 287.928131,534.675781 C288.032298,534.675781 288.129954,534.721354 288.2211,534.8125 C288.833082,535.437503 289.386462,536.082028 289.881256,536.746094 C289.93334,536.811198 289.972402,536.902343 289.998444,537.019531 C290.024485,537.136719 290.004954,537.266926 289.93985,537.410156 C289.835683,537.592449 289.721752,537.774739 289.598053,537.957031 C289.474354,538.139324 289.386465,538.292317 289.334381,538.416016 C289.282298,538.539714 289.249746,538.705728 289.236725,538.914062 C289.223704,539.044271 289.174876,539.174479 289.09024,539.304688 C289.005605,539.434896 288.917715,539.5 288.826569,539.5 L288.826569,539.5 Z" transform="translate(-273 -512)"/>
  </g>
</svg>
