<svg xmlns="http://www.w3.org/2000/svg" width="36" height="36" viewBox="0 0 36 36">
  <g fill="none" fill-rule="evenodd">
    <path fill="#FFFFFF" d="M3.5,577.5 L18.5,577.5 L18.5,571.875 L21,571.875 L21,580 L3.6953125,580 C2.23697188,579.986979 1.33854336,579.986979 1,580 L1,560 L14.75,560 L14.75,562.5 L3.5,562.5 L3.5,577.5 Z M19.3203125,563.925781 L20.84375,565.429688 C20.9479172,565.559896 21,565.709635 21,565.878906 C21,566.048178 20.9479172,566.184895 20.84375,566.289062 L12.7382812,574.570312 C12.3997379,574.856772 12.0611996,575 11.7226562,575 L11,575 C10.8437492,575 10.6647146,574.954428 10.4628906,574.863281 C10.2610667,574.772135 10.1015631,574.67448 9.984375,574.570312 L6.17578125,570.644531 C6.05859316,570.540364 6,570.403647 6,570.234375 C6,570.065103 6.05859316,569.915365 6.17578125,569.785156 L7.6796875,568.28125 C7.78385469,568.151041 7.92057207,568.085938 8.08984375,568.085938 C8.25911543,568.085938 8.40885352,568.151041 8.5390625,568.28125 L10.9414062,570.722656 C11.0716152,570.852865 11.2213533,570.917969 11.390625,570.917969 C11.5598967,570.917969 11.6966141,570.852865 11.8007812,570.722656 L18.4804688,563.925781 C18.5976568,563.808593 18.7408846,563.75 18.9101562,563.75 C19.0794279,563.75 19.2161453,563.808593 19.3203125,563.925781 L19.3203125,563.925781 Z" transform="translate(7 -552)"/>
  </g>
</svg>
