<svg xmlns="http://www.w3.org/2000/svg" width="36" height="36" viewBox="0 0 36 36">
  <g fill="none" fill-rule="evenodd">
    <path fill="#FFFFFF" d="M302.044922,1139.83398 C302.044922,1140.32227 301.874025,1140.7373 301.532227,1141.0791 C301.190428,1141.4209 300.775393,1141.5918 300.287109,1141.5918 L284.671875,1141.5918 C284.183591,1141.5918 283.768556,1141.4209 283.426758,1141.0791 C283.084959,1140.7373 282.914062,1140.32227 282.914062,1139.83398 L282.914062,1124.21875 C282.914062,1123.73047 283.084959,1123.31543 283.426758,1122.97363 C283.768556,1122.63183 284.183591,1122.46094 284.671875,1122.46094 L300.287109,1122.46094 C300.775393,1122.46094 301.190428,1122.63183 301.532227,1122.97363 C301.874025,1123.31543 302.044922,1123.73047 302.044922,1124.21875 L302.044922,1139.83398 Z M300.130859,1138.27148 L300.130859,1125.78125 C300.130859,1125.39062 299.994142,1125.0586 299.720703,1124.78516 C299.447264,1124.51172 299.115236,1124.375 298.724609,1124.375 L286.224609,1124.375 C285.833982,1124.375 285.501954,1124.51172 285.228516,1124.78516 C284.955077,1125.0586 284.818359,1125.39062 284.818359,1125.78125 L284.818359,1138.27148 C284.818359,1138.66211 284.955077,1138.99414 285.228516,1139.26758 C285.501954,1139.54102 285.833982,1139.67773 286.224609,1139.67773 L298.724609,1139.67773 C299.115236,1139.67773 299.447264,1139.54102 299.720703,1139.26758 C299.994142,1138.99414 300.130859,1138.66211 300.130859,1138.27148 L300.130859,1138.27148 Z M296.625,1128.85742 C296.625,1129.57357 296.416669,1130.13672 296,1130.54688 C295.895833,1130.64453 295.469405,1130.88867 294.720703,1131.2793 C294.193357,1131.55925 293.900391,1131.91081 293.841797,1132.33398 C293.854818,1132.24284 293.861328,1132.77343 293.861328,1133.92578 L291.087891,1133.92578 L291.087891,1132.65625 C291.087891,1131.95963 291.328774,1131.37696 291.810547,1130.9082 C291.85612,1130.86263 292.295569,1130.54037 293.128906,1129.94141 C293.61719,1129.60286 293.861328,1129.24154 293.861328,1128.85742 C293.861328,1128.51888 293.724611,1128.22429 293.451172,1127.97363 C293.177733,1127.72298 292.852215,1127.59766 292.474609,1127.59766 L291.087891,1127.59766 C290.241532,1127.59766 289.782552,1128.01757 289.710938,1128.85742 L288.324219,1128.85742 C288.539064,1127.17122 289.460278,1126.32812 291.087891,1126.32812 L293.861328,1126.32812 C294.629561,1126.32812 295.282224,1126.57389 295.819336,1127.06543 C296.356448,1127.55697 296.625,1128.15429 296.625,1128.85742 L296.625,1128.85742 Z M291.087891,1137.71484 L291.087891,1135.18555 L293.861328,1135.18555 L293.861328,1137.71484 L291.087891,1137.71484 Z" transform="translate(-273 -1112)"/>
  </g>
</svg>
