<svg xmlns="http://www.w3.org/2000/svg" width="36" height="36" viewBox="0 0 36 36">
  <g fill="none" fill-rule="evenodd">
    <path fill="#FFFFFF" d="M142.044922,1179.83398 C142.044922,1180.32227 141.874025,1180.7373 141.532227,1181.0791 C141.190428,1181.4209 140.775393,1181.5918 140.287109,1181.5918 L124.671875,1181.5918 C124.183591,1181.5918 123.768556,1181.4209 123.426758,1181.0791 C123.084959,1180.7373 122.914062,1180.32227 122.914062,1179.83398 L122.914062,1164.21875 C122.914062,1163.73047 123.084959,1163.31543 123.426758,1162.97363 C123.768556,1162.63183 124.183591,1162.46094 124.671875,1162.46094 L140.287109,1162.46094 C140.775393,1162.46094 141.190428,1162.63183 141.532227,1162.97363 C141.874025,1163.31543 142.044922,1163.73047 142.044922,1164.21875 L142.044922,1179.83398 Z M140.130859,1178.27148 L140.130859,1165.78125 C140.130859,1165.39062 139.994142,1165.0586 139.720703,1164.78516 C139.447264,1164.51172 139.115236,1164.375 138.724609,1164.375 L126.224609,1164.375 C125.833982,1164.375 125.501954,1164.51172 125.228516,1164.78516 C124.955077,1165.0586 124.818359,1165.39062 124.818359,1165.78125 L124.818359,1178.27148 C124.818359,1178.66211 124.955077,1178.99414 125.228516,1179.26758 C125.501954,1179.54102 125.833982,1179.67773 126.224609,1179.67773 L138.724609,1179.67773 C139.115236,1179.67773 139.447264,1179.54102 139.720703,1179.26758 C139.994142,1178.99414 140.130859,1178.66211 140.130859,1178.27148 L140.130859,1178.27148 Z M136.625,1168.85742 C136.625,1169.57357 136.416669,1170.13672 136,1170.54688 C135.895833,1170.64453 135.469405,1170.88867 134.720703,1171.2793 C134.193357,1171.55925 133.900391,1171.91081 133.841797,1172.33398 C133.854818,1172.24284 133.861328,1172.77343 133.861328,1173.92578 L131.087891,1173.92578 L131.087891,1172.65625 C131.087891,1171.95963 131.328774,1171.37696 131.810547,1170.9082 C131.85612,1170.86263 132.295569,1170.54037 133.128906,1169.94141 C133.61719,1169.60286 133.861328,1169.24154 133.861328,1168.85742 C133.861328,1168.51888 133.724611,1168.22429 133.451172,1167.97363 C133.177733,1167.72298 132.852215,1167.59766 132.474609,1167.59766 L131.087891,1167.59766 C130.241532,1167.59766 129.782552,1168.01757 129.710938,1168.85742 L128.324219,1168.85742 C128.539064,1167.17122 129.460278,1166.32812 131.087891,1166.32812 L133.861328,1166.32812 C134.629561,1166.32812 135.282224,1166.57389 135.819336,1167.06543 C136.356448,1167.55697 136.625,1168.15429 136.625,1168.85742 L136.625,1168.85742 Z M131.087891,1177.71484 L131.087891,1175.18555 L133.861328,1175.18555 L133.861328,1177.71484 L131.087891,1177.71484 Z" transform="translate(-113 -1152)"/>
  </g>
</svg>
