<svg xmlns="http://www.w3.org/2000/svg" width="36" height="36" viewBox="0 0 36 36">
  <g fill="none" fill-rule="evenodd">
    <path fill="#FFFFFF" d="M21.444922,1180.45398 C21.444922,1180.94227 21.2740252,1181.3573 20.9322267,1181.6991 C20.5904281,1182.0409 20.1753932,1182.2118 19.6871095,1182.2118 L4.0718751,1182.2118 C3.5835914,1182.2118 3.16855649,1182.0409 2.82675791,1181.6991 C2.48495932,1181.3573 2.3140626,1180.94227 2.3140626,1180.45398 L2.3140626,1164.83875 C2.3140626,1164.35047 2.48495932,1163.93543 2.82675791,1163.59363 C3.16855649,1163.25183 3.5835914,1163.08094 4.0718751,1163.08094 L19.6871095,1163.08094 C20.1753932,1163.08094 20.5904281,1163.25183 20.9322267,1163.59363 C21.2740252,1163.93543 21.444922,1164.35047 21.444922,1164.83875 L21.444922,1180.45398 Z M19.5308595,1178.89148 L19.5308595,1166.40125 C19.5308595,1166.01062 19.3941421,1165.6786 19.1207032,1165.40516 C18.8472644,1165.13172 18.5152364,1164.995 18.1246095,1164.995 L5.62460947,1164.995 C5.23398252,1164.995 4.90195459,1165.13172 4.62851572,1165.40516 C4.35507685,1165.6786 4.21835947,1166.01062 4.21835947,1166.40125 L4.21835947,1178.89148 C4.21835947,1179.28211 4.35507685,1179.61414 4.62851572,1179.88758 C4.90195459,1180.16102 5.23398252,1180.29773 5.62460947,1180.29773 L18.1246095,1180.29773 C18.5152364,1180.29773 18.8472644,1180.16102 19.1207032,1179.88758 C19.3941421,1179.61414 19.5308595,1179.28211 19.5308595,1178.89148 L19.5308595,1178.89148 Z M16.0250001,1169.47742 C16.0250001,1170.19357 15.8166688,1170.75672 15.4000001,1171.16687 C15.2958329,1171.26453 14.8694049,1171.50867 14.1207032,1171.8993 C13.5933568,1172.17925 13.300391,1172.53081 13.241797,1172.95398 C13.2548179,1172.86284 13.2613282,1173.39343 13.2613282,1174.54578 L10.4878907,1174.54578 L10.4878907,1173.27625 C10.4878907,1172.57963 10.7287737,1171.99696 11.210547,1171.5282 C11.2561201,1171.48263 11.6955688,1171.16037 12.5289063,1170.56141 C13.01719,1170.22286 13.2613282,1169.86154 13.2613282,1169.47742 C13.2613282,1169.13888 13.1246108,1168.84428 12.851172,1168.59363 C12.5777331,1168.34298 12.2522155,1168.21766 11.8746095,1168.21766 L10.4878907,1168.21766 C9.64153232,1168.21766 9.18255254,1168.63757 9.1109376,1169.47742 L7.72421885,1169.47742 C7.93906367,1167.79122 8.86027842,1166.94812 10.4878907,1166.94812 L13.2613282,1166.94812 C14.0295612,1166.94812 14.682224,1167.19389 15.219336,1167.68543 C15.7564481,1168.17697 16.0250001,1168.77429 16.0250001,1169.47742 L16.0250001,1169.47742 Z M10.4878907,1178.33484 L10.4878907,1175.80555 L13.2613282,1175.80555 L13.2613282,1178.33484 L10.4878907,1178.33484 Z" transform="translate(7 -1152)"/>
  </g>
</svg>
