<svg xmlns="http://www.w3.org/2000/svg" width="36" height="36" viewBox="0 0 36 36">
  <g fill="none" fill-rule="evenodd">
    <path fill="#FFFFFF" d="M88.34375,575.941406 L85.375,575.941406 C84.7890596,575.941406 84.2519556,575.703778 83.7636719,575.228516 C83.2753882,574.753253 82.901043,574.138025 82.640625,573.382812 C82.380207,572.6276 82.25,571.833337 82.25,571 C82.25,570.153642 82.3769519,569.356124 82.6308594,568.607422 C82.8847669,567.85872 83.2558569,567.240237 83.7441406,566.751953 C84.2324243,566.263669 84.7760387,566.019531 85.375,566.019531 L88.4804688,566.019531 C88.8580748,565.798176 89.2031234,565.560548 89.515625,565.306641 C89.8281266,565.052733 90.114582,564.759767 90.375,564.427734 C90.635418,564.095701 90.8567699,563.79297 91.0390625,563.519531 C91.2213551,563.246092 91.4166656,562.871747 91.625,562.396484 C91.8333344,561.921222 91.9993483,561.527345 92.1230469,561.214844 C92.2467454,560.902342 92.4257801,560.433597 92.6601562,559.808594 C93.1158877,559.769531 93.6171848,559.867186 94.1640625,560.101562 C95.3099016,560.596357 95.8828125,561.312495 95.8828125,562.25 C95.8828125,562.614585 95.7884124,563.008461 95.5996094,563.431641 C95.4108063,563.85482 95.182944,564.281248 94.9160156,564.710938 C94.6490872,565.140627 94.4700525,565.459634 94.3789062,565.667969 C94.5221361,565.576822 94.7076812,565.453126 94.9355469,565.296875 C95.1634126,565.140624 95.3359369,565.023438 95.453125,564.945312 C95.5703131,564.867187 95.7135408,564.772787 95.8828125,564.662109 C96.0520842,564.551432 96.1888016,564.466797 96.2929688,564.408203 C96.3971359,564.349609 96.5110671,564.294271 96.6347656,564.242188 C96.7584642,564.190104 96.8691401,564.154297 96.9667969,564.134766 C97.0644536,564.115234 97.1588537,564.111979 97.25,564.125 C97.9010449,564.085937 98.4804662,564.369138 98.9882812,564.974609 C99.4960963,565.580081 99.75,566.338537 99.75,567.25 C99.75,568.343755 99.6718758,569.323563 99.515625,570.189453 C99.3593742,571.055343 99.1380223,571.908199 98.8515625,572.748047 C98.5651027,573.587895 98.4153646,574.027344 98.4023438,574.066406 C97.8684869,574.925786 97.3671898,575.554034 96.8984375,575.951172 C96.4296852,576.348309 95.8828156,576.494792 95.2578125,576.390625 C93.9947854,576.260416 92.7871151,576.159506 91.6347656,576.087891 C90.4824161,576.016276 89.6458359,575.973958 89.125,575.960938 L88.34375,575.941406 Z M86,571 C86,569.684889 86.2083313,568.441412 86.625,567.269531 L85.375,567.269531 C85.0364566,567.269531 84.7239598,567.468097 84.4375,567.865234 C84.1510402,568.262372 83.9264331,568.740883 83.7636719,569.300781 C83.6009106,569.86068 83.5130209,570.42708 83.5,571 C83.4739582,571.664066 83.5585928,572.285804 83.7539062,572.865234 C83.9492197,573.444664 84.2226545,573.916665 84.5742188,574.28125 C84.8606785,574.580731 85.1276029,574.730469 85.375,574.730469 L86.625,574.730469 C86.2083313,573.480463 86,572.236985 86,571 L86,571 Z M98.5,566.625 C98.5,566.234373 98.3046895,565.895835 97.9140625,565.609375 C97.5234355,565.322915 97.0937523,565.329426 96.625,565.628906 C96.3776029,565.785157 95.9316438,565.993488 95.2871094,566.253906 C94.6425749,566.514324 94.2877607,566.657552 94.2226562,566.683594 L93.34375,566.019531 L94.359375,564.046875 C94.5286467,563.68229 94.6360675,563.382814 94.6816406,563.148438 C94.7272138,562.914061 94.75,562.614585 94.75,562.25 C94.75,562.067707 94.6360688,561.872397 94.4082031,561.664062 C94.1803374,561.455728 93.9589854,561.296225 93.7441406,561.185547 C93.5292958,561.074869 93.4023439,561.019531 93.3632812,561.019531 C92.6861945,562.88152 91.9668007,564.2845 91.2050781,565.228516 C90.4433556,566.172531 89.3007889,567.087235 87.7773438,567.972656 C87.4257795,568.923182 87.25,569.932286 87.25,571 C87.25,571.520836 87.305338,572.171871 87.4160156,572.953125 C87.5266933,573.734379 87.6471348,574.333331 87.7773438,574.75 C88.128908,574.880209 88.5520809,574.974609 89.046875,575.033203 C89.5416691,575.091797 90.0332007,575.124349 90.5214844,575.130859 C91.0097681,575.13737 91.8105413,575.150391 92.9238281,575.169922 C94.0371149,575.189453 95.1015574,575.21875 96.1171875,575.257812 C96.690107,574.5026 97.1328109,573.792972 97.4453125,573.128906 C97.7578141,572.46484 98.0117178,571.595708 98.2070312,570.521484 C98.4023447,569.44726 98.5,568.148445 98.5,566.625 L98.5,566.625 Z" transform="translate(-73 -552)"/>
  </g>
</svg>
