<svg xmlns="http://www.w3.org/2000/svg" width="36" height="36" viewBox="0 0 36 36">
  <g fill="none" fill-rule="evenodd">
    <path fill="#FFFFFF" d="M128.402344,574 L125.746094,573.941406 C125.290362,573.902344 124.883465,573.687502 124.525391,573.296875 C124.167316,572.906248 123.906902,572.48633 123.744141,572.037109 C123.581379,571.587888 123.5,571.194012 123.5,570.855469 L123.5,569.917969 C123.526042,569.605467 123.58789,569.27995 123.685547,568.941406 C123.783204,568.602863 123.923176,568.254559 124.105469,567.896484 C124.287761,567.53841 124.535155,567.229168 124.847656,566.96875 C125.160158,566.708332 125.518227,566.552084 125.921875,566.5 L128.441406,566.5 C128.454427,566.486979 128.467448,566.467448 128.480469,566.441406 C128.845054,566.233072 129.177082,565.992189 129.476562,565.71875 C129.776043,565.445311 130.023437,565.184897 130.21875,564.9375 C130.414063,564.690103 130.615884,564.351565 130.824219,563.921875 C131.032553,563.492185 131.195312,563.137371 131.3125,562.857422 C131.429688,562.577473 131.598957,562.144534 131.820312,561.558594 C131.937501,561.545573 132.139321,561.578125 132.425781,561.65625 C132.712241,561.734375 132.914062,561.773438 133.03125,561.773438 C133.265626,561.799479 133.71484,562.248694 134.378906,563.121094 L134.398438,563.121094 C134.359375,563.563804 134.216147,564.009763 133.96875,564.458984 C133.721353,564.908205 133.509767,565.26953 133.333984,565.542969 C133.158202,565.816408 133.115885,566.018229 133.207031,566.148438 C133.48047,566.096354 133.695312,566.021485 133.851562,565.923828 C134.007813,565.826171 134.108724,565.735026 134.154297,565.650391 C134.19987,565.565755 134.261718,565.490886 134.339844,565.425781 C134.417969,565.360677 134.528645,565.328125 134.671875,565.328125 C134.789063,565.328125 134.990884,565.295573 135.277344,565.230469 C135.563804,565.165364 135.778645,565.139323 135.921875,565.152344 C136.364586,565.204427 136.7194,565.451821 136.986328,565.894531 C137.253257,566.337242 137.373698,566.805987 137.347656,567.300781 C137.334635,567.756513 137.305339,568.208982 137.259766,568.658203 C137.214192,569.107424 137.16862,569.478514 137.123047,569.771484 C137.077474,570.064455 137.015625,570.393227 136.9375,570.757812 C136.859375,571.122398 136.800781,571.379557 136.761719,571.529297 C136.722656,571.679037 136.660808,571.910155 136.576172,572.222656 C136.491536,572.535158 136.442708,572.710937 136.429688,572.75 C136.390625,572.802084 136.345052,572.880208 136.292969,572.984375 C135.967446,573.49219 135.713543,573.811197 135.53125,573.941406 C135.348957,574.071615 134.977867,574.15625 134.417969,574.195312 C133.376297,574.065104 132.438806,573.964193 131.605469,573.892578 C130.772131,573.820963 130.046227,573.76237 129.427734,573.716797 C128.809242,573.671224 128.382814,573.641927 128.148438,573.628906 C128.226563,573.746094 128.311197,573.869791 128.402344,574 L128.402344,574 Z M126.371094,570.308594 C126.345052,570.191406 126.341797,570.044923 126.361328,569.869141 C126.380859,569.693358 126.38737,569.569662 126.380859,569.498047 C126.374349,569.426432 126.38737,569.319011 126.419922,569.175781 C126.452474,569.032551 126.472005,568.938151 126.478516,568.892578 C126.485026,568.847005 126.511067,568.76237 126.556641,568.638672 C126.602214,568.514973 126.63151,568.433594 126.644531,568.394531 C126.657552,568.355469 126.690104,568.267579 126.742188,568.130859 C126.794271,567.99414 126.833333,567.89974 126.859375,567.847656 L126.058594,567.632812 C125.589841,567.776042 125.169924,568.150388 124.798828,568.755859 C124.427733,569.361331 124.242188,569.878904 124.242188,570.308594 C124.242188,570.569012 124.313801,570.897784 124.457031,571.294922 C124.600261,571.692059 124.818358,572.06966 125.111328,572.427734 C125.404298,572.785809 125.72005,572.977864 126.058594,573.003906 L127.074219,572.828125 C127.035156,572.697916 126.950521,572.483074 126.820312,572.183594 C126.690104,571.884113 126.585938,571.594402 126.507812,571.314453 C126.429687,571.034504 126.384115,570.699221 126.371094,570.308594 L126.371094,570.308594 Z M136.605469,566.578125 C136.605469,566.343749 136.44271,566.194011 136.117188,566.128906 C135.791665,566.063802 135.32943,566.03125 134.730469,566.03125 C134.509113,566.03125 134.186851,566.13216 133.763672,566.333984 C133.340493,566.535808 133.109375,566.643229 133.070312,566.65625 L132.367188,566.421875 L133.285156,564.878906 C133.441407,564.696614 133.532552,564.5306 133.558594,564.380859 C133.584636,564.231119 133.587891,564.071615 133.568359,563.902344 C133.548828,563.733072 133.558594,563.472658 133.597656,563.121094 C132.751298,562.509112 132.321615,562.203125 132.308594,562.203125 C131.97005,562.945316 131.68685,563.534503 131.458984,563.970703 C131.231119,564.406903 130.941408,564.878904 130.589844,565.386719 C130.238279,565.894534 129.844403,566.337238 129.408203,566.714844 C128.972003,567.09245 128.46094,567.450519 127.875,567.789062 C127.848958,567.841146 127.79362,567.977863 127.708984,568.199219 C127.624349,568.420574 127.565755,568.583333 127.533203,568.6875 C127.500651,568.791667 127.455078,568.93815 127.396484,569.126953 C127.33789,569.315756 127.298828,569.501301 127.279297,569.683594 C127.259766,569.865886 127.25,570.054687 127.25,570.25 C127.25,570.497397 127.282552,570.761066 127.347656,571.041016 C127.412761,571.320965 127.513671,571.669269 127.650391,572.085938 C127.78711,572.502606 127.861979,572.723958 127.875,572.75 C128.434899,572.906251 129.19661,573.026692 130.160156,573.111328 C131.123703,573.195964 132.673166,573.277343 134.808594,573.355469 C135.459639,572.496089 135.921874,571.594406 136.195312,570.650391 C136.468751,569.706375 136.605469,568.348967 136.605469,566.578125 L136.605469,566.578125 Z" transform="translate(-113 -552)"/>
  </g>
</svg>
