<svg xmlns="http://www.w3.org/2000/svg" width="36" height="36" viewBox="0 0 36 36">
  <g fill="none" fill-rule="evenodd">
    <path fill="#FFFFFF" d="M215.875,571.125 C214.651036,572.348964 213.427089,573 212.203125,573.078125 C210.979161,573.15625 209.911463,572.713546 209,571.75 L208.375,571.125 L209.625,569.875 L210.25,570.5 C211.500006,571.750006 212.749994,571.750006 214,570.5 C214.117188,570.369791 214.735671,569.754563 215.855469,568.654297 C216.975266,567.554031 217.61328,566.919272 217.769531,566.75 C218.993496,565.499994 218.993496,564.250006 217.769531,563 C217.404946,562.609373 216.952477,562.381511 216.412109,562.316406 C215.871742,562.251302 215.393231,562.290364 214.976562,562.433594 C214.559894,562.576824 214.234376,562.765624 214,563 L211.5,565.5 L208.375,566.125 L212.125,562.375 C213.348964,561.151036 214.572911,560.5 215.796875,560.421875 C217.020839,560.34375 218.088537,560.786454 219,561.75 C219.963546,562.661463 220.40625,563.729161 220.328125,564.953125 C220.25,566.177089 219.598964,567.401036 218.375,568.625 L215.875,571.125 Z M203.375,571.125 C203.466146,571.033854 203.71354,570.78646 204.117188,570.382812 C204.520835,569.979165 204.885415,569.614585 205.210938,569.289062 C205.53646,568.96354 205.757812,568.742188 205.875,568.625 C207.098964,567.401036 208.322911,566.75 209.546875,566.671875 C210.770839,566.59375 211.838537,567.036454 212.75,568 L213.375,568.625 L212.183594,569.875 L211.5,569.25 C210.249994,567.999994 209.000006,567.999994 207.75,569.25 C207.632812,569.380209 207.014329,569.995437 205.894531,571.095703 C204.774734,572.195969 204.13672,572.830728 203.980469,573 C202.756504,574.250006 202.756504,575.499994 203.980469,576.75 C204.345054,577.140627 204.797523,577.368489 205.337891,577.433594 C205.878258,577.498698 206.356769,577.459636 206.773438,577.316406 C207.190106,577.173176 207.515624,576.984376 207.75,576.75 L210.25,574.25 L213.375,573.625 L209.625,577.375 C208.401036,578.598964 207.177089,579.25 205.953125,579.328125 C204.729161,579.40625 203.661463,578.963546 202.75,578 C201.786454,577.088537 201.34375,576.020839 201.421875,574.796875 C201.5,573.572911 202.151036,572.348964 203.375,571.125 L203.375,571.125 Z" transform="translate(-193 -552)"/>
  </g>
</svg>
