<svg xmlns="http://www.w3.org/2000/svg" width="36" height="36" viewBox="0 0 36 36">
  <g fill="none" fill-rule="evenodd">
    <path fill="#FFFFFF" d="M295.394531,577.578125 C294.053379,578.359379 292.58855,578.75 291,578.75 C289.41145,578.75 287.946621,578.359379 286.605469,577.578125 C285.264316,576.796871 284.203129,575.735684 283.421875,574.394531 C282.640621,573.053379 282.25,571.58855 282.25,570 C282.25,568.41145 282.640621,566.946621 283.421875,565.605469 C284.203129,564.264316 285.264316,563.203129 286.605469,562.421875 C287.946621,561.640621 289.41145,561.25 291,561.25 C292.58855,561.25 294.053379,561.640621 295.394531,562.421875 C296.735684,563.203129 297.796871,564.264316 298.578125,565.605469 C299.359379,566.946621 299.75,568.41145 299.75,570 C299.75,571.58855 299.359379,573.053379 298.578125,574.394531 C297.796871,575.735684 296.735684,576.796871 295.394531,577.578125 L295.394531,577.578125 Z M287.25,568.75 L287.25,571.25 L294.75,571.25 L294.75,568.75 L287.25,568.75 Z" transform="translate(-273 -552)"/>
  </g>
</svg>
