<svg xmlns="http://www.w3.org/2000/svg" width="36" height="36" viewBox="0 0 36 36">
  <g fill="none" fill-rule="evenodd">
    <path fill="#FFFFFF" d="M255.394531,577.578125 C254.053379,578.359379 252.58855,578.75 251,578.75 C249.41145,578.75 247.946621,578.359379 246.605469,577.578125 C245.264316,576.796871 244.203129,575.735684 243.421875,574.394531 C242.640621,573.053379 242.25,571.58855 242.25,570 C242.25,568.41145 242.640621,566.946621 243.421875,565.605469 C244.203129,564.264316 245.264316,563.203129 246.605469,562.421875 C247.946621,561.640621 249.41145,561.25 251,561.25 C252.58855,561.25 254.053379,561.640621 255.394531,562.421875 C256.735684,563.203129 257.796871,564.264316 258.578125,565.605469 C259.359379,566.946621 259.75,568.41145 259.75,570 C259.75,571.58855 259.359379,573.053379 258.578125,574.394531 C257.796871,575.735684 256.735684,576.796871 255.394531,577.578125 L255.394531,577.578125 Z M246,571.25 L249.75,571.25 L249.75,575 L252.25,575 L252.25,571.25 L256,571.25 L256,568.75 L252.25,568.75 L252.25,565 L249.75,565 L249.75,568.75 L246,568.75 L246,571.25 Z" transform="translate(-233 -552)"/>
  </g>
</svg>
