<svg xmlns="http://www.w3.org/2000/svg" width="36" height="36" viewBox="0 0 36 36">
  <g fill="none" fill-rule="evenodd">
    <path fill="#FFFFFF" d="M11,602.125 C10.3880178,602.125 9.8867207,602.333331 9.49609375,602.75 C9.1054668,603.166669 8.91015625,603.694007 8.91015625,604.332031 L8.91015625,607.75 L13.0898438,607.75 L13.0898438,604.292969 C13.0898438,603.654945 12.8945332,603.134117 12.5039062,602.730469 C12.1132793,602.326821 11.6119822,602.125 11,602.125 L11,602.125 Z M15.1601562,604.46875 L15.1601562,607.75 C15.7330758,607.75 16.2246073,607.955076 16.6347656,608.365234 C17.0449239,608.775393 17.25,609.279945 17.25,609.878906 L17.25,615.25 C17.25,615.588543 17.1295585,615.881509 16.8886719,616.128906 C16.6477853,616.376303 16.3515643,616.5 16,616.5 L6,616.5 C5.66145664,616.5 5.36849082,616.379558 5.12109375,616.138672 C4.87369668,615.897785 4.75,615.601564 4.75,615.25 L4.75,609.878906 C4.75,609.279945 4.95507607,608.775393 5.36523438,608.365234 C5.77539268,607.955076 6.26692422,607.75 6.83984375,607.75 L6.83984375,604.429688 C6.83984375,603.153639 7.22069932,602.138025 7.98242188,601.382812 C8.74414443,600.6276 9.7565041,600.25 11.0195312,600.25 C12.2565166,600.25 13.2558556,600.634111 14.0175781,601.402344 C14.7793007,602.170577 15.1601562,603.192702 15.1601562,604.46875 L15.1601562,604.46875 Z" transform="translate(7 -592)"/>
  </g>
</svg>
