<svg xmlns="http://www.w3.org/2000/svg" width="36" height="36" viewBox="0 0 36 36">
  <g fill="none" fill-rule="evenodd">
    <path fill="#FFFFFF" d="M52.2824211,603.517578 C51.9373673,603.172524 51.4848979,603 50.9249992,603 C50.3651006,603 49.9126312,603.172524 49.5675774,603.517578 C49.2225236,603.862632 49.0499992,604.315101 49.0499992,604.875 L49.0499992,608 L52.7999992,608 L52.7999992,604.875 C52.7999992,604.315101 52.6274749,603.862632 52.2824211,603.517578 L52.2824211,603.517578 Z M54.6749992,604.875 L54.6749992,608 C55.1958352,608 55.6385391,608.172524 56.0031242,608.517578 C56.3677094,608.862632 56.5499992,609.28906 56.5499992,609.796875 L56.5499992,615.5 L45.2999992,615.5 L45.2999992,609.796875 C45.2999992,609.28906 45.4822891,608.862632 45.8468742,608.517578 C46.2114594,608.172524 46.6541633,608 47.1749992,608 L47.1749992,604.875 C47.1749992,603.755203 47.5102823,602.850264 48.1808586,602.160156 C48.8514349,601.470049 49.7466082,601.125 50.8664055,601.125 C51.9862028,601.125 52.9009071,601.470049 53.6105461,602.160156 C54.3201851,602.850264 54.6749992,603.755203 54.6749992,604.875 L54.6749992,604.875 Z" transform="translate(-33 -592)"/>
  </g>
</svg>
