<svg xmlns="http://www.w3.org/2000/svg" width="36" height="36" viewBox="0 0 36 36">
  <g fill="none" fill-rule="evenodd">
    <path fill="#FFFFFF" d="M174.730469,603.25 L164.769531,603.25 C164.066403,603.25 163.470706,603.494138 162.982422,603.982422 C162.494138,604.470706 162.25,605.059892 162.25,605.75 L162.25,612.371094 C162.614585,612.071613 162.962889,611.73633 163.294922,611.365234 C163.626955,610.994139 164.040362,610.512373 164.535156,609.919922 C165.02995,609.327471 165.518227,608.770836 166,608.25 C166.559899,608.848961 167.276037,609.776686 168.148438,611.033203 C169.020838,612.28972 169.749997,613.393224 170.335938,614.34375 L171.234375,615.789062 C173.994805,615.437498 175.960932,615.261719 177.132812,615.261719 C177.210938,615.014322 177.25,614.760418 177.25,614.5 L177.25,605.75 C177.25,605.059892 177.005862,604.470706 176.517578,603.982422 C176.029294,603.494138 175.433597,603.25 174.730469,603.25 L174.730469,603.25 Z M174.730469,618.25 L164.769531,618.25 C163.714838,618.25 162.82292,617.88542 162.09375,617.15625 C161.36458,616.42708 161,615.541672 161,614.5 L161,605.75 C161,604.708328 161.367835,603.82292 162.103516,603.09375 C162.839196,602.36458 163.727859,602 164.769531,602 L174.730469,602 C175.785162,602 176.67708,602.36458 177.40625,603.09375 C178.13542,603.82292 178.5,604.708328 178.5,605.75 L178.5,614.5 C178.5,615.541672 178.132165,616.42708 177.396484,617.15625 C176.660804,617.88542 175.772141,618.25 174.730469,618.25 L174.730469,618.25 Z M181,603.25 L181,612 C181,612.807296 180.768883,613.5332 180.306641,614.177734 C179.844399,614.822269 179.242191,615.274738 178.5,615.535156 L178.5,614.167969 C178.877606,613.946613 179.180337,613.643882 179.408203,613.259766 C179.636069,612.875649 179.75,612.455731 179.75,612 L179.75,603.25 C179.75,602.559892 179.505862,601.970706 179.017578,601.482422 C178.529294,600.994138 177.940108,600.75 177.25,600.75 L167.25,600.75 C166.794269,600.75 166.374351,600.863931 165.990234,601.091797 C165.606118,601.319663 165.303387,601.622394 165.082031,602 L163.714844,602 C163.975262,601.257809 164.427731,600.655601 165.072266,600.193359 C165.7168,599.731117 166.442704,599.5 167.25,599.5 L177.25,599.5 C178.278651,599.5 179.160804,599.86458 179.896484,600.59375 C180.632165,601.32292 181,602.208328 181,603.25 L181,603.25 Z M172.875,609.5 C171.624994,609.5 171,608.875006 171,607.625 C171,606.374994 171.624994,605.75 172.875,605.75 C174.125006,605.75 174.75,606.374994 174.75,607.625 C174.75,608.875006 174.125006,609.5 172.875,609.5 L172.875,609.5 Z M175.648438,610.867188 C175.97396,611.205731 176.198567,611.472655 176.322266,611.667969 C176.445964,611.863282 176.576171,612.0944 176.712891,612.361328 C176.84961,612.628257 177.028645,612.924478 177.25,613.25 L177.25,615.789062 L171.234375,615.789062 C171.039062,615.476561 170.791668,615.08594 170.492188,614.617188 C172.940116,612.989575 174.658849,611.739588 175.648438,610.867188 L175.648438,610.867188 Z" transform="translate(-153 -592)"/>
  </g>
</svg>
