<svg xmlns="http://www.w3.org/2000/svg" width="36" height="36" viewBox="0 0 36 36">
  <g fill="none" fill-rule="evenodd">
    <path fill="#FFFFFF" d="M124.25,606.25 L124.25,604.082031 C123.872394,604.303387 123.569663,604.606118 123.341797,604.990234 C123.113931,605.374351 123,605.794269 123,606.25 L124.25,606.25 Z M138,617.285156 L138,615.917969 C138.377606,615.696613 138.680337,615.393882 138.908203,615.009766 C139.136069,614.625649 139.25,614.205731 139.25,613.75 L128,613.75 L128,616.25 L136.75,616.25 C137.192711,616.25 137.609373,616.139324 138,615.917969 L138,617.285156 Z M124.25,613.75 L124.25,607.5 L121.75,607.5 L121.75,606.25 C121.75,605.442704 121.981117,604.7168 122.443359,604.072266 C122.905601,603.427731 123.507809,602.975262 124.25,602.714844 L124.25,602.5 L134.25,602.5 C135.291672,602.5 136.17708,602.86458 136.90625,603.59375 C137.63542,604.32292 138,605.208328 138,606.25 L138,612.5 L136.75,612.5 L136.75,606.25 C136.75,605.559892 136.505862,604.970706 136.017578,604.482422 C135.529294,603.994138 134.940108,603.75 134.25,603.75 L125.5,603.75 L125.5,613.75 C125.5,614.205731 125.613931,614.625649 125.841797,615.009766 C126.069663,615.393882 126.372394,615.696613 126.75,615.917969 L126.75,617.285156 C126.007809,617.024738 125.405601,616.572269 124.943359,615.927734 C124.481117,615.2832 124.25,614.557296 124.25,613.75 L124.25,613.75 Z M126.75,612.5 L140.5,612.5 L140.5,613.75 C140.5,614.791672 140.13542,615.67708 139.40625,616.40625 C138.67708,617.13542 137.791672,617.5 136.75,617.5 L126.75,617.5 L126.75,612.5 Z" transform="translate(-113 -592)"/>
  </g>
</svg>
