<svg xmlns="http://www.w3.org/2000/svg" width="36" height="36" viewBox="0 0 36 36">
  <g fill="none" fill-rule="evenodd">
    <path fill="#FFFFFF" d="M202.25,606.25 C202.25,605.624997 202.302083,605.260417 202.40625,605.15625 C202.510417,605.052083 202.874997,605 203.5,605 L208.5,605 C209.125003,605 209.489583,605.052083 209.59375,605.15625 C209.697917,605.260417 209.75,605.624997 209.75,606.25 L209.75,607.5 C209.75,608.125003 209.697917,608.489583 209.59375,608.59375 C209.489583,608.697917 209.125003,608.75 208.5,608.75 L203.5,608.75 C202.874997,608.75 202.510417,608.697917 202.40625,608.59375 C202.302083,608.489583 202.25,608.125003 202.25,607.5 L202.25,606.25 Z M212.25,606.25 C212.25,605.624997 212.302083,605.260417 212.40625,605.15625 C212.510417,605.052083 212.874997,605 213.5,605 L218.5,605 C219.125003,605 219.489583,605.052083 219.59375,605.15625 C219.697917,605.260417 219.75,605.624997 219.75,606.25 L219.75,607.5 C219.75,608.125003 219.697917,608.489583 219.59375,608.59375 C219.489583,608.697917 219.125003,608.75 218.5,608.75 L213.5,608.75 C212.874997,608.75 212.510417,608.697917 212.40625,608.59375 C212.302083,608.489583 212.25,608.125003 212.25,607.5 L212.25,606.25 Z M202.25,612.5 C202.25,611.874997 202.302083,611.510417 202.40625,611.40625 C202.510417,611.302083 202.874997,611.25 203.5,611.25 L208.5,611.25 C209.125003,611.25 209.489583,611.302083 209.59375,611.40625 C209.697917,611.510417 209.75,611.874997 209.75,612.5 L209.75,613.75 C209.75,614.375003 209.697917,614.739583 209.59375,614.84375 C209.489583,614.947917 209.125003,615 208.5,615 L203.5,615 C202.874997,615 202.510417,614.947917 202.40625,614.84375 C202.302083,614.739583 202.25,614.375003 202.25,613.75 L202.25,612.5 Z M212.25,612.5 C212.25,611.874997 212.302083,611.510417 212.40625,611.40625 C212.510417,611.302083 212.874997,611.25 213.5,611.25 L218.5,611.25 C219.125003,611.25 219.489583,611.302083 219.59375,611.40625 C219.697917,611.510417 219.75,611.874997 219.75,612.5 L219.75,613.75 C219.75,614.375003 219.697917,614.739583 219.59375,614.84375 C219.489583,614.947917 219.125003,615 218.5,615 L213.5,615 C212.874997,615 212.510417,614.947917 212.40625,614.84375 C212.302083,614.739583 212.25,614.375003 212.25,613.75 L212.25,612.5 Z" transform="translate(-193 -592)"/>
  </g>
</svg>
