<svg xmlns="http://www.w3.org/2000/svg" width="36" height="36" viewBox="0 0 36 36">
  <g fill="none" fill-rule="evenodd">
    <path fill="#FFFFFF" d="M85.4000015,613.75 L85.4000015,612.5 C85.4000015,612.317707 85.2177117,611.959638 84.8531265,611.425781 C84.4885414,610.891924 84.1695341,610.625 83.8960953,610.625 L83.8960953,609.375 C84.1695341,609.375 84.4885414,609.10482 84.8531265,608.564453 C85.2177117,608.024086 85.4000015,607.669272 85.4000015,607.5 L85.4000015,606.25 C85.4000015,605.3776 85.520443,604.742841 85.7613297,604.345703 C86.0022163,603.948566 86.2984373,603.75 86.6500015,603.75 L88.407814,603.75 L88.407814,605 C87.8218736,605.247397 87.5289078,605.449218 87.5289078,605.605469 L87.5289078,607.5 C87.5289078,607.864585 87.3498731,608.330075 86.9917984,608.896484 C86.6337237,609.462893 86.3114613,609.830728 86.0250015,610 C86.3114613,610.169272 86.6337237,610.537107 86.9917984,611.103516 C87.3498731,611.669925 87.5289078,612.135415 87.5289078,612.5 L87.5289078,614.375 C87.5289078,614.453125 87.6005216,614.54427 87.7437515,614.648438 C87.8869814,614.752605 88.0302091,614.837239 88.173439,614.902344 L88.407814,615 L88.407814,616.25 L86.6500015,616.25 C86.2984373,616.25 86.0022163,616.051434 85.7613297,615.654297 C85.520443,615.257159 85.4000015,614.6224 85.4000015,613.75 L85.4000015,613.75 Z M96.6500015,613.75 C96.6500015,614.6224 96.52956,615.257159 96.2886734,615.654297 C96.0477868,616.051434 95.7515658,616.25 95.4000015,616.25 L93.642189,616.25 L93.642189,615 C94.2281295,614.752603 94.5210953,614.544272 94.5210953,614.375 L94.5210953,612.5 C94.5210953,612.135415 94.7001299,611.669925 95.0582047,611.103516 C95.4162794,610.537107 95.7385418,610.169272 96.0250015,610 C95.7385418,609.830728 95.4162794,609.462893 95.0582047,608.896484 C94.7001299,608.330075 94.5210953,607.864585 94.5210953,607.5 L94.5210953,605.605469 C94.5210953,605.540364 94.4494814,605.45573 94.3062515,605.351562 C94.1630216,605.247395 94.0197939,605.162761 93.876564,605.097656 L93.642189,605 L93.642189,603.75 L95.4000015,603.75 C95.7515658,603.75 96.0477868,603.948566 96.2886734,604.345703 C96.52956,604.742841 96.6500015,605.3776 96.6500015,606.25 L96.6500015,607.5 C96.6500015,607.669272 96.8322914,608.024086 97.1968765,608.564453 C97.5614617,609.10482 97.8804689,609.375 98.1539078,609.375 L98.1539078,610.625 C97.8804689,610.625 97.5614617,610.891924 97.1968765,611.425781 C96.8322914,611.959638 96.6500015,612.317707 96.6500015,612.5 L96.6500015,613.75 Z" transform="translate(-73 -592)"/>
  </g>
</svg>
