<svg xmlns="http://www.w3.org/2000/svg" width="36" height="36" viewBox="0 0 36 36">
  <g fill="none" fill-rule="evenodd">
    <path fill="#FFFFFF" d="M245.267578,608.232422 C245.755862,608.720706 246,609.309892 246,610 C246,610.690108 245.755862,611.279294 245.267578,611.767578 C244.779294,612.255862 244.190108,612.5 243.5,612.5 C242.809892,612.5 242.220706,612.255862 241.732422,611.767578 C241.244138,611.279294 241,610.690108 241,610 C241,609.309892 241.244138,608.720706 241.732422,608.232422 C242.220706,607.744138 242.809892,607.5 243.5,607.5 C244.190108,607.5 244.779294,607.744138 245.267578,608.232422 L245.267578,608.232422 Z M252.767578,608.232422 C253.255862,608.720706 253.5,609.309892 253.5,610 C253.5,610.690108 253.255862,611.279294 252.767578,611.767578 C252.279294,612.255862 251.690108,612.5 251,612.5 C250.309892,612.5 249.720706,612.255862 249.232422,611.767578 C248.744138,611.279294 248.5,610.690108 248.5,610 C248.5,609.309892 248.744138,608.720706 249.232422,608.232422 C249.720706,607.744138 250.309892,607.5 251,607.5 C251.690108,607.5 252.279294,607.744138 252.767578,608.232422 L252.767578,608.232422 Z M260.267578,608.232422 C260.755862,608.720706 261,609.309892 261,610 C261,610.690108 260.755862,611.279294 260.267578,611.767578 C259.779294,612.255862 259.190108,612.5 258.5,612.5 C257.809892,612.5 257.220706,612.255862 256.732422,611.767578 C256.244138,611.279294 256,610.690108 256,610 C256,609.309892 256.244138,608.720706 256.732422,608.232422 C257.220706,607.744138 257.809892,607.5 258.5,607.5 C259.190108,607.5 259.779294,607.744138 260.267578,608.232422 L260.267578,608.232422 Z" transform="translate(-233 -592)"/>
  </g>
</svg>
