<svg xmlns="http://www.w3.org/2000/svg" width="36" height="36" viewBox="0 0 36 36">
  <g fill="none" fill-rule="evenodd">
    <path fill="#FFFFFF" d="M167.496094,1096.89453 L167.496094,1085 L165.503906,1085 L165.503906,1080 L170.503906,1080 L170.503906,1085 L168.492188,1085 L168.492188,1089.00391 L171.5,1089.00391 L171.5,1086.99219 L176.5,1086.99219 L176.5,1091.99219 L171.5,1091.99219 L171.5,1090 L168.492188,1090 L168.492188,1095.99609 L171.5,1095.99609 L171.5,1094.00391 L176.5,1094.00391 L176.5,1099.00391 L171.5,1099.00391 L171.5,1096.99219 L168.003906,1096.99219 L168.003906,1096.89453 L167.496094,1096.89453 Z M175.503906,1088.00781 L172.496094,1088.00781 L172.496094,1090.99609 L175.503906,1090.99609 L175.503906,1088.00781 Z M175.503906,1095 L172.496094,1095 L172.496094,1098.00781 L175.503906,1098.00781 L175.503906,1095 Z M166.5,1080.99609 L166.5,1084.00391 L169.507812,1084.00391 L169.507812,1080.99609 L166.5,1080.99609 Z" transform="translate(-153 -1072)"/>
  </g>
</svg>
