<svg xmlns="http://www.w3.org/2000/svg" width="36" height="36" viewBox="0 0 36 36">
  <g fill="#FFF" fill-rule="evenodd" transform="translate(8 8)">
    <path fill-rule="nonzero" d="M17.1176221,7.63651805 C17.2832272,7.80212314 17.4785563,7.93375796 17.6942675,8.02547771 C18.1443737,8.21401274 18.65138,8.21401274 19.1023355,8.02547771 C19.537155,7.8403397 19.8836518,7.49469214 20.0679406,7.05987261 C20.2564756,6.60976645 20.2564756,6.10276008 20.0679406,5.65180467 C19.8828025,5.21698514 19.537155,4.87048832 19.1023355,4.68619958 C18.6522293,4.49766454 18.1452229,4.49766454 17.6942675,4.68619958 C17.259448,4.87133758 16.9129512,5.21698514 16.7286624,5.65180467 C16.5401274,6.10191083 16.5401274,6.6089172 16.7286624,7.05987261 C16.8203822,7.27473461 16.9528662,7.47091295 17.1176221,7.63651805 Z M16.5876858,9.3163482 L16.5876858,14.7694268 L17.4963907,14.7694268 C17.8089172,14.7677282 18.1197452,14.7388535 18.426327,14.681104 C18.7346072,14.6267516 19.0318471,14.5231423 19.3070064,14.373673 C19.566879,14.2326964 19.7910828,14.0339703 19.963482,13.7944798 C20.1443737,13.5286624 20.2352442,13.2118896 20.2225053,12.8900212 L20.2225053,9.3163482 L16.5876858,9.3163482 Z M13.6424628,7.03014862 C13.8836518,7.03184713 14.1231423,6.98343949 14.3456476,6.88832272 C14.7804671,6.70318471 15.1261146,6.35753715 15.3104034,5.92271762 C15.4989384,5.47261146 15.4989384,4.9656051 15.3095541,4.51464968 C15.1244161,4.07983015 14.7787686,3.73333333 14.343949,3.54904459 C14.1214437,3.45392781 13.8819533,3.40552017 13.6399151,3.40721868 C13.3995754,3.40552017 13.1617834,3.45392781 12.9409766,3.54904459 C12.7762208,3.61953291 12.7244161,3.71125265 12.4976645,3.82165605 L12.4976645,6.61571125 C12.7252654,6.72696391 12.7762208,6.81783439 12.9409766,6.88832272 C13.1626327,6.98428875 13.4012739,7.03184713 13.6424628,7.03014862 Z M12.4976645,16.211465 C12.7252654,16.2607219 12.8067941,16.2989384 12.9681529,16.3210191 C13.1447983,16.3464968 13.3231423,16.3592357 13.5014862,16.3600849 C13.7766454,16.3583864 14.0518047,16.3295117 14.3210191,16.2717622 C14.5953291,16.2165605 14.8585987,16.1138004 15.0980892,15.9685775 C15.3333333,15.8242038 15.5312102,15.6271762 15.6772824,15.3936306 C15.8386412,15.1210191 15.9176221,14.8067941 15.9057325,14.4900212 L15.9057325,8.18004246 L12.4976645,8.18004246 L12.4976645,16.211465 Z"/>
    <path d="M0,17.9507431 L0,2.04501062 L11.8157113,0 L11.8157113,19.9957537 L0,17.9507431 Z M8.6343949,6.13503185 L3.18131635,6.4670913 L3.18131635,7.72484076 L5.22632696,7.64246285 L5.22632696,13.47431 L6.58938429,13.5541401 L6.58938429,7.58895966 L8.6343949,7.49808917 L8.6343949,6.13503185 Z"/>
  </g>
</svg>
