<svg xmlns="http://www.w3.org/2000/svg" width="36" height="36" viewBox="0 0 36 36">
  <g fill="none" fill-rule="evenodd">
    <path fill="#FFFFFF" d="M291.75,606.25 L298,606.25 L298,612.5 L291.75,612.5 L291.75,610 L288,610 L288,616.269531 L291.75,616.269531 L291.75,613.75 L298,613.75 L298,620 L291.75,620 L291.75,617.5 L286.75,617.5 L286.75,606.25 L284.25,606.25 L284.25,600 L290.5,600 L290.5,606.25 L288,606.25 L288,608.75 L291.75,608.75 L291.75,606.25 Z M296.75,607.5 L293,607.5 L293,611.25 L296.75,611.25 L296.75,607.5 Z M289.25,601.25 L285.5,601.25 L285.5,605 L289.25,605 L289.25,601.25 Z M296.75,615 L293,615 L293,618.75 L296.75,618.75 L296.75,615 Z" transform="translate(-273 -592)"/>
  </g>
</svg>
