<svg xmlns="http://www.w3.org/2000/svg" width="36" height="36" viewBox="0 0 36 36">
  <g fill="none" fill-rule="evenodd">
    <path fill="#FFFFFF" d="M94.25,642.5 L94.25,645 L96.75,645 L94.25,642.5 Z M98,646.25 L93,646.25 L93,641.25 L86.75,641.25 C86.0598924,641.25 85.4707056,641.494138 84.9824219,641.982422 C84.4941382,642.470706 84.25,643.059892 84.25,643.75 L84.25,656.25 C84.25,656.940108 84.4941382,657.529294 84.9824219,658.017578 C85.4707056,658.505862 86.0598924,658.75 86.75,658.75 L95.5,658.75 C96.1901076,658.75 96.7792944,658.505862 97.2675781,658.017578 C97.7558618,657.529294 98,656.940108 98,656.25 L98,646.25 Z M86.75,640 L93.625,640 L99.25,645.625 L99.25,656.25 C99.25,657.291672 98.8854203,658.17708 98.15625,658.90625 C97.4270797,659.63542 96.5416719,660 95.5,660 L86.75,660 C85.7083281,660 84.8229203,659.63542 84.09375,658.90625 C83.3645797,658.17708 83,657.291672 83,656.25 L83,643.75 C83,642.708328 83.3645797,641.82292 84.09375,641.09375 C84.8229203,640.36458 85.7083281,640 86.75,640 L86.75,640 Z M86.75,651.25 L86.75,650 L95.5,650 L95.5,651.25 L86.75,651.25 Z M86.75,653.75 L86.75,652.5 L95.5,652.5 L95.5,653.75 L86.75,653.75 Z M86.75,656.25 L86.75,655 L95.5,655 L95.5,656.25 L86.75,656.25 Z" transform="translate(-73 -632)"/>
  </g>
</svg>
