<svg xmlns="http://www.w3.org/2000/svg" width="36" height="36" viewBox="0 0 36 36">
  <g fill="none" fill-rule="evenodd">
    <path fill="#FFFFFF" d="M14.25,642.5 L14.25,645 L16.75,645 L14.25,642.5 Z M18,646.25 L13,646.25 L13,641.25 L6.75,641.25 C6.05989238,641.25 5.47070557,641.494138 4.98242188,641.982422 C4.49413818,642.470706 4.25,643.059892 4.25,643.75 L4.25,656.25 C4.25,656.940108 4.49413818,657.529294 4.98242188,658.017578 C5.47070557,658.505862 6.05989238,658.75 6.75,658.75 L15.5,658.75 C16.1901076,658.75 16.7792944,658.505862 17.2675781,658.017578 C17.7558618,657.529294 18,656.940108 18,656.25 L18,646.25 Z M6.75,640 L13.625,640 L19.25,645.625 L19.25,656.25 C19.25,657.291672 18.8854203,658.17708 18.15625,658.90625 C17.4270797,659.63542 16.5416719,660 15.5,660 L6.75,660 C5.70832812,660 4.82292031,659.63542 4.09375,658.90625 C3.36457969,658.17708 3,657.291672 3,656.25 L3,643.75 C3,642.708328 3.36457969,641.82292 4.09375,641.09375 C4.82292031,640.36458 5.70832812,640 6.75,640 L6.75,640 Z" transform="translate(7 -632)"/>
  </g>
</svg>
