<svg xmlns="http://www.w3.org/2000/svg" width="36" height="36" viewBox="0 0 36 36">
  <g fill="none" fill-rule="evenodd">
    <path fill="#FFFFFF" d="M170.75,644 L167,644 C166.283851,644 165.688153,644.240883 165.212891,644.722656 C164.737628,645.204429 164.5,645.796871 164.5,646.5 L164.5,655.367188 C164.5,656.044274 164.737628,656.610675 165.212891,657.066406 C165.688153,657.522138 166.283851,657.75 167,657.75 L173.25,657.75 C173.966149,657.75 174.561847,657.522138 175.037109,657.066406 C175.512372,656.610675 175.75,656.044274 175.75,655.367188 L175.75,649 L170.75,649 L170.75,644 Z M172,645.25 L172,647.75 L174.5,647.75 L172,645.25 Z M167,642.75 L171.375,642.75 L177,648.375 L177,655.25 C177,656.304693 176.641931,657.193356 175.925781,657.916016 C175.209632,658.638675 174.317714,659 173.25,659 L167,659 C165.932286,659 165.040368,658.638675 164.324219,657.916016 C163.608069,657.193356 163.25,656.304693 163.25,655.25 L163.25,646.5 C163.25,645.445307 163.608069,644.556644 164.324219,643.833984 C165.040368,643.111325 165.932286,642.75 167,642.75 L167,642.75 Z M179.5,645.25 L174.5,645.25 L174.5,640.25 L170.75,640.25 C170.033851,640.25 169.438153,640.490883 168.962891,640.972656 C168.487628,641.454429 168.25,642.046871 168.25,642.75 L167,642.75 C167,641.695307 167.358069,640.806644 168.074219,640.083984 C168.790368,639.361325 169.682286,639 170.75,639 L175.125,639 L180.75,644.625 L180.75,651.5 C180.75,652.554693 180.391931,653.443356 179.675781,654.166016 C178.959632,654.888675 178.067714,655.25 177,655.25 L177,654 C177.716149,654 178.311847,653.772138 178.787109,653.316406 C179.262372,652.860675 179.5,652.294274 179.5,651.617188 L179.5,645.25 Z M175.75,644 L178.25,644 L175.75,641.5 L175.75,644 Z M167,652.75 L167,651.5 L173.25,651.5 L173.25,652.75 L167,652.75 Z M167,655.25 L167,654 L173.25,654 L173.25,655.25 L167,655.25 Z" transform="translate(-153 -632)"/>
  </g>
</svg>
