<svg xmlns="http://www.w3.org/2000/svg" width="36" height="36" viewBox="0 0 36 36">
  <g fill="none" fill-rule="evenodd">
    <path fill="#FFFFFF" d="M134.25,642.5 L134.25,645 L136.75,645 L134.25,642.5 Z M138,646.25 L133,646.25 L133,641.25 L126.75,641.25 C126.059892,641.25 125.470706,641.494138 124.982422,641.982422 C124.494138,642.470706 124.25,643.059892 124.25,643.75 L124.25,656.25 C124.25,656.940108 124.494138,657.529294 124.982422,658.017578 C125.470706,658.505862 126.059892,658.75 126.75,658.75 L135.5,658.75 C136.190108,658.75 136.779294,658.505862 137.267578,658.017578 C137.755862,657.529294 138,656.940108 138,656.25 L138,646.25 Z M126.75,640 L133.625,640 L139.25,645.625 L139.25,656.25 C139.25,657.291672 138.88542,658.17708 138.15625,658.90625 C137.42708,659.63542 136.541672,660 135.5,660 L126.75,660 C125.708328,660 124.82292,659.63542 124.09375,658.90625 C123.36458,658.17708 123,657.291672 123,656.25 L123,643.75 C123,642.708328 123.36458,641.82292 124.09375,641.09375 C124.82292,640.36458 125.708328,640 126.75,640 L126.75,640 Z M126.75,656.25 L126.75,655 L135.5,655 L135.5,656.25 L126.75,656.25 Z M126.75,653.75 L126.75,652.5 L135.5,652.5 L135.5,653.75 L126.75,653.75 Z M133,651.25 L133,650 L135.5,650 L135.5,651.25 L133,651.25 Z M126.75,647.5 L131.75,647.5 L131.75,651.25 L126.75,651.25 L126.75,647.5 Z M128,648.75 L128,650 L130.5,650 L130.5,648.75 L128,648.75 Z" transform="translate(-113 -632)"/>
  </g>
</svg>
