<svg xmlns="http://www.w3.org/2000/svg" width="36" height="36" viewBox="0 0 36 36">
  <g fill="none" fill-rule="evenodd">
    <path fill="#FFFFFF" d="M54.25,642.5 L54.25,645 L56.75,645 L54.25,642.5 Z M58,646.25 L53,646.25 L53,641.25 L46.75,641.25 C46.0598924,641.25 45.4707056,641.494138 44.9824219,641.982422 C44.4941382,642.470706 44.25,643.059892 44.25,643.75 L44.25,656.25 C44.25,656.940108 44.4941382,657.529294 44.9824219,658.017578 C45.4707056,658.505862 46.0598924,658.75 46.75,658.75 L55.5,658.75 C56.1901076,658.75 56.7792944,658.505862 57.2675781,658.017578 C57.7558618,657.529294 58,656.940108 58,656.25 L58,646.25 Z M46.75,640 L53.625,640 L59.25,645.625 L59.25,656.25 C59.25,657.291672 58.8854203,658.17708 58.15625,658.90625 C57.4270797,659.63542 56.5416719,660 55.5,660 L46.75,660 C45.7083281,660 44.8229203,659.63542 44.09375,658.90625 C43.3645797,658.17708 43,657.291672 43,656.25 L43,643.75 C43,642.708328 43.3645797,641.82292 44.09375,641.09375 C44.8229203,640.36458 45.7083281,640 46.75,640 L46.75,640 Z M46.75,652.871094 L46.75,651.25 C48.2083406,651.223958 49.4062453,651.682938 50.34375,652.626953 C51.2812547,653.570968 51.75,654.778638 51.75,656.25 L50.1289062,656.25 C50.2200525,655.104161 49.9628937,654.238284 49.3574219,653.652344 C48.7519501,653.066403 47.8828182,652.805989 46.75,652.871094 L46.75,652.871094 Z M46.75,648.125 C52.1666938,648.125 54.875,650.833306 54.875,656.25 L53.1171875,656.25 C53.2994801,654.07551 52.8437555,652.451177 51.75,651.376953 C50.6562445,650.302729 48.9895945,649.804687 46.75,649.882812 L46.75,648.125 Z M47.5605469,656.25 C47.0201796,656.25 46.75,655.97982 46.75,655.439453 C46.75,654.899086 47.0201796,654.628906 47.5605469,654.628906 C48.1009142,654.628906 48.3710938,654.899086 48.3710938,655.439453 C48.3710938,655.97982 48.1009142,656.25 47.5605469,656.25 L47.5605469,656.25 Z" transform="translate(-33 -632)"/>
  </g>
</svg>
