<svg xmlns="http://www.w3.org/2000/svg" width="36" height="36" viewBox="0 0 36 36">
  <g fill="none" fill-rule="evenodd">
    <path fill="#FFFFFF" d="M8.5,977.5 L7.25,977.5 C6.91145664,977.5 6.61849082,977.376303 6.37109375,977.128906 C6.12369668,976.881509 6,976.588543 6,976.25 L6,963.75 C6,963.411457 6.12369668,963.118491 6.37109375,962.871094 C6.61849082,962.623697 6.91145664,962.5 7.25,962.5 L8.5,962.5 C8.83854336,962.5 9.13150918,962.623697 9.37890625,962.871094 C9.62630332,963.118491 9.75,963.411457 9.75,963.75 L9.75,976.25 C9.75,976.588543 9.62630332,976.881509 9.37890625,977.128906 C9.13150918,977.376303 8.83854336,977.5 8.5,977.5 L8.5,977.5 Z M14.75,977.5 L13.5,977.5 C13.1614566,977.5 12.8684908,977.376303 12.6210938,977.128906 C12.3736967,976.881509 12.25,976.588543 12.25,976.25 L12.25,963.75 C12.25,963.411457 12.3736967,963.118491 12.6210938,962.871094 C12.8684908,962.623697 13.1614566,962.5 13.5,962.5 L14.75,962.5 C15.0885434,962.5 15.3815092,962.623697 15.6289062,962.871094 C15.8763033,963.118491 16,963.411457 16,963.75 L16,976.25 C16,976.588543 15.8763033,976.881509 15.6289062,977.128906 C15.3815092,977.376303 15.0885434,977.5 14.75,977.5 L14.75,977.5 Z" transform="translate(7 -952)"/>
  </g>
</svg>
