<svg xmlns="http://www.w3.org/2000/svg" width="36" height="36" viewBox="0 0 36 36">
  <g fill="none" fill-rule="evenodd">
    <path fill="#FFFFFF" d="M51.75,977.5 C51.75,977.682293 51.6979172,977.82552 51.59375,977.929688 C51.4895828,978.033855 51.3854172,978.092448 51.28125,978.105469 L51.125,978.125 C51.0729164,978.125 51.0143232,978.11849 50.9492188,978.105469 C50.8841143,978.092448 50.7929693,978.033855 50.6757813,977.929688 C50.5585932,977.82552 50.5,977.682293 50.5,977.5 C50.5,975.872388 50.4576827,974.414069 50.3730469,973.125 C50.288411,971.835931 50.1842454,970.856123 50.0605469,970.185547 C49.9368483,969.514971 49.8131517,968.961591 49.6894531,968.525391 C49.5657546,968.089191 49.4583338,967.812501 49.3671875,967.695312 L49.25,967.5 L46.6914063,968.359375 C46.3528629,968.463542 46.1380213,968.453777 46.046875,968.330078 C45.9557287,968.20638 46.0078115,968.001304 46.203125,967.714844 L50.421875,961.660156 C50.6171885,961.373696 50.8515611,961.230469 51.125,961.230469 C51.3984389,961.230469 51.6328115,961.373696 51.828125,961.660156 L56.046875,967.714844 C56.2421885,968.001304 56.2910161,968.20638 56.1933594,968.330078 C56.0957026,968.453777 55.8841162,968.463542 55.5585938,968.359375 L53,967.5 C52.9609373,967.565104 52.9153648,967.66927 52.8632813,967.8125 C52.8111977,967.95573 52.7135424,968.307289 52.5703125,968.867188 C52.4270826,969.427086 52.3001308,970.055335 52.1894531,970.751953 C52.0787755,971.448571 51.977865,972.399083 51.8867188,973.603516 C51.7955725,974.807949 51.75,976.106764 51.75,977.5 L51.75,977.5 Z" transform="translate(-33 -952)"/>
  </g>
</svg>
