<svg xmlns="http://www.w3.org/2000/svg" width="36" height="36" viewBox="0 0 36 36">
  <g fill="none" fill-rule="evenodd">
    <path fill="#FFFFFF" d="M14.7607422,11.222439 C14.4882813,11.0280976 14.2037109,10.8987317 13.9117188,10.8337561 C13.7390625,10.8007805 13.5589844,10.7882927 13.3732422,10.798439 C13.1976563,10.8081951 13.0302734,10.8312195 12.8714844,10.867122 C12.7523438,10.9000976 12.6328125,10.9430244 12.5130859,10.9957073 C12.1580078,11.1521951 11.8511719,11.3492683 11.5992188,11.5875122 C11.3605469,11.8392195 11.1632813,12.1459512 11.0066406,12.5004878 C10.9539063,12.6199024 10.9109375,12.7393171 10.8779297,12.8583415 C10.8419922,13.0171707 10.81875,13.1841951 10.8091797,13.3596098 C10.7990234,13.5451707 10.8115234,13.7250732 10.8445313,13.897561 C10.9095703,14.1892683 11.0390625,14.473561 11.2335938,14.7457561 C11.3095703,14.8519024 11.3914063,14.9486829 11.4789063,15.0360976 C11.8707031,15.4269268 12.3740234,15.635122 12.9519531,15.7016585 C13.1261719,15.721561 13.3058594,15.734439 13.4701172,15.7890732 C13.5701172,15.8222439 13.6490234,15.8686829 13.7060547,15.9260488 C13.8359375,16.0548293 13.8550781,16.2401951 13.7548828,16.457561 C13.6933594,16.5910244 13.6044922,16.72 13.5017578,16.8251707 L13.4472656,16.8809756 C13.3705078,16.9574634 13.3220703,17.0058537 13.3095703,17.0183415 C13.2484375,17.08 13.1904297,17.1383415 13.1326172,17.196878 L13.0748047,17.2538537 C12.8693359,17.4602927 12.6628906,17.6659512 12.4564453,17.8714146 C12.0119141,18.3166829 11.5664063,18.7607805 11.1208984,19.2052683 C10.9744141,19.3516098 10.8279297,19.4979512 10.6814453,19.6440976 C10.6138672,19.7114146 10.5433594,19.7685854 10.4708984,19.8156098 C10.4357422,19.8394146 10.4027344,19.8593171 10.3697266,19.8772683 C9.98691406,20.0702439 9.56054688,19.9927805 9.21269531,19.6454634 C9.10722656,19.5400976 9.00527344,19.4382439 8.903125,19.3363902 C8.31230469,18.7461463 7.721875,18.1555122 7.13027344,17.5660488 C6.9625,17.3988293 6.79570313,17.2327805 6.62871094,17.0667317 C6.50917969,16.9479024 6.38125,16.8355122 6.24667969,16.7338537 C6.13496094,16.6493659 6.0203125,16.5863415 5.90566406,16.544 C5.49238281,16.4011707 5.096875,16.5047805 4.83789063,16.8027317 C4.76347656,16.8963902 4.70117188,17.0070244 4.65449219,17.1332683 C4.5875,17.3139512 4.56464844,17.5131707 4.53925781,17.7061463 C4.44355469,18.438439 4.03535156,19.0413659 3.44589844,19.3188293 C3.29980469,19.3900488 3.14335938,19.441561 2.97910156,19.4706341 C2.82382813,19.4981463 2.66757813,19.504 2.51328125,19.4909268 C1.99355469,19.4645854 1.546875,19.2355122 1.17519531,18.8554146 C1.14238281,18.8228293 1.13417969,18.8146341 1.12617188,18.806439 C0.745703125,18.4353171 0.51640625,17.988878 0.490039063,17.4698537 C0.476757813,17.3157073 0.4828125,17.1596098 0.510351563,17.0044878 C0.539453125,16.8403902 0.591015625,16.6839024 0.662304688,16.5381463 C0.940039063,15.9492683 1.54375,15.5416585 2.2765625,15.4460488 C2.46972656,15.420878 2.66914063,15.3978537 2.85,15.3309268 C2.98554688,15.2809756 3.103125,15.212878 3.20097656,15.1313171 C3.48496094,14.8747317 3.58359375,14.4946341 3.45175781,14.1100488 C3.39746094,13.9666341 3.33457031,13.8520976 3.25,13.7404878 C3.14824219,13.6062439 3.03574219,13.478439 2.91679688,13.3590244 C2.75058594,13.1921951 2.58417969,13.025561 2.41777344,12.8589268 C1.89199219,12.3324878 1.36621094,11.8076098 0.840625,11.2827317 L0.644726563,11.0870244 C0.542773438,10.9851707 0.440625,10.883122 0.346679688,10.7890732 C-0.0125,10.4300488 -0.08984375,10.0042927 0.103320313,9.62185366 C0.121289063,9.58887805 0.141210938,9.55609756 0.163476563,9.52331707 C0.212109375,9.44839024 0.269335938,9.37795122 0.33671875,9.31043902 C0.483007813,9.16409756 0.629492188,9.0177561 0.775976563,8.87141463 C1.22070313,8.42634146 1.66542969,7.98126829 2.11113281,7.53717073 C2.31679688,7.33092683 2.52246094,7.12468293 2.72929688,6.91941463 L2.78632813,6.86165854 C2.84472656,6.80370732 2.90332031,6.74595122 2.96171875,6.688 C2.97734375,6.67219512 3.02578125,6.62380488 3.10234375,6.54712195 L3.15820313,6.49268293 C3.26347656,6.39004878 3.39257813,6.30146341 3.52617188,6.23980488 C3.74375,6.13970732 3.92910156,6.15882927 4.05820313,6.28858537 C4.115625,6.34556098 4.16210938,6.42439024 4.1953125,6.52429268 C4.24980469,6.68839024 4.26269531,6.86790244 4.2828125,7.04195122 C4.34941406,7.61931707 4.5578125,8.12195122 4.94902344,8.51336585 C5.03671875,8.60078049 5.13339844,8.68253659 5.23964844,8.75843902 C5.51210938,8.95278049 5.79667969,9.08214634 6.08867188,9.14712195 C6.26132813,9.18009756 6.44140625,9.19258537 6.62714844,9.18243902 C6.80273438,9.17268293 6.97011719,9.14965854 7.12890625,9.1137561 C7.24804688,9.08078049 7.36757813,9.03785366 7.48730469,8.98517073 C7.84238281,8.82868293 8.14921875,8.63160976 8.40117188,8.39336585 C8.63984375,8.14165854 8.83710938,7.83492683 8.99375,7.48039024 C9.04648438,7.36097561 9.08945313,7.24156098 9.12246094,7.12253659 C9.15839844,6.96370732 9.18164063,6.79668293 9.19121094,6.62126829 C9.20136719,6.43570732 9.18886719,6.25580488 9.15585938,6.08331707 C9.09082031,5.79160976 8.96132813,5.50731707 8.76679688,5.23512195 C8.69082031,5.12897561 8.60898438,5.03219512 8.52148438,4.94478049 C8.1296875,4.55395122 7.62636719,4.3457561 7.0484375,4.27921951 C6.87421875,4.25931707 6.69453125,4.24643902 6.53027344,4.19180488 C6.43027344,4.15863415 6.35136719,4.11219512 6.29433594,4.05482927 C6.16445312,3.92604878 6.1453125,3.74068293 6.24550781,3.52331707 C6.30703125,3.38985366 6.39589844,3.26087805 6.49863281,3.15570732 L6.553125,3.09990244 C6.62988281,3.02341463 6.67832031,2.97502439 6.69082031,2.96253659 C6.75195312,2.90087805 6.80996094,2.84253659 6.86777344,2.784 L6.92558594,2.72702439 C7.13105469,2.52058537 7.3375,2.31492683 7.54394531,2.10946341 C7.98847656,1.66419512 8.43398438,1.22009756 8.87949219,0.775804878 C9.02597656,0.629463415 9.17246094,0.483121951 9.31894531,0.33697561 C9.38652344,0.269658537 9.45703125,0.212487805 9.52949219,0.165463415 C9.56464844,0.141658537 9.59765625,0.121756098 9.63066406,0.103804878 C10.0134766,-0.0891707317 10.4398437,-0.0117073171 10.7876953,0.335609756 C10.8931641,0.44097561 10.9951172,0.542829268 11.0972656,0.644682927 C11.6880859,1.23492683 12.2785156,1.82556098 12.8701172,2.41502439 C13.0378906,2.5822439 13.2046875,2.74829268 13.3716797,2.91434146 C13.4912109,3.03317073 13.6191406,3.14556098 13.7537109,3.24721951 C13.8654297,3.33170732 13.9800781,3.39473171 14.0947266,3.43707317 C14.5080078,3.57990244 14.9035156,3.47629268 15.1625,3.17834146 C15.2369141,3.08468293 15.2992188,2.97404878 15.3458984,2.84780488 C15.4128906,2.66712195 15.4357422,2.46790244 15.4611328,2.27492683 C15.5568359,1.54263415 15.9650391,0.939707317 16.5544922,0.662243902 C16.7005859,0.59102439 16.8570312,0.539707317 17.0212891,0.510439024 C17.1765625,0.482926829 17.3328125,0.477073171 17.4871094,0.490146341 C18.0068359,0.516487805 18.4535156,0.745560976 18.8251953,1.12565854 C18.8580078,1.1582439 18.8662109,1.16643902 18.8742187,1.17463415 C19.2546875,1.5457561 19.4839844,1.99219512 19.5103516,2.51121951 C19.5236328,2.66536585 19.5175781,2.82146341 19.4900391,2.97658537 C19.4609375,3.14068293 19.409375,3.29717073 19.3380859,3.44292683 C19.0603516,4.03180488 18.4566406,4.43941463 17.7238281,4.53502439 C17.5306641,4.56019512 17.33125,4.58321951 17.1503906,4.65014634 C17.0148438,4.70009756 16.8972656,4.76819512 16.7994141,4.8497561 C16.5154297,5.10634146 16.4167969,5.48643902 16.5486328,5.87102439 C16.6029297,6.01443902 16.6658203,6.12897561 16.7503906,6.24058537 C16.8521484,6.37482927 16.9646484,6.50263415 17.0835937,6.62204878 C17.2498047,6.78887805 17.4162109,6.9555122 17.5826172,7.12214634 C18.1736328,7.71395122 18.7650391,8.30380488 19.3556641,8.89404878 C19.4576172,8.99590244 19.5597656,9.09795122 19.6537109,9.192 C20.0128906,9.55102439 20.0902344,9.97678049 19.8970703,10.3592195 C19.8791016,10.3921951 19.8591797,10.4249756 19.8369141,10.4577561 C19.7882812,10.5326829 19.7310547,10.603122 19.6636719,10.6706341 C19.5173828,10.8169756 19.3708984,10.9633171 19.2244141,11.1096585 C18.7796875,11.5547317 18.3349609,11.9998049 17.8892578,12.4439024 C17.6835937,12.6501463 17.4779297,12.8563902 17.2710937,13.0616585 L17.2140625,13.1194146 C17.1556641,13.1773659 17.0970703,13.235122 17.0386719,13.2930732 C17.0230469,13.308878 16.9746094,13.3572683 16.8980469,13.4339512 L16.8421875,13.4883902 C16.7369141,13.5910244 16.6078125,13.6796098 16.4742187,13.7412683 C16.2566406,13.8413659 16.0712891,13.8222439 15.9421875,13.6924878 C15.8847656,13.6355122 15.8382812,13.5566829 15.8050781,13.4567805 C15.7505859,13.2926829 15.7376953,13.1131707 15.7175781,12.939122 C15.6509766,12.3617561 15.4425781,11.859122 15.0513672,11.4677073 C14.9638672,11.3800976 14.8669922,11.2981463 14.7607422,11.222439 L14.7607422,11.222439 Z" transform="translate(8 8)"/>
  </g>
</svg>
