<svg xmlns="http://www.w3.org/2000/svg" width="36" height="36" viewBox="0 0 36 36">
  <g fill="none" fill-rule="evenodd">
    <path fill="#FFFFFF" d="M210.257812,645.527344 C208.291657,646.503911 207.308594,647.649733 207.308594,648.964844 C208.154952,649.05599 208.85156,649.401039 209.398438,650 C209.932294,650.611982 210.199219,651.302079 210.199219,652.070312 C210.199219,652.90365 209.932294,653.600258 209.398438,654.160156 C208.864581,654.733076 208.200525,655.019531 207.40625,655.019531 C206.507808,655.019531 205.739587,654.648441 205.101562,653.90625 C204.450518,653.151038 204.125,652.252609 204.125,651.210938 C204.125,648.046859 205.856754,645.566415 209.320312,643.769531 L210.257812,645.527344 Z M217.875,645.527344 C215.921865,646.503911 214.945312,647.649733 214.945312,648.964844 C215.77865,649.05599 216.468747,649.401039 217.015625,650 C217.562503,650.598961 217.835938,651.289059 217.835938,652.070312 C217.835938,652.890629 217.569013,653.587237 217.035156,654.160156 C216.501299,654.733076 215.837244,655.019531 215.042969,655.019531 C214.157548,655.019531 213.382816,654.648441 212.71875,653.90625 C212.067705,653.151038 211.742188,652.252609 211.742188,651.210938 C211.742188,648.046859 213.480451,645.566415 216.957031,643.769531 L217.875,645.527344 Z" transform="translate(-193 -632)"/>
  </g>
</svg>
