<svg xmlns="http://www.w3.org/2000/svg" width="36" height="36" viewBox="0 0 36 36">
  <g fill="none" fill-rule="evenodd">
    <path fill="#FFFFFF" d="M258.046875,645.6875 L258.769531,647.269531 L260,642.25 L261.230469,650.921875 L253.769531,649.769531 L257.246094,648.558594 C256.855467,647.282546 256.100266,646.188807 254.980469,645.277344 C253.860671,644.365881 252.675788,643.910156 251.425781,643.910156 C250.436193,643.910156 249.472661,644.203122 248.535156,644.789062 C247.597652,645.375003 246.839196,646.143224 246.259766,647.09375 C245.680336,648.044276 245.390625,649.020828 245.390625,650.023438 C245.390625,651.039068 245.660805,652.018875 246.201172,652.962891 C246.741539,653.906906 247.460933,654.671872 248.359375,655.257812 C249.257817,655.843753 250.195308,656.136719 251.171875,656.136719 L251.171875,657.796875 C249.79166,657.796875 248.531907,657.448571 247.392578,656.751953 C246.25325,656.055335 245.361331,655.114589 244.716797,653.929688 C244.072262,652.744786 243.75,651.442715 243.75,650.023438 C243.75,648.61718 244.091793,647.318365 244.775391,646.126953 C245.458988,644.935541 246.389968,643.99154 247.568359,643.294922 C248.746751,642.598304 250.032545,642.25 251.425781,642.25 C252.753913,642.25 253.987625,642.572262 255.126953,643.216797 C256.266282,643.861331 257.187496,644.730463 257.890625,645.824219 L258.046875,645.6875 Z" transform="translate(-233 -632)"/>
  </g>
</svg>
