<svg xmlns="http://www.w3.org/2000/svg" width="36" height="36" viewBox="0 0 36 36">
  <g fill="none" fill-rule="evenodd">
    <path fill="#FFFFFF" d="M251,963.75 C250.036454,963.75 249.138025,964.052731 248.304688,964.658203 C247.47135,965.263675 246.872398,966.087234 246.507812,967.128906 L249.75,968.378906 L243.5,970 L244.378906,962.5 L245.492188,966.25 C246.625006,963.749987 248.460925,962.5 251,962.5 C252.705738,962.5 254.164056,963.164056 255.375,964.492188 L254.75,965.507812 C254.398436,965.18229 254.164063,964.967448 254.046875,964.863281 C253.929687,964.759114 253.731121,964.609376 253.451172,964.414062 C253.171223,964.218749 252.93685,964.088542 252.748047,964.023438 C252.559244,963.958333 252.31185,963.896485 252.005859,963.837891 C251.699868,963.779297 251.364585,963.75 251,963.75 L251,963.75 Z M251,976.25 C251.963546,976.25 252.861975,975.947269 253.695312,975.341797 C254.52865,974.736325 255.127602,973.912766 255.492188,972.871094 L252.25,971.621094 L258.5,970 L257.621094,977.5 L256.507812,973.75 C255.374994,976.250013 253.539075,977.5 251,977.5 C249.294262,977.5 247.835944,976.835944 246.625,975.507812 L247.25,974.492188 C247.601564,974.81771 247.835937,975.032552 247.953125,975.136719 C248.070313,975.240886 248.268879,975.390624 248.548828,975.585938 C248.828777,975.781251 249.06315,975.911458 249.251953,975.976562 C249.440756,976.041667 249.68815,976.103515 249.994141,976.162109 C250.300132,976.220703 250.635415,976.25 251,976.25 L251,976.25 Z" transform="translate(-233 -952)"/>
  </g>
</svg>
