<svg xmlns="http://www.w3.org/2000/svg" width="36" height="36" viewBox="0 0 36 36">
  <g fill="none" fill-rule="evenodd">
    <path fill="#FFFFFF" d="M12.6210938,690 L15.6484375,693.027344 C15.8697928,693.248699 15.9804688,693.518879 15.9804688,693.837891 C15.9804688,694.156903 15.8697928,694.433593 15.6484375,694.667969 C15.4270822,694.889324 15.1536475,695 14.828125,695 C14.5026025,695 14.2291678,694.889324 14.0078125,694.667969 L11,691.640625 L7.97265625,694.667969 C7.75130098,694.889324 7.47786621,695 7.15234375,695 C6.82682129,695 6.55338652,694.889324 6.33203125,694.667969 C6.11067598,694.433593 6,694.156903 6,693.837891 C6,693.518879 6.11067598,693.248699 6.33203125,693.027344 L9.359375,690 L6.37109375,687.011719 C6.14973848,686.790363 6.0390625,686.520184 6.0390625,686.201172 C6.0390625,685.88216 6.14973848,685.61198 6.37109375,685.390625 C6.59244902,685.16927 6.86588379,685.058594 7.19140625,685.058594 C7.51692871,685.058594 7.79036348,685.16927 8.01171875,685.390625 L11,688.359375 L14.0273438,685.332031 C14.248699,685.110676 14.5188786,685 14.8378906,685 C15.1569026,685 15.4270822,685.110676 15.6484375,685.332031 C15.8828137,685.553387 16,685.826821 16,686.152344 C16,686.477866 15.8828137,686.751301 15.6484375,686.972656 L12.6210938,690 Z" transform="translate(7 -672)"/>
  </g>
</svg>
