<svg xmlns="http://www.w3.org/2000/svg" width="36" height="36" viewBox="0 0 36 36">
  <g fill="none" fill-rule="evenodd">
    <path fill="#FFFFFF" d="M287.601562,641.943359 C288.682297,641.481117 289.815098,641.25 291,641.25 C292.184902,641.25 293.317703,641.481117 294.398438,641.943359 C295.479172,642.405601 296.410152,643.02734 297.191406,643.808594 C297.97266,644.589848 298.594399,645.520828 299.056641,646.601562 C299.518883,647.682297 299.75,648.815098 299.75,650 C299.75,651.184902 299.518883,652.317703 299.056641,653.398438 C298.594399,654.479172 297.97266,655.410152 297.191406,656.191406 C296.410152,656.97266 295.479172,657.594399 294.398438,658.056641 C293.317703,658.518883 292.184902,658.75 291,658.75 C289.815098,658.75 288.682297,658.518883 287.601562,658.056641 C286.520828,657.594399 285.589848,656.97266 284.808594,656.191406 C284.02734,655.410152 283.405601,654.479172 282.943359,653.398438 C282.481117,652.317703 282.25,651.184902 282.25,650 C282.25,648.815098 282.481117,647.682297 282.943359,646.601562 C283.405601,645.520828 284.02734,644.589848 284.808594,643.808594 C285.589848,643.02734 286.520828,642.405601 287.601562,641.943359 L287.601562,641.943359 Z M292.40625,650 L295.003906,647.402344 C295.19922,647.20703 295.296875,646.969402 295.296875,646.689453 C295.296875,646.409504 295.19922,646.178386 295.003906,645.996094 C294.821614,645.80078 294.590496,645.703125 294.310547,645.703125 C294.030598,645.703125 293.79297,645.80078 293.597656,645.996094 L291,648.59375 L288.421875,646.035156 C288.226562,645.839843 287.992189,645.742188 287.71875,645.742188 C287.445311,645.742188 287.210938,645.839843 287.015625,646.035156 C286.820312,646.217449 286.722656,646.448566 286.722656,646.728516 C286.722656,647.008465 286.820312,647.246093 287.015625,647.441406 L289.59375,650 L286.996094,652.597656 C286.80078,652.79297 286.703125,653.027342 286.703125,653.300781 C286.703125,653.57422 286.80078,653.808593 286.996094,654.003906 C287.178386,654.19922 287.409504,654.296875 287.689453,654.296875 C287.969402,654.296875 288.20703,654.19922 288.402344,654.003906 L291,651.40625 L293.597656,654.003906 C293.79297,654.19922 294.027342,654.296875 294.300781,654.296875 C294.57422,654.296875 294.808593,654.19922 295.003906,654.003906 C295.19922,653.808593 295.296875,653.57422 295.296875,653.300781 C295.296875,653.027342 295.19922,652.79297 295.003906,652.597656 L292.40625,650 Z" transform="translate(-273 -632)"/>
  </g>
</svg>
