<svg xmlns="http://www.w3.org/2000/svg" width="36" height="36" viewBox="0 0 36 36">
  <g fill="none" fill-rule="evenodd">
    <path fill="#FFFFFF" d="M212.25,999.625 L210.0625,1004 L217.5625,1004 C218.174482,1004 218.692055,1004.20508 219.115234,1004.61523 C219.538414,1005.02539 219.75,1005.51692 219.75,1006.08984 L219.75,1014.41016 C219.75,1014.98308 219.538414,1015.47461 219.115234,1015.88477 C218.692055,1016.29492 218.174482,1016.5 217.5625,1016.5 L204.75,1016.5 C204.059892,1016.5 203.470706,1016.25586 202.982422,1015.76758 C202.494138,1015.27929 202.25,1014.69011 202.25,1014 L202.25,1011.5 L203.5,1011.5 L203.5,1014 C203.5,1014.33854 203.623697,1014.63151 203.871094,1014.87891 C204.118491,1015.1263 204.411457,1015.25 204.75,1015.25 L217.5625,1015.25 C217.822918,1015.25 218.04427,1015.16537 218.226562,1014.99609 C218.408855,1014.82682 218.5,1014.63151 218.5,1014.41016 L218.5,1006.08984 C218.5,1005.85547 218.408855,1005.6569 218.226562,1005.49414 C218.04427,1005.33138 217.822918,1005.25 217.5625,1005.25 L210.0625,1005.25 L212.25,1009.625 L205.375,1004.625 L212.25,999.625 Z" transform="translate(-193 -992)"/>
  </g>
</svg>
