<svg xmlns="http://www.w3.org/2000/svg" width="36" height="36" viewBox="0 0 36 36">
  <g fill="none" fill-rule="evenodd">
    <path fill="#FFFFFF" d="M57.2304688,680 C58.2721406,680 59.1608036,680.36458 59.8964844,681.09375 C60.6321651,681.82292 61,682.708328 61,683.75 L61,696.25 C61,697.291672 60.6321651,698.17708 59.8964844,698.90625 C59.1608036,699.63542 58.2721406,700 57.2304688,700 L44.7695312,700 C43.7278594,700 42.8391964,699.63542 42.1035156,698.90625 C41.3678349,698.17708 41,697.291672 41,696.25 L41,683.75 C41,682.721349 41.3678349,681.839196 42.1035156,681.103516 C42.8391964,680.367835 43.7278594,680 44.7695312,680 L57.2304688,680 Z M59.75,696.25 L59.75,683.75 C59.75,683.059892 59.5058618,682.470706 59.0175781,681.982422 C58.5292944,681.494138 57.9335973,681.25 57.2304688,681.25 L44.7695312,681.25 C44.0664027,681.25 43.4707056,681.494138 42.9824219,681.982422 C42.4941382,682.470706 42.25,683.059892 42.25,683.75 L42.25,696.25 C42.25,696.940108 42.4941382,697.529294 42.9824219,698.017578 C43.4707056,698.505862 44.0664027,698.75 44.7695312,698.75 L57.2304688,698.75 C57.9335973,698.75 58.5292944,698.505862 59.0175781,698.017578 C59.5058618,697.529294 59.75,696.940108 59.75,696.25 L59.75,696.25 Z M52.1132812,684.6875 C52.2565111,684.856772 52.2565111,685.01953 52.1132812,685.175781 L48.0898438,689.765625 C47.933593,689.921876 47.7643238,690 47.5820312,690 L47.2304688,690 C47.0351553,690 46.8658861,689.921876 46.7226562,689.765625 L44.828125,687.597656 C44.697916,687.441405 44.697916,687.278647 44.828125,687.109375 L45.5898438,686.269531 C45.6419273,686.204427 45.710286,686.171875 45.7949219,686.171875 C45.8795577,686.171875 45.9479164,686.204427 46,686.269531 L47.2109375,687.636719 C47.276042,687.701823 47.3476559,687.734375 47.4257812,687.734375 C47.5039066,687.734375 47.5690102,687.701823 47.6210938,687.636719 L50.9414062,683.847656 C51.097657,683.691405 51.2408848,683.691405 51.3710938,683.847656 L52.1132812,684.6875 Z M53.5,688.75 L53.5,687.5 L57.25,687.5 L57.25,688.75 L53.5,688.75 Z M53.5,691.25 L53.5,690 L57.25,690 L57.25,691.25 L53.5,691.25 Z M44.75,693.75 L44.75,692.5 L57.25,692.5 L57.25,693.75 L44.75,693.75 Z M44.75,696.25 L44.75,695 L57.25,695 L57.25,696.25 L44.75,696.25 Z" transform="translate(-33 -672)"/>
  </g>
</svg>
