<svg xmlns="http://www.w3.org/2000/svg" width="36" height="36" viewBox="0 0 36 36">
  <g fill="none" fill-rule="evenodd">
    <path fill="#FFFFFF" d="M241,1002.5 C241,1001.80989 241.244138,1001.22071 241.732422,1000.73242 C242.220706,1000.24414 242.809892,1000 243.5,1000 L258.5,1000 C259.190108,1000 259.779294,1000.24414 260.267578,1000.73242 C260.755862,1001.22071 261,1001.80989 261,1002.5 L261,1017.5 C261,1018.19011 260.755862,1018.77929 260.267578,1019.26758 C259.779294,1019.75586 259.190108,1020 258.5,1020 L243.5,1020 C242.809892,1020 242.220706,1019.75586 241.732422,1019.26758 C241.244138,1018.77929 241,1018.19011 241,1017.5 L241,1002.5 Z M247.25,1012.5 L247.25,1011.25 L245.375,1011.25 C244.867185,1011.25 244.427736,1011.06771 244.056641,1010.70312 C243.685545,1010.33854 243.5,1009.89584 243.5,1009.375 C243.5,1008.85416 243.68229,1008.41146 244.046875,1008.04688 C244.41146,1007.68229 244.854164,1007.5 245.375,1007.5 L247.25,1007.5 L247.25,1006.25 L245.375,1006.25 C244.854164,1006.25 244.41146,1006.06771 244.046875,1005.70312 C243.68229,1005.33854 243.5,1004.89584 243.5,1004.375 C243.5,1003.85416 243.68229,1003.41146 244.046875,1003.04688 C244.41146,1002.68229 244.854164,1002.5 245.375,1002.5 L247.25,1002.5 L247.25,1001.875 L247.25,1001.25 L248.5,1001.25 L248.5,1001.875 L248.5,1002.5 L256.625,1002.5 C257.145836,1002.5 257.58854,1002.68229 257.953125,1003.04688 C258.31771,1003.41146 258.5,1003.85416 258.5,1004.375 C258.5,1004.89584 258.31771,1005.33854 257.953125,1005.70312 C257.58854,1006.06771 257.145836,1006.25 256.625,1006.25 L248.5,1006.25 L248.5,1007.5 L252.875,1007.5 C253.382815,1007.5 253.822264,1007.68229 254.193359,1008.04688 C254.564455,1008.41146 254.75,1008.85416 254.75,1009.375 C254.75,1009.89584 254.56771,1010.33854 254.203125,1010.70312 C253.83854,1011.06771 253.395836,1011.25 252.875,1011.25 L248.5,1011.25 L248.5,1012.5 L256.625,1012.5 C257.145836,1012.5 257.58854,1012.68229 257.953125,1013.04688 C258.31771,1013.41146 258.5,1013.85416 258.5,1014.375 C258.5,1014.89584 258.31771,1015.33854 257.953125,1015.70312 C257.58854,1016.06771 257.145836,1016.25 256.625,1016.25 L248.5,1016.25 L248.5,1018.33984 L248.5,1018.75 L258.5,1018.75 C258.851564,1018.75 259.147785,1018.62956 259.388672,1018.38867 C259.629558,1018.14779 259.75,1017.85156 259.75,1017.5 L259.75,1002.5 C259.75,1002.14844 259.629558,1001.85221 259.388672,1001.61133 C259.147785,1001.37044 258.851564,1001.25 258.5,1001.25 L243.5,1001.25 C243.148436,1001.25 242.852215,1001.37044 242.611328,1001.61133 C242.370442,1001.85221 242.25,1002.14844 242.25,1002.5 L242.25,1017.5 C242.25,1017.85156 242.370442,1018.14779 242.611328,1018.38867 C242.852215,1018.62956 243.148436,1018.75 243.5,1018.75 L247.25,1018.75 L247.25,1018.33984 L247.25,1016.25 L245.375,1016.25 C244.854164,1016.25 244.41146,1016.06771 244.046875,1015.70312 C243.68229,1015.33854 243.5,1014.89584 243.5,1014.375 C243.5,1013.85416 243.68229,1013.41146 244.046875,1013.04688 C244.41146,1012.68229 244.854164,1012.5 245.375,1012.5 L247.25,1012.5 Z" transform="translate(-233 -992)"/>
  </g>
</svg>
