<svg xmlns="http://www.w3.org/2000/svg" width="36" height="36" viewBox="0 0 36 36">
  <g fill="none" fill-rule="evenodd">
    <path fill="#FFFFFF" d="M81,683.769531 C81,682.714838 81.3678349,681.82292 82.1035156,681.09375 C82.8391964,680.36458 83.7278594,680 84.7695312,680 L97.2304688,680 C98.2851615,680 99.1770797,680.367835 99.90625,681.103516 C100.63542,681.839196 101,682.727859 101,683.769531 L101,696.230469 C101,697.285162 100.632165,698.17708 99.8964844,698.90625 C99.1608036,699.63542 98.2721406,700 97.2304688,700 L84.7695312,700 C83.7148385,700 82.8229203,699.632165 82.09375,698.896484 C81.3645797,698.160804 81,697.272141 81,696.230469 L81,683.769531 Z M84.75,688.222656 L84.75,690 C86.2213615,690 87.6308526,690.673821 88.9785156,692.021484 C90.3261786,693.369147 91,694.778638 91,696.25 L92.7773438,696.25 C92.7773438,694.791659 92.4192744,693.447272 91.703125,692.216797 C90.9869756,690.986322 90.013678,690.013024 88.7832031,689.296875 C87.5527282,688.580726 86.2083406,688.222656 84.75,688.222656 L84.75,688.222656 Z M97.25,696.25 C97.25,694.557283 96.9212272,692.939461 96.2636719,691.396484 C95.6061165,689.853508 94.7174535,688.522141 93.5976562,687.402344 C92.477859,686.282546 91.1464921,685.393883 89.6035156,684.736328 C88.0605392,684.078773 86.4427168,683.75 84.75,683.75 L84.75,685.527344 C86.0781316,685.527344 87.3964778,685.83333 88.7050781,686.445312 C90.0136784,687.057295 91.1627555,687.858068 92.1523438,688.847656 C93.141932,689.837245 93.9427053,690.986322 94.5546875,692.294922 C95.1666697,693.603522 95.4726562,694.921868 95.4726562,696.25 L97.25,696.25 Z M85.1308594,695.771484 C85.4368505,696.077475 85.8046854,696.230469 86.234375,696.230469 C86.6640646,696.230469 87.0318995,696.077475 87.3378906,695.771484 C87.6438817,695.465493 87.796875,695.097658 87.796875,694.667969 C87.796875,694.238279 87.6438817,693.870444 87.3378906,693.564453 C87.0318995,693.258462 86.6640646,693.105469 86.234375,693.105469 C85.8046854,693.105469 85.4368505,693.258462 85.1308594,693.564453 C84.8248683,693.870444 84.671875,694.238279 84.671875,694.667969 C84.671875,695.097658 84.8248683,695.465493 85.1308594,695.771484 L85.1308594,695.771484 Z" transform="translate(-73 -672)"/>
  </g>
</svg>
