<svg xmlns="http://www.w3.org/2000/svg" width="36" height="36" viewBox="0 0 36 36">
  <g fill="none" fill-rule="evenodd" transform="translate(8 8)">
    <path stroke="#FFFFFF" stroke-width="2" d="M9.2 8.9L10.9 12.6C11.2 13.3 10.7 14 10 14L3 14M4 3L8.1 1.9C8.7 1.7 9.3 1.9 9.8 2.2L13.7 5.1C14.1 5.4 14.4 5.8 14.5 6.3L14.7 7.4C14.9 8.3 15.7 9 16.7 9L20 9"/>
    <path fill="#FFFFFF" d="M13.9,6.5 L10.3,9.4 L10.3,13.7 L7.5,9.8 C6.9,9 7,7.8 7.8,7.1 L12.3,3.3 L14,4.5 L13.9,6.5 L13.9,6.5 Z"/>
    <circle cx="16" cy="2" r="2" fill="#FFFFFF"/>
    <polygon fill="#FFFFFF" points="5.9 20 9.8 16 7 16 4.2 18.9"/>
    <g fill="#FFFFFF" transform="translate(0 5)">
      <path d="M7 .8L8.1 0 0 0 0 1 6.7 1C6.8.9 6.9.9 7 .8L7 .8zM5.5 4L0 4 0 5 5.8 5C5.6 4.7 5.6 4.3 5.5 4L5.5 4zM5.9 2L0 2 0 3 5.6 3C5.6 2.6 5.8 2.3 5.9 2L5.9 2z"/>
    </g>
  </g>
</svg>
