<svg xmlns="http://www.w3.org/2000/svg" width="36" height="36" viewBox="0 0 36 36">
  <g fill="none" fill-rule="evenodd">
    <path fill="#FFFFFF" d="M174.652344,691.816406 L178.402344,695.566406 C178.467448,695.631511 178.5,695.709635 178.5,695.800781 C178.5,695.891928 178.467448,695.970052 178.402344,696.035156 L177.035156,697.382812 C176.970052,697.447917 176.895183,697.480469 176.810547,697.480469 C176.725911,697.480469 176.651042,697.447917 176.585938,697.382812 L172.835938,693.632812 C171.820307,694.283857 170.726568,694.609375 169.554688,694.609375 C168.734371,694.609375 167.949874,694.446616 167.201172,694.121094 C166.45247,693.795571 165.807945,693.362633 165.267578,692.822266 C164.727211,692.281898 164.297528,691.637374 163.978516,690.888672 C163.659504,690.13997 163.5,689.355473 163.5,688.535156 C163.5,687.71484 163.659504,686.930342 163.978516,686.181641 C164.297528,685.432939 164.727211,684.788414 165.267578,684.248047 C165.807945,683.70768 166.45247,683.277996 167.201172,682.958984 C167.949874,682.639972 168.734371,682.480469 169.554688,682.480469 C170.375004,682.480469 171.159501,682.639972 171.908203,682.958984 C172.656905,683.277996 173.304685,683.70768 173.851562,684.248047 C174.39844,684.788414 174.831379,685.432939 175.150391,686.181641 C175.469403,686.930342 175.628906,687.71484 175.628906,688.535156 C175.628906,689.720058 175.303389,690.813797 174.652344,691.816406 L174.652344,691.816406 Z M165.433594,688.535156 C165.433594,689.680995 165.837236,690.657548 166.644531,691.464844 C167.451827,692.272139 168.421869,692.675781 169.554688,692.675781 C170.3099,692.675781 171.003252,692.490236 171.634766,692.119141 C172.266279,691.748045 172.767576,691.243493 173.138672,690.605469 C173.509767,689.967445 173.695312,689.277347 173.695312,688.535156 C173.695312,687.402338 173.291671,686.432296 172.484375,685.625 C171.677079,684.817704 170.700527,684.414062 169.554688,684.414062 C168.421869,684.414062 167.451827,684.817704 166.644531,685.625 C165.837236,686.432296 165.433594,687.402338 165.433594,688.535156 L165.433594,688.535156 Z" transform="translate(-153 -672)"/>
  </g>
</svg>
