<svg xmlns="http://www.w3.org/2000/svg" width="36" height="36" viewBox="0 0 36 36">
  <g fill="none" fill-rule="evenodd">
    <path fill="#FFFFFF" d="M140.121094,698.378906 L139.378906,699.121094 C139.131509,699.368491 138.835288,699.488932 138.490234,699.482422 C138.145181,699.475911 137.84896,699.34896 137.601562,699.101562 L132.621094,694.121094 C131.527338,694.707034 130.361985,695 129.125,695 C127.184886,695 125.554043,694.339199 124.232422,693.017578 C122.910801,691.695957 122.25,690.065114 122.25,688.125 C122.25,686.184886 122.910801,684.554043 124.232422,683.232422 C125.554043,681.910801 127.184886,681.25 129.125,681.25 C131.065114,681.25 132.695957,681.910801 134.017578,683.232422 C135.339199,684.554043 136,686.184886 136,688.125 C136,689.388027 135.707034,690.55338 135.121094,691.621094 L140.101562,696.601562 C140.34896,696.84896 140.472656,697.148436 140.472656,697.5 C140.472656,697.851564 140.35547,698.14453 140.121094,698.378906 L140.121094,698.378906 Z M125.589844,691.660156 C126.566411,692.636724 127.744785,693.125 129.125,693.125 C130.505215,693.125 131.683589,692.636724 132.660156,691.660156 C133.636724,690.683589 134.125,689.505215 134.125,688.125 C134.125,686.744785 133.636724,685.566411 132.660156,684.589844 C131.683589,683.613276 130.505215,683.125 129.125,683.125 C127.744785,683.125 126.566411,683.613276 125.589844,684.589844 C124.613276,685.566411 124.125,686.744785 124.125,688.125 C124.125,689.505215 124.613276,690.683589 125.589844,691.660156 L125.589844,691.660156 Z" transform="translate(-113 -672)"/>
  </g>
</svg>
