<svg xmlns="http://www.w3.org/2000/svg" width="36" height="36" viewBox="0 0 36 36">
  <g fill="none" fill-rule="evenodd">
    <path fill="#FFFFFF" d="M217,690.75 L217,688.25 C216.882812,688.197916 216.765626,688.142578 216.648438,688.083984 C216.531249,688.02539 216.335939,687.953776 216.0625,687.869141 C215.789061,687.784505 215.512371,687.719401 215.232422,687.673828 C214.952473,687.628255 214.610679,687.608724 214.207031,687.615234 C213.803383,687.621745 213.406252,687.667317 213.015625,687.751953 C212.624998,687.836589 212.182294,687.979817 211.6875,688.181641 C211.192706,688.383465 210.701174,688.643879 210.212891,688.962891 C209.724607,689.281903 209.200524,689.698565 208.640625,690.212891 C208.080726,690.727216 207.533857,691.322913 207,692 C207.195313,691.010412 207.527341,690.076176 207.996094,689.197266 C208.464846,688.318355 208.998695,687.569665 209.597656,686.951172 C210.196618,686.332679 210.841142,685.78581 211.53125,685.310547 C212.221358,684.835284 212.9082,684.460939 213.591797,684.1875 C214.275394,683.914061 214.910153,683.715495 215.496094,683.591797 C216.082034,683.468098 216.589842,683.425781 217.019531,683.464844 L217,680.75 L222,685.75 L217,690.75 Z M202,683.25 L210.125,683.25 C210.125,683.67969 209.958986,684.093097 209.626953,684.490234 C209.29492,684.887372 208.888023,685.196613 208.40625,685.417969 C207.924477,685.639324 207.455731,685.75 207,685.75 L204.5,685.75 L204.5,694.5 L217,694.5 C217,694.044269 217.110676,693.575523 217.332031,693.09375 C217.553387,692.611977 217.862628,692.20508 218.259766,691.873047 C218.656903,691.541014 219.07031,691.375 219.5,691.375 L219.5,697 L202,697 L202,683.25 Z" transform="translate(-193 -672)"/>
  </g>
</svg>
