<svg xmlns="http://www.w3.org/2000/svg" width="36" height="36" viewBox="0 0 36 36">
  <g fill="none" fill-rule="evenodd">
    <path fill="#FFFFFF" d="M283.5,976.25 L283.5,973.75 L298.5,973.75 L298.5,976.25 L283.5,976.25 Z M293.480469,971.152344 L293.480469,968.75 C293.467448,968.736979 293.434896,968.723958 293.382812,968.710938 C293.187499,968.593749 293.008464,968.496094 292.845703,968.417969 C292.682942,968.339843 292.389976,968.238933 291.966797,968.115234 C291.543618,967.991536 291.136721,967.913412 290.746094,967.880859 C290.355467,967.848307 289.863935,967.864583 289.271484,967.929688 C288.679033,967.994792 288.096357,968.13802 287.523438,968.359375 C286.950518,968.58073 286.309248,968.929034 285.599609,969.404297 C284.88997,969.87956 284.190108,970.462236 283.5,971.152344 C283.838543,970.214839 284.23893,969.368493 284.701172,968.613281 C285.163414,967.858069 285.632159,967.22982 286.107422,966.728516 C286.582685,966.227211 287.106768,965.787762 287.679688,965.410156 C288.252607,965.03255 288.783201,964.739584 289.271484,964.53125 C289.759768,964.322916 290.280596,964.156902 290.833984,964.033203 C291.387373,963.909505 291.862628,963.83138 292.259766,963.798828 C292.656903,963.766276 293.0638,963.75 293.480469,963.75 L293.480469,961.25 L298.460938,966.25 L293.480469,971.152344 Z" transform="translate(-273 -952)"/>
  </g>
</svg>
