<svg xmlns="http://www.w3.org/2000/svg" width="36" height="36" viewBox="0 0 36 36">
  <g fill="none" fill-rule="evenodd">
    <path fill="#FFFFFF" d="M253,691.25 L253,688.75 L249.25,691.875 L248.625,692.34375 C248.208331,692.656252 247.791669,692.968748 247.375,693.28125 L246.75,693.75 L248.625,691.25 L251.730469,687.519531 L249.25,687.5 L249.25,686.25 L254.25,686.25 L254.25,691.25 L253,691.25 Z M243,683.769531 C243,682.714838 243.36458,681.82292 244.09375,681.09375 C244.82292,680.36458 245.708328,680 246.75,680 L255.5,680 C256.541672,680 257.42708,680.367835 258.15625,681.103516 C258.88542,681.839196 259.25,682.727859 259.25,683.769531 L259.25,696.230469 C259.25,697.285162 258.88542,698.17708 258.15625,698.90625 C257.42708,699.63542 256.541672,700 255.5,700 L246.75,700 C245.708328,700 244.82292,699.632165 244.09375,698.896484 C243.36458,698.160804 243,697.272141 243,696.230469 L243,683.769531 Z M255.5,681.25 L246.75,681.25 C246.059892,681.25 245.470706,681.494138 244.982422,681.982422 C244.494138,682.470706 244.25,683.066403 244.25,683.769531 L244.25,696.230469 C244.25,696.933597 244.494138,697.529294 244.982422,698.017578 C245.470706,698.505862 246.059892,698.75 246.75,698.75 L255.5,698.75 C256.190108,698.75 256.779294,698.505862 257.267578,698.017578 C257.755862,697.529294 258,696.933597 258,696.230469 L258,683.769531 C258,683.066403 257.755862,682.470706 257.267578,681.982422 C256.779294,681.494138 256.190108,681.25 255.5,681.25 L255.5,681.25 Z" transform="translate(-233 -672)"/>
  </g>
</svg>
