<svg xmlns="http://www.w3.org/2000/svg" width="36" height="36" viewBox="0 0 36 36">
  <g fill="none" fill-rule="evenodd">
    <path fill="#FFFFFF" d="M286.595703,689.941406 C285.365228,689.941406 284.75,689.326178 284.75,688.095703 C284.75,686.865228 285.365228,686.25 286.595703,686.25 C287.826178,686.25 288.441406,686.865228 288.441406,688.095703 C288.441406,689.326178 287.826178,689.941406 286.595703,689.941406 L286.595703,689.941406 Z M291.595703,686.191406 C290.365228,686.191406 289.75,685.576178 289.75,684.345703 C289.75,683.115228 290.365228,682.5 291.595703,682.5 C292.826178,682.5 293.441406,683.115228 293.441406,684.345703 C293.441406,685.576178 292.826178,686.191406 291.595703,686.191406 L291.595703,686.191406 Z M295.345703,689.941406 C294.115228,689.941406 293.5,689.326178 293.5,688.095703 C293.5,686.865228 294.115228,686.25 295.345703,686.25 C296.576178,686.25 297.191406,686.865228 297.191406,688.095703 C297.191406,689.326178 296.576178,689.941406 295.345703,689.941406 L295.345703,689.941406 Z M294.886719,699.208984 C293.649733,699.736331 292.354173,700 291,700 C289.645827,700 288.350267,699.736331 287.113281,699.208984 C285.876296,698.681638 284.811853,697.97201 283.919922,697.080078 C283.02799,696.188147 282.318362,695.123704 281.791016,693.886719 C281.263669,692.649733 281,691.354173 281,690 C281,688.645827 281.263669,687.350267 281.791016,686.113281 C282.318362,684.876296 283.02799,683.811853 283.919922,682.919922 C284.811853,682.02799 285.876296,681.318362 287.113281,680.791016 C288.350267,680.263669 289.645827,680 291,680 C292.354173,680 293.649733,680.263669 294.886719,680.791016 C296.123704,681.318362 297.188147,682.02799 298.080078,682.919922 C298.97201,683.811853 299.681638,684.876296 300.208984,686.113281 C300.736331,687.350267 301,688.645827 301,690 C301,691.354173 300.736331,692.649733 300.208984,693.886719 C299.681638,695.123704 298.97201,696.188147 298.080078,697.080078 C297.188147,697.97201 296.123704,698.681638 294.886719,699.208984 L294.886719,699.208984 Z M294.408203,681.923828 C293.320958,681.461586 292.184902,681.230469 291,681.230469 C289.815098,681.230469 288.679042,681.461586 287.591797,681.923828 C286.504552,682.38607 285.570316,683.007809 284.789062,683.789062 C284.007809,684.570316 283.38607,685.504552 282.923828,686.591797 C282.461586,687.679042 282.230469,688.815098 282.230469,690 C282.230469,691.184902 282.461586,692.320958 282.923828,693.408203 C283.38607,694.495448 284.007809,695.429684 284.789062,696.210938 C285.570316,696.992191 286.504552,697.61393 287.591797,698.076172 C288.679042,698.538414 289.815098,698.769531 291,698.769531 C292.184902,698.769531 293.320958,698.538414 294.408203,698.076172 C295.495448,697.61393 296.429684,696.992191 297.210938,696.210938 C297.992191,695.429684 298.61393,694.495448 299.076172,693.408203 C299.538414,692.320958 299.769531,691.184902 299.769531,690 C299.769531,688.815098 299.538414,687.679042 299.076172,686.591797 C298.61393,685.504552 297.992191,684.570316 297.210938,683.789062 C296.429684,683.007809 295.495448,682.38607 294.408203,681.923828 L294.408203,681.923828 Z M292.113281,692.207031 C291.983072,692.207031 291.878907,692.128907 291.800781,691.972656 C291.748698,691.855468 291.735677,691.731771 291.761719,691.601562 C291.787761,691.471354 291.839843,691.373698 291.917969,691.308594 L294.730469,688.90625 C294.808594,688.828125 294.896484,688.805338 294.994141,688.837891 C295.091797,688.870443 295.166666,688.942057 295.21875,689.052734 C295.270834,689.163412 295.287109,689.283854 295.267578,689.414062 C295.248047,689.544271 295.192709,689.648437 295.101562,689.726562 L292.308594,692.128906 C292.243489,692.18099 292.178386,692.207031 292.113281,692.207031 L292.113281,692.207031 Z M291,696.25 L286.410156,694.746094 C286.332031,694.707031 286.244141,694.557293 286.146484,694.296875 C286.048828,694.036457 286,693.854167 286,693.75 L286,688.75 C286,688.619791 286.208331,688.554688 286.625,688.554688 C287.041669,688.554688 287.25,688.619791 287.25,688.75 L287.25,693.75 L291,695 C291.078125,695.039063 291.120443,695.162759 291.126953,695.371094 C291.133464,695.579428 291.120443,695.781249 291.087891,695.976562 C291.055338,696.171876 291.026042,696.263021 291,696.25 L291,696.25 Z M291,700 L291,684.6875 L292.25,684.6875 L292.25,700 C292.263021,699.973958 292.165366,699.960938 291.957031,699.960938 C291.748697,699.960938 291.533855,699.967448 291.3125,699.980469 L291,700 Z" transform="translate(-273 -672)"/>
  </g>
</svg>
