<svg xmlns="http://www.w3.org/2000/svg" width="36" height="36" viewBox="0 0 36 36">
  <g fill="none" fill-rule="evenodd">
    <path fill="#FFFFFF" d="M2.33789062,735.019531 C1.44595908,733.483065 1,731.809905 1,730 C1,728.190095 1.44595908,726.516935 2.33789062,724.980469 C3.22982217,723.444003 4.44400273,722.229822 5.98046875,721.337891 C7.51693477,720.445959 9.19009512,720 11,720 C12.8099049,720 14.4830652,720.445959 16.0195312,721.337891 C17.5559973,722.229822 18.7701778,723.444003 19.6621094,724.980469 C20.5540409,726.516935 21,728.190095 21,730 C21,731.809905 20.5540409,733.483065 19.6621094,735.019531 C18.7701778,736.555997 17.5559973,737.770178 16.0195312,738.662109 C14.4830652,739.554041 12.8099049,740 11,740 C9.19009512,740 7.51693477,739.554041 5.98046875,738.662109 C4.44400273,737.770178 3.22982217,736.555997 2.33789062,735.019531 L2.33789062,735.019531 Z M4.88671875,723.75 L11.625,723.75 L17.25,729.375 L17.25,736.113281 C18.0442748,735.305986 18.659503,734.37826 19.0957031,733.330078 C19.5319032,732.281896 19.75,731.171881 19.75,730 C19.75,727.591134 18.8938888,725.530608 17.1816406,723.818359 C15.4693925,722.106111 13.4088662,721.25 11,721.25 C9.82811914,721.25 8.7181042,721.468097 7.66992188,721.904297 C6.62173955,722.340497 5.69401445,722.955725 4.88671875,723.75 L4.88671875,723.75 Z M3.83203125,725 C3.28515352,725.768233 2.88151172,726.601558 2.62109375,727.5 L7.875,727.5 L13.5,733.125 L13.5,738.378906 C14.398442,738.118488 15.231767,737.714846 16,737.167969 L16,730 L11,730 L11.0585938,725 L3.83203125,725 Z M11,738.75 C11.4166687,738.75 11.8333313,738.717448 12.25,738.652344 L12.25,733.75 L7.25,733.75 L7.30859375,728.75 C4.00128555,728.710937 2.3411459,728.717448 2.328125,728.769531 C2.27604141,729.173179 2.25,729.583331 2.25,730 C2.25,732.408866 3.10611123,734.469392 4.81835938,736.181641 C6.53060752,737.893889 8.59113379,738.75 11,738.75 L11,738.75 Z M8.5,732.5 L11.1171875,732.5 L8.5,729.882812 L8.5,732.5 Z M12.25,726.132812 L12.25,728.75 L14.8671875,728.75 L12.25,726.132812 Z" transform="translate(7 -712)"/>
  </g>
</svg>
