<svg xmlns="http://www.w3.org/2000/svg" width="36" height="36" viewBox="0 0 36 36">
  <g fill="none" fill-rule="evenodd">
    <path fill="#FFFFFF" d="M45.9804688,721.337891 C47.5169348,720.445959 49.1900951,720 51,720 C52.8099049,720 54.4830652,720.445959 56.0195312,721.337891 C57.5559973,722.229822 58.7701778,723.444003 59.6621094,724.980469 C60.5540409,726.516935 61,728.190095 61,730 C61,731.809905 60.5540409,733.483065 59.6621094,735.019531 C58.7701778,736.555997 57.5559973,737.770178 56.0195312,738.662109 C54.4830652,739.554041 52.8099049,740 51,740 C49.1900951,740 47.5169348,739.554041 45.9804688,738.662109 C44.4440027,737.770178 43.2298222,736.555997 42.3378906,735.019531 C41.4459591,733.483065 41,731.809905 41,730 C41,728.190095 41.4459591,726.516935 42.3378906,724.980469 C43.2298222,723.444003 44.4440027,722.229822 45.9804688,721.337891 L45.9804688,721.337891 Z M57.1816406,723.818359 C55.4693925,722.106111 53.4088662,721.25 51,721.25 C48.5911338,721.25 46.5306075,722.106111 44.8183594,723.818359 C43.1061112,725.530608 42.25,727.591134 42.25,730 C42.25,731.341153 42.5364555,732.600906 43.109375,733.779297 C43.6822945,734.957688 44.4700471,735.957027 45.4726562,736.777344 C46.4101609,734.654937 47.6015553,733.105474 49.046875,732.128906 C49.1510422,732.167969 49.3203113,732.236328 49.5546875,732.333984 C49.7890637,732.431641 49.9648432,732.5 50.0820312,732.539062 C50.1992193,732.578125 50.3522126,732.620442 50.5410156,732.666016 C50.7298187,732.711589 50.902343,732.734375 51.0585938,732.734375 C51.2278654,732.734375 51.3938794,732.701823 51.5566406,732.636719 C51.7194019,732.571614 51.9407538,732.460938 52.2207031,732.304688 C52.5006524,732.148437 52.7122389,732.03125 52.8554688,731.953125 C54.3138094,732.929692 55.5442658,734.531239 56.546875,736.757812 C57.5494842,735.937496 58.3339815,734.941412 58.9003906,733.769531 C59.4667997,732.59765 59.75,731.341153 59.75,730 C59.75,727.591134 58.8938888,725.530608 57.1816406,723.818359 L57.1816406,723.818359 Z M51.0195312,723.769531 C52.0612031,723.769531 52.9466109,724.134111 53.6757812,724.863281 C54.4049516,725.592452 54.7695312,726.474604 54.7695312,727.509766 C54.7695312,728.544927 54.4049516,729.430335 53.6757812,730.166016 C52.9466109,730.901696 52.0612031,731.269531 51.0195312,731.269531 C49.9908803,731.269531 49.1087276,730.901696 48.3730469,730.166016 C47.6373661,729.430335 47.2695312,728.544927 47.2695312,727.509766 C47.2695312,726.474604 47.6373661,725.592452 48.3730469,724.863281 C49.1087276,724.134111 49.9908803,723.769531 51.0195312,723.769531 L51.0195312,723.769531 Z" transform="translate(-33 -712)"/>
  </g>
</svg>
