<svg xmlns="http://www.w3.org/2000/svg" width="36" height="36" viewBox="0 0 36 36">
    <defs>
        <linearGradient id="list-remove-a" x1="75.984%" x2="3.181%" y1="30.783%" y2="70.628%">
            <stop offset="18%" stop-color="#FFF" stop-opacity=".4"/>
            <stop offset="100%" stop-color="#FFF"/>
        </linearGradient>
    </defs>
    <g fill="none" fill-rule="evenodd">
        <g fill-rule="nonzero" transform="translate(8 9)">
            <path fill="url(#list-remove-a)" d="M6.02171442,0.122571431 L6.02171442,3.57971436 C6.02171442,8.37571447 3.62371436,10.2237145 0.568857155,10.5128574 C0.24646205,10.5452552 0.0015191011,10.817414 0.00314285714,11.1414288 C0.00314285714,12.4300003 0.00314285714,15.4754289 0.00314285714,16.7985718 C0.00288117602,16.9714458 0.0738297979,17.1367965 0.199297009,17.2557227 C0.324764219,17.374649 0.493673242,17.4366515 0.666285729,17.4271432 C8.31600018,17.0374289 12.9234289,11.4557145 12.9234289,4.52571438 L12.9454289,4.52571438 L12.9454289,0.125714288 L6.02171442,0.122571431 Z"/>
            <path fill="#FFF" d="M21.371429,16.5000004 L13.272286,0.122571431 L6.02171442,0.122571431 L14.5765717,16.8928575 C14.7372084,17.2087011 15.0613686,17.4078107 15.4157146,17.4082861 L20.8151433,17.4082861 C21.0315363,17.4060132 21.2315436,17.2925868 21.3445687,17.1080429 C21.4575938,16.9234991 21.4677412,16.6937917 21.371429,16.5000004 Z"/>
        </g>
    </g>
</svg>
