<svg xmlns="http://www.w3.org/2000/svg" width="36" height="36" viewBox="0 0 36 36">
  <g fill="none" fill-rule="evenodd">
    <path fill="#FFFFFF" d="M127.25,771.75 L127.25,768 L128.5,768 L128.5,771.75 L133.5,771.75 L133.5,768 L134.75,768 L134.75,771.75 L139.75,771.75 L139.75,773 L134.75,773 L134.75,776.75 L133.5,776.75 L133.5,773 L128.5,773 L128.5,776.75 L127.25,776.75 L127.25,773 L122.25,773 L122.25,771.75 L127.25,771.75 Z M121,778 L121,761.75 L141,761.75 L141,778 L121,778 Z M122.25,768 L122.25,776.75 L139.75,776.75 L139.75,768 L122.25,768 Z" transform="translate(-113 -752)"/>
  </g>
</svg>
