<svg xmlns="http://www.w3.org/2000/svg" width="36" height="36" viewBox="0 0 36 36">
  <g fill="none" fill-rule="evenodd">
    <path fill="#FFFFFF" d="M162.25,802 L162.308594,802 L162.25,802.058594 L162.25,802 Z M179.75,802 L179.75,802.058594 L179.691406,802 L179.75,802 Z M162.25,802.058594 L162.308594,802 C163.154952,801.166663 163.832029,800.75 164.339844,800.75 L164.75,800.75 L164.75,803.25 L164.75,804.5 L167.25,804.5 L167.25,803.25 L166,803.25 L166,800.75 L166,799.5 L167.25,799.5 L167.25,800.75 L173.5,800.75 L173.5,803.25 L173.5,804.5 L176,804.5 L176,803.25 L174.75,803.25 L174.75,800.75 L174.75,799.5 L176,799.5 L176,800.75 L177.660156,800.75 C178.180992,800.75 178.858069,801.166663 179.691406,802 L179.75,802.058594 C180.583337,802.917973 181,803.60156 181,804.109375 L181,812.46875 L181,814.890625 C181,815.229168 180.794924,815.668617 180.384766,816.208984 C179.974607,816.749352 179.502607,817.224607 178.96875,817.634766 C178.434893,818.044924 177.9987,818.25 177.660156,818.25 L176.703125,818.25 L166.703125,818.25 L164.339844,818.25 C164.0013,818.25 163.565107,818.044924 163.03125,817.634766 C162.497393,817.224607 162.025393,816.749352 161.615234,816.208984 C161.205076,815.668617 161,815.229168 161,814.890625 L161,812.46875 L161,804.109375 C161,803.60156 161.416663,802.917973 162.25,802.058594 L162.25,802.058594 Z M176.703125,817 L177.621094,817 C177.803386,817 178.203773,816.658207 178.822266,815.974609 C179.440758,815.291012 179.75,814.851563 179.75,814.65625 L179.75,812.46875 L179.75,807 L162.25,807 L162.25,812.46875 L162.25,814.832031 C162.25,815.040366 162.559242,815.453773 163.177734,816.072266 C163.796227,816.690758 164.196614,817 164.378906,817 L166.703125,817 L176.703125,817 Z M166,812 C167.875009,812.937505 169.541659,813.40625 171,813.40625 C172.458341,813.40625 174.124991,812.937505 176,812 L176.625,812 L177.25,813.25 C175.374991,814.500006 173.447927,815.125 171.46875,815.125 C169.489573,815.125 167.250012,814.500006 164.75,813.25 L165.375,812 L166,812 Z" transform="translate(-153 -792)"/>
  </g>
</svg>
