<svg xmlns="http://www.w3.org/2000/svg" width="36" height="36" viewBox="0 0 36 36">
  <g fill="none" fill-rule="evenodd">
    <path fill="#FFFFFF" d="M288.5,773 L288.5,778 L287.25,778 L287.25,773 L281,773 L281,771.75 L287.25,771.75 L287.25,768 L281,768 L281,766.75 L287.25,766.75 L287.25,761.75 L288.5,761.75 L288.5,766.75 L293.5,766.75 L293.5,761.75 L294.75,761.75 L294.75,766.75 L301,766.75 L301,768 L294.75,768 L294.75,769.25 L293.5,769.25 L293.5,768 L288.5,768 L288.5,771.75 L292.25,771.75 L292.25,773 L288.5,773 Z M292.25,778 L281,778 L281,761.75 L301,761.75 L301,769.25 L299.75,769.25 L299.75,763 L282.25,763 L282.25,776.75 L292.25,776.75 L292.25,778 Z M294.75,770.617188 L297.230469,773.097656 L299.730469,770.597656 L300.882812,771.75 L298.382812,774.25 L300.882812,776.75 L299.75,777.882812 L297.25,775.382812 L294.75,777.882812 L293.597656,776.730469 L296.097656,774.230469 L293.617188,771.75 L294.75,770.617188 Z" transform="translate(-273 -752)"/>
  </g>
</svg>
