<svg xmlns="http://www.w3.org/2000/svg" width="36" height="36" viewBox="0 0 36 36">
  <g fill="none" fill-rule="evenodd">
    <path fill="#FFFFFF" d="M17.4898438,761.87 C17.9455753,761.87 18.5445276,762.24109 19.2867188,762.983281 C20.0289101,763.725472 20.4000001,764.324425 20.4000001,764.780156 L20.4000001,776.459844 C20.4000001,776.915575 20.0289101,777.514527 19.2867188,778.256719 C18.5445276,778.99891 17.9455753,779.37 17.4898438,779.37 L8.31015635,779.37 C7.8544249,779.37 7.25547256,778.99891 6.51328135,778.256719 C5.77109013,777.514527 5.4000001,776.915575 5.4000001,776.459844 L5.4000001,774.37 L6.6500001,774.37 L6.6500001,776.245 C6.6500001,776.414272 6.92017969,776.769086 7.46054697,777.309453 C8.00091426,777.84982 8.35572842,778.12 8.5250001,778.12 L17.2750001,778.12 C17.4442718,778.12 17.7990859,777.84982 18.3394532,777.309453 C18.8798205,776.769086 19.1500001,776.414272 19.1500001,776.245 L19.1500001,764.995 C19.1500001,764.825728 18.8798205,764.470914 18.3394532,763.930547 C17.7990859,763.390179 17.4442718,763.12 17.2750001,763.12 L14.7750001,763.12 L14.7750001,761.87 L17.4898438,761.87 Z M6.6500001,764.995 L6.6500001,768.12 L5.4000001,768.12 L5.4000001,764.780156 C5.4000001,764.324425 5.77109013,763.725472 6.51328135,762.983281 C7.25547256,762.24109 7.8544249,761.87 8.31015635,761.87 L11.0250001,761.87 L11.0250001,763.12 L8.5250001,763.12 C8.35572842,763.12 8.00091426,763.390179 7.46054697,763.930547 C6.92017969,764.470914 6.6500001,764.825728 6.6500001,764.995 L6.6500001,764.995 Z M4.1500001,770.62 L6.6500001,770.62 L6.6500001,771.87 L4.1500001,771.87 L4.1500001,774.37 L0.400000095,771.245 L4.1500001,768.12 L4.1500001,770.62 Z M7.9000001,773.12 L7.9000001,769.37 L16.6500001,769.37 L16.6500001,773.12 L7.9000001,773.12 Z M10.4000001,761.87 L10.4000001,760.62 L15.4000001,760.62 L15.4000001,761.87 L10.4000001,761.87 Z M14.1695313,763.998906 L17.1578126,763.998906 L18.5250001,765.248906 L7.2750001,765.248906 L8.5250001,763.998906 L11.6500001,763.998906 C11.7020837,763.881718 11.7769527,763.741745 11.8746095,763.578984 C11.9722662,763.416223 12.1317698,763.194871 12.3531251,762.914922 C12.5744804,762.634972 12.7567702,762.495 12.9000001,762.495 C13.0171882,762.495 13.179947,762.618697 13.3882813,762.866094 C13.5966157,763.113491 13.7789056,763.367394 13.9351563,763.627812 L14.1695313,763.998906 Z" transform="translate(7 -752)"/>
  </g>
</svg>
