<svg xmlns="http://www.w3.org/2000/svg" width="36" height="36" viewBox="0 0 36 36">
  <g fill="none" fill-rule="evenodd">
    <path fill="#FFFFFF" d="M202.25,730 L206,730 L206,738.75 L202.25,738.75 L202.25,730 Z M204.75,725.058594 L204.75,727.558594 L203.5,727.558594 L203.5,725.058594 L201,725.058594 L204.125,721.25 L207.25,725.039062 L204.75,725.058594 Z M219.75,721.25 L221,721.25 L221,732.5 L208.5,732.5 L208.5,731.25 L209.75,731.25 L209.75,721.25 L211,721.25 L211,731.25 L214.75,731.25 L214.75,721.25 L216,721.25 L216,731.25 L219.75,731.25 L219.75,721.25 Z" transform="translate(-193 -712)"/>
  </g>
</svg>
