<svg xmlns="http://www.w3.org/2000/svg" width="36" height="36" viewBox="0 0 36 36">
  <g fill="none" fill-rule="evenodd">
    <path fill="#FFFFFF" d="M296,729.75 L299.75,729.75 L299.75,738.5 L296,738.5 L296,729.75 Z M281,722.25 L282.25,722.25 L282.25,732.25 L286,732.25 L286,722.25 L287.25,722.25 L287.25,732.25 L291,732.25 L291,722.25 L292.25,722.25 L292.25,732.25 L293.5,732.25 L293.5,733.5 L281,733.5 L281,722.25 Z M298.5,726.058594 L298.5,728.558594 L297.25,728.558594 L297.25,726.058594 L294.75,726.058594 L297.875,722.25 L301,726.039062 L298.5,726.058594 Z" transform="translate(-273 -712)"/>
  </g>
</svg>
