<svg xmlns="http://www.w3.org/2000/svg" width="36" height="36" viewBox="0 0 36 36">
  <g fill="none" fill-rule="evenodd">
    <path fill="#FFFFFF" d="M167.25,766.75 L167.25,763 L168.5,763 L168.5,766.75 L179.75,766.75 L179.75,768 L168.5,768 L168.5,776.75 L167.25,776.75 L167.25,768 L162.25,768 L162.25,766.75 L167.25,766.75 Z M161,778 L161,761.75 L181,761.75 L181,778 L161,778 Z M162.25,763 L162.25,776.75 L179.75,776.75 L179.75,763 L162.25,763 Z M173.5,763 L174.75,763 L174.75,766.75 L173.5,766.75 L173.5,763 Z M162.25,771.75 L167.25,771.75 L167.25,773 L162.25,773 L162.25,771.75 Z" transform="translate(-153 -752)"/>
  </g>
</svg>
