<svg xmlns="http://www.w3.org/2000/svg" width="36" height="36" viewBox="0 0 36 36">
  <g fill="none" fill-rule="evenodd">
    <path fill="#FFFFFF" d="M257.089844,760.75 C257.545575,760.75 258.144528,761.12109 258.886719,761.863281 C259.62891,762.605472 260,763.204425 260,763.660156 L260,775.339844 C260,775.795575 259.62891,776.394528 258.886719,777.136719 C258.144528,777.87891 257.545575,778.25 257.089844,778.25 L247.910156,778.25 C247.454425,778.25 246.855472,777.87891 246.113281,777.136719 C245.37109,776.394528 245,775.795575 245,775.339844 L245,773.25 L246.25,773.25 L246.25,775.125 C246.25,775.294272 246.52018,775.649086 247.060547,776.189453 C247.600914,776.72982 247.955728,777 248.125,777 L256.875,777 C257.044272,777 257.399086,776.72982 257.939453,776.189453 C258.47982,775.649086 258.75,775.294272 258.75,775.125 L258.75,763.875 C258.75,763.705728 258.47982,763.350914 257.939453,762.810547 C257.399086,762.27018 257.044272,762 256.875,762 L254.375,762 L254.375,760.75 L257.089844,760.75 Z M246.25,763.875 L246.25,767 L245,767 L245,763.660156 C245,763.204425 245.37109,762.605472 246.113281,761.863281 C246.855472,761.12109 247.454425,760.75 247.910156,760.75 L250.625,760.75 L250.625,762 L248.125,762 C247.955728,762 247.600914,762.27018 247.060547,762.810547 C246.52018,763.350914 246.25,763.705728 246.25,763.875 L246.25,763.875 Z M252.5,769.5 L252.5,767 L256.25,770.125 L252.5,773.25 L252.5,770.75 L250,770.75 L250,769.5 L252.5,769.5 Z M240,772 L240,768.25 L248.75,768.25 L248.75,772 L240,772 Z M250,760.75 L250,759.5 L255,759.5 L255,760.75 L250,760.75 Z M253.769531,762.878906 L256.757812,762.878906 L258.125,764.128906 L246.875,764.128906 L248.125,762.878906 L251.25,762.878906 C251.302084,762.761718 251.376953,762.621746 251.474609,762.458984 C251.572266,762.296223 251.73177,762.074871 251.953125,761.794922 C252.17448,761.514973 252.35677,761.375 252.5,761.375 C252.617188,761.375 252.779947,761.498697 252.988281,761.746094 C253.196616,761.993491 253.378905,762.247395 253.535156,762.507812 L253.769531,762.878906 Z" transform="translate(-233 -752)"/>
  </g>
</svg>
