<svg xmlns="http://www.w3.org/2000/svg" width="36" height="36" viewBox="0 0 36 36">
  <g fill="none" fill-rule="evenodd">
    <path fill="#FFFFFF" d="M221,778 L201,778 L201,761.75 L221,761.75 L221,778 Z M202.25,768 L202.25,771.75 L204.75,771.75 L204.75,773 L202.25,773 L202.25,776.75 L207.25,776.75 L207.25,774.25 L208.5,774.25 L208.5,776.75 L213.5,776.75 L213.5,774.25 L214.75,774.25 L214.75,776.75 L219.75,776.75 L219.75,773 L217.25,773 L217.25,771.75 L219.75,771.75 L219.75,768 L217.25,768 L217.25,766.75 L219.75,766.75 L219.75,763 L214.75,763 L214.75,765.5 L213.5,765.5 L213.5,763 L208.5,763 L208.5,765.5 L207.25,765.5 L207.25,763 L202.25,763 L202.25,766.75 L204.75,766.75 L204.75,768 L202.25,768 Z M212.25,773 L216,773 L216,771.75 L211,766.75 L206,766.75 L212.25,773 Z M204.75,774.25 L204.75,765.5 L217.25,765.5 L217.25,774.25 L204.75,774.25 Z M206,766.75 L206,773 L216,773 L216,766.75 L206,766.75 Z" transform="translate(-193 -752)"/>
  </g>
</svg>
