<svg xmlns="http://www.w3.org/2000/svg" width="36" height="36" viewBox="0 0 36 36">
  <g fill="none" fill-rule="evenodd">
    <path fill="#FFFFFF" d="M10.4000001,818.37 L10.4000001,814.62 L19.1500001,814.62 L19.1500001,818.37 L10.4000001,818.37 Z M5.45859385,815.87 L7.95859385,815.87 L7.95859385,817.12 L5.45859385,817.12 L5.45859385,819.62 L1.6500001,816.495 L5.4390626,813.37 L5.45859385,815.87 Z M2.9000001,800.87 L2.9000001,799.62 L14.1500001,799.62 L14.1500001,812.12 L12.9000001,812.12 L12.9000001,810.87 L2.9000001,810.87 L2.9000001,809.62 L12.9000001,809.62 L12.9000001,805.87 L2.9000001,805.87 L2.9000001,804.62 L12.9000001,804.62 L12.9000001,800.87 L2.9000001,800.87 Z" transform="translate(7 -792)"/>
  </g>
</svg>
