<svg xmlns="http://www.w3.org/2000/svg" width="36" height="36" viewBox="0 0 36 36">
  <g fill="none" fill-rule="evenodd">
    <path fill="#FFFFFF" d="M249.25,731 L249.25,722.25 L253,722.25 L253,731 L251.75,731 L251.75,732.25 L250.5,732.25 L250.5,731 L249.25,731 Z M243,728.5 L243,722.25 L244.25,722.25 L244.25,727.25 L248,727.25 L248,728.5 L243,728.5 Z M258,722.25 L259.25,722.25 L259.25,728.5 L254.25,728.5 L254.25,727.25 L258,727.25 L258,722.25 Z M248.996094,732.25 L251.085938,734.378906 L253.253906,732.25 L254.25,733.207031 L252.121094,735.433594 L254.25,737.503906 L253.253906,738.5 L251.085938,736.371094 L248.996094,738.5 L248,737.503906 L250.128906,735.433594 L248,733.207031 L248.996094,732.25 Z" transform="translate(-233 -712)"/>
  </g>
</svg>
