<svg xmlns="http://www.w3.org/2000/svg" width="36" height="36" viewBox="0 0 36 36">
  <g fill="none" fill-rule="evenodd">
    <path fill="#FFFFFF" d="M127.25,806.75 L127.25,803 L128.5,803 L128.5,806.75 L139.75,806.75 L139.75,808 L128.5,808 L128.5,816.75 L127.25,816.75 L127.25,808 L122.25,808 L122.25,806.75 L127.25,806.75 Z M121,818 L121,801.75 L141,801.75 L141,818 L121,818 Z M122.25,803 L122.25,816.75 L139.75,816.75 L139.75,803 L122.25,803 Z M133.5,803 L134.75,803 L134.75,806.75 L133.5,806.75 L133.5,803 Z M122.25,811.75 L127.25,811.75 L127.25,813 L122.25,813 L122.25,811.75 Z M133.5,810.5 L133.5,809.25 L134.75,809.25 L134.75,810.5 L133.5,810.5 Z M133.5,813 L133.5,811.75 L134.75,811.75 L134.75,813 L133.5,813 Z M133.5,815.5 L133.5,814.25 L134.75,814.25 L134.75,815.5 L133.5,815.5 Z M131,813 L131,811.75 L132.25,811.75 L132.25,813 L131,813 Z M128.5,813 L128.5,811.75 L129.75,811.75 L129.75,813 L128.5,813 Z M136,813 L136,811.75 L137.25,811.75 L137.25,813 L136,813 Z M138.5,813 L138.5,811.75 L139.75,811.75 L139.75,813 L138.5,813 Z" transform="translate(-113 -792)"/>
  </g>
</svg>
