<svg xmlns="http://www.w3.org/2000/svg" width="36" height="36" viewBox="0 0 36 36">
  <g fill="none" fill-rule="evenodd">
    <path fill="#FFFFFF" d="M91,804 L91,800.25 L99.75,800.25 L99.75,804 L91,804 Z M83.5,819 L83.5,817.75 L93.5,817.75 L93.5,814 L83.5,814 L83.5,812.75 L93.5,812.75 L93.5,809 L83.5,809 L83.5,807.75 L93.5,807.75 L93.5,806.5 L94.75,806.5 L94.75,819 L83.5,819 Z M87.3085938,801.5 L89.8085938,801.5 L89.8085938,802.75 L87.3085938,802.75 L87.3085938,805.25 L83.5,802.125 L87.2890625,799 L87.3085938,801.5 Z" transform="translate(-73 -792)"/>
  </g>
</svg>
