<svg xmlns="http://www.w3.org/2000/svg" width="36" height="36" viewBox="0 0 36 36">
  <g fill="none" fill-rule="evenodd">
    <path fill="#FFFFFF" d="M181,738 L161,738 L161,721.75 L181,721.75 L181,738 Z M162.25,728 L162.25,731.75 L164.75,731.75 L164.75,733 L162.25,733 L162.25,736.75 L167.25,736.75 L167.25,734.25 L168.5,734.25 L168.5,736.75 L173.5,736.75 L173.5,734.25 L174.75,734.25 L174.75,736.75 L179.75,736.75 L179.75,733 L177.25,733 L177.25,731.75 L179.75,731.75 L179.75,728 L177.25,728 L177.25,726.75 L179.75,726.75 L179.75,723 L174.75,723 L174.75,725.5 L173.5,725.5 L173.5,723 L168.5,723 L168.5,725.5 L167.25,725.5 L167.25,723 L162.25,723 L162.25,726.75 L164.75,726.75 L164.75,728 L162.25,728 Z M164.75,734.25 L164.75,725.5 L177.25,725.5 L177.25,734.25 L164.75,734.25 Z M166,726.75 L166,733 L176,733 L176,726.75 L166,726.75 Z" transform="translate(-153 -712)"/>
  </g>
</svg>
