<svg xmlns="http://www.w3.org/2000/svg" width="36" height="36" viewBox="0 0 36 36">
  <g fill="none" fill-rule="evenodd">
    <path fill="#FFFFFF" d="M52.25,811.25 L43.5,811.25 L43.5,807.5 L52.25,807.5 L52.25,808.75 L53.5,808.75 L53.5,810 L52.25,810 L52.25,811.25 Z M49.75,817.5 L43.5,817.5 L43.5,816.25 L48.5,816.25 L48.5,812.5 L49.75,812.5 L49.75,817.5 Z M43.5,802.5 L43.5,801.25 L49.75,801.25 L49.75,806.25 L48.5,806.25 L48.5,802.5 L43.5,802.5 Z M53.5,811.503906 L55.6289062,809.414062 L53.5,807.246094 L54.4570312,806.25 L56.6835938,808.378906 L58.7539062,806.25 L59.75,807.246094 L57.6210938,809.414062 L59.75,811.503906 L58.7539062,812.5 L56.6835938,810.371094 L54.4570312,812.5 L53.5,811.503906 Z" transform="translate(-33 -792)"/>
  </g>
</svg>
