<svg xmlns="http://www.w3.org/2000/svg" width="36" height="36" viewBox="0 0 36 36">
  <g fill="none" fill-rule="evenodd">
    <path fill="#FFFFFF" d="M57.25,776 C57.25,776.494794 57.360676,776.924477 57.5820312,777.289062 C57.8033865,777.653648 58.109373,777.848958 58.5,777.875 C58.630209,777.875 58.7441401,777.865234 58.8417969,777.845703 C58.9394536,777.826172 59.0696606,777.783854 59.2324219,777.71875 C59.3951831,777.653646 59.522135,777.526694 59.6132812,777.337891 C59.7044275,777.149088 59.75,776.91146 59.75,776.625 C59.75,776.48177 59.6881517,776.29948 59.5644531,776.078125 C59.4407546,775.85677 59.2356785,775.58659 58.9492188,775.267578 C58.662759,774.948566 58.4121104,774.678387 58.1972656,774.457031 C57.9824208,774.235676 57.6666687,773.916669 57.25,773.5 L57.25,776 Z M56.0390625,775.375 L56.0390625,772.25 L57.25,772.25 C58.148442,773.109379 58.9980429,773.985022 59.7988281,774.876953 C60.5996134,775.768885 61,776.351561 61,776.625 C61,777.588546 60.7070342,778.320961 60.1210938,778.822266 C59.5351533,779.32357 58.7864629,779.424481 57.875,779.125 C57.6927074,779.059896 57.5234383,778.991537 57.3671875,778.919922 C57.2109367,778.848307 57.0742193,778.763672 56.9570312,778.666016 C56.8398432,778.568359 56.7356775,778.480469 56.6445312,778.402344 C56.553385,778.324218 56.4752607,778.210287 56.4101562,778.060547 C56.3450518,777.910807 56.2897138,777.796875 56.2441406,777.71875 C56.1985675,777.640625 56.1627605,777.503907 56.1367188,777.308594 C56.110677,777.11328 56.0911459,776.976563 56.078125,776.898438 C56.0651041,776.820312 56.0553386,776.660808 56.0488281,776.419922 C56.0423177,776.179035 56.0390625,776.016276 56.0390625,775.931641 L56.0390625,775.375 L56.0390625,775.375 Z M53.5,776 L53.5,773.5 C53.0833313,773.916669 52.7675792,774.235676 52.5527344,774.457031 C52.3378896,774.678387 52.087241,774.948566 51.8007812,775.267578 C51.5143215,775.58659 51.3092454,775.85677 51.1855469,776.078125 C51.0618483,776.29948 51,776.48177 51,776.625 C51,776.91146 51.0455725,777.149088 51.1367188,777.337891 C51.227865,777.526694 51.3548169,777.653646 51.5175781,777.71875 C51.6803394,777.783854 51.8105464,777.826172 51.9082031,777.845703 C52.0058599,777.865234 52.119791,777.875 52.25,777.875 C52.640627,777.848958 52.9466135,777.653648 53.1679688,777.289062 C53.389324,776.924477 53.5,776.494794 53.5,776 L53.5,776 Z M54.75,775.375 C54.75,775.856773 54.7467448,776.211587 54.7402344,776.439453 C54.7337239,776.667319 54.697917,776.953774 54.6328125,777.298828 C54.567708,777.643882 54.4733079,777.907551 54.3496094,778.089844 C54.2259108,778.272136 54.0403658,778.460937 53.7929688,778.65625 C53.5455717,778.851563 53.2395852,779.007812 52.875,779.125 C51.9635371,779.424481 51.221357,779.32357 50.6484375,778.822266 C50.075518,778.320961 49.7890625,777.588546 49.7890625,776.625 C49.7890625,776.351561 50.1894491,775.768885 50.9902344,774.876953 C51.7910196,773.985022 52.6406205,773.109379 53.5390625,772.25 L54.75,772.25 L54.75,775.375 Z M52.2890625,763.5 L52.2890625,762.25 L53.5,762.875 L55.375,768.96875 L57.25,762.875 L58.421875,762.25 L58.421875,763.5 L56,771 L57.25,771 L57.25,772.25 L56,772.25 L56,773.5 L54.75,773.5 L54.75,772.25 L53.5,772.25 L53.5,771 L54.75,771 L52.2890625,763.5 Z M42.25,772.25 L42.25,768.5 L51,768.5 L52.25,772.25 L42.25,772.25 Z M43.5,767.25 L42.25,767.25 L42.25,762.25 L51,762.25 L51,763.5 L43.5,763.5 L43.5,767.25 Z M48.5,777.25 L48.5,778.5 L42.25,778.5 L42.25,773.5 L43.5,773.5 L43.5,777.25 L48.5,777.25 Z" transform="translate(-33 -752)"/>
  </g>
</svg>
