<svg xmlns="http://www.w3.org/2000/svg" width="36" height="36" viewBox="0 0 36 36">
  <g fill="none" fill-rule="evenodd">
    <path fill="#FFFFFF" d="M94.75,771.75 L99.75,771.75 L99.75,773 L94.75,773 L94.75,776.75 L93.5,776.75 L93.5,773 L88.5,773 L88.5,771.75 L93.5,771.75 L93.5,768 L88.5,768 L88.5,766.75 L93.5,766.75 L93.5,763 L94.75,763 L94.75,766.75 L99.75,766.75 L99.75,768 L94.75,768 L94.75,771.75 Z M81,778 L81,761.75 L101,761.75 L101,778 L81,778 Z M88.5,763 L88.5,776.75 L99.75,776.75 L99.75,763 L88.5,763 Z" transform="translate(-73 -752)"/>
  </g>
</svg>
