<svg xmlns="http://www.w3.org/2000/svg" width="36" height="36" viewBox="0 0 36 36">
  <g fill="none" fill-rule="evenodd">
    <path fill="#FFFFFF" d="M214.876953,819.208984 C213.646478,819.736331 212.354173,820 211,820 C209.645827,820 208.350267,819.733076 207.113281,819.199219 C205.876296,818.665362 204.811853,817.952478 203.919922,817.060547 C203.02799,816.168615 202.318362,815.107428 201.791016,813.876953 C201.263669,812.646478 201,811.354173 201,810 C201,808.645827 201.266924,807.350267 201.800781,806.113281 C202.334638,804.876296 203.047522,803.811853 203.939453,802.919922 C204.831385,802.02799 205.892572,801.318362 207.123047,800.791016 C208.353522,800.263669 209.645827,800 211,800 C212.354173,800 213.649733,800.266924 214.886719,800.800781 C216.123704,801.334638 217.188147,802.047522 218.080078,802.939453 C218.97201,803.831385 219.681638,804.892572 220.208984,806.123047 C220.736331,807.353522 221,808.645827 221,810 C221,811.354173 220.733076,812.649733 220.199219,813.886719 C219.665362,815.123704 218.952478,816.188147 218.060547,817.080078 C217.168615,817.97201 216.107428,818.681638 214.876953,819.208984 L214.876953,819.208984 Z M214.134766,802.568359 C213.138667,802.14518 212.093755,801.933594 211,801.933594 C209.906245,801.933594 208.861333,802.14518 207.865234,802.568359 C206.869136,802.991539 206.009769,803.56445 205.287109,804.287109 C204.56445,805.009769 203.991539,805.869136 203.568359,806.865234 C203.14518,807.861333 202.933594,808.906245 202.933594,810 C202.933594,811.093755 203.14518,812.138667 203.568359,813.134766 C203.991539,814.130864 204.56445,814.990231 205.287109,815.712891 C206.009769,816.43555 206.869136,817.008461 207.865234,817.431641 C208.861333,817.85482 209.906245,818.066406 211,818.066406 C212.093755,818.066406 213.138667,817.85482 214.134766,817.431641 C215.130864,817.008461 215.990231,816.43555 216.712891,815.712891 C217.43555,814.990231 218.008461,814.130864 218.431641,813.134766 C218.85482,812.138667 219.066406,811.093755 219.066406,810 C219.066406,808.906245 218.85482,807.861333 218.431641,806.865234 C218.008461,805.869136 217.43555,805.009769 216.712891,804.287109 C215.990231,803.56445 215.130864,802.991539 214.134766,802.568359 L214.134766,802.568359 Z M212.25,810 L216,810 L216,812.5 L209.75,812.5 L209.75,805 L212.25,805 L212.25,810 Z" transform="translate(-193 -792)"/>
  </g>
</svg>
