<svg xmlns="http://www.w3.org/2000/svg" width="36" height="36" viewBox="0 0 36 36">
  <g fill="none" fill-rule="evenodd">
    <path fill="#FFFFFF" d="M251.074219,803.410156 C249.824212,803.410156 248.639329,803.865881 247.519531,804.777344 C246.399734,805.688807 245.644533,806.782546 245.253906,808.058594 L248.730469,809.269531 L241.269531,810.421875 L242.5,801.75 L243.730469,806.769531 L244.453125,805.1875 L244.609375,805.324219 C245.312504,804.230463 246.233718,803.361331 247.373047,802.716797 C248.512375,802.072262 249.746087,801.75 251.074219,801.75 C252.467455,801.75 253.753249,802.098304 254.931641,802.794922 C256.110032,803.49154 257.041012,804.435541 257.724609,805.626953 C258.408207,806.818365 258.75,808.11718 258.75,809.523438 C258.75,810.942715 258.427738,812.244786 257.783203,813.429688 C257.138669,814.614589 256.24675,815.555335 255.107422,816.251953 C253.968093,816.948571 252.70834,817.296875 251.328125,817.296875 L251.328125,815.636719 C252.304692,815.636719 253.242183,815.343753 254.140625,814.757812 C255.039067,814.171872 255.758461,813.406906 256.298828,812.462891 C256.839195,811.518875 257.109375,810.539068 257.109375,809.523438 C257.109375,808.520828 256.819664,807.544276 256.240234,806.59375 C255.660804,805.643224 254.902348,804.875003 253.964844,804.289062 C253.027339,803.703122 252.063807,803.410156 251.074219,803.410156 L251.074219,803.410156 Z" transform="translate(-233 -792)"/>
  </g>
</svg>
