<svg xmlns="http://www.w3.org/2000/svg" width="36" height="36" viewBox="0 0 36 36">
  <g fill="none" fill-rule="evenodd">
    <path fill="#FFFFFF" d="M15.9414062,841.375 C15.3164031,841.375 14.8151061,841.586586 14.4375,842.009766 C14.0598939,842.432945 13.8710938,842.957028 13.8710938,843.582031 L13.8710938,848.25 C14.4700551,848.25 14.987628,848.295572 15.4238281,848.386719 C15.8600282,848.477865 16.1920562,848.582031 16.4199219,848.699219 C16.6477876,848.816407 16.8268223,848.966145 16.9570312,849.148438 C17.0872402,849.33073 17.1686196,849.493489 17.2011719,849.636719 C17.2337241,849.779949 17.25,849.949218 17.25,850.144531 L17.25,855.75 C17.25,856.088543 17.1263033,856.381509 16.8789062,856.628906 C16.6315092,856.876303 16.3385434,857 16,857 L6,857 C5.64843574,857 5.35221475,856.879558 5.11132812,856.638672 C4.8704415,856.397785 4.75,856.108075 4.75,855.769531 L4.75,850.242188 C4.75,849.591143 4.98437266,849.096356 5.453125,848.757812 C5.92187734,848.419269 6.52082969,848.25 7.25,848.25 L11.78125,848.25 L11.78125,843.582031 C11.78125,842.345046 12.1653607,841.355472 12.9335938,840.613281 C13.7018268,839.87109 14.7044209,839.5 15.9414062,839.5 C17.2174543,839.5 18.2330691,839.848304 18.9882812,840.544922 C19.7434934,841.24154 20.1210938,842.208327 20.1210938,843.445312 L20.1210938,847 L18.1875,847 L18.1875,843.445312 C18.1875,842.83333 17.9726584,842.335288 17.5429688,841.951172 C17.1132791,841.567055 16.5794303,841.375 15.9414062,841.375 L15.9414062,841.375 Z" transform="translate(7 -832)"/>
  </g>
</svg>
