<svg xmlns="http://www.w3.org/2000/svg" width="36" height="36" viewBox="0 0 36 36">
  <g fill="none" fill-rule="evenodd">
    <path fill="#FFFFFF" d="M52.6992188,846.777344 L51,843.027344 L49.3007812,846.777344 C49.1054678,847.207033 48.7799502,847.447916 48.3242188,847.5 L43.9492188,848.046875 L47.2304688,850.898438 C47.6080748,851.22396 47.7447922,851.627602 47.640625,852.109375 L46.703125,856.152344 L50.3554688,853.925781 C50.5507822,853.808593 50.7656238,853.75 51,853.75 C51.2343762,853.75 51.4492178,853.808593 51.6445312,853.925781 L55.296875,856.152344 L54.359375,852.109375 C54.2552078,851.627602 54.3919252,851.22396 54.7695312,850.898438 L58.0507812,848.046875 L53.6757812,847.5 C53.2200498,847.447916 52.8945322,847.207033 52.6992188,846.777344 L52.6992188,846.777344 Z M51,840 L53.8320312,846.269531 L61,847.167969 L55.5898438,851.835938 L57.171875,858.75 L51,855 L44.828125,858.75 L46.4101562,851.835938 L41,847.167969 L48.1679688,846.269531 L51,840 Z" transform="translate(-33 -832)"/>
  </g>
</svg>
