<svg xmlns="http://www.w3.org/2000/svg" width="36" height="36" viewBox="0 0 36 36">
  <g fill="none" fill-rule="evenodd">
    <path fill="#FFFFFF" d="M91,845 C89.7630146,845 88.5000064,845.429683 87.2109375,846.289062 C86.7942688,846.562501 86.3222683,846.917316 85.7949219,847.353516 C85.2675755,847.789716 84.8216164,848.173826 84.4570312,848.505859 C84.0924461,848.837892 83.5585973,849.329424 82.8554688,849.980469 C82.8554688,849.980469 82.8522136,849.983724 82.8457031,849.990234 C82.8391927,849.996745 82.8294271,850.00651 82.8164062,850.019531 C83.5195348,850.683597 84.0598939,851.188149 84.4375,851.533203 C84.8151061,851.878257 85.2545548,852.262368 85.7558594,852.685547 C86.257164,853.108726 86.7096334,853.45703 87.1132812,853.730469 C87.7643262,854.160158 88.3958303,854.479166 89.0078125,854.6875 C89.6328156,854.895834 90.2968715,855 91,855 C92.406257,855 93.8190033,854.505213 95.2382812,853.515625 C96.1757859,852.86458 97.5038977,851.692717 99.2226562,850 C97.5950439,848.385409 96.2539115,847.220056 95.1992188,846.503906 C94.4570275,845.996091 93.7473992,845.618491 93.0703125,845.371094 C92.3802049,845.123697 91.6901076,845 91,845 L91,845 Z M91,843.75 C91.6770867,843.75 92.3541633,843.854166 93.03125,844.0625 C93.7083367,844.270834 94.3398408,844.534504 94.9257812,844.853516 C95.5117217,845.172528 96.166012,845.621742 96.8886719,846.201172 C97.6113317,846.780602 98.2656221,847.347002 98.8515625,847.900391 C99.4375029,848.453779 100.153642,849.153642 101,850 C100.440101,850.559899 100.029949,850.966796 99.7695312,851.220703 C99.5091133,851.474611 99.1347681,851.83268 98.6464844,852.294922 C98.1582007,852.757164 97.7871106,853.095702 97.5332031,853.310547 C97.2792956,853.525392 96.9375021,853.802082 96.5078125,854.140625 C96.0781229,854.479168 95.7200535,854.729817 95.4335938,854.892578 C95.147134,855.055339 94.8053405,855.240884 94.4082031,855.449219 C94.0110657,855.657553 93.6432309,855.807291 93.3046875,855.898438 C92.9661441,855.989584 92.5983093,856.070963 92.2011719,856.142578 C91.8040345,856.214193 91.4036479,856.25 91,856.25 C90.5182268,856.25 90.0429711,856.201172 89.5742188,856.103516 C89.1054664,856.005859 88.6822936,855.895183 88.3046875,855.771484 C87.9270814,855.647786 87.5006534,855.436199 87.0253906,855.136719 C86.5501278,854.837238 86.1529964,854.576824 85.8339844,854.355469 C85.5149724,854.134113 85.0885443,853.789065 84.5546875,853.320312 C84.0208307,852.85156 83.5976578,852.470705 83.2851562,852.177734 C82.9726547,851.884764 82.497399,851.432295 81.859375,850.820312 C81.4817689,850.455727 81.1953135,850.182293 81,850 C81.2213553,849.791666 81.5924453,849.446617 82.1132812,848.964844 C82.6341172,848.483071 82.9954417,848.147787 83.1972656,847.958984 C83.3990896,847.770181 83.7246071,847.477216 84.1738281,847.080078 C84.6230491,846.682941 84.9550771,846.402996 85.1699219,846.240234 C85.3847667,846.077473 85.6907532,845.846356 86.0878906,845.546875 C86.485028,845.247394 86.8072904,845.032553 87.0546875,844.902344 C87.3020846,844.772135 87.6080711,844.615886 87.9726562,844.433594 C88.3372414,844.251301 88.6660142,844.121094 88.9589844,844.042969 C89.2519546,843.964843 89.5774722,843.896485 89.9355469,843.837891 C90.2936216,843.779297 90.6484357,843.75 91,843.75 L91,843.75 Z M92.7675781,848.232422 C92.2792944,847.744138 91.6901076,847.5 91,847.5 C90.3098924,847.5 89.7207056,847.744138 89.2324219,848.232422 C88.7441382,848.720706 88.5,849.309892 88.5,850 C88.5,850.690108 88.7441382,851.279294 89.2324219,851.767578 C89.7207056,852.255862 90.3098924,852.5 91,852.5 C91.6901076,852.5 92.2792944,852.255862 92.7675781,851.767578 C93.2558618,851.279294 93.5,850.690108 93.5,850 C93.5,849.309892 93.2558618,848.720706 92.7675781,848.232422 L92.7675781,848.232422 Z M91,846.25 C92.0416719,846.25 92.9270797,846.617835 93.65625,847.353516 C94.3854203,848.089196 94.75,848.974604 94.75,850.009766 C94.75,851.044927 94.3854203,851.92708 93.65625,852.65625 C92.9270797,853.38542 92.0416719,853.75 91,853.75 C89.9583281,853.75 89.0729203,853.38542 88.34375,852.65625 C87.6145797,851.92708 87.25,851.044927 87.25,850.009766 C87.25,848.974604 87.6145797,848.089196 88.34375,847.353516 C89.0729203,846.617835 89.9583281,846.25 91,846.25 L91,846.25 Z" transform="translate(-73 -832)"/>
  </g>
</svg>
