<svg xmlns="http://www.w3.org/2000/svg" width="36" height="36" viewBox="0 0 36 36">
  <g fill="none" fill-rule="evenodd">
    <path fill="#FFFFFF" d="M251,1084.00391 L252.992188,1084.00391 L251,1081.99219 L251,1084.00391 Z M256.996094,1084.00391 C257.829431,1084.00391 258.53906,1084.29687 259.125,1084.88281 C259.71094,1085.46875 260.003906,1086.17187 260.003906,1086.99219 L260.003906,1096.99219 C260.003906,1097.82552 259.71094,1098.53515 259.125,1099.12109 C258.53906,1099.70703 257.829431,1100 256.996094,1100 L250.003906,1100 C249.170569,1100 248.46094,1099.70703 247.875,1099.12109 C247.28906,1098.53515 246.996094,1097.82552 246.996094,1096.99219 L246.996094,1093.00781 L245.003906,1093.00781 L245.003906,1091.99219 L246.996094,1091.99219 L246.996094,1090.99609 L245.003906,1090.99609 L245.003906,1090 L246.996094,1090 L246.996094,1089.00391 L245.003906,1089.00391 L245.003906,1088.00781 L246.996094,1088.00781 L246.996094,1086.99219 C246.996094,1086.17187 247.28906,1085.46875 247.875,1084.88281 C248.46094,1084.29687 249.170569,1084.00391 250.003906,1084.00391 L250.003906,1080.99609 L245.003906,1080.99609 C244.444008,1080.99609 243.968752,1081.1914 243.578125,1081.58203 C243.187498,1081.97266 242.992188,1082.44791 242.992188,1083.00781 L242.992188,1093.00781 C242.992188,1093.55469 243.187498,1094.02344 243.578125,1094.41406 C243.968752,1094.80469 244.444008,1095 245.003906,1095 L246.996094,1095 L246.996094,1095.99609 L245.003906,1095.99609 C244.170569,1095.99609 243.46094,1095.70313 242.875,1095.11719 C242.28906,1094.53125 241.996094,1093.82813 241.996094,1093.00781 L241.996094,1083.00781 C241.996094,1082.17448 242.28906,1081.46485 242.875,1080.87891 C243.46094,1080.29297 244.170569,1080 245.003906,1080 L250.492188,1080 L254.496094,1084.00391 L256.996094,1084.00391 Z M259.007812,1086.99219 C259.007812,1086.44531 258.812502,1085.97656 258.421875,1085.58594 C258.031248,1085.19531 257.555992,1085 256.996094,1085 L250.003906,1085 C249.444008,1085 248.968752,1085.19531 248.578125,1085.58594 C248.187498,1085.97656 247.992188,1086.44531 247.992188,1086.99219 L247.992188,1096.99219 C247.992188,1097.55209 248.187498,1098.02734 248.578125,1098.41797 C248.968752,1098.8086 249.444008,1099.00391 250.003906,1099.00391 L256.996094,1099.00391 C257.555992,1099.00391 258.031248,1098.8086 258.421875,1098.41797 C258.812502,1098.02734 259.007812,1097.55209 259.007812,1096.99219 L259.007812,1086.99219 Z M255.003906,1093.00781 L255.003906,1090.99609 L251.996094,1093.49609 C251.996094,1093.49609 251.83008,1093.62305 251.498047,1093.87695 C251.166014,1094.13086 250.837241,1094.38151 250.511719,1094.62891 L250.003906,1095 L251.507812,1093.00781 L253.988281,1090.01953 L251.996094,1090 L251.996094,1089.00391 L256,1089.00391 L256,1093.00781 L255.003906,1093.00781 Z" transform="translate(-233 -1072)"/>
  </g>
</svg>
