<svg xmlns="http://www.w3.org/2000/svg" width="36" height="36" viewBox="0 0 36 36">
  <g fill="none" fill-rule="evenodd">
    <path fill="#FFFFFF" d="M61.444922,1217.45398 C61.444922,1217.94227 61.2740252,1218.3573 60.9322267,1218.6991 C60.5904281,1219.0409 60.1753932,1219.2118 59.6871095,1219.2118 L44.0718751,1219.2118 C43.5835914,1219.2118 43.1685565,1219.0409 42.8267579,1218.6991 C42.4849593,1218.3573 42.3140626,1217.94227 42.3140626,1217.45398 L42.3140626,1201.83875 C42.3140626,1201.35047 42.4849593,1200.93543 42.8267579,1200.59363 C43.1685565,1200.25183 43.5835914,1200.08094 44.0718751,1200.08094 L59.6871095,1200.08094 C60.1753932,1200.08094 60.5904281,1200.25183 60.9322267,1200.59363 C61.2740252,1200.93543 61.444922,1201.35047 61.444922,1201.83875 L61.444922,1217.45398 Z M59.5308595,1215.89148 L59.5308595,1203.40125 C59.5308595,1203.01062 59.3941421,1202.6786 59.1207032,1202.40516 C58.8472644,1202.13172 58.5152364,1201.995 58.1246095,1201.995 L45.6246095,1201.995 C45.2339825,1201.995 44.9019546,1202.13172 44.6285157,1202.40516 C44.3550769,1202.6786 44.2183595,1203.01062 44.2183595,1203.40125 L44.2183595,1215.89148 C44.2183595,1216.28211 44.3550769,1216.61414 44.6285157,1216.88758 C44.9019546,1217.16102 45.2339825,1217.29773 45.6246095,1217.29773 L58.1246095,1217.29773 C58.5152364,1217.29773 58.8472644,1217.16102 59.1207032,1216.88758 C59.3941421,1216.61414 59.5308595,1216.28211 59.5308595,1215.89148 L59.5308595,1215.89148 Z M56.0250001,1206.47742 C56.0250001,1207.19357 55.8166688,1207.75672 55.4000001,1208.16687 C55.2958329,1208.26453 54.8694049,1208.50867 54.1207032,1208.8993 C53.5933568,1209.17925 53.300391,1209.53081 53.241797,1209.95398 C53.2548179,1209.86284 53.2613282,1210.39343 53.2613282,1211.54578 L50.4878907,1211.54578 L50.4878907,1210.27625 C50.4878907,1209.57963 50.7287737,1208.99696 51.210547,1208.5282 C51.2561201,1208.48263 51.6955688,1208.16037 52.5289063,1207.56141 C53.01719,1207.22286 53.2613282,1206.86154 53.2613282,1206.47742 C53.2613282,1206.13888 53.1246108,1205.84428 52.851172,1205.59363 C52.5777331,1205.34298 52.2522155,1205.21766 51.8746095,1205.21766 L50.4878907,1205.21766 C49.6415323,1205.21766 49.1825525,1205.63757 49.1109376,1206.47742 L47.7242188,1206.47742 C47.9390637,1204.79122 48.8602784,1203.94812 50.4878907,1203.94812 L53.2613282,1203.94812 C54.0295612,1203.94812 54.682224,1204.19389 55.219336,1204.68543 C55.7564481,1205.17697 56.0250001,1205.77429 56.0250001,1206.47742 L56.0250001,1206.47742 Z M50.4878907,1215.33484 L50.4878907,1212.80555 L53.2613282,1212.80555 L53.2613282,1215.33484 L50.4878907,1215.33484 Z" transform="translate(-33 -1192)"/>
  </g>
</svg>
