<svg xmlns="http://www.w3.org/2000/svg" width="36" height="36" viewBox="0 0 36 36">
  <g fill="none" fill-rule="evenodd">
    <path fill="#FFFFFF" d="M173.480469,848.648438 C174.144535,849.338545 174.727211,850.08398 175.228516,850.884766 C175.72982,851.685551 176.104165,852.388669 176.351562,852.994141 C176.59896,853.599612 176.797525,854.19531 176.947266,854.78125 C177.097006,855.36719 177.184896,855.780598 177.210938,856.021484 C177.236979,856.262371 177.25,856.421875 177.25,856.5 C177.25,856.773439 177.223959,857.020832 177.171875,857.242188 C177.119791,857.463543 177.061198,857.658853 176.996094,857.828125 C176.930989,857.997397 176.826824,858.14388 176.683594,858.267578 C176.540364,858.391277 176.413412,858.495442 176.302734,858.580078 C176.192057,858.664714 176.032553,858.733073 175.824219,858.785156 C175.615884,858.83724 175.44336,858.879557 175.306641,858.912109 C175.169921,858.944662 174.971355,858.967448 174.710938,858.980469 C174.45052,858.99349 174.251954,859 174.115234,859 L173.480469,859 L168.5,859 C168.005206,859 167.62435,858.99349 167.357422,858.980469 C167.090493,858.967448 166.764976,858.915365 166.380859,858.824219 C165.996743,858.733072 165.703777,858.606121 165.501953,858.443359 C165.300129,858.280598 165.12435,858.033205 164.974609,857.701172 C164.824869,857.369139 164.75,856.968752 164.75,856.5 C164.75,856.369791 164.75651,856.197267 164.769531,855.982422 C164.782552,855.767577 164.857421,855.347659 164.994141,854.722656 C165.13086,854.097653 165.31966,853.482425 165.560547,852.876953 C165.801433,852.271481 166.175779,851.565108 166.683594,850.757812 C167.191409,849.950517 167.796871,849.208337 168.5,848.53125 C168.851564,848.205728 169.193358,847.964845 169.525391,847.808594 C169.857424,847.652343 170.114582,847.561198 170.296875,847.535156 C170.479168,847.509114 170.71354,847.496094 171,847.496094 C171.924484,847.496094 172.751298,847.880204 173.480469,848.648438 L173.480469,848.648438 Z M168.353516,840.123047 C169.089196,839.374345 169.971349,839 171,839 C172.028651,839 172.910804,839.374345 173.646484,840.123047 C174.382165,840.871749 174.75,841.760412 174.75,842.789062 C174.75,843.817713 174.38542,844.693356 173.65625,845.416016 C172.92708,846.138675 172.041672,846.5 171,846.5 C169.958328,846.5 169.07292,846.138675 168.34375,845.416016 C167.61458,844.693356 167.25,843.817713 167.25,842.789062 C167.25,841.760412 167.617835,840.871749 168.353516,840.123047 L168.353516,840.123047 Z" transform="translate(-153 -832)"/>
  </g>
</svg>
