<svg xmlns="http://www.w3.org/2000/svg" width="36" height="36" viewBox="0 0 36 36">
  <g fill="none" fill-rule="evenodd">
    <path fill="#FFFFFF" d="M213.25,856.949219 C213.25,857.613285 213.074221,858.179685 212.722656,858.648438 C212.670573,858.713542 212.488283,858.785156 212.175781,858.863281 C211.86328,858.941407 211.648438,858.980469 211.53125,858.980469 L203.660156,859 C203.542968,859 203.337892,858.957683 203.044922,858.873047 C202.751952,858.788411 202.579427,858.713542 202.527344,858.648438 C202.03255,857.984372 201.876301,857.411461 202.058594,856.929688 C202.071615,856.864583 202.117187,856.721355 202.195312,856.5 C202.273438,856.278645 202.429686,855.930341 202.664062,855.455078 C202.898439,854.979815 203.168618,854.507815 203.474609,854.039062 C203.7806,853.57031 204.187497,853.065758 204.695312,852.525391 C205.203128,851.985023 205.743487,851.526044 206.316406,851.148438 C206.485678,851.213542 206.694009,851.353515 206.941406,851.568359 C207.188803,851.783204 207.410155,851.890625 207.605469,851.890625 C207.787761,851.890625 208.002603,851.786459 208.25,851.578125 C208.497397,851.369791 208.699218,851.226563 208.855469,851.148438 C209.441409,851.526044 209.991534,851.981768 210.505859,852.515625 C211.020185,853.049482 211.436847,853.560544 211.755859,854.048828 C212.074871,854.537112 212.354817,855.009112 212.595703,855.464844 C212.83659,855.920575 213.005859,856.275389 213.103516,856.529297 C213.201172,856.783204 213.25,856.923177 213.25,856.949219 L213.25,856.949219 Z M209.480469,847.4375 C209.832033,847.971357 209.994792,848.511716 209.96875,849.058594 C209.356768,849.839848 208.582036,850.230469 207.644531,850.230469 C206.798173,850.230469 206.065758,849.901696 205.447266,849.244141 C204.828773,848.586585 204.519531,847.84115 204.519531,847.007812 C204.519531,846.200517 204.727862,845.520185 205.144531,844.966797 C205.5612,844.413409 206.147132,844.097657 206.902344,844.019531 C207.201824,844.983078 207.527342,845.695961 207.878906,846.158203 C208.230471,846.620445 208.764319,847.046873 209.480469,847.4375 L209.480469,847.4375 Z M215.339844,840.25 C214.363276,840.25 213.425786,840.402993 212.527344,840.708984 C211.628902,841.014975 210.906253,841.421872 210.359375,841.929688 C209.812497,842.437503 209.539062,842.958331 209.539062,843.492188 C209.539062,843.882814 209.753904,844.292967 210.183594,844.722656 C210.613283,845.152346 211.192705,845.542967 211.921875,845.894531 C212.377606,846.115887 212.611979,846.480466 212.625,846.988281 C212.638021,847.300783 212.638021,847.606769 212.625,847.90625 C213.119794,847.61979 213.542967,847.333335 213.894531,847.046875 C214.115887,846.864582 214.36328,846.773438 214.636719,846.773438 L215.28125,846.734375 C216.778653,846.734375 218.064448,846.415368 219.138672,845.777344 C220.212896,845.13932 220.75,844.380864 220.75,843.501953 C220.75,842.623042 220.216151,841.861331 219.148438,841.216797 C218.080724,840.572262 216.811205,840.25 215.339844,840.25 L215.339844,840.25 Z M215.339844,839 C216.537766,839 217.651037,839.201821 218.679688,839.605469 C219.708338,840.009117 220.518877,840.555986 221.111328,841.246094 C221.703779,841.936201 222,842.684892 222,843.492188 C222,844.312504 221.703779,845.067705 221.111328,845.757812 C220.518877,846.44792 219.708338,846.991534 218.679688,847.388672 C217.651037,847.785809 216.537766,847.984375 215.339844,847.984375 L214.695312,848.003906 C214.473957,848.186199 214.24284,848.358723 214.001953,848.521484 C213.761067,848.684246 213.490887,848.843749 213.191406,849 C212.891926,849.156251 212.657553,849.279947 212.488281,849.371094 C212.31901,849.46224 212.045575,849.595702 211.667969,849.771484 C211.290363,849.947267 211.04948,850.061198 210.945312,850.113281 C210.958333,849.996093 211.010416,849.768231 211.101562,849.429688 C211.192709,849.091144 211.264323,848.72982 211.316406,848.345703 C211.36849,847.961587 211.388021,847.522138 211.375,847.027344 C210.463537,846.584633 209.721357,846.06055 209.148438,845.455078 C208.575518,844.849606 208.289062,844.195316 208.289062,843.492188 C208.289062,842.684892 208.617835,841.932946 209.275391,841.236328 C209.932946,840.53971 210.805333,839.992841 211.892578,839.595703 C212.979823,839.198566 214.1289,839 215.339844,839 L215.339844,839 Z" transform="translate(-193 -832)"/>
  </g>
</svg>
