<svg xmlns="http://www.w3.org/2000/svg" width="36" height="36" viewBox="0 0 36 36">
  <g fill="none" fill-rule="evenodd">
    <path fill="#FFFFFF" d="M50.5,1018.75 L50.5,1011.93359 L50.5,1007.22656 L43,1005 L43,1016.03516 L50.5,1018.75 Z M59.484375,1002.53906 C59.7968766,1002.63021 60.0442699,1002.84831 60.2265625,1003.19336 C60.4088551,1003.53841 60.5,1003.88021 60.5,1004.21875 L60.5,1015.27344 C60.5,1015.67709 60.3730481,1016.05469 60.1191406,1016.40625 C59.8652331,1016.75781 59.5364604,1017.03125 59.1328125,1017.22656 C55.7213371,1018.34636 53.0586033,1019.27083 51.1445312,1020 L43.0976562,1017.34375 C42.7330711,1017.2526 42.417319,1017.00521 42.1503906,1016.60156 C41.8834622,1016.19791 41.75,1015.79427 41.75,1015.39062 L41.75,1004.33594 C41.75,1003.41145 42.0690072,1002.85807 42.7070312,1002.67578 L50.2851562,1000.17578 C50.3502607,1000.14974 50.4186194,1000.1237 50.4902344,1000.09766 C50.5618493,1000.07161 50.6139321,1000.05208 50.6464844,1000.03906 C50.6790366,1000.02604 50.7343746,1000.01628 50.8125,1000.00977 C50.8906254,1000.00326 51.0013014,1000 51.1445312,1000 C51.3138029,1000 51.4342444,1000.00326 51.5058594,1000.00977 C51.5774743,1000.01628 51.6588537,1000.03906 51.75,1000.07812 C51.8411463,1000.11719 51.9257809,1000.14974 52.0039062,1000.17578 L59.484375,1002.53906 Z M59.25,1015.9375 L59.25,1005 L51.75,1007.5 L51.75,1018.33984 L59.25,1015.9375 Z M51.1054688,1005.83984 L59.6015625,1003.63281 L51.1054688,1000.83984 L42.7070312,1003.75 L51.1054688,1005.83984 Z M54.1523438,1010.39062 C53.996093,1010.44271 53.8170583,1010.44596 53.6152344,1010.40039 C53.4134104,1010.35482 53.2929689,1010.25391 53.2539062,1010.09766 C53.2018227,1009.90234 53.2441399,1009.68425 53.3808594,1009.44336 C53.5175788,1009.20247 53.6835928,1009.05599 53.8789062,1009.00391 L57.1210938,1007.57812 C57.3033863,1007.53906 57.4791658,1007.57161 57.6484375,1007.67578 C57.8177092,1007.77995 57.9283852,1007.92969 57.9804688,1008.125 C58.0325523,1008.32031 58.0065109,1008.50586 57.9023438,1008.68164 C57.7981766,1008.85742 57.6484385,1008.96484 57.453125,1009.00391 C55.3828021,1009.88933 54.2825527,1010.35156 54.1523438,1010.39062 L54.1523438,1010.39062 Z" transform="translate(-33 -992)"/>
  </g>
</svg>
