<svg xmlns="http://www.w3.org/2000/svg" width="36" height="36" viewBox="0 0 36 36">
  <g fill="none" fill-rule="evenodd">
    <path fill="#FFFFFF" d="M282.992188,1095 C282.992188,1095.54688 283.187498,1096.01562 283.578125,1096.40625 C283.968752,1096.79688 284.437497,1096.99219 284.984375,1096.99219 L297.015625,1096.99219 C297.562503,1096.99219 298.031248,1096.79688 298.421875,1096.40625 C298.812502,1096.01562 299.007812,1095.54688 299.007812,1095 L299.007812,1088.00781 L282.992188,1088.00781 L282.992188,1095 Z M297.015625,1081.99219 C297.835942,1081.99219 298.53906,1082.28841 299.125,1082.88086 C299.71094,1083.47331 300.003906,1084.17968 300.003906,1085 L300.003906,1095 C300.003906,1095.83334 299.71094,1096.54297 299.125,1097.12891 C298.53906,1097.71485 297.829431,1098.00781 296.996094,1098.00781 L284.984375,1098.00781 C284.164058,1098.00781 283.46094,1097.71159 282.875,1097.11914 C282.28906,1096.52669 281.996094,1095.82032 281.996094,1095 L281.996094,1085 C281.996094,1084.16666 282.28906,1083.45703 282.875,1082.87109 C283.46094,1082.28515 284.164058,1081.99219 284.984375,1081.99219 L286,1081.99219 L286,1085 L287.992188,1085 L287.992188,1084.00391 L286.996094,1084.00391 L286.996094,1080.99609 L287.992188,1080.99609 L287.992188,1081.99219 L294.007812,1081.99219 L294.007812,1085 L296,1085 L296,1084.00391 L295.003906,1084.00391 L295.003906,1080.99609 L296,1080.99609 L296,1081.99219 L297.015625,1081.99219 Z M296.996094,1092.57812 C296.006505,1093.45053 295.07878,1094.07226 294.212891,1094.44336 C293.347001,1094.81445 292.419276,1095 291.429688,1095 C290.30989,1095 289.274744,1094.81771 288.324219,1094.45312 C287.373693,1094.08854 286.266933,1093.46355 285.003906,1092.57812 C285.173178,1092.1875 285.335937,1091.99219 285.492188,1091.99219 C286.429692,1092.55209 287.445307,1093.02734 288.539062,1093.41797 C289.632818,1093.8086 290.59635,1094.00391 291.429688,1094.00391 C292.171879,1094.00391 293.076818,1093.79558 294.144531,1093.37891 C295.212245,1092.96224 295.999997,1092.5 296.507812,1091.99219 C296.572917,1091.99219 296.628255,1092.02148 296.673828,1092.08008 C296.719401,1092.13867 296.768229,1092.22005 296.820312,1092.32422 C296.872396,1092.42839 296.930989,1092.51302 296.996094,1092.57812 L296.996094,1092.57812 Z" transform="translate(-273 -1072)"/>
  </g>
</svg>
