<svg xmlns="http://www.w3.org/2000/svg" width="36" height="36" viewBox="0 0 36 36">
  <g fill="none" fill-rule="evenodd">
    <path fill="#FFFFFF" d="M283,845.5 L283,841.75 L286.75,841.75 L286.75,845.5 L283,845.5 Z M283,851.75 L283,848 L286.75,848 L286.75,851.75 L283,851.75 Z M283,858 L283,854.25 L286.75,854.25 L286.75,858 L283,858 Z M289.25,845.5 L289.25,841.75 L293,841.75 L293,845.5 L289.25,845.5 Z M289.25,851.75 L289.25,848 L293,848 L293,851.75 L289.25,851.75 Z M289.25,858 L289.25,854.25 L293,854.25 L293,858 L289.25,858 Z M295.5,845.5 L295.5,841.75 L299.25,841.75 L299.25,845.5 L295.5,845.5 Z M295.5,851.75 L295.5,848 L299.25,848 L299.25,851.75 L295.5,851.75 Z M295.5,858 L295.5,854.25 L299.25,854.25 L299.25,858 L295.5,858 Z" transform="translate(-273 -832)"/>
  </g>
</svg>
