<svg xmlns="http://www.w3.org/2000/svg" width="36" height="36" viewBox="0 0 36 36">
  <g fill="none" fill-rule="evenodd">
    <path fill="#FFFFFF" d="M261,850.058594 L260.726562,850.390625 C260.54427,850.625001 260.280601,850.924477 259.935547,851.289062 C259.590493,851.653648 259.193362,852.057289 258.744141,852.5 C258.29492,852.942711 257.770836,853.382159 257.171875,853.818359 C256.572914,854.254559 255.95443,854.654946 255.316406,855.019531 C254.678382,855.384116 253.978519,855.680337 253.216797,855.908203 C252.455074,856.136069 251.709639,856.25 250.980469,856.25 C250.251298,856.25 249.502608,856.129558 248.734375,855.888672 C247.966142,855.647785 247.276045,855.354819 246.664062,855.009766 C246.05208,854.664712 245.433597,854.251304 244.808594,853.769531 C244.183591,853.287758 243.662763,852.851564 243.246094,852.460938 C242.829425,852.070311 242.425783,851.656903 242.035156,851.220703 C241.644529,850.784503 241.390626,850.491537 241.273438,850.341797 C241.156249,850.192057 241.065104,850.078125 241,850 L241.273438,849.648438 C241.45573,849.414061 241.716144,849.114585 242.054688,848.75 C242.393231,848.385415 242.790362,847.981773 243.246094,847.539062 C243.701825,847.096352 244.225908,846.653648 244.818359,846.210938 C245.41081,845.768227 246.022783,845.36133 246.654297,844.990234 C247.28581,844.619139 247.985673,844.319663 248.753906,844.091797 C249.522139,843.863931 250.27083,843.75 251,843.75 C251.72917,843.75 252.477861,843.870442 253.246094,844.111328 C254.014327,844.352215 254.707679,844.645181 255.326172,844.990234 C255.944665,845.335288 256.566403,845.751951 257.191406,846.240234 C257.816409,846.728518 258.337238,847.171222 258.753906,847.568359 C259.170575,847.965497 259.574217,848.382159 259.964844,848.818359 C260.355471,849.254559 260.609374,849.547525 260.726562,849.697266 C260.843751,849.847006 260.934896,849.967447 261,850.058594 L261,850.058594 Z M254.75,850 C254.75,849.348955 254.56771,848.730472 254.203125,848.144531 C253.83854,847.558591 253.363284,847.096356 252.777344,846.757812 C252.191403,846.419269 251.598961,846.25 251,846.25 C250.41406,846.25 249.828128,846.419269 249.242188,846.757812 C248.656247,847.096356 248.177736,847.558591 247.806641,848.144531 C247.435545,848.730472 247.25,849.348955 247.25,850 C247.25,850.651045 247.4388,851.269528 247.816406,851.855469 C248.194012,852.441409 248.669268,852.903644 249.242188,853.242188 C249.815107,853.580731 250.401039,853.75 251,853.75 C251.598961,853.75 252.191403,853.580731 252.777344,853.242188 C253.363284,852.903644 253.83854,852.441409 254.203125,851.855469 C254.56771,851.269528 254.75,850.651045 254.75,850 L254.75,850 Z M251.947266,849.033203 C252.14909,849.222006 252.25,849.541013 252.25,849.990234 C252.25,850.439455 252.14909,850.761718 251.947266,850.957031 C251.745442,851.152345 251.42969,851.25 251,851.25 C250.57031,851.25 250.254558,851.1556 250.052734,850.966797 C249.85091,850.777994 249.75,850.458987 249.75,850.009766 C249.75,849.560545 249.85091,849.238282 250.052734,849.042969 C250.254558,848.847655 250.57031,848.75 251,848.75 C251.42969,848.75 251.745442,848.8444 251.947266,849.033203 L251.947266,849.033203 Z" transform="translate(-233 -832)"/>
  </g>
</svg>
