<svg xmlns="http://www.w3.org/2000/svg" width="36" height="36" viewBox="0 0 36 36">
  <g fill="none" fill-rule="evenodd">
    <path fill="#FFFFFF" d="M89.7511749,879.391094 C90.1483123,879.143697 90.5877611,879.02 91.0695343,879.02 C91.5513075,879.02 91.9907563,879.143697 92.3878937,879.391094 C92.7850311,879.638491 93.0942728,879.977029 93.3156281,880.406719 L100.776566,895.406719 C100.971879,895.797346 101.059769,896.207498 101.040237,896.637187 C101.020706,897.066877 100.893754,897.464009 100.659378,897.828594 C100.438023,898.193179 100.135291,898.48289 99.7511749,898.697734 C99.3670584,898.912579 98.9601615,899.02 98.5304718,899.02 L83.5695343,899.02 C83.1398447,899.02 82.7362029,898.915834 82.3585968,898.7075 C81.9809907,898.499166 81.6750042,898.209455 81.4406281,897.838359 C81.2062519,897.467264 81.0793,897.066877 81.0597687,896.637187 C81.0402373,896.207498 81.1346374,895.797346 81.3429718,895.406719 L88.8429718,880.406719 C89.0513062,879.977029 89.3540375,879.638491 89.7511749,879.391094 L89.7511749,879.391094 Z M91.6359406,881.246562 C91.5187525,881.012186 91.3299523,880.895 91.0695343,880.895 C90.8091163,880.895 90.6203161,881.012186 90.5031281,881.246562 L83.0031281,896.246562 C82.8989609,896.454897 82.9087264,896.656718 83.0324249,896.852031 C83.1561235,897.047345 83.3351581,897.145 83.5695343,897.145 L98.5304718,897.145 C98.764848,897.145 98.9438826,897.047345 99.0675812,896.852031 C99.1912797,896.656718 99.2010452,896.454897 99.0968781,896.246562 L91.6359406,881.246562 Z M89.8195343,885.27 L92.3195343,885.27 L92.3195343,891.52 L89.8195343,891.52 L89.8195343,885.27 Z M89.8195343,892.77 L92.3195343,892.77 L92.3195343,895.27 L89.8195343,895.27 L89.8195343,892.77 Z" transform="translate(-73 -872)"/>
  </g>
</svg>
