<svg xmlns="http://www.w3.org/2000/svg" width="36" height="36" viewBox="0 0 36 36">
  <g fill="none" fill-rule="evenodd">
    <path fill="#FFFFFF" d="M139.945312,888.75 C140.153647,888.958334 140.345702,889.166666 140.521484,889.375 C140.697267,889.583334 140.824218,889.739583 140.902344,889.84375 L141.019531,890 C140.954427,890.078125 140.860027,890.192057 140.736328,890.341797 C140.61263,890.491537 140.355471,890.784503 139.964844,891.220703 C139.574217,891.656903 139.17383,892.070311 138.763672,892.460938 C138.353514,892.851564 137.835941,893.287758 137.210938,893.769531 C136.585934,894.251304 135.964196,894.664712 135.345703,895.009766 C134.72721,895.354819 134.033858,895.647785 133.265625,895.888672 C132.497392,896.129558 131.745446,896.25 131.009766,896.25 C130.274085,896.25 129.525394,896.132814 128.763672,895.898438 C128.001949,895.664061 127.305342,895.364585 126.673828,895 C126.042315,894.635415 125.427086,894.231773 124.828125,893.789062 C124.229164,893.346352 123.70508,892.900393 123.255859,892.451172 C122.806638,892.001951 122.409507,891.595054 122.064453,891.230469 C121.719399,890.865884 121.45573,890.566407 121.273438,890.332031 L121.019531,890 C121.266928,889.648436 121.618487,889.231773 122.074219,888.75 C122.555992,888.216143 123.086586,887.69206 123.666016,887.177734 C124.245446,886.663409 124.929033,886.12956 125.716797,885.576172 C126.504561,885.022784 127.357417,884.58008 128.275391,884.248047 C129.193364,883.916014 130.082027,883.75 130.941406,883.75 C131.852869,883.75 132.774084,883.916014 133.705078,884.248047 C134.636072,884.58008 135.498694,885.022784 136.292969,885.576172 C137.087244,886.12956 137.77083,886.660154 138.34375,887.167969 C138.91667,887.675784 139.450518,888.203122 139.945312,888.75 L139.945312,888.75 Z M129.251953,891.767578 C129.740237,892.255862 130.329424,892.5 131.019531,892.5 C131.709639,892.5 132.298826,892.255862 132.787109,891.767578 C133.275393,891.279294 133.519531,890.690108 133.519531,890 C133.519531,889.309892 133.275393,888.720706 132.787109,888.232422 C132.298826,887.744138 131.709639,887.5 131.019531,887.5 C130.329424,887.5 129.740237,887.744138 129.251953,888.232422 C128.763669,888.720706 128.519531,889.309892 128.519531,890 C128.519531,890.690108 128.763669,891.279294 129.251953,891.767578 L129.251953,891.767578 Z" transform="translate(-113 -872)"/>
  </g>
</svg>
