<svg xmlns="http://www.w3.org/2000/svg" width="36" height="36" viewBox="0 0 36 36">
  <g fill="none" fill-rule="evenodd">
    <path fill="#FFFFFF" d="M171,578.808594 C172.523445,578.808594 173.942702,578.440759 175.257812,577.705078 C176.572923,576.969397 177.6276,575.966803 178.421875,574.697266 C179.21615,573.427728 179.652343,572.037768 179.730469,570.527344 L179.730469,570.644531 L179.691406,570.742188 L179.691406,570.664062 L179.671875,570.722656 L179.671875,570.78125 L179.632812,570.878906 L179.613281,570.957031 L179.613281,571.015625 L179.59375,571.054688 L179.59375,570.9375 L179.59375,570.878906 L179.554688,570.917969 L179.515625,571.035156 L179.515625,571.09375 L179.496094,571.152344 L179.476562,571.269531 L179.476562,571.367188 L179.476562,571.464844 L179.476562,571.582031 L179.476562,571.640625 L179.476562,571.71875 L179.476562,571.777344 L179.476562,571.835938 L179.457031,571.894531 L179.4375,572.011719 L179.417969,572.109375 L179.398438,572.167969 L179.398438,572.226562 L179.359375,572.34375 L179.320312,572.402344 L179.300781,572.460938 L179.261719,572.519531 L179.222656,572.597656 L179.242188,572.5 L179.242188,572.382812 L179.261719,572.34375 L179.242188,572.246094 L179.242188,572.1875 L179.203125,572.148438 L179.222656,572.011719 L179.183594,572.109375 L179.164062,572.226562 L179.144531,572.265625 L179.105469,572.363281 L179.105469,572.421875 L179.066406,572.480469 L179.066406,572.578125 L179.066406,572.636719 L179.046875,572.734375 L179.027344,572.832031 L179.027344,572.929688 L179.027344,572.988281 L179.007812,573.125 L178.988281,573.183594 L178.949219,573.28125 L178.929688,573.378906 L178.890625,573.476562 L178.851562,573.554688 L178.851562,573.457031 L178.871094,573.398438 L178.890625,573.300781 L178.910156,573.203125 L178.929688,573.144531 L178.949219,573.085938 L178.96875,572.96875 L178.988281,572.871094 L178.988281,572.773438 L179.007812,572.695312 L179.007812,572.617188 L179.027344,572.558594 L179.066406,572.460938 L179.085938,572.382812 L179.105469,572.34375 L179.125,572.226562 L179.144531,572.128906 L179.144531,572.03125 L179.164062,571.894531 L179.183594,571.796875 L179.183594,571.699219 L179.203125,571.601562 L179.183594,571.484375 L179.164062,571.582031 L179.125,571.640625 L179.105469,571.699219 L179.085938,571.621094 L179.066406,571.660156 L179.105469,571.503906 L179.105469,571.386719 L179.105469,571.269531 C179.092448,571.25651 179.092448,571.236979 179.105469,571.210938 L179.066406,571.132812 L179.046875,571.054688 L179.027344,570.996094 L179.027344,570.9375 L179.027344,570.839844 L179.007812,570.761719 L178.988281,570.703125 L178.988281,570.78125 L178.988281,570.839844 L178.949219,570.878906 L178.949219,570.820312 L178.910156,570.878906 L178.890625,570.917969 L178.871094,570.859375 L178.851562,570.917969 L178.8125,570.957031 L178.8125,571.015625 L178.792969,571.074219 L178.773438,571.132812 L178.753906,571.191406 L178.714844,571.230469 L178.675781,571.308594 L178.65625,571.367188 L178.597656,571.464844 L178.578125,571.503906 L178.539062,571.5625 L178.519531,571.621094 L178.5,571.679688 L178.460938,571.71875 L178.441406,571.777344 L178.421875,571.835938 L178.421875,571.894531 L178.382812,572.070312 L178.382812,572.128906 L178.34375,572.207031 L178.324219,572.265625 L178.324219,572.324219 L178.304688,572.421875 L178.246094,572.5 L178.226562,572.597656 L178.167969,572.636719 L178.128906,572.714844 L178.089844,572.734375 L178.070312,572.675781 L178.070312,572.578125 L178.089844,572.480469 L178.089844,572.402344 L178.089844,572.324219 L178.070312,572.265625 L178.050781,572.1875 L178.070312,572.109375 L178.070312,572.050781 L178.070312,571.992188 L178.070312,571.914062 L178.050781,571.777344 L178.050781,571.679688 L178.050781,571.601562 L178.03125,571.503906 L178.050781,571.425781 L178.050781,571.328125 L178.03125,571.210938 L178.050781,571.09375 L178.050781,570.976562 L178.050781,570.917969 L178.070312,570.839844 L178.011719,570.9375 L178.011719,570.996094 L177.933594,571.074219 L177.855469,570.996094 L177.835938,570.9375 L177.855469,570.859375 L177.894531,570.78125 L177.835938,570.800781 L177.796875,570.78125 L177.777344,570.703125 L177.796875,570.644531 L177.757812,570.683594 L177.679688,570.605469 L177.679688,570.546875 L177.679688,570.488281 L177.621094,570.410156 L177.542969,570.429688 L177.464844,570.449219 L177.386719,570.449219 L177.308594,570.46875 L177.25,570.46875 L177.171875,570.429688 L177.09375,570.410156 L177.035156,570.390625 L176.976562,570.390625 L176.917969,570.332031 L176.917969,570.292969 L176.878906,570.175781 L176.800781,570.214844 L176.742188,570.292969 L176.683594,570.253906 L176.605469,570.214844 L176.546875,570.117188 L176.46875,570.078125 L176.429688,570.078125 L176.390625,569.941406 L176.371094,569.863281 L176.332031,569.785156 L176.292969,569.746094 L176.253906,569.746094 L176.214844,569.726562 L176.214844,569.785156 L176.15625,569.785156 L176.175781,569.863281 L176.117188,569.863281 L176.175781,569.941406 C176.188802,569.967448 176.195312,569.986979 176.195312,570 L176.214844,570.117188 L176.292969,570.15625 L176.332031,570.214844 L176.351562,570.371094 L176.390625,570.46875 L176.429688,570.507812 L176.410156,570.46875 L176.429688,570.390625 L176.46875,570.488281 L176.46875,570.566406 L176.507812,570.664062 L176.605469,570.625 L176.683594,570.585938 L176.742188,570.488281 L176.78125,570.390625 L176.839844,570.332031 L176.859375,570.273438 L176.878906,570.390625 L176.878906,570.507812 L176.898438,570.566406 L176.9375,570.625 L177.054688,570.644531 L177.074219,570.722656 L177.113281,570.800781 L177.113281,570.898438 L177.074219,571.015625 L177.035156,571.113281 L176.996094,571.113281 L176.976562,571.191406 L176.957031,571.230469 L176.976562,571.308594 L176.898438,571.328125 L176.859375,571.367188 L176.820312,571.445312 L176.761719,571.484375 L176.722656,571.582031 L176.625,571.621094 L176.527344,571.640625 L176.507812,571.679688 L176.507812,571.757812 L176.449219,571.796875 L176.351562,571.835938 L176.234375,571.894531 L176.214844,571.933594 L176.15625,571.972656 L176.078125,572.03125 L175.980469,572.050781 L175.902344,572.050781 L175.824219,572.109375 L175.785156,572.148438 L175.726562,572.148438 L175.707031,572.03125 L175.707031,571.953125 L175.707031,571.835938 L175.667969,571.777344 L175.707031,571.738281 L175.707031,571.660156 L175.6875,571.5625 L175.648438,571.503906 L175.589844,571.40625 L175.550781,571.230469 L175.492188,571.171875 L175.453125,571.132812 L175.394531,571.035156 L175.375,570.898438 L175.394531,570.839844 L175.355469,570.78125 L175.355469,570.722656 L175.335938,570.644531 L175.277344,570.605469 L175.238281,570.566406 L175.199219,570.46875 L175.160156,570.390625 L175.140625,570.332031 L175.121094,570.273438 L175.101562,570.214844 L175.042969,570.136719 L175.023438,570.058594 L174.964844,570.058594 L174.964844,570 L174.964844,569.882812 L174.945312,569.980469 L174.90625,570.117188 L174.828125,570.019531 L174.789062,569.921875 L174.75,569.863281 L174.75,569.921875 L174.789062,570 L174.847656,570.058594 L174.847656,570.117188 L174.90625,570.214844 L174.90625,570.3125 L174.964844,570.429688 L174.984375,570.46875 L175.023438,570.566406 L175.042969,570.605469 L175.042969,570.683594 L175.042969,570.78125 L175.121094,570.820312 L175.179688,570.898438 L175.179688,570.957031 L175.179688,571.054688 L175.21875,571.152344 L175.199219,571.25 L175.238281,571.347656 L175.277344,571.40625 L175.335938,571.484375 L175.375,571.621094 L175.375,571.738281 L175.433594,571.796875 L175.492188,571.835938 L175.550781,571.914062 L175.570312,571.953125 L175.628906,572.011719 L175.648438,572.089844 L175.707031,572.1875 L175.648438,572.285156 L175.746094,572.421875 L175.804688,572.441406 L175.882812,572.382812 L175.960938,572.382812 L176.019531,572.34375 L176.117188,572.324219 L176.15625,572.324219 L176.214844,572.304688 L176.351562,572.304688 L176.390625,572.246094 L176.410156,572.304688 L176.390625,572.402344 L176.351562,572.480469 L176.351562,572.578125 L176.3125,572.617188 L176.253906,572.714844 L176.214844,572.773438 L176.136719,572.949219 L176.097656,573.027344 L176,573.164062 L175.921875,573.28125 L175.785156,573.398438 L175.746094,573.4375 L175.6875,573.476562 L175.570312,573.59375 L175.492188,573.671875 L175.433594,573.730469 L175.335938,573.867188 L175.277344,573.925781 L175.21875,573.964844 L175.160156,574.023438 L175.121094,574.082031 L175.101562,574.140625 L175.042969,574.199219 L174.964844,574.316406 L174.945312,574.375 L174.964844,574.433594 L174.964844,574.511719 L174.925781,574.589844 L174.90625,574.648438 L174.90625,574.765625 L174.90625,574.84375 L174.925781,574.941406 L174.886719,574.980469 L174.867188,575.078125 L174.828125,575.15625 L174.808594,575.214844 L174.789062,575.292969 L174.769531,575.332031 L174.710938,575.410156 L174.652344,575.46875 L174.554688,575.546875 L174.496094,575.585938 L174.398438,575.625 L174.320312,575.683594 L174.28125,575.742188 L174.183594,575.800781 L174.144531,575.820312 L174.085938,575.898438 C174.072917,575.9375 174.072917,575.957031 174.085938,575.957031 L174.066406,576.015625 L174.046875,576.09375 L174.007812,576.191406 L173.988281,576.230469 L173.929688,576.308594 L173.871094,576.328125 L173.792969,576.347656 L173.734375,576.40625 L173.675781,576.484375 L173.675781,576.523438 L173.636719,576.582031 L173.597656,576.660156 L173.519531,576.699219 L173.441406,576.777344 L173.402344,576.796875 L173.324219,576.894531 L173.265625,576.953125 L173.089844,577.070312 L173.03125,577.109375 L172.953125,577.148438 L172.875,577.1875 L172.796875,577.1875 L172.699219,577.167969 L172.621094,577.207031 L172.542969,577.207031 L172.464844,577.226562 L172.40625,577.167969 L172.40625,577.070312 L172.464844,576.992188 L172.464844,576.894531 L172.464844,576.777344 L172.445312,576.699219 L172.40625,576.621094 L172.386719,576.5625 L172.386719,576.464844 L172.40625,576.40625 L172.425781,576.347656 L172.40625,576.269531 L172.425781,576.152344 L172.425781,575.996094 L172.386719,575.898438 L172.367188,575.78125 L172.308594,575.683594 L172.328125,575.566406 L172.347656,575.429688 L172.386719,575.371094 L172.425781,575.253906 L172.503906,575.15625 L172.542969,575.117188 L172.601562,575.039062 L172.601562,574.902344 L172.582031,574.804688 L172.5625,574.746094 L172.601562,574.667969 L172.582031,574.609375 L172.601562,574.53125 L172.542969,574.453125 L172.5625,574.414062 L172.523438,574.375 L172.503906,574.257812 L172.484375,574.199219 L172.425781,574.140625 L172.386719,574.101562 L172.347656,574.0625 L172.308594,573.964844 L172.269531,573.867188 L172.25,573.808594 L172.308594,573.710938 L172.347656,573.652344 L172.308594,573.59375 L172.347656,573.554688 L172.386719,573.496094 L172.40625,573.359375 L172.386719,573.300781 L172.386719,573.242188 L172.308594,573.183594 L172.230469,573.203125 L172.152344,573.203125 L172.015625,573.222656 L171.9375,573.144531 L171.898438,573.046875 L171.859375,573.007812 L171.78125,572.949219 L171.703125,572.96875 L171.644531,572.988281 L171.527344,573.007812 L171.46875,573.027344 L171.410156,573.046875 L171.351562,573.105469 L171.292969,573.105469 L171.195312,573.164062 L171.078125,573.144531 L171,573.105469 L170.941406,573.125 L170.804688,573.125 L170.6875,573.164062 L170.609375,573.222656 L170.492188,573.183594 L170.375,573.105469 L170.316406,573.027344 L170.257812,572.988281 L170.21875,572.949219 L170.160156,572.910156 L170.101562,572.871094 L170.023438,572.8125 L170.003906,572.753906 L169.964844,572.65625 L169.945312,572.597656 L169.925781,572.539062 L169.867188,572.5 L169.808594,572.460938 L169.789062,572.382812 L169.710938,572.324219 L169.691406,572.285156 L169.59375,572.246094 L169.554688,572.1875 L169.554688,572.070312 L169.515625,571.992188 L169.496094,571.933594 L169.457031,571.894531 L169.515625,571.835938 L169.554688,571.777344 L169.554688,571.679688 L169.574219,571.601562 L169.613281,571.484375 L169.59375,571.347656 L169.554688,571.289062 L169.59375,571.191406 L169.554688,571.132812 L169.515625,571.054688 L169.535156,570.996094 L169.554688,570.917969 L169.59375,570.820312 L169.632812,570.742188 L169.671875,570.644531 L169.730469,570.566406 L169.789062,570.410156 L169.828125,570.351562 L169.925781,570.3125 L170.003906,570.136719 L170.101562,570.117188 L170.199219,570.039062 L170.257812,569.960938 L170.335938,569.824219 L170.335938,569.746094 L170.316406,569.667969 L170.355469,569.609375 L170.394531,569.511719 L170.433594,569.433594 L170.472656,569.394531 L170.53125,569.375 L170.609375,569.316406 L170.707031,569.199219 L170.707031,569.140625 L170.765625,569.023438 L170.84375,569.0625 L170.902344,569.101562 L170.960938,569.082031 L171.039062,569.101562 L171.078125,569.0625 L171.097656,569.101562 L171.15625,569.121094 L171.253906,569.101562 L171.3125,569.023438 L171.371094,569.003906 L171.429688,568.945312 L171.488281,568.945312 L171.566406,568.90625 L171.625,568.886719 L171.703125,568.867188 L171.78125,568.847656 L171.820312,568.867188 L171.917969,568.886719 L171.957031,568.867188 L172.054688,568.828125 L172.132812,568.828125 L172.191406,568.867188 L172.289062,568.847656 L172.347656,568.808594 L172.40625,568.789062 L172.425781,568.828125 L172.464844,568.867188 L172.523438,568.867188 L172.503906,568.925781 L172.464844,568.984375 L172.542969,569.042969 L172.542969,569.140625 L172.445312,569.21875 L172.464844,569.296875 L172.503906,569.335938 L172.5625,569.355469 L172.660156,569.433594 L172.777344,569.433594 L172.875,569.433594 L172.992188,569.472656 L173.011719,569.570312 L173.050781,569.648438 L173.128906,569.648438 L173.246094,569.707031 L173.304688,569.726562 L173.363281,569.804688 L173.441406,569.824219 L173.480469,569.765625 L173.519531,569.707031 L173.480469,569.628906 L173.480469,569.550781 L173.5,569.511719 L173.558594,569.453125 L173.65625,569.414062 L173.753906,569.453125 L173.792969,569.511719 L173.890625,569.53125 L173.96875,569.550781 L174.027344,569.609375 L174.105469,569.628906 L174.183594,569.628906 L174.28125,569.648438 L174.359375,569.667969 L174.4375,569.707031 L174.496094,569.648438 L174.613281,569.609375 L174.652344,569.628906 L174.710938,569.6875 L174.789062,569.648438 L174.867188,569.648438 L174.925781,569.570312 L174.945312,569.492188 L174.945312,569.414062 L174.964844,569.335938 L175.003906,569.277344 L175.003906,569.179688 L175.003906,569.0625 L175.003906,568.945312 L175.003906,568.867188 L174.964844,568.867188 L174.90625,568.867188 L174.808594,568.925781 L174.652344,568.945312 L174.613281,568.886719 L174.554688,568.867188 L174.476562,568.886719 L174.417969,568.925781 L174.339844,568.925781 L174.320312,568.867188 L174.261719,568.847656 L174.164062,568.867188 L174.222656,568.828125 L174.144531,568.828125 L174.144531,568.769531 L174.125,568.691406 L174.046875,568.632812 L174.066406,568.574219 L174.066406,568.457031 L173.988281,568.4375 L174.007812,568.339844 L174.066406,568.300781 L174.144531,568.300781 L174.203125,568.300781 L174.261719,568.300781 L174.320312,568.222656 L174.261719,568.222656 L174.242188,568.183594 L174.320312,568.164062 L174.417969,568.183594 L174.476562,568.105469 L174.554688,568.066406 L174.632812,568.027344 L174.710938,568.046875 L174.769531,568.046875 L174.808594,568.085938 L174.867188,568.066406 L174.886719,568.125 L174.984375,568.144531 L175.023438,568.164062 L175.082031,568.183594 L175.160156,568.164062 L175.238281,568.183594 L175.316406,568.125 L175.355469,568.085938 L175.316406,567.988281 L175.296875,567.929688 L175.238281,567.871094 L175.179688,567.832031 L175.140625,567.792969 L175.082031,567.753906 L175.042969,567.714844 L174.964844,567.65625 L174.886719,567.617188 L174.847656,567.539062 L174.867188,567.519531 L174.867188,567.441406 L174.886719,567.402344 L174.867188,567.34375 L174.90625,567.265625 L174.925781,567.207031 L174.847656,567.226562 L174.769531,567.265625 L174.75,567.304688 L174.671875,567.34375 L174.632812,567.304688 L174.652344,567.34375 L174.632812,567.402344 L174.554688,567.382812 L174.59375,567.441406 L174.632812,567.519531 L174.613281,567.402344 L174.632812,567.441406 L174.710938,567.5 L174.789062,567.5 L174.75,567.558594 L174.691406,567.597656 L174.59375,567.65625 L174.554688,567.617188 L174.554688,567.558594 L174.476562,567.519531 L174.496094,567.460938 L174.457031,567.402344 L174.378906,567.363281 L174.320312,567.324219 L174.378906,567.324219 L174.300781,567.304688 L174.261719,567.382812 L174.222656,567.441406 L174.183594,567.5 L174.203125,567.578125 L174.164062,567.617188 L174.105469,567.65625 L174.144531,567.773438 L174.125,567.832031 L174.085938,567.910156 L174.085938,567.96875 L174.125,568.046875 L174.183594,568.125 L174.222656,568.203125 L174.183594,568.242188 L174.125,568.242188 L174.085938,568.300781 L174.046875,568.320312 L173.96875,568.28125 L173.871094,568.242188 L173.8125,568.242188 L173.753906,568.339844 L173.773438,568.398438 L173.734375,568.359375 L173.675781,568.320312 L173.636719,568.398438 L173.675781,568.476562 L173.714844,568.515625 L173.714844,568.574219 L173.695312,568.515625 L173.65625,568.59375 L173.714844,568.632812 L173.8125,568.691406 L173.8125,568.75 L173.734375,568.789062 L173.773438,568.828125 L173.734375,568.828125 L173.773438,568.945312 L173.695312,568.90625 L173.695312,568.964844 L173.675781,568.90625 L173.597656,568.867188 L173.558594,568.789062 L173.558594,568.710938 L173.617188,568.671875 L173.65625,568.710938 L173.597656,568.671875 L173.519531,568.632812 L173.5,568.574219 L173.441406,568.496094 L173.421875,568.457031 L173.382812,568.398438 L173.34375,568.359375 L173.324219,568.28125 L173.324219,568.222656 L173.34375,568.144531 L173.285156,568.105469 L173.207031,568.027344 L173.148438,567.988281 L173.089844,567.949219 L173.050781,567.890625 L172.972656,567.871094 L172.894531,567.832031 L172.894531,567.753906 L172.835938,567.695312 L172.816406,567.636719 L172.757812,567.65625 L172.699219,567.65625 L172.699219,567.578125 L172.660156,567.539062 L172.601562,567.597656 L172.582031,567.65625 L172.582031,567.734375 L172.601562,567.792969 L172.640625,567.8125 L172.679688,567.851562 L172.777344,567.96875 L172.777344,568.007812 L172.816406,568.066406 L172.875,568.105469 L172.953125,568.125 L172.972656,568.183594 L173.050781,568.222656 L173.128906,568.261719 L173.1875,568.320312 L173.246094,568.359375 L173.246094,568.4375 L173.1875,568.359375 L173.089844,568.339844 L173.070312,568.4375 L173.128906,568.515625 L173.128906,568.574219 L173.089844,568.671875 L173.050781,568.730469 L173.011719,568.769531 L172.992188,568.691406 L173.011719,568.652344 L173.03125,568.554688 L173.011719,568.457031 L172.972656,568.398438 L172.894531,568.359375 L172.835938,568.300781 L172.757812,568.222656 L172.679688,568.222656 L172.601562,568.164062 L172.542969,568.085938 L172.503906,568.046875 L172.464844,567.988281 L172.40625,567.949219 L172.386719,567.890625 L172.347656,567.792969 L172.289062,567.773438 L172.210938,567.753906 L172.152344,567.832031 L172.09375,567.832031 L172.035156,567.890625 L171.996094,567.949219 L171.917969,567.929688 L171.859375,567.890625 L171.820312,567.910156 L171.742188,567.871094 L171.703125,567.929688 L171.664062,568.007812 L171.664062,568.085938 L171.644531,568.183594 L171.585938,568.222656 L171.507812,568.242188 L171.449219,568.28125 L171.390625,568.398438 L171.351562,568.476562 L171.371094,568.574219 L171.371094,568.632812 L171.351562,568.671875 L171.3125,568.730469 L171.3125,568.789062 L171.195312,568.867188 L171.175781,568.90625 L171.117188,568.886719 L171.058594,568.886719 L170.960938,568.90625 L170.882812,568.945312 L170.824219,569.003906 L170.746094,569.003906 L170.707031,568.964844 L170.6875,568.886719 L170.648438,568.847656 L170.589844,568.828125 L170.511719,568.867188 L170.453125,568.828125 L170.394531,568.867188 L170.433594,568.789062 L170.433594,568.691406 L170.394531,568.652344 L170.394531,568.59375 L170.375,568.515625 L170.394531,568.4375 L170.433594,568.359375 L170.453125,568.300781 L170.472656,568.164062 L170.433594,568.085938 L170.433594,568.027344 L170.414062,567.929688 L170.472656,567.910156 L170.511719,567.871094 L170.609375,567.851562 L170.6875,567.871094 L170.785156,567.871094 L170.882812,567.890625 L170.960938,567.871094 L171.019531,567.910156 L171.097656,567.890625 L171.175781,567.910156 L171.234375,567.8125 L171.253906,567.714844 L171.234375,567.65625 L171.253906,567.578125 L171.3125,567.65625 L171.273438,567.578125 L171.234375,567.539062 L171.234375,567.480469 L171.195312,567.441406 L171.136719,567.402344 L171.136719,567.324219 L171.097656,567.265625 L171,567.246094 L170.921875,567.226562 L170.921875,567.167969 L170.882812,567.109375 L170.941406,567.109375 L171.019531,567.070312 L171.117188,567.109375 L171.195312,567.070312 L171.15625,566.953125 L171.214844,566.972656 L171.273438,566.992188 L171.371094,566.992188 L171.351562,566.933594 L171.429688,566.914062 L171.507812,566.816406 L171.546875,566.757812 L171.585938,566.699219 L171.664062,566.699219 L171.703125,566.640625 L171.703125,566.542969 L171.742188,566.445312 L171.800781,566.40625 L171.898438,566.386719 L171.957031,566.386719 L172.015625,566.347656 L172.035156,566.386719 L172.054688,566.347656 L172.132812,566.308594 L172.191406,566.347656 L172.09375,566.308594 L172.09375,566.25 L172.074219,566.171875 L172.054688,566.09375 L172.015625,566.054688 L172.015625,565.976562 L172.015625,565.878906 L172.074219,565.839844 L172.113281,565.878906 L172.09375,565.820312 L172.171875,565.859375 L172.230469,565.898438 L172.171875,565.9375 L172.191406,565.996094 L172.132812,566.09375 L172.171875,566.210938 L172.210938,566.210938 L172.289062,566.230469 L172.269531,566.269531 L172.328125,566.289062 L172.386719,566.230469 L172.484375,566.230469 L172.542969,566.308594 L172.582031,566.328125 L172.640625,566.25 L172.71875,566.230469 L172.777344,566.171875 L172.816406,566.132812 L172.875,566.132812 L172.972656,566.171875 L173.011719,566.191406 L173.089844,566.152344 L173.109375,566.09375 L173.128906,566.035156 L173.109375,566.113281 L173.148438,566.054688 L173.128906,565.976562 L173.089844,565.878906 L173.109375,565.78125 L173.109375,565.742188 L173.148438,565.703125 L173.265625,565.761719 L173.304688,565.800781 L173.324219,565.722656 L173.304688,565.644531 L173.304688,565.566406 L173.226562,565.546875 L173.1875,565.410156 L173.265625,565.371094 L173.324219,565.332031 L173.402344,565.351562 L173.519531,565.351562 L173.578125,565.273438 L173.519531,565.195312 L173.441406,565.195312 L173.363281,565.214844 L173.285156,565.234375 L173.207031,565.273438 L173.167969,565.292969 L173.109375,565.292969 L173.050781,565.214844 L173.011719,565.195312 L172.933594,565.195312 L172.914062,565.058594 L172.914062,565 L172.875,564.902344 L172.835938,564.863281 L172.835938,564.765625 L172.894531,564.726562 L172.933594,564.648438 L172.933594,564.570312 L172.953125,564.53125 L172.992188,564.472656 L172.992188,564.375 L172.933594,564.355469 L172.875,564.335938 L172.796875,564.335938 L172.71875,564.355469 L172.71875,564.414062 L172.757812,564.511719 L172.757812,564.609375 L172.757812,564.667969 L172.71875,564.726562 L172.660156,564.765625 L172.640625,564.824219 L172.601562,564.863281 L172.582031,564.921875 L172.582031,564.980469 L172.601562,565.097656 L172.621094,565.195312 L172.699219,565.234375 L172.777344,565.3125 L172.777344,565.351562 L172.757812,565.410156 L172.679688,565.390625 L172.621094,565.410156 L172.699219,565.429688 L172.757812,565.46875 L172.679688,565.527344 L172.679688,565.605469 L172.699219,565.644531 L172.699219,565.703125 L172.679688,565.761719 L172.699219,565.820312 L172.679688,565.898438 L172.660156,565.957031 L172.5625,565.9375 L172.542969,566.035156 L172.445312,566.035156 L172.40625,565.976562 L172.40625,565.9375 L172.425781,565.859375 L172.367188,565.839844 L172.308594,565.761719 L172.269531,565.683594 L172.269531,565.605469 L172.230469,565.546875 L172.230469,565.46875 L172.171875,565.390625 L172.152344,565.351562 L172.132812,565.410156 L172.132812,565.488281 L172.074219,565.46875 L172.035156,565.429688 L172.074219,565.527344 L172.015625,565.605469 L171.976562,565.644531 L171.898438,565.683594 L171.839844,565.625 L171.742188,565.585938 L171.742188,565.507812 L171.820312,565.546875 L171.78125,565.449219 L171.742188,565.46875 L171.703125,565.410156 L171.761719,565.371094 L171.761719,565.292969 L171.800781,565.253906 L171.742188,565.292969 L171.722656,565.214844 L171.683594,565.175781 L171.78125,565.175781 L171.820312,565.175781 L171.859375,565.136719 L171.78125,565.136719 L171.683594,565.136719 L171.664062,565.097656 L171.703125,565.039062 L171.664062,564.980469 L171.722656,564.980469 L171.800781,564.960938 L171.742188,564.902344 L171.820312,564.921875 L171.859375,564.882812 L171.78125,564.863281 L171.839844,564.84375 L171.917969,564.84375 L171.878906,564.824219 L171.9375,564.746094 L171.996094,564.804688 L172.054688,564.726562 L172.09375,564.648438 L172.054688,564.707031 L171.996094,564.765625 L171.957031,564.707031 L171.996094,564.648438 L172.035156,564.570312 L172.074219,564.511719 L172.132812,564.472656 L172.132812,564.394531 L172.152344,564.335938 L172.113281,564.296875 L172.152344,564.21875 C172.152344,564.179687 172.165364,564.160156 172.191406,564.160156 L172.25,564.121094 L172.191406,564.082031 L172.210938,564.003906 L172.191406,563.925781 L172.269531,563.984375 L172.230469,563.925781 L172.289062,563.90625 L172.210938,563.886719 L172.25,563.808594 L172.269531,563.730469 L172.347656,563.75 L172.328125,563.671875 L172.386719,563.691406 L172.425781,563.632812 L172.40625,563.574219 L172.503906,563.59375 L172.542969,563.554688 L172.5625,563.496094 L172.601562,563.4375 L172.621094,563.554688 L172.660156,563.457031 L172.699219,563.515625 L172.679688,563.417969 L172.757812,563.4375 L172.777344,563.515625 L172.796875,563.457031 L172.875,563.476562 L172.933594,563.515625 L172.933594,563.59375 L172.855469,563.59375 L172.914062,563.632812 L172.992188,563.632812 L173.050781,563.59375 L173.089844,563.632812 L173.128906,563.671875 L173.1875,563.730469 L173.207031,563.671875 L173.285156,563.691406 L173.421875,563.75 L173.519531,563.808594 L173.578125,563.847656 L173.636719,563.886719 L173.714844,563.925781 L173.753906,563.945312 L173.792969,563.984375 L173.832031,564.082031 L173.8125,564.199219 L173.753906,564.199219 L173.636719,564.199219 L173.558594,564.199219 L173.5,564.160156 L173.460938,564.140625 L173.382812,564.121094 L173.304688,564.082031 L173.34375,564.140625 L173.402344,564.179688 L173.460938,564.199219 L173.539062,564.257812 L173.558594,564.316406 L173.578125,564.394531 L173.636719,564.433594 L173.636719,564.511719 L173.734375,564.550781 L173.792969,564.570312 L173.871094,564.609375 L173.890625,564.550781 L173.832031,564.511719 L173.734375,564.472656 L173.734375,564.355469 L173.753906,564.414062 L173.851562,564.472656 L173.929688,564.511719 L173.96875,564.453125 L173.871094,564.375 L173.851562,564.296875 L173.871094,564.238281 L173.929688,564.160156 L174.007812,564.179688 L174.085938,564.238281 L174.046875,564.179688 L174.007812,564.082031 L173.929688,564.042969 L173.910156,563.984375 L173.871094,563.867188 L173.8125,563.828125 L173.773438,563.769531 L173.8125,563.808594 L173.929688,563.828125 L173.96875,563.867188 L173.988281,563.925781 L173.988281,563.984375 L174.027344,564.023438 L174.085938,564.082031 L174.144531,564.023438 L174.125,563.984375 L174.144531,563.90625 L174.164062,563.828125 L174.183594,563.789062 L174.242188,563.769531 L174.203125,563.730469 L174.261719,563.691406 L174.300781,563.789062 L174.359375,563.808594 L174.359375,563.730469 L174.4375,563.710938 L174.457031,563.652344 L174.535156,563.671875 L174.554688,563.730469 L174.574219,563.632812 L174.515625,563.574219 L174.4375,563.515625 L174.4375,563.457031 L174.476562,563.476562 L174.59375,563.476562 L174.652344,563.515625 L174.710938,563.535156 L174.789062,563.574219 L174.867188,563.59375 L174.925781,563.652344 L174.984375,563.691406 L174.925781,563.613281 L174.90625,563.554688 L174.789062,563.515625 L174.710938,563.476562 L174.671875,563.4375 L174.613281,563.359375 L174.574219,563.320312 L174.515625,563.261719 L174.457031,563.203125 L174.417969,563.105469 L174.359375,563.046875 L174.320312,563.007812 L174.261719,562.929688 L174.222656,562.890625 L174.28125,562.851562 L174.339844,562.851562 L174.417969,562.929688 L174.457031,562.988281 L174.496094,563.046875 L174.535156,563.085938 L174.574219,563.105469 L174.632812,563.144531 L174.710938,563.203125 L174.75,563.261719 L174.808594,563.300781 L174.867188,563.359375 L174.90625,563.398438 L174.945312,563.4375 L175.023438,563.515625 L175.082031,563.535156 L175.101562,563.574219 L175.199219,563.671875 L175.21875,563.730469 L175.277344,563.828125 L175.335938,563.90625 L175.257812,563.90625 L175.179688,563.925781 L175.257812,563.945312 L175.355469,563.964844 L175.394531,563.984375 L175.394531,563.945312 L175.355469,563.847656 L175.335938,563.789062 L175.296875,563.730469 L175.257812,563.671875 L175.199219,563.613281 L175.140625,563.59375 L175.121094,563.515625 L175.121094,563.457031 L175.179688,563.515625 L175.21875,563.535156 L175.296875,563.59375 L175.335938,563.632812 L175.375,563.671875 L175.335938,563.632812 L175.277344,563.554688 L175.21875,563.476562 L175.160156,563.457031 C175.147135,563.457031 175.127604,563.450521 175.101562,563.4375 C175.075521,563.411458 175.05599,563.398438 175.042969,563.398438 L175.042969,563.476562 L174.964844,563.398438 L174.90625,563.359375 L174.828125,563.28125 L174.789062,563.222656 L174.730469,563.183594 L174.613281,563.105469 L174.574219,563.046875 L174.535156,563.007812 L174.496094,562.929688 L174.457031,562.890625 L174.398438,562.832031 L174.4375,562.871094 L174.496094,562.910156 L174.554688,562.988281 L174.613281,563.007812 L174.652344,563.066406 L174.691406,563.085938 L174.769531,563.085938 L174.847656,563.105469 L174.808594,563.085938 L174.730469,563.066406 L174.613281,563.007812 L174.59375,562.949219 L174.652344,562.988281 L174.613281,562.910156 L174.554688,562.851562 L174.632812,562.890625 L174.710938,562.910156 L174.769531,562.949219 L174.867188,562.988281 L174.925781,563.066406 L174.984375,563.125 L175.042969,563.164062 L175.003906,563.125 L175.0625,563.164062 L175.121094,563.203125 L175.199219,563.261719 L175.257812,563.28125 L175.355469,563.28125 L175.296875,563.261719 L175.21875,563.242188 L175.179688,563.203125 L175.101562,563.144531 L175.0625,563.105469 L174.945312,563.027344 L174.886719,562.988281 L174.808594,562.910156 L174.769531,562.910156 L174.710938,562.871094 L174.632812,562.832031 L174.574219,562.8125 L174.535156,562.773438 L174.457031,562.714844 L174.398438,562.65625 L174.417969,562.578125 L174.476562,562.597656 L174.535156,562.617188 L174.476562,562.597656 L174.417969,562.519531 L174.339844,562.480469 L174.261719,562.441406 L174.183594,562.402344 L174.164062,562.34375 L174.105469,562.285156 L174.066406,562.226562 L174.007812,562.148438 L173.929688,562.070312 L174.046875,562.128906 L174.007812,562.070312 L173.949219,562.03125 L174.027344,562.070312 L173.96875,562.03125 L173.890625,561.992188 L173.8125,561.933594 L173.734375,561.894531 L173.675781,561.875 L173.597656,561.816406 L173.539062,561.777344 L173.5,561.738281 L173.558594,561.777344 L173.636719,561.816406 L173.675781,561.835938 L173.773438,561.855469 L173.851562,561.894531 L173.910156,561.914062 L173.792969,561.855469 L173.734375,561.796875 L173.8125,561.816406 L173.910156,561.855469 L174.007812,561.894531 L174.066406,561.933594 L174.144531,561.972656 L174.242188,562.03125 L174.300781,562.070312 L174.359375,562.089844 L174.4375,562.148438 L174.515625,562.1875 L174.554688,562.226562 L174.632812,562.285156 L174.691406,562.34375 L174.769531,562.402344 L174.808594,562.421875 L174.90625,562.480469 L174.867188,562.441406 L174.789062,562.402344 L174.730469,562.34375 L174.652344,562.285156 L174.59375,562.226562 L174.671875,562.246094 L174.574219,562.1875 L174.632812,562.226562 L174.710938,562.265625 L174.671875,562.226562 L174.75,562.226562 L174.828125,562.226562 L174.769531,562.1875 L174.710938,562.167969 L174.632812,562.128906 L174.574219,562.070312 L174.671875,562.109375 C173.513015,561.575518 172.289069,561.308594 171,561.308594 C169.346346,561.308594 167.816413,561.744787 166.410156,562.617188 L166.351562,562.65625 L166.292969,562.695312 L166.234375,562.734375 L166.292969,562.695312 L166.273438,562.773438 L166.234375,562.792969 L166.195312,562.871094 L166.15625,562.929688 L166.117188,563.007812 L166.078125,563.046875 L166.019531,563.066406 L165.980469,563.085938 L165.921875,563.144531 L165.921875,563.203125 L165.980469,563.183594 L165.960938,563.242188 L165.921875,563.28125 L165.960938,563.242188 L165.902344,563.300781 L165.84375,563.359375 L165.785156,563.417969 L165.746094,563.496094 L165.6875,563.535156 L165.746094,563.496094 L165.785156,563.4375 L165.84375,563.398438 L165.882812,563.359375 L165.941406,563.300781 L166,563.261719 L166.039062,563.203125 L166.097656,563.203125 L166.175781,563.164062 L166.214844,563.105469 L166.175781,563.144531 L166.097656,563.144531 L166.15625,563.105469 L166.234375,563.085938 L166.273438,563.066406 L166.214844,563.144531 L166.175781,563.203125 L166.117188,563.242188 L166.136719,563.28125 L166.078125,563.359375 L166.15625,563.339844 L166.195312,563.359375 L166.175781,563.417969 L166.234375,563.339844 L166.273438,563.300781 L166.332031,563.28125 L166.3125,563.339844 L166.273438,563.398438 L166.195312,563.4375 L166.175781,563.476562 L166.136719,563.554688 L166.078125,563.59375 L166.039062,563.613281 L166.097656,563.554688 L166.136719,563.554688 L166.195312,563.515625 L166.234375,563.457031 L166.273438,563.398438 L166.332031,563.378906 L166.390625,563.359375 L166.46875,563.300781 L166.507812,563.261719 L166.546875,563.222656 L166.507812,563.242188 L166.546875,563.203125 L166.605469,563.183594 L166.644531,563.144531 L166.683594,563.046875 L166.742188,562.96875 L166.800781,562.929688 L166.859375,562.890625 L166.898438,562.851562 L166.976562,562.792969 L167.054688,562.753906 L167.015625,562.792969 L167.074219,562.734375 L167.113281,562.714844 L167.191406,562.675781 L167.113281,562.753906 L167.054688,562.832031 L166.996094,562.871094 L166.976562,562.910156 L166.917969,562.96875 L166.878906,563.007812 L166.820312,563.046875 L166.742188,563.085938 L166.742188,563.144531 L166.683594,563.203125 L166.664062,563.261719 L166.605469,563.300781 L166.546875,563.378906 L166.605469,563.320312 L166.664062,563.261719 L166.742188,563.222656 L166.703125,563.300781 L166.644531,563.378906 L166.585938,563.417969 L166.546875,563.457031 L166.46875,563.574219 L166.527344,563.554688 L166.566406,563.515625 L166.605469,563.476562 L166.683594,563.417969 L166.722656,563.378906 L166.761719,563.359375 L166.820312,563.320312 L166.878906,563.261719 L166.917969,563.203125 L166.976562,563.164062 L166.996094,563.222656 L166.996094,563.28125 L166.957031,563.339844 L166.898438,563.417969 L166.859375,563.4375 C166.820312,563.424479 166.800781,563.4375 166.800781,563.476562 L166.742188,563.515625 L166.703125,563.632812 L166.644531,563.671875 L166.585938,563.691406 L166.527344,563.730469 L166.46875,563.789062 L166.449219,563.730469 L166.507812,563.671875 L166.449219,563.671875 L166.429688,563.769531 L166.371094,563.75 L166.332031,563.789062 L166.292969,563.828125 L166.234375,563.847656 C166.208333,563.873698 166.188802,563.886719 166.175781,563.886719 L166.117188,563.886719 L166.15625,563.789062 L166.097656,563.769531 L166.097656,563.847656 L166.078125,563.925781 L166.117188,563.945312 L166.058594,564.003906 L166.019531,564.042969 L165.941406,564.101562 L165.863281,564.140625 L165.824219,564.121094 L165.765625,564.179688 L165.726562,564.101562 L165.726562,564.042969 L165.726562,564.140625 L165.667969,564.179688 L165.726562,564.160156 L165.6875,564.21875 L165.667969,564.277344 L165.609375,564.296875 L165.609375,564.21875 L165.589844,564.277344 L165.53125,564.335938 L165.453125,564.355469 L165.394531,564.394531 L165.355469,564.433594 L165.296875,564.492188 L165.257812,564.53125 L165.179688,564.589844 L165.140625,564.628906 L165.082031,564.707031 L165.023438,564.765625 L164.964844,564.84375 L164.925781,564.921875 L164.867188,565 L164.808594,565.039062 L164.886719,565 L164.925781,564.941406 L164.945312,565 L164.90625,565.039062 L164.867188,565.136719 L164.828125,565.195312 L164.75,565.273438 L164.789062,565.253906 L164.867188,565.234375 L164.886719,565.273438 L164.925781,565.351562 L164.90625,565.429688 L164.90625,565.488281 L164.945312,565.566406 L164.945312,565.644531 L165.023438,565.644531 L165.0625,565.683594 L165.023438,565.761719 L164.984375,565.839844 L164.925781,565.957031 L164.886719,565.996094 L164.867188,566.074219 L164.867188,566.152344 L164.867188,566.25 L164.828125,566.328125 L164.808594,566.367188 L164.867188,566.367188 L164.925781,566.308594 L164.925781,566.386719 L164.925781,566.328125 L164.964844,566.25 L165.023438,566.171875 L165.023438,566.113281 L165.0625,566.054688 L165.082031,565.996094 L165.101562,565.9375 L165.140625,565.859375 L165.179688,565.761719 L165.21875,565.742188 L165.277344,565.703125 L165.355469,565.664062 L165.414062,565.625 L165.472656,565.546875 L165.511719,565.488281 L165.53125,565.449219 L165.570312,565.390625 L165.589844,565.351562 L165.609375,565.273438 L165.648438,565.214844 L165.628906,565.15625 L165.648438,565.058594 L165.746094,565 L165.804688,564.960938 L165.863281,564.863281 L165.882812,564.804688 L165.921875,564.746094 L165.960938,564.6875 L166,564.648438 L166.039062,564.570312 L166.078125,564.492188 L166.136719,564.433594 L166.175781,564.453125 L166.214844,564.511719 L166.273438,564.511719 L166.332031,564.511719 L166.332031,564.589844 L166.3125,564.667969 L166.292969,564.746094 L166.371094,564.746094 L166.332031,564.804688 L166.390625,564.765625 L166.371094,564.824219 L166.3125,564.863281 L166.253906,564.941406 L166.195312,564.921875 L166.253906,564.960938 L166.234375,565.019531 L166.195312,565.078125 L166.195312,565.136719 L166.195312,565.234375 L166.15625,565.273438 L166.175781,565.234375 L166.15625,565.3125 L166.195312,565.273438 L166.253906,565.234375 L166.3125,565.195312 L166.371094,565.175781 L166.429688,565.097656 L166.46875,565.039062 L166.507812,565 L166.566406,564.921875 L166.625,564.902344 L166.585938,564.941406 L166.566406,565.019531 L166.546875,565.097656 L166.546875,565.15625 L166.507812,565.195312 L166.46875,565.234375 L166.46875,565.292969 L166.507812,565.292969 L166.449219,565.351562 L166.507812,565.351562 L166.507812,565.429688 L166.46875,565.449219 L166.507812,565.527344 L166.449219,565.585938 L166.390625,565.605469 L166.371094,565.683594 L166.410156,565.742188 L166.449219,565.800781 L166.390625,565.839844 L166.449219,565.820312 L166.488281,565.859375 L166.507812,565.917969 L166.566406,565.898438 L166.585938,565.957031 L166.507812,565.976562 L166.46875,566.015625 L166.390625,566.035156 L166.46875,566.035156 L166.410156,566.054688 L166.332031,566.074219 L166.292969,566.09375 L166.292969,566.132812 L166.351562,566.132812 L166.410156,566.09375 L166.449219,566.054688 L166.488281,566.035156 L166.546875,566.074219 L166.507812,566.132812 L166.585938,566.132812 L166.625,566.191406 L166.585938,566.25 L166.527344,566.269531 L166.566406,566.308594 L166.546875,566.386719 L166.46875,566.425781 L166.410156,566.464844 L166.351562,566.464844 L166.292969,566.484375 L166.253906,566.523438 L166.214844,566.582031 L166.15625,566.601562 L166.097656,566.640625 L166.039062,566.640625 L165.980469,566.621094 L165.921875,566.621094 L165.84375,566.621094 L165.804688,566.601562 L165.726562,566.601562 L165.6875,566.582031 L165.628906,566.621094 L165.589844,566.660156 L165.550781,566.699219 L165.53125,566.757812 L165.472656,566.757812 L165.414062,566.816406 L165.355469,566.855469 L165.277344,566.972656 L165.21875,567.011719 L165.179688,567.070312 L165.140625,567.109375 L165.082031,567.148438 L165.160156,567.109375 L165.21875,567.03125 L165.257812,567.011719 L165.316406,566.953125 L165.375,566.894531 L165.433594,566.855469 L165.511719,566.816406 L165.570312,566.796875 L165.648438,566.796875 L165.6875,566.835938 L165.6875,566.933594 L165.609375,566.953125 L165.550781,566.953125 L165.492188,566.972656 L165.550781,567.03125 L165.628906,567.011719 L165.550781,567.109375 L165.550781,567.167969 L165.550781,567.226562 L165.589844,567.304688 L165.667969,567.34375 L165.707031,567.363281 L165.765625,567.363281 L165.804688,567.421875 L165.746094,567.441406 L165.6875,567.480469 L165.609375,567.480469 L165.570312,567.519531 L165.511719,567.539062 L165.453125,567.617188 L165.394531,567.65625 L165.355469,567.636719 L165.375,567.519531 L165.414062,567.480469 L165.472656,567.441406 L165.550781,567.402344 L165.609375,567.402344 L165.550781,567.382812 L165.492188,567.402344 L165.53125,567.363281 L165.453125,567.402344 L165.414062,567.402344 L165.316406,567.402344 L165.335938,567.460938 L165.277344,567.519531 L165.238281,567.519531 L165.179688,567.539062 L165.199219,567.480469 L165.160156,567.539062 L165.082031,567.597656 L165.042969,567.636719 L165.003906,567.675781 L164.984375,567.714844 L164.964844,567.792969 L164.945312,567.851562 L164.945312,567.929688 L164.984375,567.871094 L164.964844,567.929688 L164.90625,567.949219 L164.847656,567.988281 L164.789062,567.988281 L164.691406,568.027344 L164.652344,568.066406 L164.613281,568.164062 L164.59375,568.203125 L164.554688,568.300781 L164.496094,568.320312 L164.515625,568.222656 L164.476562,568.300781 L164.476562,568.417969 L164.4375,568.476562 L164.398438,568.554688 L164.378906,568.632812 L164.398438,568.59375 L164.398438,568.496094 L164.398438,568.398438 L164.398438,568.320312 L164.4375,568.261719 L164.398438,568.339844 L164.378906,568.4375 L164.320312,568.398438 L164.359375,568.457031 L164.359375,568.535156 L164.359375,568.59375 L164.339844,568.652344 L164.359375,568.710938 L164.359375,568.769531 L164.300781,568.808594 L164.320312,568.886719 L164.339844,568.828125 L164.300781,568.925781 L164.242188,568.925781 L164.203125,569.003906 L164.144531,569.0625 L164.105469,569.101562 L164.046875,569.179688 L164.007812,569.238281 L163.96875,569.316406 L163.910156,569.355469 L163.871094,569.296875 L163.851562,569.355469 L163.8125,569.472656 L163.792969,569.589844 L163.792969,569.667969 L163.8125,569.765625 L163.832031,569.863281 L163.832031,569.960938 L163.851562,570.058594 L163.851562,570.117188 L163.851562,570.214844 L163.832031,570.273438 L163.832031,570.351562 L163.773438,570.3125 L163.734375,570.234375 L163.734375,570.175781 L163.714844,570.097656 L163.675781,570.019531 L163.695312,569.941406 L163.695312,569.785156 L163.675781,569.726562 L163.636719,569.628906 L163.597656,569.628906 L163.539062,569.648438 L163.5,569.570312 C163.5,569.557292 163.486979,569.550781 163.460938,569.550781 L163.402344,569.570312 L163.382812,569.511719 L163.34375,569.550781 L163.304688,569.589844 L163.285156,569.628906 L163.285156,569.726562 L163.285156,569.785156 L163.285156,569.726562 L163.226562,569.746094 L163.167969,569.726562 L163.167969,569.628906 L163.128906,569.6875 L163.050781,569.648438 L163.011719,569.6875 L163.011719,569.609375 L162.992188,569.667969 L162.992188,569.726562 L162.933594,569.804688 L162.875,569.84375 L162.875,569.921875 L162.855469,569.980469 L162.835938,570.058594 L162.835938,570.175781 L162.835938,570.234375 L162.855469,570.195312 L162.855469,570.253906 L162.835938,570.371094 L162.835938,570.429688 L162.835938,570.507812 L162.835938,570.625 L162.835938,570.722656 L162.835938,570.800781 L162.855469,570.9375 L162.875,570.996094 L162.894531,571.074219 L162.933594,571.132812 L162.972656,571.269531 L163.011719,571.328125 L163.070312,571.347656 L163.109375,571.289062 L163.167969,571.269531 L163.167969,571.328125 L163.207031,571.230469 L163.207031,571.132812 L163.226562,570.996094 L163.226562,570.917969 L163.304688,570.878906 L163.363281,570.859375 L163.421875,570.839844 L163.421875,570.957031 L163.382812,571.074219 L163.402344,571.152344 L163.402344,571.230469 L163.402344,571.347656 L163.382812,571.25 L163.34375,571.328125 L163.382812,571.425781 L163.382812,571.484375 L163.382812,571.5625 L163.382812,571.640625 L163.421875,571.660156 L163.480469,571.660156 L163.519531,571.601562 L163.578125,571.660156 L163.636719,571.660156 L163.675781,571.699219 L163.714844,571.738281 L163.734375,571.855469 L163.734375,571.894531 L163.734375,572.011719 L163.734375,572.109375 L163.753906,572.167969 L163.773438,572.265625 L163.773438,572.324219 L163.8125,572.382812 L163.851562,572.441406 L163.890625,572.5 L163.949219,572.519531 L164.007812,572.519531 L164.066406,572.480469 L164.105469,572.480469 L164.203125,572.539062 L164.261719,572.597656 L164.261719,572.65625 L164.28125,572.558594 L164.300781,572.480469 L164.300781,572.421875 L164.320312,572.34375 L164.339844,572.265625 L164.398438,572.304688 L164.398438,572.246094 L164.4375,572.246094 L164.496094,572.148438 L164.554688,572.089844 L164.59375,572.167969 L164.554688,572.246094 L164.574219,572.304688 L164.59375,572.363281 L164.574219,572.421875 L164.59375,572.5 L164.613281,572.421875 L164.59375,572.304688 L164.671875,572.246094 L164.652344,572.1875 L164.691406,572.128906 L164.710938,572.207031 L164.769531,572.246094 L164.828125,572.285156 L164.828125,572.34375 L164.886719,572.363281 L164.964844,572.34375 L165.023438,572.363281 L165.082031,572.402344 L165.121094,572.363281 L165.179688,572.34375 L165.238281,572.304688 L165.296875,572.324219 L165.238281,572.382812 L165.277344,572.421875 L165.335938,572.441406 L165.375,572.460938 L165.433594,572.539062 L165.414062,572.597656 L165.472656,572.578125 L165.53125,572.597656 L165.570312,572.65625 L165.609375,572.695312 L165.667969,572.773438 L165.707031,572.8125 L165.765625,572.851562 L165.824219,572.890625 L165.824219,572.949219 L165.882812,572.910156 L165.941406,572.910156 L166,572.890625 L166.058594,572.929688 L166.058594,572.988281 L166.117188,572.949219 L166.195312,572.988281 L166.273438,573.105469 L166.3125,573.164062 L166.332031,573.105469 L166.351562,573.164062 L166.371094,573.222656 L166.390625,573.28125 L166.429688,573.320312 L166.488281,573.417969 L166.527344,573.457031 L166.546875,573.515625 L166.507812,573.574219 L166.46875,573.632812 L166.429688,573.75 L166.46875,573.808594 L166.507812,573.730469 L166.546875,573.710938 L166.546875,573.652344 L166.625,573.671875 L166.683594,573.671875 L166.722656,573.75 L166.722656,573.808594 L166.644531,573.828125 L166.585938,573.847656 L166.644531,573.867188 L166.683594,573.925781 L166.683594,574.042969 L166.683594,573.964844 L166.683594,573.847656 L166.742188,573.789062 L166.761719,573.730469 L166.800781,573.710938 L166.859375,573.75 L166.917969,573.789062 L166.976562,573.789062 L167.015625,573.828125 L167.074219,573.847656 L167.113281,573.925781 L167.132812,573.984375 L167.171875,573.90625 L167.25,573.945312 L167.328125,573.945312 L167.386719,573.964844 L167.445312,573.964844 L167.503906,573.964844 L167.5625,574.003906 L167.621094,574.042969 L167.679688,574.101562 L167.738281,574.140625 L167.796875,574.199219 L167.835938,574.238281 L167.894531,574.21875 L167.972656,574.277344 L167.992188,574.335938 L168.011719,574.394531 L168.050781,574.492188 L168.070312,574.53125 L168.070312,574.609375 L168.050781,574.6875 L167.992188,574.824219 L167.953125,574.882812 L167.933594,575 L167.914062,575.058594 L167.875,575.039062 L167.855469,575.117188 L167.875,575.175781 L167.894531,575.234375 L167.953125,575.371094 L167.953125,575.449219 L167.972656,575.527344 L167.992188,575.566406 L167.972656,575.625 L168.03125,575.742188 L167.992188,575.800781 L167.992188,575.878906 L167.992188,575.9375 L168.011719,575.996094 L167.972656,576.074219 L167.914062,576.074219 L167.875,576.074219 L167.816406,576.09375 L167.777344,576.171875 L167.738281,576.210938 L167.679688,576.289062 L167.660156,576.328125 L167.679688,576.425781 L167.71875,576.503906 L167.757812,576.5625 L167.777344,576.621094 L167.796875,576.757812 L167.816406,576.835938 L167.816406,576.933594 L167.796875,576.875 L167.796875,576.816406 L167.738281,576.796875 L167.757812,576.835938 L167.777344,576.894531 L167.796875,576.972656 L167.816406,577.011719 L167.855469,577.089844 L167.855469,577.167969 L167.875,577.226562 L167.816406,577.226562 L167.757812,577.226562 L167.699219,577.207031 L167.621094,577.1875 L167.5625,577.128906 L167.601562,577.167969 L167.660156,577.226562 L167.757812,577.265625 L167.796875,577.34375 L167.875,577.382812 L167.914062,577.441406 L167.933594,577.5 L167.953125,577.558594 L167.914062,577.597656 L167.835938,577.597656 L167.855469,577.636719 L167.914062,577.695312 L167.953125,577.753906 L167.914062,577.773438 L167.855469,577.773438 L167.914062,577.8125 L167.953125,577.851562 L168.011719,577.851562 L168.070312,577.890625 L168.089844,577.96875 L168.148438,578.027344 L168.207031,578.066406 L168.265625,578.105469 L168.285156,578.183594 L168.34375,578.203125 L168.402344,578.222656 L168.460938,578.242188 L168.5,578.28125 L168.558594,578.320312 L168.617188,578.378906 L168.65625,578.417969 L168.714844,578.457031 L168.753906,578.496094 L168.8125,578.515625 C169.528649,578.710938 170.257809,578.808594 171,578.808594 L171,578.808594 Z M180.208984,566.162109 C180.736331,567.392584 181,568.688144 181,570.048828 C181,571.409512 180.736331,572.705072 180.208984,573.935547 C179.681638,575.166022 178.97201,576.227209 178.080078,577.119141 C177.188147,578.011072 176.123704,578.723956 174.886719,579.257812 C173.649733,579.791669 172.354173,580.058594 171,580.058594 C169.645827,580.058594 168.350267,579.791669 167.113281,579.257812 C165.876296,578.723956 164.811853,578.011072 163.919922,577.119141 C163.02799,576.227209 162.318362,575.166022 161.791016,573.935547 C161.263669,572.705072 161,571.409512 161,570.048828 C161,568.688144 161.263669,567.392584 161.791016,566.162109 C162.318362,564.931634 163.02799,563.870447 163.919922,562.978516 C164.811853,562.086584 165.876296,561.376956 167.113281,560.849609 C168.350267,560.322263 169.645827,560.058594 171,560.058594 C172.354173,560.058594 173.649733,560.322263 174.886719,560.849609 C176.123704,561.376956 177.188147,562.086584 178.080078,562.978516 C178.97201,563.870447 179.681638,564.931634 180.208984,566.162109 L180.208984,566.162109 Z" transform="translate(-153 -552)"/>
  </g>
</svg>
