<svg xmlns="http://www.w3.org/2000/svg" width="36" height="36" viewBox="0 0 36 36">
  <g fill="none" fill-rule="evenodd">
    <path fill="#FFFFFF" d="M90.2882843,1005.75828 C91.1476636,1004.67755 92.0298162,1003.85073 92.9347687,1003.27781 C93.8397211,1002.70489 94.8781222,1002.35333 96.0500031,1002.22312 L96.0500031,1001.53953 C96.0500031,1001.18797 96.1736997,1000.88849 96.4210968,1000.64109 C96.6684939,1000.3937 96.96797,1000.27 97.3195343,1000.27 L99.7804718,1000.27 C100.132036,1000.27 100.431512,1000.3937 100.678909,1000.64109 C100.926306,1000.88849 101.050003,1001.18797 101.050003,1001.53953 L101.050003,1004.00047 C101.050003,1004.35203 100.926306,1004.65151 100.678909,1004.89891 C100.431512,1005.1463 100.132036,1005.27 99.7804718,1005.27 L97.3195343,1005.27 C96.96797,1005.27 96.6684939,1005.1463 96.4210968,1004.89891 C96.1736997,1004.65151 96.0500031,1004.35203 96.0500031,1004.00047 L96.0500031,1003.47312 C95.0864566,1003.61635 94.2270902,1003.93862 93.4718781,1004.43992 C92.7166659,1004.94123 91.9614652,1005.66713 91.2062531,1006.61766 C89.9822886,1008.1411 89.3312534,1008.94187 89.2531281,1009.02 L95.5031281,1009.02 C95.6463579,1008.47312 95.9425789,1008.02391 96.3917999,1007.67234 C96.8410209,1007.32078 97.3520835,1007.145 97.9250031,1007.145 C98.6151107,1007.145 99.2042975,1007.38914 99.6925812,1007.87742 C100.180865,1008.36571 100.425003,1008.95489 100.425003,1009.645 C100.425003,1010.33511 100.180865,1010.92429 99.6925812,1011.41258 C99.2042975,1011.90086 98.6151107,1012.145 97.9250031,1012.145 C97.3520835,1012.145 96.8410209,1011.96922 96.3917999,1011.61766 C95.9425789,1011.26609 95.6463579,1010.81688 95.5031281,1010.27 L87.0460968,1010.27 C87.0591177,1010.28302 87.2251317,1010.44578 87.5441437,1010.75828 C87.8631557,1011.07078 88.1951836,1011.38653 88.5402374,1011.70555 C88.8852912,1012.02456 89.2563813,1012.3631 89.6535187,1012.72117 C90.0506561,1013.07925 90.4087254,1013.37547 90.7277374,1013.60984 C91.0467494,1013.84422 91.2713566,1013.97443 91.4015656,1014.00047 C91.6229208,1013.62286 91.922397,1013.32339 92.3000031,1013.10203 C92.6776091,1012.88068 93.0942716,1012.77 93.5500031,1012.77 C94.2401107,1012.77 94.8292975,1013.01414 95.3175812,1013.50242 C95.8058649,1013.99071 96.0500031,1014.57989 96.0500031,1015.27 C96.0500031,1015.96011 95.8058649,1016.54929 95.3175812,1017.03758 C94.8292975,1017.52586 94.2401107,1017.77 93.5500031,1017.77 C92.8598954,1017.77 92.2707086,1017.52586 91.7824249,1017.03758 C91.2941412,1016.54929 91.0500031,1015.96011 91.0500031,1015.27 C90.7635433,1015.21792 90.1450599,1014.77521 89.1945343,1013.94187 C88.2440087,1013.10854 87.3651113,1012.28823 86.5578156,1011.48094 L85.3468781,1010.27 L84.0187531,1010.25047 C83.7843769,1010.68016 83.4197972,1010.895 82.9250031,1010.895 C82.5734388,1010.895 82.2772178,1010.77456 82.0363312,1010.53367 C81.7954446,1010.29279 81.6750031,1009.99656 81.6750031,1009.645 C81.6750031,1009.29344 81.7954446,1008.99721 82.0363312,1008.75633 C82.2772178,1008.51544 82.5734388,1008.395 82.9250031,1008.395 C83.4197972,1008.395 83.7843769,1008.60984 84.0187531,1009.03953 L86.9679718,1009.02 C87.5539122,1008.90281 88.2049474,1008.395 88.9210968,1007.49656 C88.9862013,1007.41844 89.129429,1007.2394 89.3507843,1006.95945 C89.5721396,1006.6795 89.7804708,1006.40932 89.9757843,1006.14891 C90.1710978,1005.88849 90.2752634,1005.75828 90.2882843,1005.75828 L90.2882843,1005.75828 Z M92.6613312,1014.38133 C92.4204446,1014.62221 92.3000031,1014.91844 92.3000031,1015.27 C92.3000031,1015.62156 92.4204446,1015.91779 92.6613312,1016.15867 C92.9022178,1016.39956 93.1984388,1016.52 93.5500031,1016.52 C93.9015673,1016.52 94.1977883,1016.39956 94.4386749,1016.15867 C94.6795615,1015.91779 94.8000031,1015.62156 94.8000031,1015.27 C94.8000031,1014.91844 94.6795615,1014.62221 94.4386749,1014.38133 C94.1977883,1014.14044 93.9015673,1014.02 93.5500031,1014.02 C93.1984388,1014.02 92.9022178,1014.14044 92.6613312,1014.38133 L92.6613312,1014.38133 Z M99.7804718,1001.52 L97.3195343,1001.52 C97.3065134,1001.52 97.3000031,1001.52651 97.3000031,1001.53953 L97.3000031,1004.00047 C97.3000031,1004.01349 97.3065134,1004.02 97.3195343,1004.02 L99.7804718,1004.02 C99.7934927,1004.02 99.8000031,1004.01349 99.8000031,1004.00047 L99.8000031,1001.53953 C99.8000031,1001.52651 99.7934927,1001.52 99.7804718,1001.52 L99.7804718,1001.52 Z" transform="translate(-73 -992)"/>
  </g>
</svg>
