<svg xmlns="http://www.w3.org/2000/svg" width="36" height="36" viewBox="0 0 36 36">
  <g fill="none" fill-rule="evenodd">
    <path fill="#FFFFFF" d="M181,892.5 L181,896.25 C181,896.588543 180.876303,896.881509 180.628906,897.128906 C180.381509,897.376303 180.088543,897.5 179.75,897.5 L162.25,897.5 C161.911457,897.5 161.618491,897.376303 161.371094,897.128906 C161.123697,896.881509 161,896.588543 161,896.25 L161,892.5 L164.75,882.5 L177.25,882.5 L181,892.5 Z M168.5,892.5 L168.5,893.75 C168.5,894.062502 168.630207,894.348957 168.890625,894.609375 C169.151043,894.869793 169.437498,895 169.75,895 L172.25,895 C172.562502,895 172.848957,894.869793 173.109375,894.609375 C173.369793,894.348957 173.5,894.062502 173.5,893.75 L173.5,892.5 L178.5,892.5 L176,883.75 L166,883.75 L163.5,892.5 L168.5,892.5 Z M167.25,887.5 L167.25,885 L174.75,885 L174.75,887.5 L173.5,887.5 L173.5,886.25 L168.5,886.25 L168.5,887.5 L167.25,887.5 Z M167.25,890 L167.25,891.25 L166,891.25 L166,888.75 L176,888.75 L176,891.25 L174.75,891.25 L174.75,890 L167.25,890 Z" transform="translate(-153 -872)"/>
  </g>
</svg>
