<svg xmlns="http://www.w3.org/2000/svg" width="36" height="36" viewBox="0 0 36 36">
  <g fill="none" fill-rule="evenodd">
    <path fill="#FFFFFF" d="M221,892.5 L221,896.25 C221,896.588543 220.876303,896.881509 220.628906,897.128906 C220.381509,897.376303 220.088543,897.5 219.75,897.5 L202.25,897.5 C201.911457,897.5 201.618491,897.376303 201.371094,897.128906 C201.123697,896.881509 201,896.588543 201,896.25 L201,892.5 L204.75,882.5 L217.25,882.5 L221,892.5 Z M208.5,892.5 L208.5,893.75 C208.5,894.062502 208.630207,894.348957 208.890625,894.609375 C209.151043,894.869793 209.437498,895 209.75,895 L212.25,895 C212.562502,895 212.848957,894.869793 213.109375,894.609375 C213.369793,894.348957 213.5,894.062502 213.5,893.75 L213.5,892.5 L218.5,892.5 L216,883.75 L206,883.75 L203.5,892.5 L208.5,892.5 Z" transform="translate(-193 -872)"/>
  </g>
</svg>
